G04 #@! TF.GenerationSoftware,KiCad,Pcbnew,(5.1.4)-1*
G04 #@! TF.CreationDate,2020-01-22T17:25:58-05:00*
G04 #@! TF.ProjectId,Feather-SAM-M8Q-GPS,46656174-6865-4722-9d53-414d2d4d3851,rev?*
G04 #@! TF.SameCoordinates,Original*
G04 #@! TF.FileFunction,Paste,Top*
G04 #@! TF.FilePolarity,Positive*
%FSLAX46Y46*%
G04 Gerber Fmt 4.6, Leading zero omitted, Abs format (unit mm)*
G04 Created by KiCad (PCBNEW (5.1.4)-1) date 2020-01-22 17:25:58*
%MOMM*%
%LPD*%
G04 APERTURE LIST*
%ADD10C,0.100000*%
%ADD11C,0.975000*%
%ADD12R,0.580000X0.720000*%
%ADD13R,0.720000X0.580000*%
%ADD14R,0.800000X2.000000*%
G04 APERTURE END LIST*
D10*
G36*
X95506622Y-69406614D02*
G01*
X95530283Y-69410124D01*
X95553487Y-69415936D01*
X95576009Y-69423994D01*
X95597633Y-69434222D01*
X95618150Y-69446519D01*
X95637363Y-69460769D01*
X95655087Y-69476833D01*
X95671151Y-69494557D01*
X95685401Y-69513770D01*
X95697698Y-69534287D01*
X95707926Y-69555911D01*
X95715984Y-69578433D01*
X95721796Y-69601637D01*
X95725306Y-69625298D01*
X95726480Y-69649190D01*
X95726480Y-70136690D01*
X95725306Y-70160582D01*
X95721796Y-70184243D01*
X95715984Y-70207447D01*
X95707926Y-70229969D01*
X95697698Y-70251593D01*
X95685401Y-70272110D01*
X95671151Y-70291323D01*
X95655087Y-70309047D01*
X95637363Y-70325111D01*
X95618150Y-70339361D01*
X95597633Y-70351658D01*
X95576009Y-70361886D01*
X95553487Y-70369944D01*
X95530283Y-70375756D01*
X95506622Y-70379266D01*
X95482730Y-70380440D01*
X94570230Y-70380440D01*
X94546338Y-70379266D01*
X94522677Y-70375756D01*
X94499473Y-70369944D01*
X94476951Y-70361886D01*
X94455327Y-70351658D01*
X94434810Y-70339361D01*
X94415597Y-70325111D01*
X94397873Y-70309047D01*
X94381809Y-70291323D01*
X94367559Y-70272110D01*
X94355262Y-70251593D01*
X94345034Y-70229969D01*
X94336976Y-70207447D01*
X94331164Y-70184243D01*
X94327654Y-70160582D01*
X94326480Y-70136690D01*
X94326480Y-69649190D01*
X94327654Y-69625298D01*
X94331164Y-69601637D01*
X94336976Y-69578433D01*
X94345034Y-69555911D01*
X94355262Y-69534287D01*
X94367559Y-69513770D01*
X94381809Y-69494557D01*
X94397873Y-69476833D01*
X94415597Y-69460769D01*
X94434810Y-69446519D01*
X94455327Y-69434222D01*
X94476951Y-69423994D01*
X94499473Y-69415936D01*
X94522677Y-69410124D01*
X94546338Y-69406614D01*
X94570230Y-69405440D01*
X95482730Y-69405440D01*
X95506622Y-69406614D01*
X95506622Y-69406614D01*
G37*
D11*
X95026480Y-69892940D03*
D10*
G36*
X95506622Y-71281614D02*
G01*
X95530283Y-71285124D01*
X95553487Y-71290936D01*
X95576009Y-71298994D01*
X95597633Y-71309222D01*
X95618150Y-71321519D01*
X95637363Y-71335769D01*
X95655087Y-71351833D01*
X95671151Y-71369557D01*
X95685401Y-71388770D01*
X95697698Y-71409287D01*
X95707926Y-71430911D01*
X95715984Y-71453433D01*
X95721796Y-71476637D01*
X95725306Y-71500298D01*
X95726480Y-71524190D01*
X95726480Y-72011690D01*
X95725306Y-72035582D01*
X95721796Y-72059243D01*
X95715984Y-72082447D01*
X95707926Y-72104969D01*
X95697698Y-72126593D01*
X95685401Y-72147110D01*
X95671151Y-72166323D01*
X95655087Y-72184047D01*
X95637363Y-72200111D01*
X95618150Y-72214361D01*
X95597633Y-72226658D01*
X95576009Y-72236886D01*
X95553487Y-72244944D01*
X95530283Y-72250756D01*
X95506622Y-72254266D01*
X95482730Y-72255440D01*
X94570230Y-72255440D01*
X94546338Y-72254266D01*
X94522677Y-72250756D01*
X94499473Y-72244944D01*
X94476951Y-72236886D01*
X94455327Y-72226658D01*
X94434810Y-72214361D01*
X94415597Y-72200111D01*
X94397873Y-72184047D01*
X94381809Y-72166323D01*
X94367559Y-72147110D01*
X94355262Y-72126593D01*
X94345034Y-72104969D01*
X94336976Y-72082447D01*
X94331164Y-72059243D01*
X94327654Y-72035582D01*
X94326480Y-72011690D01*
X94326480Y-71524190D01*
X94327654Y-71500298D01*
X94331164Y-71476637D01*
X94336976Y-71453433D01*
X94345034Y-71430911D01*
X94355262Y-71409287D01*
X94367559Y-71388770D01*
X94381809Y-71369557D01*
X94397873Y-71351833D01*
X94415597Y-71335769D01*
X94434810Y-71321519D01*
X94455327Y-71309222D01*
X94476951Y-71298994D01*
X94499473Y-71290936D01*
X94522677Y-71285124D01*
X94546338Y-71281614D01*
X94570230Y-71280440D01*
X95482730Y-71280440D01*
X95506622Y-71281614D01*
X95506622Y-71281614D01*
G37*
D11*
X95026480Y-71767940D03*
D12*
X108876120Y-73582720D03*
X109726120Y-73582720D03*
X108876120Y-74582720D03*
X109726120Y-74582720D03*
X110776120Y-73582720D03*
X111626120Y-73582720D03*
X110776120Y-74582720D03*
X111626120Y-74582720D03*
X112676120Y-73582720D03*
X113526120Y-73582720D03*
X112676120Y-74582720D03*
X113526120Y-74582720D03*
X115426120Y-73582720D03*
X114576120Y-73582720D03*
X115426120Y-74582720D03*
X114576120Y-74582720D03*
X116476120Y-73582720D03*
X117326120Y-73582720D03*
X116476120Y-74582720D03*
X117326120Y-74582720D03*
X108876120Y-61382720D03*
X111626120Y-61382720D03*
X108876120Y-60382720D03*
X111626120Y-60382720D03*
X110776120Y-61382720D03*
X109726120Y-61382720D03*
X110776120Y-60382720D03*
X109726120Y-60382720D03*
X112676120Y-61382720D03*
X113526120Y-61382720D03*
X112676120Y-60382720D03*
X113526120Y-60382720D03*
X114576120Y-61382720D03*
X115426120Y-61382720D03*
X114576120Y-60382720D03*
X115426120Y-60382720D03*
X116476120Y-61382720D03*
X117326120Y-61382720D03*
X116476120Y-60382720D03*
X117326120Y-60382720D03*
D13*
X106001120Y-63257720D03*
X106001120Y-64107720D03*
X107001120Y-63257720D03*
X107001120Y-64107720D03*
X106001120Y-65157720D03*
X107001120Y-65157720D03*
X106001120Y-66007720D03*
X107001120Y-66007720D03*
X106001120Y-67057720D03*
X107001120Y-67057720D03*
X106001120Y-67907720D03*
X107001120Y-67907720D03*
X106001120Y-68957720D03*
X107001120Y-68957720D03*
X106001120Y-69807720D03*
X107001120Y-69807720D03*
X106001120Y-70857720D03*
X107001120Y-70857720D03*
X106001120Y-71707720D03*
X107001120Y-71707720D03*
X119201120Y-63257720D03*
X120201120Y-63257720D03*
X119201120Y-64107720D03*
X120201120Y-64107720D03*
X119201120Y-65157720D03*
X120201120Y-65157720D03*
X119201120Y-66007720D03*
X120201120Y-66007720D03*
X119201120Y-67057720D03*
X120201120Y-67057720D03*
X119201120Y-67907720D03*
X120201120Y-67907720D03*
X119201120Y-68957720D03*
X120201120Y-68957720D03*
X119201120Y-69807720D03*
X120201120Y-69807720D03*
X119201120Y-70857720D03*
X120201120Y-70857720D03*
X119201120Y-71707720D03*
X120201120Y-71707720D03*
D10*
G36*
X94971782Y-74627414D02*
G01*
X94995443Y-74630924D01*
X95018647Y-74636736D01*
X95041169Y-74644794D01*
X95062793Y-74655022D01*
X95083310Y-74667319D01*
X95102523Y-74681569D01*
X95120247Y-74697633D01*
X95136311Y-74715357D01*
X95150561Y-74734570D01*
X95162858Y-74755087D01*
X95173086Y-74776711D01*
X95181144Y-74799233D01*
X95186956Y-74822437D01*
X95190466Y-74846098D01*
X95191640Y-74869990D01*
X95191640Y-75782490D01*
X95190466Y-75806382D01*
X95186956Y-75830043D01*
X95181144Y-75853247D01*
X95173086Y-75875769D01*
X95162858Y-75897393D01*
X95150561Y-75917910D01*
X95136311Y-75937123D01*
X95120247Y-75954847D01*
X95102523Y-75970911D01*
X95083310Y-75985161D01*
X95062793Y-75997458D01*
X95041169Y-76007686D01*
X95018647Y-76015744D01*
X94995443Y-76021556D01*
X94971782Y-76025066D01*
X94947890Y-76026240D01*
X94460390Y-76026240D01*
X94436498Y-76025066D01*
X94412837Y-76021556D01*
X94389633Y-76015744D01*
X94367111Y-76007686D01*
X94345487Y-75997458D01*
X94324970Y-75985161D01*
X94305757Y-75970911D01*
X94288033Y-75954847D01*
X94271969Y-75937123D01*
X94257719Y-75917910D01*
X94245422Y-75897393D01*
X94235194Y-75875769D01*
X94227136Y-75853247D01*
X94221324Y-75830043D01*
X94217814Y-75806382D01*
X94216640Y-75782490D01*
X94216640Y-74869990D01*
X94217814Y-74846098D01*
X94221324Y-74822437D01*
X94227136Y-74799233D01*
X94235194Y-74776711D01*
X94245422Y-74755087D01*
X94257719Y-74734570D01*
X94271969Y-74715357D01*
X94288033Y-74697633D01*
X94305757Y-74681569D01*
X94324970Y-74667319D01*
X94345487Y-74655022D01*
X94367111Y-74644794D01*
X94389633Y-74636736D01*
X94412837Y-74630924D01*
X94436498Y-74627414D01*
X94460390Y-74626240D01*
X94947890Y-74626240D01*
X94971782Y-74627414D01*
X94971782Y-74627414D01*
G37*
D11*
X94704140Y-75326240D03*
D10*
G36*
X93096782Y-74627414D02*
G01*
X93120443Y-74630924D01*
X93143647Y-74636736D01*
X93166169Y-74644794D01*
X93187793Y-74655022D01*
X93208310Y-74667319D01*
X93227523Y-74681569D01*
X93245247Y-74697633D01*
X93261311Y-74715357D01*
X93275561Y-74734570D01*
X93287858Y-74755087D01*
X93298086Y-74776711D01*
X93306144Y-74799233D01*
X93311956Y-74822437D01*
X93315466Y-74846098D01*
X93316640Y-74869990D01*
X93316640Y-75782490D01*
X93315466Y-75806382D01*
X93311956Y-75830043D01*
X93306144Y-75853247D01*
X93298086Y-75875769D01*
X93287858Y-75897393D01*
X93275561Y-75917910D01*
X93261311Y-75937123D01*
X93245247Y-75954847D01*
X93227523Y-75970911D01*
X93208310Y-75985161D01*
X93187793Y-75997458D01*
X93166169Y-76007686D01*
X93143647Y-76015744D01*
X93120443Y-76021556D01*
X93096782Y-76025066D01*
X93072890Y-76026240D01*
X92585390Y-76026240D01*
X92561498Y-76025066D01*
X92537837Y-76021556D01*
X92514633Y-76015744D01*
X92492111Y-76007686D01*
X92470487Y-75997458D01*
X92449970Y-75985161D01*
X92430757Y-75970911D01*
X92413033Y-75954847D01*
X92396969Y-75937123D01*
X92382719Y-75917910D01*
X92370422Y-75897393D01*
X92360194Y-75875769D01*
X92352136Y-75853247D01*
X92346324Y-75830043D01*
X92342814Y-75806382D01*
X92341640Y-75782490D01*
X92341640Y-74869990D01*
X92342814Y-74846098D01*
X92346324Y-74822437D01*
X92352136Y-74799233D01*
X92360194Y-74776711D01*
X92370422Y-74755087D01*
X92382719Y-74734570D01*
X92396969Y-74715357D01*
X92413033Y-74697633D01*
X92430757Y-74681569D01*
X92449970Y-74667319D01*
X92470487Y-74655022D01*
X92492111Y-74644794D01*
X92514633Y-74636736D01*
X92537837Y-74630924D01*
X92561498Y-74627414D01*
X92585390Y-74626240D01*
X93072890Y-74626240D01*
X93096782Y-74627414D01*
X93096782Y-74627414D01*
G37*
D11*
X92829140Y-75326240D03*
D10*
G36*
X133230702Y-66343374D02*
G01*
X133254363Y-66346884D01*
X133277567Y-66352696D01*
X133300089Y-66360754D01*
X133321713Y-66370982D01*
X133342230Y-66383279D01*
X133361443Y-66397529D01*
X133379167Y-66413593D01*
X133395231Y-66431317D01*
X133409481Y-66450530D01*
X133421778Y-66471047D01*
X133432006Y-66492671D01*
X133440064Y-66515193D01*
X133445876Y-66538397D01*
X133449386Y-66562058D01*
X133450560Y-66585950D01*
X133450560Y-67073450D01*
X133449386Y-67097342D01*
X133445876Y-67121003D01*
X133440064Y-67144207D01*
X133432006Y-67166729D01*
X133421778Y-67188353D01*
X133409481Y-67208870D01*
X133395231Y-67228083D01*
X133379167Y-67245807D01*
X133361443Y-67261871D01*
X133342230Y-67276121D01*
X133321713Y-67288418D01*
X133300089Y-67298646D01*
X133277567Y-67306704D01*
X133254363Y-67312516D01*
X133230702Y-67316026D01*
X133206810Y-67317200D01*
X132294310Y-67317200D01*
X132270418Y-67316026D01*
X132246757Y-67312516D01*
X132223553Y-67306704D01*
X132201031Y-67298646D01*
X132179407Y-67288418D01*
X132158890Y-67276121D01*
X132139677Y-67261871D01*
X132121953Y-67245807D01*
X132105889Y-67228083D01*
X132091639Y-67208870D01*
X132079342Y-67188353D01*
X132069114Y-67166729D01*
X132061056Y-67144207D01*
X132055244Y-67121003D01*
X132051734Y-67097342D01*
X132050560Y-67073450D01*
X132050560Y-66585950D01*
X132051734Y-66562058D01*
X132055244Y-66538397D01*
X132061056Y-66515193D01*
X132069114Y-66492671D01*
X132079342Y-66471047D01*
X132091639Y-66450530D01*
X132105889Y-66431317D01*
X132121953Y-66413593D01*
X132139677Y-66397529D01*
X132158890Y-66383279D01*
X132179407Y-66370982D01*
X132201031Y-66360754D01*
X132223553Y-66352696D01*
X132246757Y-66346884D01*
X132270418Y-66343374D01*
X132294310Y-66342200D01*
X133206810Y-66342200D01*
X133230702Y-66343374D01*
X133230702Y-66343374D01*
G37*
D11*
X132750560Y-66829700D03*
D10*
G36*
X133230702Y-68218374D02*
G01*
X133254363Y-68221884D01*
X133277567Y-68227696D01*
X133300089Y-68235754D01*
X133321713Y-68245982D01*
X133342230Y-68258279D01*
X133361443Y-68272529D01*
X133379167Y-68288593D01*
X133395231Y-68306317D01*
X133409481Y-68325530D01*
X133421778Y-68346047D01*
X133432006Y-68367671D01*
X133440064Y-68390193D01*
X133445876Y-68413397D01*
X133449386Y-68437058D01*
X133450560Y-68460950D01*
X133450560Y-68948450D01*
X133449386Y-68972342D01*
X133445876Y-68996003D01*
X133440064Y-69019207D01*
X133432006Y-69041729D01*
X133421778Y-69063353D01*
X133409481Y-69083870D01*
X133395231Y-69103083D01*
X133379167Y-69120807D01*
X133361443Y-69136871D01*
X133342230Y-69151121D01*
X133321713Y-69163418D01*
X133300089Y-69173646D01*
X133277567Y-69181704D01*
X133254363Y-69187516D01*
X133230702Y-69191026D01*
X133206810Y-69192200D01*
X132294310Y-69192200D01*
X132270418Y-69191026D01*
X132246757Y-69187516D01*
X132223553Y-69181704D01*
X132201031Y-69173646D01*
X132179407Y-69163418D01*
X132158890Y-69151121D01*
X132139677Y-69136871D01*
X132121953Y-69120807D01*
X132105889Y-69103083D01*
X132091639Y-69083870D01*
X132079342Y-69063353D01*
X132069114Y-69041729D01*
X132061056Y-69019207D01*
X132055244Y-68996003D01*
X132051734Y-68972342D01*
X132050560Y-68948450D01*
X132050560Y-68460950D01*
X132051734Y-68437058D01*
X132055244Y-68413397D01*
X132061056Y-68390193D01*
X132069114Y-68367671D01*
X132079342Y-68346047D01*
X132091639Y-68325530D01*
X132105889Y-68306317D01*
X132121953Y-68288593D01*
X132139677Y-68272529D01*
X132158890Y-68258279D01*
X132179407Y-68245982D01*
X132201031Y-68235754D01*
X132223553Y-68227696D01*
X132246757Y-68221884D01*
X132270418Y-68218374D01*
X132294310Y-68217200D01*
X133206810Y-68217200D01*
X133230702Y-68218374D01*
X133230702Y-68218374D01*
G37*
D11*
X132750560Y-68704700D03*
D10*
G36*
X135389702Y-66328134D02*
G01*
X135413363Y-66331644D01*
X135436567Y-66337456D01*
X135459089Y-66345514D01*
X135480713Y-66355742D01*
X135501230Y-66368039D01*
X135520443Y-66382289D01*
X135538167Y-66398353D01*
X135554231Y-66416077D01*
X135568481Y-66435290D01*
X135580778Y-66455807D01*
X135591006Y-66477431D01*
X135599064Y-66499953D01*
X135604876Y-66523157D01*
X135608386Y-66546818D01*
X135609560Y-66570710D01*
X135609560Y-67058210D01*
X135608386Y-67082102D01*
X135604876Y-67105763D01*
X135599064Y-67128967D01*
X135591006Y-67151489D01*
X135580778Y-67173113D01*
X135568481Y-67193630D01*
X135554231Y-67212843D01*
X135538167Y-67230567D01*
X135520443Y-67246631D01*
X135501230Y-67260881D01*
X135480713Y-67273178D01*
X135459089Y-67283406D01*
X135436567Y-67291464D01*
X135413363Y-67297276D01*
X135389702Y-67300786D01*
X135365810Y-67301960D01*
X134453310Y-67301960D01*
X134429418Y-67300786D01*
X134405757Y-67297276D01*
X134382553Y-67291464D01*
X134360031Y-67283406D01*
X134338407Y-67273178D01*
X134317890Y-67260881D01*
X134298677Y-67246631D01*
X134280953Y-67230567D01*
X134264889Y-67212843D01*
X134250639Y-67193630D01*
X134238342Y-67173113D01*
X134228114Y-67151489D01*
X134220056Y-67128967D01*
X134214244Y-67105763D01*
X134210734Y-67082102D01*
X134209560Y-67058210D01*
X134209560Y-66570710D01*
X134210734Y-66546818D01*
X134214244Y-66523157D01*
X134220056Y-66499953D01*
X134228114Y-66477431D01*
X134238342Y-66455807D01*
X134250639Y-66435290D01*
X134264889Y-66416077D01*
X134280953Y-66398353D01*
X134298677Y-66382289D01*
X134317890Y-66368039D01*
X134338407Y-66355742D01*
X134360031Y-66345514D01*
X134382553Y-66337456D01*
X134405757Y-66331644D01*
X134429418Y-66328134D01*
X134453310Y-66326960D01*
X135365810Y-66326960D01*
X135389702Y-66328134D01*
X135389702Y-66328134D01*
G37*
D11*
X134909560Y-66814460D03*
D10*
G36*
X135389702Y-68203134D02*
G01*
X135413363Y-68206644D01*
X135436567Y-68212456D01*
X135459089Y-68220514D01*
X135480713Y-68230742D01*
X135501230Y-68243039D01*
X135520443Y-68257289D01*
X135538167Y-68273353D01*
X135554231Y-68291077D01*
X135568481Y-68310290D01*
X135580778Y-68330807D01*
X135591006Y-68352431D01*
X135599064Y-68374953D01*
X135604876Y-68398157D01*
X135608386Y-68421818D01*
X135609560Y-68445710D01*
X135609560Y-68933210D01*
X135608386Y-68957102D01*
X135604876Y-68980763D01*
X135599064Y-69003967D01*
X135591006Y-69026489D01*
X135580778Y-69048113D01*
X135568481Y-69068630D01*
X135554231Y-69087843D01*
X135538167Y-69105567D01*
X135520443Y-69121631D01*
X135501230Y-69135881D01*
X135480713Y-69148178D01*
X135459089Y-69158406D01*
X135436567Y-69166464D01*
X135413363Y-69172276D01*
X135389702Y-69175786D01*
X135365810Y-69176960D01*
X134453310Y-69176960D01*
X134429418Y-69175786D01*
X134405757Y-69172276D01*
X134382553Y-69166464D01*
X134360031Y-69158406D01*
X134338407Y-69148178D01*
X134317890Y-69135881D01*
X134298677Y-69121631D01*
X134280953Y-69105567D01*
X134264889Y-69087843D01*
X134250639Y-69068630D01*
X134238342Y-69048113D01*
X134228114Y-69026489D01*
X134220056Y-69003967D01*
X134214244Y-68980763D01*
X134210734Y-68957102D01*
X134209560Y-68933210D01*
X134209560Y-68445710D01*
X134210734Y-68421818D01*
X134214244Y-68398157D01*
X134220056Y-68374953D01*
X134228114Y-68352431D01*
X134238342Y-68330807D01*
X134250639Y-68310290D01*
X134264889Y-68291077D01*
X134280953Y-68273353D01*
X134298677Y-68257289D01*
X134317890Y-68243039D01*
X134338407Y-68230742D01*
X134360031Y-68220514D01*
X134382553Y-68212456D01*
X134405757Y-68206644D01*
X134429418Y-68203134D01*
X134453310Y-68201960D01*
X135365810Y-68201960D01*
X135389702Y-68203134D01*
X135389702Y-68203134D01*
G37*
D11*
X134909560Y-68689460D03*
D10*
G36*
X98446502Y-59872554D02*
G01*
X98470163Y-59876064D01*
X98493367Y-59881876D01*
X98515889Y-59889934D01*
X98537513Y-59900162D01*
X98558030Y-59912459D01*
X98577243Y-59926709D01*
X98594967Y-59942773D01*
X98611031Y-59960497D01*
X98625281Y-59979710D01*
X98637578Y-60000227D01*
X98647806Y-60021851D01*
X98655864Y-60044373D01*
X98661676Y-60067577D01*
X98665186Y-60091238D01*
X98666360Y-60115130D01*
X98666360Y-61027630D01*
X98665186Y-61051522D01*
X98661676Y-61075183D01*
X98655864Y-61098387D01*
X98647806Y-61120909D01*
X98637578Y-61142533D01*
X98625281Y-61163050D01*
X98611031Y-61182263D01*
X98594967Y-61199987D01*
X98577243Y-61216051D01*
X98558030Y-61230301D01*
X98537513Y-61242598D01*
X98515889Y-61252826D01*
X98493367Y-61260884D01*
X98470163Y-61266696D01*
X98446502Y-61270206D01*
X98422610Y-61271380D01*
X97935110Y-61271380D01*
X97911218Y-61270206D01*
X97887557Y-61266696D01*
X97864353Y-61260884D01*
X97841831Y-61252826D01*
X97820207Y-61242598D01*
X97799690Y-61230301D01*
X97780477Y-61216051D01*
X97762753Y-61199987D01*
X97746689Y-61182263D01*
X97732439Y-61163050D01*
X97720142Y-61142533D01*
X97709914Y-61120909D01*
X97701856Y-61098387D01*
X97696044Y-61075183D01*
X97692534Y-61051522D01*
X97691360Y-61027630D01*
X97691360Y-60115130D01*
X97692534Y-60091238D01*
X97696044Y-60067577D01*
X97701856Y-60044373D01*
X97709914Y-60021851D01*
X97720142Y-60000227D01*
X97732439Y-59979710D01*
X97746689Y-59960497D01*
X97762753Y-59942773D01*
X97780477Y-59926709D01*
X97799690Y-59912459D01*
X97820207Y-59900162D01*
X97841831Y-59889934D01*
X97864353Y-59881876D01*
X97887557Y-59876064D01*
X97911218Y-59872554D01*
X97935110Y-59871380D01*
X98422610Y-59871380D01*
X98446502Y-59872554D01*
X98446502Y-59872554D01*
G37*
D11*
X98178860Y-60571380D03*
D10*
G36*
X96571502Y-59872554D02*
G01*
X96595163Y-59876064D01*
X96618367Y-59881876D01*
X96640889Y-59889934D01*
X96662513Y-59900162D01*
X96683030Y-59912459D01*
X96702243Y-59926709D01*
X96719967Y-59942773D01*
X96736031Y-59960497D01*
X96750281Y-59979710D01*
X96762578Y-60000227D01*
X96772806Y-60021851D01*
X96780864Y-60044373D01*
X96786676Y-60067577D01*
X96790186Y-60091238D01*
X96791360Y-60115130D01*
X96791360Y-61027630D01*
X96790186Y-61051522D01*
X96786676Y-61075183D01*
X96780864Y-61098387D01*
X96772806Y-61120909D01*
X96762578Y-61142533D01*
X96750281Y-61163050D01*
X96736031Y-61182263D01*
X96719967Y-61199987D01*
X96702243Y-61216051D01*
X96683030Y-61230301D01*
X96662513Y-61242598D01*
X96640889Y-61252826D01*
X96618367Y-61260884D01*
X96595163Y-61266696D01*
X96571502Y-61270206D01*
X96547610Y-61271380D01*
X96060110Y-61271380D01*
X96036218Y-61270206D01*
X96012557Y-61266696D01*
X95989353Y-61260884D01*
X95966831Y-61252826D01*
X95945207Y-61242598D01*
X95924690Y-61230301D01*
X95905477Y-61216051D01*
X95887753Y-61199987D01*
X95871689Y-61182263D01*
X95857439Y-61163050D01*
X95845142Y-61142533D01*
X95834914Y-61120909D01*
X95826856Y-61098387D01*
X95821044Y-61075183D01*
X95817534Y-61051522D01*
X95816360Y-61027630D01*
X95816360Y-60115130D01*
X95817534Y-60091238D01*
X95821044Y-60067577D01*
X95826856Y-60044373D01*
X95834914Y-60021851D01*
X95845142Y-60000227D01*
X95857439Y-59979710D01*
X95871689Y-59960497D01*
X95887753Y-59942773D01*
X95905477Y-59926709D01*
X95924690Y-59912459D01*
X95945207Y-59900162D01*
X95966831Y-59889934D01*
X95989353Y-59881876D01*
X96012557Y-59876064D01*
X96036218Y-59872554D01*
X96060110Y-59871380D01*
X96547610Y-59871380D01*
X96571502Y-59872554D01*
X96571502Y-59872554D01*
G37*
D11*
X96303860Y-60571380D03*
D10*
G36*
X98479522Y-57566234D02*
G01*
X98503183Y-57569744D01*
X98526387Y-57575556D01*
X98548909Y-57583614D01*
X98570533Y-57593842D01*
X98591050Y-57606139D01*
X98610263Y-57620389D01*
X98627987Y-57636453D01*
X98644051Y-57654177D01*
X98658301Y-57673390D01*
X98670598Y-57693907D01*
X98680826Y-57715531D01*
X98688884Y-57738053D01*
X98694696Y-57761257D01*
X98698206Y-57784918D01*
X98699380Y-57808810D01*
X98699380Y-58721310D01*
X98698206Y-58745202D01*
X98694696Y-58768863D01*
X98688884Y-58792067D01*
X98680826Y-58814589D01*
X98670598Y-58836213D01*
X98658301Y-58856730D01*
X98644051Y-58875943D01*
X98627987Y-58893667D01*
X98610263Y-58909731D01*
X98591050Y-58923981D01*
X98570533Y-58936278D01*
X98548909Y-58946506D01*
X98526387Y-58954564D01*
X98503183Y-58960376D01*
X98479522Y-58963886D01*
X98455630Y-58965060D01*
X97968130Y-58965060D01*
X97944238Y-58963886D01*
X97920577Y-58960376D01*
X97897373Y-58954564D01*
X97874851Y-58946506D01*
X97853227Y-58936278D01*
X97832710Y-58923981D01*
X97813497Y-58909731D01*
X97795773Y-58893667D01*
X97779709Y-58875943D01*
X97765459Y-58856730D01*
X97753162Y-58836213D01*
X97742934Y-58814589D01*
X97734876Y-58792067D01*
X97729064Y-58768863D01*
X97725554Y-58745202D01*
X97724380Y-58721310D01*
X97724380Y-57808810D01*
X97725554Y-57784918D01*
X97729064Y-57761257D01*
X97734876Y-57738053D01*
X97742934Y-57715531D01*
X97753162Y-57693907D01*
X97765459Y-57673390D01*
X97779709Y-57654177D01*
X97795773Y-57636453D01*
X97813497Y-57620389D01*
X97832710Y-57606139D01*
X97853227Y-57593842D01*
X97874851Y-57583614D01*
X97897373Y-57575556D01*
X97920577Y-57569744D01*
X97944238Y-57566234D01*
X97968130Y-57565060D01*
X98455630Y-57565060D01*
X98479522Y-57566234D01*
X98479522Y-57566234D01*
G37*
D11*
X98211880Y-58265060D03*
D10*
G36*
X96604522Y-57566234D02*
G01*
X96628183Y-57569744D01*
X96651387Y-57575556D01*
X96673909Y-57583614D01*
X96695533Y-57593842D01*
X96716050Y-57606139D01*
X96735263Y-57620389D01*
X96752987Y-57636453D01*
X96769051Y-57654177D01*
X96783301Y-57673390D01*
X96795598Y-57693907D01*
X96805826Y-57715531D01*
X96813884Y-57738053D01*
X96819696Y-57761257D01*
X96823206Y-57784918D01*
X96824380Y-57808810D01*
X96824380Y-58721310D01*
X96823206Y-58745202D01*
X96819696Y-58768863D01*
X96813884Y-58792067D01*
X96805826Y-58814589D01*
X96795598Y-58836213D01*
X96783301Y-58856730D01*
X96769051Y-58875943D01*
X96752987Y-58893667D01*
X96735263Y-58909731D01*
X96716050Y-58923981D01*
X96695533Y-58936278D01*
X96673909Y-58946506D01*
X96651387Y-58954564D01*
X96628183Y-58960376D01*
X96604522Y-58963886D01*
X96580630Y-58965060D01*
X96093130Y-58965060D01*
X96069238Y-58963886D01*
X96045577Y-58960376D01*
X96022373Y-58954564D01*
X95999851Y-58946506D01*
X95978227Y-58936278D01*
X95957710Y-58923981D01*
X95938497Y-58909731D01*
X95920773Y-58893667D01*
X95904709Y-58875943D01*
X95890459Y-58856730D01*
X95878162Y-58836213D01*
X95867934Y-58814589D01*
X95859876Y-58792067D01*
X95854064Y-58768863D01*
X95850554Y-58745202D01*
X95849380Y-58721310D01*
X95849380Y-57808810D01*
X95850554Y-57784918D01*
X95854064Y-57761257D01*
X95859876Y-57738053D01*
X95867934Y-57715531D01*
X95878162Y-57693907D01*
X95890459Y-57673390D01*
X95904709Y-57654177D01*
X95920773Y-57636453D01*
X95938497Y-57620389D01*
X95957710Y-57606139D01*
X95978227Y-57593842D01*
X95999851Y-57583614D01*
X96022373Y-57575556D01*
X96045577Y-57569744D01*
X96069238Y-57566234D01*
X96093130Y-57565060D01*
X96580630Y-57565060D01*
X96604522Y-57566234D01*
X96604522Y-57566234D01*
G37*
D11*
X96336880Y-58265060D03*
D10*
G36*
X91507222Y-72300774D02*
G01*
X91530883Y-72304284D01*
X91554087Y-72310096D01*
X91576609Y-72318154D01*
X91598233Y-72328382D01*
X91618750Y-72340679D01*
X91637963Y-72354929D01*
X91655687Y-72370993D01*
X91671751Y-72388717D01*
X91686001Y-72407930D01*
X91698298Y-72428447D01*
X91708526Y-72450071D01*
X91716584Y-72472593D01*
X91722396Y-72495797D01*
X91725906Y-72519458D01*
X91727080Y-72543350D01*
X91727080Y-73455850D01*
X91725906Y-73479742D01*
X91722396Y-73503403D01*
X91716584Y-73526607D01*
X91708526Y-73549129D01*
X91698298Y-73570753D01*
X91686001Y-73591270D01*
X91671751Y-73610483D01*
X91655687Y-73628207D01*
X91637963Y-73644271D01*
X91618750Y-73658521D01*
X91598233Y-73670818D01*
X91576609Y-73681046D01*
X91554087Y-73689104D01*
X91530883Y-73694916D01*
X91507222Y-73698426D01*
X91483330Y-73699600D01*
X90995830Y-73699600D01*
X90971938Y-73698426D01*
X90948277Y-73694916D01*
X90925073Y-73689104D01*
X90902551Y-73681046D01*
X90880927Y-73670818D01*
X90860410Y-73658521D01*
X90841197Y-73644271D01*
X90823473Y-73628207D01*
X90807409Y-73610483D01*
X90793159Y-73591270D01*
X90780862Y-73570753D01*
X90770634Y-73549129D01*
X90762576Y-73526607D01*
X90756764Y-73503403D01*
X90753254Y-73479742D01*
X90752080Y-73455850D01*
X90752080Y-72543350D01*
X90753254Y-72519458D01*
X90756764Y-72495797D01*
X90762576Y-72472593D01*
X90770634Y-72450071D01*
X90780862Y-72428447D01*
X90793159Y-72407930D01*
X90807409Y-72388717D01*
X90823473Y-72370993D01*
X90841197Y-72354929D01*
X90860410Y-72340679D01*
X90880927Y-72328382D01*
X90902551Y-72318154D01*
X90925073Y-72310096D01*
X90948277Y-72304284D01*
X90971938Y-72300774D01*
X90995830Y-72299600D01*
X91483330Y-72299600D01*
X91507222Y-72300774D01*
X91507222Y-72300774D01*
G37*
D11*
X91239580Y-72999600D03*
D10*
G36*
X89632222Y-72300774D02*
G01*
X89655883Y-72304284D01*
X89679087Y-72310096D01*
X89701609Y-72318154D01*
X89723233Y-72328382D01*
X89743750Y-72340679D01*
X89762963Y-72354929D01*
X89780687Y-72370993D01*
X89796751Y-72388717D01*
X89811001Y-72407930D01*
X89823298Y-72428447D01*
X89833526Y-72450071D01*
X89841584Y-72472593D01*
X89847396Y-72495797D01*
X89850906Y-72519458D01*
X89852080Y-72543350D01*
X89852080Y-73455850D01*
X89850906Y-73479742D01*
X89847396Y-73503403D01*
X89841584Y-73526607D01*
X89833526Y-73549129D01*
X89823298Y-73570753D01*
X89811001Y-73591270D01*
X89796751Y-73610483D01*
X89780687Y-73628207D01*
X89762963Y-73644271D01*
X89743750Y-73658521D01*
X89723233Y-73670818D01*
X89701609Y-73681046D01*
X89679087Y-73689104D01*
X89655883Y-73694916D01*
X89632222Y-73698426D01*
X89608330Y-73699600D01*
X89120830Y-73699600D01*
X89096938Y-73698426D01*
X89073277Y-73694916D01*
X89050073Y-73689104D01*
X89027551Y-73681046D01*
X89005927Y-73670818D01*
X88985410Y-73658521D01*
X88966197Y-73644271D01*
X88948473Y-73628207D01*
X88932409Y-73610483D01*
X88918159Y-73591270D01*
X88905862Y-73570753D01*
X88895634Y-73549129D01*
X88887576Y-73526607D01*
X88881764Y-73503403D01*
X88878254Y-73479742D01*
X88877080Y-73455850D01*
X88877080Y-72543350D01*
X88878254Y-72519458D01*
X88881764Y-72495797D01*
X88887576Y-72472593D01*
X88895634Y-72450071D01*
X88905862Y-72428447D01*
X88918159Y-72407930D01*
X88932409Y-72388717D01*
X88948473Y-72370993D01*
X88966197Y-72354929D01*
X88985410Y-72340679D01*
X89005927Y-72328382D01*
X89027551Y-72318154D01*
X89050073Y-72310096D01*
X89073277Y-72304284D01*
X89096938Y-72300774D01*
X89120830Y-72299600D01*
X89608330Y-72299600D01*
X89632222Y-72300774D01*
X89632222Y-72300774D01*
G37*
D11*
X89364580Y-72999600D03*
D10*
G36*
X132541162Y-71625134D02*
G01*
X132564823Y-71628644D01*
X132588027Y-71634456D01*
X132610549Y-71642514D01*
X132632173Y-71652742D01*
X132652690Y-71665039D01*
X132671903Y-71679289D01*
X132689627Y-71695353D01*
X132705691Y-71713077D01*
X132719941Y-71732290D01*
X132732238Y-71752807D01*
X132742466Y-71774431D01*
X132750524Y-71796953D01*
X132756336Y-71820157D01*
X132759846Y-71843818D01*
X132761020Y-71867710D01*
X132761020Y-72780210D01*
X132759846Y-72804102D01*
X132756336Y-72827763D01*
X132750524Y-72850967D01*
X132742466Y-72873489D01*
X132732238Y-72895113D01*
X132719941Y-72915630D01*
X132705691Y-72934843D01*
X132689627Y-72952567D01*
X132671903Y-72968631D01*
X132652690Y-72982881D01*
X132632173Y-72995178D01*
X132610549Y-73005406D01*
X132588027Y-73013464D01*
X132564823Y-73019276D01*
X132541162Y-73022786D01*
X132517270Y-73023960D01*
X132029770Y-73023960D01*
X132005878Y-73022786D01*
X131982217Y-73019276D01*
X131959013Y-73013464D01*
X131936491Y-73005406D01*
X131914867Y-72995178D01*
X131894350Y-72982881D01*
X131875137Y-72968631D01*
X131857413Y-72952567D01*
X131841349Y-72934843D01*
X131827099Y-72915630D01*
X131814802Y-72895113D01*
X131804574Y-72873489D01*
X131796516Y-72850967D01*
X131790704Y-72827763D01*
X131787194Y-72804102D01*
X131786020Y-72780210D01*
X131786020Y-71867710D01*
X131787194Y-71843818D01*
X131790704Y-71820157D01*
X131796516Y-71796953D01*
X131804574Y-71774431D01*
X131814802Y-71752807D01*
X131827099Y-71732290D01*
X131841349Y-71713077D01*
X131857413Y-71695353D01*
X131875137Y-71679289D01*
X131894350Y-71665039D01*
X131914867Y-71652742D01*
X131936491Y-71642514D01*
X131959013Y-71634456D01*
X131982217Y-71628644D01*
X132005878Y-71625134D01*
X132029770Y-71623960D01*
X132517270Y-71623960D01*
X132541162Y-71625134D01*
X132541162Y-71625134D01*
G37*
D11*
X132273520Y-72323960D03*
D10*
G36*
X130666162Y-71625134D02*
G01*
X130689823Y-71628644D01*
X130713027Y-71634456D01*
X130735549Y-71642514D01*
X130757173Y-71652742D01*
X130777690Y-71665039D01*
X130796903Y-71679289D01*
X130814627Y-71695353D01*
X130830691Y-71713077D01*
X130844941Y-71732290D01*
X130857238Y-71752807D01*
X130867466Y-71774431D01*
X130875524Y-71796953D01*
X130881336Y-71820157D01*
X130884846Y-71843818D01*
X130886020Y-71867710D01*
X130886020Y-72780210D01*
X130884846Y-72804102D01*
X130881336Y-72827763D01*
X130875524Y-72850967D01*
X130867466Y-72873489D01*
X130857238Y-72895113D01*
X130844941Y-72915630D01*
X130830691Y-72934843D01*
X130814627Y-72952567D01*
X130796903Y-72968631D01*
X130777690Y-72982881D01*
X130757173Y-72995178D01*
X130735549Y-73005406D01*
X130713027Y-73013464D01*
X130689823Y-73019276D01*
X130666162Y-73022786D01*
X130642270Y-73023960D01*
X130154770Y-73023960D01*
X130130878Y-73022786D01*
X130107217Y-73019276D01*
X130084013Y-73013464D01*
X130061491Y-73005406D01*
X130039867Y-72995178D01*
X130019350Y-72982881D01*
X130000137Y-72968631D01*
X129982413Y-72952567D01*
X129966349Y-72934843D01*
X129952099Y-72915630D01*
X129939802Y-72895113D01*
X129929574Y-72873489D01*
X129921516Y-72850967D01*
X129915704Y-72827763D01*
X129912194Y-72804102D01*
X129911020Y-72780210D01*
X129911020Y-71867710D01*
X129912194Y-71843818D01*
X129915704Y-71820157D01*
X129921516Y-71796953D01*
X129929574Y-71774431D01*
X129939802Y-71752807D01*
X129952099Y-71732290D01*
X129966349Y-71713077D01*
X129982413Y-71695353D01*
X130000137Y-71679289D01*
X130019350Y-71665039D01*
X130039867Y-71652742D01*
X130061491Y-71642514D01*
X130084013Y-71634456D01*
X130107217Y-71628644D01*
X130130878Y-71625134D01*
X130154770Y-71623960D01*
X130642270Y-71623960D01*
X130666162Y-71625134D01*
X130666162Y-71625134D01*
G37*
D11*
X130398520Y-72323960D03*
D10*
G36*
X132614582Y-73494574D02*
G01*
X132638243Y-73498084D01*
X132661447Y-73503896D01*
X132683969Y-73511954D01*
X132705593Y-73522182D01*
X132726110Y-73534479D01*
X132745323Y-73548729D01*
X132763047Y-73564793D01*
X132779111Y-73582517D01*
X132793361Y-73601730D01*
X132805658Y-73622247D01*
X132815886Y-73643871D01*
X132823944Y-73666393D01*
X132829756Y-73689597D01*
X132833266Y-73713258D01*
X132834440Y-73737150D01*
X132834440Y-74649650D01*
X132833266Y-74673542D01*
X132829756Y-74697203D01*
X132823944Y-74720407D01*
X132815886Y-74742929D01*
X132805658Y-74764553D01*
X132793361Y-74785070D01*
X132779111Y-74804283D01*
X132763047Y-74822007D01*
X132745323Y-74838071D01*
X132726110Y-74852321D01*
X132705593Y-74864618D01*
X132683969Y-74874846D01*
X132661447Y-74882904D01*
X132638243Y-74888716D01*
X132614582Y-74892226D01*
X132590690Y-74893400D01*
X132103190Y-74893400D01*
X132079298Y-74892226D01*
X132055637Y-74888716D01*
X132032433Y-74882904D01*
X132009911Y-74874846D01*
X131988287Y-74864618D01*
X131967770Y-74852321D01*
X131948557Y-74838071D01*
X131930833Y-74822007D01*
X131914769Y-74804283D01*
X131900519Y-74785070D01*
X131888222Y-74764553D01*
X131877994Y-74742929D01*
X131869936Y-74720407D01*
X131864124Y-74697203D01*
X131860614Y-74673542D01*
X131859440Y-74649650D01*
X131859440Y-73737150D01*
X131860614Y-73713258D01*
X131864124Y-73689597D01*
X131869936Y-73666393D01*
X131877994Y-73643871D01*
X131888222Y-73622247D01*
X131900519Y-73601730D01*
X131914769Y-73582517D01*
X131930833Y-73564793D01*
X131948557Y-73548729D01*
X131967770Y-73534479D01*
X131988287Y-73522182D01*
X132009911Y-73511954D01*
X132032433Y-73503896D01*
X132055637Y-73498084D01*
X132079298Y-73494574D01*
X132103190Y-73493400D01*
X132590690Y-73493400D01*
X132614582Y-73494574D01*
X132614582Y-73494574D01*
G37*
D11*
X132346940Y-74193400D03*
D10*
G36*
X130739582Y-73494574D02*
G01*
X130763243Y-73498084D01*
X130786447Y-73503896D01*
X130808969Y-73511954D01*
X130830593Y-73522182D01*
X130851110Y-73534479D01*
X130870323Y-73548729D01*
X130888047Y-73564793D01*
X130904111Y-73582517D01*
X130918361Y-73601730D01*
X130930658Y-73622247D01*
X130940886Y-73643871D01*
X130948944Y-73666393D01*
X130954756Y-73689597D01*
X130958266Y-73713258D01*
X130959440Y-73737150D01*
X130959440Y-74649650D01*
X130958266Y-74673542D01*
X130954756Y-74697203D01*
X130948944Y-74720407D01*
X130940886Y-74742929D01*
X130930658Y-74764553D01*
X130918361Y-74785070D01*
X130904111Y-74804283D01*
X130888047Y-74822007D01*
X130870323Y-74838071D01*
X130851110Y-74852321D01*
X130830593Y-74864618D01*
X130808969Y-74874846D01*
X130786447Y-74882904D01*
X130763243Y-74888716D01*
X130739582Y-74892226D01*
X130715690Y-74893400D01*
X130228190Y-74893400D01*
X130204298Y-74892226D01*
X130180637Y-74888716D01*
X130157433Y-74882904D01*
X130134911Y-74874846D01*
X130113287Y-74864618D01*
X130092770Y-74852321D01*
X130073557Y-74838071D01*
X130055833Y-74822007D01*
X130039769Y-74804283D01*
X130025519Y-74785070D01*
X130013222Y-74764553D01*
X130002994Y-74742929D01*
X129994936Y-74720407D01*
X129989124Y-74697203D01*
X129985614Y-74673542D01*
X129984440Y-74649650D01*
X129984440Y-73737150D01*
X129985614Y-73713258D01*
X129989124Y-73689597D01*
X129994936Y-73666393D01*
X130002994Y-73643871D01*
X130013222Y-73622247D01*
X130025519Y-73601730D01*
X130039769Y-73582517D01*
X130055833Y-73564793D01*
X130073557Y-73548729D01*
X130092770Y-73534479D01*
X130113287Y-73522182D01*
X130134911Y-73511954D01*
X130157433Y-73503896D01*
X130180637Y-73498084D01*
X130204298Y-73494574D01*
X130228190Y-73493400D01*
X130715690Y-73493400D01*
X130739582Y-73494574D01*
X130739582Y-73494574D01*
G37*
D11*
X130471940Y-74193400D03*
D10*
G36*
X133345002Y-64507434D02*
G01*
X133368663Y-64510944D01*
X133391867Y-64516756D01*
X133414389Y-64524814D01*
X133436013Y-64535042D01*
X133456530Y-64547339D01*
X133475743Y-64561589D01*
X133493467Y-64577653D01*
X133509531Y-64595377D01*
X133523781Y-64614590D01*
X133536078Y-64635107D01*
X133546306Y-64656731D01*
X133554364Y-64679253D01*
X133560176Y-64702457D01*
X133563686Y-64726118D01*
X133564860Y-64750010D01*
X133564860Y-65237510D01*
X133563686Y-65261402D01*
X133560176Y-65285063D01*
X133554364Y-65308267D01*
X133546306Y-65330789D01*
X133536078Y-65352413D01*
X133523781Y-65372930D01*
X133509531Y-65392143D01*
X133493467Y-65409867D01*
X133475743Y-65425931D01*
X133456530Y-65440181D01*
X133436013Y-65452478D01*
X133414389Y-65462706D01*
X133391867Y-65470764D01*
X133368663Y-65476576D01*
X133345002Y-65480086D01*
X133321110Y-65481260D01*
X132408610Y-65481260D01*
X132384718Y-65480086D01*
X132361057Y-65476576D01*
X132337853Y-65470764D01*
X132315331Y-65462706D01*
X132293707Y-65452478D01*
X132273190Y-65440181D01*
X132253977Y-65425931D01*
X132236253Y-65409867D01*
X132220189Y-65392143D01*
X132205939Y-65372930D01*
X132193642Y-65352413D01*
X132183414Y-65330789D01*
X132175356Y-65308267D01*
X132169544Y-65285063D01*
X132166034Y-65261402D01*
X132164860Y-65237510D01*
X132164860Y-64750010D01*
X132166034Y-64726118D01*
X132169544Y-64702457D01*
X132175356Y-64679253D01*
X132183414Y-64656731D01*
X132193642Y-64635107D01*
X132205939Y-64614590D01*
X132220189Y-64595377D01*
X132236253Y-64577653D01*
X132253977Y-64561589D01*
X132273190Y-64547339D01*
X132293707Y-64535042D01*
X132315331Y-64524814D01*
X132337853Y-64516756D01*
X132361057Y-64510944D01*
X132384718Y-64507434D01*
X132408610Y-64506260D01*
X133321110Y-64506260D01*
X133345002Y-64507434D01*
X133345002Y-64507434D01*
G37*
D11*
X132864860Y-64993760D03*
D10*
G36*
X133345002Y-62632434D02*
G01*
X133368663Y-62635944D01*
X133391867Y-62641756D01*
X133414389Y-62649814D01*
X133436013Y-62660042D01*
X133456530Y-62672339D01*
X133475743Y-62686589D01*
X133493467Y-62702653D01*
X133509531Y-62720377D01*
X133523781Y-62739590D01*
X133536078Y-62760107D01*
X133546306Y-62781731D01*
X133554364Y-62804253D01*
X133560176Y-62827457D01*
X133563686Y-62851118D01*
X133564860Y-62875010D01*
X133564860Y-63362510D01*
X133563686Y-63386402D01*
X133560176Y-63410063D01*
X133554364Y-63433267D01*
X133546306Y-63455789D01*
X133536078Y-63477413D01*
X133523781Y-63497930D01*
X133509531Y-63517143D01*
X133493467Y-63534867D01*
X133475743Y-63550931D01*
X133456530Y-63565181D01*
X133436013Y-63577478D01*
X133414389Y-63587706D01*
X133391867Y-63595764D01*
X133368663Y-63601576D01*
X133345002Y-63605086D01*
X133321110Y-63606260D01*
X132408610Y-63606260D01*
X132384718Y-63605086D01*
X132361057Y-63601576D01*
X132337853Y-63595764D01*
X132315331Y-63587706D01*
X132293707Y-63577478D01*
X132273190Y-63565181D01*
X132253977Y-63550931D01*
X132236253Y-63534867D01*
X132220189Y-63517143D01*
X132205939Y-63497930D01*
X132193642Y-63477413D01*
X132183414Y-63455789D01*
X132175356Y-63433267D01*
X132169544Y-63410063D01*
X132166034Y-63386402D01*
X132164860Y-63362510D01*
X132164860Y-62875010D01*
X132166034Y-62851118D01*
X132169544Y-62827457D01*
X132175356Y-62804253D01*
X132183414Y-62781731D01*
X132193642Y-62760107D01*
X132205939Y-62739590D01*
X132220189Y-62720377D01*
X132236253Y-62702653D01*
X132253977Y-62686589D01*
X132273190Y-62672339D01*
X132293707Y-62660042D01*
X132315331Y-62649814D01*
X132337853Y-62641756D01*
X132361057Y-62635944D01*
X132384718Y-62632434D01*
X132408610Y-62631260D01*
X133321110Y-62631260D01*
X133345002Y-62632434D01*
X133345002Y-62632434D01*
G37*
D11*
X132864860Y-63118760D03*
D10*
G36*
X135300802Y-64507434D02*
G01*
X135324463Y-64510944D01*
X135347667Y-64516756D01*
X135370189Y-64524814D01*
X135391813Y-64535042D01*
X135412330Y-64547339D01*
X135431543Y-64561589D01*
X135449267Y-64577653D01*
X135465331Y-64595377D01*
X135479581Y-64614590D01*
X135491878Y-64635107D01*
X135502106Y-64656731D01*
X135510164Y-64679253D01*
X135515976Y-64702457D01*
X135519486Y-64726118D01*
X135520660Y-64750010D01*
X135520660Y-65237510D01*
X135519486Y-65261402D01*
X135515976Y-65285063D01*
X135510164Y-65308267D01*
X135502106Y-65330789D01*
X135491878Y-65352413D01*
X135479581Y-65372930D01*
X135465331Y-65392143D01*
X135449267Y-65409867D01*
X135431543Y-65425931D01*
X135412330Y-65440181D01*
X135391813Y-65452478D01*
X135370189Y-65462706D01*
X135347667Y-65470764D01*
X135324463Y-65476576D01*
X135300802Y-65480086D01*
X135276910Y-65481260D01*
X134364410Y-65481260D01*
X134340518Y-65480086D01*
X134316857Y-65476576D01*
X134293653Y-65470764D01*
X134271131Y-65462706D01*
X134249507Y-65452478D01*
X134228990Y-65440181D01*
X134209777Y-65425931D01*
X134192053Y-65409867D01*
X134175989Y-65392143D01*
X134161739Y-65372930D01*
X134149442Y-65352413D01*
X134139214Y-65330789D01*
X134131156Y-65308267D01*
X134125344Y-65285063D01*
X134121834Y-65261402D01*
X134120660Y-65237510D01*
X134120660Y-64750010D01*
X134121834Y-64726118D01*
X134125344Y-64702457D01*
X134131156Y-64679253D01*
X134139214Y-64656731D01*
X134149442Y-64635107D01*
X134161739Y-64614590D01*
X134175989Y-64595377D01*
X134192053Y-64577653D01*
X134209777Y-64561589D01*
X134228990Y-64547339D01*
X134249507Y-64535042D01*
X134271131Y-64524814D01*
X134293653Y-64516756D01*
X134316857Y-64510944D01*
X134340518Y-64507434D01*
X134364410Y-64506260D01*
X135276910Y-64506260D01*
X135300802Y-64507434D01*
X135300802Y-64507434D01*
G37*
D11*
X134820660Y-64993760D03*
D10*
G36*
X135300802Y-62632434D02*
G01*
X135324463Y-62635944D01*
X135347667Y-62641756D01*
X135370189Y-62649814D01*
X135391813Y-62660042D01*
X135412330Y-62672339D01*
X135431543Y-62686589D01*
X135449267Y-62702653D01*
X135465331Y-62720377D01*
X135479581Y-62739590D01*
X135491878Y-62760107D01*
X135502106Y-62781731D01*
X135510164Y-62804253D01*
X135515976Y-62827457D01*
X135519486Y-62851118D01*
X135520660Y-62875010D01*
X135520660Y-63362510D01*
X135519486Y-63386402D01*
X135515976Y-63410063D01*
X135510164Y-63433267D01*
X135502106Y-63455789D01*
X135491878Y-63477413D01*
X135479581Y-63497930D01*
X135465331Y-63517143D01*
X135449267Y-63534867D01*
X135431543Y-63550931D01*
X135412330Y-63565181D01*
X135391813Y-63577478D01*
X135370189Y-63587706D01*
X135347667Y-63595764D01*
X135324463Y-63601576D01*
X135300802Y-63605086D01*
X135276910Y-63606260D01*
X134364410Y-63606260D01*
X134340518Y-63605086D01*
X134316857Y-63601576D01*
X134293653Y-63595764D01*
X134271131Y-63587706D01*
X134249507Y-63577478D01*
X134228990Y-63565181D01*
X134209777Y-63550931D01*
X134192053Y-63534867D01*
X134175989Y-63517143D01*
X134161739Y-63497930D01*
X134149442Y-63477413D01*
X134139214Y-63455789D01*
X134131156Y-63433267D01*
X134125344Y-63410063D01*
X134121834Y-63386402D01*
X134120660Y-63362510D01*
X134120660Y-62875010D01*
X134121834Y-62851118D01*
X134125344Y-62827457D01*
X134131156Y-62804253D01*
X134139214Y-62781731D01*
X134149442Y-62760107D01*
X134161739Y-62739590D01*
X134175989Y-62720377D01*
X134192053Y-62702653D01*
X134209777Y-62686589D01*
X134228990Y-62672339D01*
X134249507Y-62660042D01*
X134271131Y-62649814D01*
X134293653Y-62641756D01*
X134316857Y-62635944D01*
X134340518Y-62632434D01*
X134364410Y-62631260D01*
X135276910Y-62631260D01*
X135300802Y-62632434D01*
X135300802Y-62632434D01*
G37*
D11*
X134820660Y-63118760D03*
D10*
G36*
X95042902Y-59872554D02*
G01*
X95066563Y-59876064D01*
X95089767Y-59881876D01*
X95112289Y-59889934D01*
X95133913Y-59900162D01*
X95154430Y-59912459D01*
X95173643Y-59926709D01*
X95191367Y-59942773D01*
X95207431Y-59960497D01*
X95221681Y-59979710D01*
X95233978Y-60000227D01*
X95244206Y-60021851D01*
X95252264Y-60044373D01*
X95258076Y-60067577D01*
X95261586Y-60091238D01*
X95262760Y-60115130D01*
X95262760Y-61027630D01*
X95261586Y-61051522D01*
X95258076Y-61075183D01*
X95252264Y-61098387D01*
X95244206Y-61120909D01*
X95233978Y-61142533D01*
X95221681Y-61163050D01*
X95207431Y-61182263D01*
X95191367Y-61199987D01*
X95173643Y-61216051D01*
X95154430Y-61230301D01*
X95133913Y-61242598D01*
X95112289Y-61252826D01*
X95089767Y-61260884D01*
X95066563Y-61266696D01*
X95042902Y-61270206D01*
X95019010Y-61271380D01*
X94531510Y-61271380D01*
X94507618Y-61270206D01*
X94483957Y-61266696D01*
X94460753Y-61260884D01*
X94438231Y-61252826D01*
X94416607Y-61242598D01*
X94396090Y-61230301D01*
X94376877Y-61216051D01*
X94359153Y-61199987D01*
X94343089Y-61182263D01*
X94328839Y-61163050D01*
X94316542Y-61142533D01*
X94306314Y-61120909D01*
X94298256Y-61098387D01*
X94292444Y-61075183D01*
X94288934Y-61051522D01*
X94287760Y-61027630D01*
X94287760Y-60115130D01*
X94288934Y-60091238D01*
X94292444Y-60067577D01*
X94298256Y-60044373D01*
X94306314Y-60021851D01*
X94316542Y-60000227D01*
X94328839Y-59979710D01*
X94343089Y-59960497D01*
X94359153Y-59942773D01*
X94376877Y-59926709D01*
X94396090Y-59912459D01*
X94416607Y-59900162D01*
X94438231Y-59889934D01*
X94460753Y-59881876D01*
X94483957Y-59876064D01*
X94507618Y-59872554D01*
X94531510Y-59871380D01*
X95019010Y-59871380D01*
X95042902Y-59872554D01*
X95042902Y-59872554D01*
G37*
D11*
X94775260Y-60571380D03*
D10*
G36*
X93167902Y-59872554D02*
G01*
X93191563Y-59876064D01*
X93214767Y-59881876D01*
X93237289Y-59889934D01*
X93258913Y-59900162D01*
X93279430Y-59912459D01*
X93298643Y-59926709D01*
X93316367Y-59942773D01*
X93332431Y-59960497D01*
X93346681Y-59979710D01*
X93358978Y-60000227D01*
X93369206Y-60021851D01*
X93377264Y-60044373D01*
X93383076Y-60067577D01*
X93386586Y-60091238D01*
X93387760Y-60115130D01*
X93387760Y-61027630D01*
X93386586Y-61051522D01*
X93383076Y-61075183D01*
X93377264Y-61098387D01*
X93369206Y-61120909D01*
X93358978Y-61142533D01*
X93346681Y-61163050D01*
X93332431Y-61182263D01*
X93316367Y-61199987D01*
X93298643Y-61216051D01*
X93279430Y-61230301D01*
X93258913Y-61242598D01*
X93237289Y-61252826D01*
X93214767Y-61260884D01*
X93191563Y-61266696D01*
X93167902Y-61270206D01*
X93144010Y-61271380D01*
X92656510Y-61271380D01*
X92632618Y-61270206D01*
X92608957Y-61266696D01*
X92585753Y-61260884D01*
X92563231Y-61252826D01*
X92541607Y-61242598D01*
X92521090Y-61230301D01*
X92501877Y-61216051D01*
X92484153Y-61199987D01*
X92468089Y-61182263D01*
X92453839Y-61163050D01*
X92441542Y-61142533D01*
X92431314Y-61120909D01*
X92423256Y-61098387D01*
X92417444Y-61075183D01*
X92413934Y-61051522D01*
X92412760Y-61027630D01*
X92412760Y-60115130D01*
X92413934Y-60091238D01*
X92417444Y-60067577D01*
X92423256Y-60044373D01*
X92431314Y-60021851D01*
X92441542Y-60000227D01*
X92453839Y-59979710D01*
X92468089Y-59960497D01*
X92484153Y-59942773D01*
X92501877Y-59926709D01*
X92521090Y-59912459D01*
X92541607Y-59900162D01*
X92563231Y-59889934D01*
X92585753Y-59881876D01*
X92608957Y-59876064D01*
X92632618Y-59872554D01*
X92656510Y-59871380D01*
X93144010Y-59871380D01*
X93167902Y-59872554D01*
X93167902Y-59872554D01*
G37*
D11*
X92900260Y-60571380D03*
D10*
G36*
X95025122Y-57566234D02*
G01*
X95048783Y-57569744D01*
X95071987Y-57575556D01*
X95094509Y-57583614D01*
X95116133Y-57593842D01*
X95136650Y-57606139D01*
X95155863Y-57620389D01*
X95173587Y-57636453D01*
X95189651Y-57654177D01*
X95203901Y-57673390D01*
X95216198Y-57693907D01*
X95226426Y-57715531D01*
X95234484Y-57738053D01*
X95240296Y-57761257D01*
X95243806Y-57784918D01*
X95244980Y-57808810D01*
X95244980Y-58721310D01*
X95243806Y-58745202D01*
X95240296Y-58768863D01*
X95234484Y-58792067D01*
X95226426Y-58814589D01*
X95216198Y-58836213D01*
X95203901Y-58856730D01*
X95189651Y-58875943D01*
X95173587Y-58893667D01*
X95155863Y-58909731D01*
X95136650Y-58923981D01*
X95116133Y-58936278D01*
X95094509Y-58946506D01*
X95071987Y-58954564D01*
X95048783Y-58960376D01*
X95025122Y-58963886D01*
X95001230Y-58965060D01*
X94513730Y-58965060D01*
X94489838Y-58963886D01*
X94466177Y-58960376D01*
X94442973Y-58954564D01*
X94420451Y-58946506D01*
X94398827Y-58936278D01*
X94378310Y-58923981D01*
X94359097Y-58909731D01*
X94341373Y-58893667D01*
X94325309Y-58875943D01*
X94311059Y-58856730D01*
X94298762Y-58836213D01*
X94288534Y-58814589D01*
X94280476Y-58792067D01*
X94274664Y-58768863D01*
X94271154Y-58745202D01*
X94269980Y-58721310D01*
X94269980Y-57808810D01*
X94271154Y-57784918D01*
X94274664Y-57761257D01*
X94280476Y-57738053D01*
X94288534Y-57715531D01*
X94298762Y-57693907D01*
X94311059Y-57673390D01*
X94325309Y-57654177D01*
X94341373Y-57636453D01*
X94359097Y-57620389D01*
X94378310Y-57606139D01*
X94398827Y-57593842D01*
X94420451Y-57583614D01*
X94442973Y-57575556D01*
X94466177Y-57569744D01*
X94489838Y-57566234D01*
X94513730Y-57565060D01*
X95001230Y-57565060D01*
X95025122Y-57566234D01*
X95025122Y-57566234D01*
G37*
D11*
X94757480Y-58265060D03*
D10*
G36*
X93150122Y-57566234D02*
G01*
X93173783Y-57569744D01*
X93196987Y-57575556D01*
X93219509Y-57583614D01*
X93241133Y-57593842D01*
X93261650Y-57606139D01*
X93280863Y-57620389D01*
X93298587Y-57636453D01*
X93314651Y-57654177D01*
X93328901Y-57673390D01*
X93341198Y-57693907D01*
X93351426Y-57715531D01*
X93359484Y-57738053D01*
X93365296Y-57761257D01*
X93368806Y-57784918D01*
X93369980Y-57808810D01*
X93369980Y-58721310D01*
X93368806Y-58745202D01*
X93365296Y-58768863D01*
X93359484Y-58792067D01*
X93351426Y-58814589D01*
X93341198Y-58836213D01*
X93328901Y-58856730D01*
X93314651Y-58875943D01*
X93298587Y-58893667D01*
X93280863Y-58909731D01*
X93261650Y-58923981D01*
X93241133Y-58936278D01*
X93219509Y-58946506D01*
X93196987Y-58954564D01*
X93173783Y-58960376D01*
X93150122Y-58963886D01*
X93126230Y-58965060D01*
X92638730Y-58965060D01*
X92614838Y-58963886D01*
X92591177Y-58960376D01*
X92567973Y-58954564D01*
X92545451Y-58946506D01*
X92523827Y-58936278D01*
X92503310Y-58923981D01*
X92484097Y-58909731D01*
X92466373Y-58893667D01*
X92450309Y-58875943D01*
X92436059Y-58856730D01*
X92423762Y-58836213D01*
X92413534Y-58814589D01*
X92405476Y-58792067D01*
X92399664Y-58768863D01*
X92396154Y-58745202D01*
X92394980Y-58721310D01*
X92394980Y-57808810D01*
X92396154Y-57784918D01*
X92399664Y-57761257D01*
X92405476Y-57738053D01*
X92413534Y-57715531D01*
X92423762Y-57693907D01*
X92436059Y-57673390D01*
X92450309Y-57654177D01*
X92466373Y-57636453D01*
X92484097Y-57620389D01*
X92503310Y-57606139D01*
X92523827Y-57593842D01*
X92545451Y-57583614D01*
X92567973Y-57575556D01*
X92591177Y-57569744D01*
X92614838Y-57566234D01*
X92638730Y-57565060D01*
X93126230Y-57565060D01*
X93150122Y-57566234D01*
X93150122Y-57566234D01*
G37*
D11*
X92882480Y-58265060D03*
D10*
G36*
X87932342Y-71022054D02*
G01*
X87956003Y-71025564D01*
X87979207Y-71031376D01*
X88001729Y-71039434D01*
X88023353Y-71049662D01*
X88043870Y-71061959D01*
X88063083Y-71076209D01*
X88080807Y-71092273D01*
X88096871Y-71109997D01*
X88111121Y-71129210D01*
X88123418Y-71149727D01*
X88133646Y-71171351D01*
X88141704Y-71193873D01*
X88147516Y-71217077D01*
X88151026Y-71240738D01*
X88152200Y-71264630D01*
X88152200Y-71752130D01*
X88151026Y-71776022D01*
X88147516Y-71799683D01*
X88141704Y-71822887D01*
X88133646Y-71845409D01*
X88123418Y-71867033D01*
X88111121Y-71887550D01*
X88096871Y-71906763D01*
X88080807Y-71924487D01*
X88063083Y-71940551D01*
X88043870Y-71954801D01*
X88023353Y-71967098D01*
X88001729Y-71977326D01*
X87979207Y-71985384D01*
X87956003Y-71991196D01*
X87932342Y-71994706D01*
X87908450Y-71995880D01*
X86995950Y-71995880D01*
X86972058Y-71994706D01*
X86948397Y-71991196D01*
X86925193Y-71985384D01*
X86902671Y-71977326D01*
X86881047Y-71967098D01*
X86860530Y-71954801D01*
X86841317Y-71940551D01*
X86823593Y-71924487D01*
X86807529Y-71906763D01*
X86793279Y-71887550D01*
X86780982Y-71867033D01*
X86770754Y-71845409D01*
X86762696Y-71822887D01*
X86756884Y-71799683D01*
X86753374Y-71776022D01*
X86752200Y-71752130D01*
X86752200Y-71264630D01*
X86753374Y-71240738D01*
X86756884Y-71217077D01*
X86762696Y-71193873D01*
X86770754Y-71171351D01*
X86780982Y-71149727D01*
X86793279Y-71129210D01*
X86807529Y-71109997D01*
X86823593Y-71092273D01*
X86841317Y-71076209D01*
X86860530Y-71061959D01*
X86881047Y-71049662D01*
X86902671Y-71039434D01*
X86925193Y-71031376D01*
X86948397Y-71025564D01*
X86972058Y-71022054D01*
X86995950Y-71020880D01*
X87908450Y-71020880D01*
X87932342Y-71022054D01*
X87932342Y-71022054D01*
G37*
D11*
X87452200Y-71508380D03*
D10*
G36*
X87932342Y-72897054D02*
G01*
X87956003Y-72900564D01*
X87979207Y-72906376D01*
X88001729Y-72914434D01*
X88023353Y-72924662D01*
X88043870Y-72936959D01*
X88063083Y-72951209D01*
X88080807Y-72967273D01*
X88096871Y-72984997D01*
X88111121Y-73004210D01*
X88123418Y-73024727D01*
X88133646Y-73046351D01*
X88141704Y-73068873D01*
X88147516Y-73092077D01*
X88151026Y-73115738D01*
X88152200Y-73139630D01*
X88152200Y-73627130D01*
X88151026Y-73651022D01*
X88147516Y-73674683D01*
X88141704Y-73697887D01*
X88133646Y-73720409D01*
X88123418Y-73742033D01*
X88111121Y-73762550D01*
X88096871Y-73781763D01*
X88080807Y-73799487D01*
X88063083Y-73815551D01*
X88043870Y-73829801D01*
X88023353Y-73842098D01*
X88001729Y-73852326D01*
X87979207Y-73860384D01*
X87956003Y-73866196D01*
X87932342Y-73869706D01*
X87908450Y-73870880D01*
X86995950Y-73870880D01*
X86972058Y-73869706D01*
X86948397Y-73866196D01*
X86925193Y-73860384D01*
X86902671Y-73852326D01*
X86881047Y-73842098D01*
X86860530Y-73829801D01*
X86841317Y-73815551D01*
X86823593Y-73799487D01*
X86807529Y-73781763D01*
X86793279Y-73762550D01*
X86780982Y-73742033D01*
X86770754Y-73720409D01*
X86762696Y-73697887D01*
X86756884Y-73674683D01*
X86753374Y-73651022D01*
X86752200Y-73627130D01*
X86752200Y-73139630D01*
X86753374Y-73115738D01*
X86756884Y-73092077D01*
X86762696Y-73068873D01*
X86770754Y-73046351D01*
X86780982Y-73024727D01*
X86793279Y-73004210D01*
X86807529Y-72984997D01*
X86823593Y-72967273D01*
X86841317Y-72951209D01*
X86860530Y-72936959D01*
X86881047Y-72924662D01*
X86902671Y-72914434D01*
X86925193Y-72906376D01*
X86948397Y-72900564D01*
X86972058Y-72897054D01*
X86995950Y-72895880D01*
X87908450Y-72895880D01*
X87932342Y-72897054D01*
X87932342Y-72897054D01*
G37*
D11*
X87452200Y-73383380D03*
D14*
X89178700Y-70472300D03*
X90678700Y-70472300D03*
M02*
