M48
; DRILL file {KiCad (5.1.4)-1} date 1/22/2020 5:26:12 PM
; FORMAT={-:-/ absolute / inch / decimal}
; #@! TF.CreationDate,2020-01-22T17:26:12-05:00
; #@! TF.GenerationSoftware,Kicad,Pcbnew,(5.1.4)-1
; #@! TF.FileFunction,Plated,1,2,PTH
FMAT,2
INCH
T1C0.0130
T2C0.0394
T3C0.0866
%
G90
G05
T1
X3.4416Y-2.7626
X3.445Y-2.413
X3.45Y-2.716
X3.451Y-2.494
X3.452Y-2.598
X3.571Y-2.7132
X3.593Y-2.495
X3.597Y-2.622
X3.598Y-2.375
X3.6Y-2.233
X3.605Y-2.335
X3.629Y-2.735
X3.645Y-2.812
X3.6562Y-2.6082
X3.6562Y-2.6722
X3.67Y-2.889
X3.6756Y-2.7034
X3.715Y-2.5652
X3.7192Y-2.7054
X3.743Y-2.232
X3.748Y-2.5304
X3.7542Y-2.7044
X3.798Y-2.874
X3.8Y-2.992
X3.8028Y-2.5152
X3.8054Y-2.6082
X3.806Y-2.6722
X3.845Y-2.75
X3.868Y-2.936
X3.87Y-2.232
X3.925Y-2.83
X3.94Y-2.685
X3.9472Y-2.983
X3.9742Y-2.4396
X3.978Y-2.231
X3.99Y-2.9
X4.0278Y-2.3134
X4.03Y-2.795
X4.04Y-2.37
X4.045Y-2.95
X4.05Y-2.685
X4.12Y-2.705
X4.12Y-2.95
X4.125Y-2.795
X4.13Y-2.875
X4.1364Y-2.6552
X4.1366Y-2.5826
X4.185Y-2.875
X4.185Y-2.95
X4.232Y-2.879
X4.232Y-2.9602
X4.2458Y-2.3712
X4.2644Y-2.4867
X4.2644Y-2.5443
X4.2644Y-2.6179
X4.2644Y-2.6915
X4.2644Y-2.7651
X4.2644Y-2.8387
X4.3384Y-2.4867
X4.3384Y-2.5443
X4.3384Y-2.6179
X4.3384Y-2.6915
X4.3384Y-2.7651
X4.3384Y-2.8387
X4.381Y-2.9728
X4.3816Y-2.3404
X4.4124Y-2.4867
X4.4124Y-2.5443
X4.4124Y-2.6179
X4.4124Y-2.6915
X4.4124Y-2.7651
X4.4124Y-2.8387
X4.4168Y-2.9708
X4.4542Y-2.3404
X4.4864Y-2.4867
X4.4864Y-2.5443
X4.4864Y-2.6179
X4.4864Y-2.6915
X4.4864Y-2.7651
X4.4864Y-2.8387
X4.4904Y-2.972
X4.526Y-2.4454
X4.5604Y-2.4867
X4.5604Y-2.5443
X4.5604Y-2.6179
X4.5604Y-2.6915
X4.5604Y-2.7651
X4.5604Y-2.8387
X4.5972Y-3.0004
X4.6344Y-2.4867
X4.6344Y-2.5443
X4.6344Y-2.6179
X4.6344Y-2.6915
X4.6344Y-2.7651
X4.6344Y-2.8387
X4.672Y-2.932
X4.6856Y-2.368
X4.719Y-2.879
X4.755Y-2.933
X4.7796Y-2.7174
X4.781Y-2.6408
X4.7826Y-2.565
X4.787Y-2.468
X4.79Y-2.845
X4.838Y-2.929
X4.845Y-2.597
X4.858Y-2.501
X4.874Y-2.726
X4.916Y-2.61
X4.92Y-2.844
X4.941Y-2.516
X4.953Y-2.722
X4.962Y-2.32
X4.965Y-2.405
X4.9968Y-2.8332
X5.0406Y-2.8586
X5.043Y-2.324
X5.047Y-2.403
X5.0508Y-2.7394
X5.057Y-2.613
X5.058Y-2.518
X5.09Y-2.869
X5.0928Y-2.8328
X5.097Y-2.921
X5.1Y-2.995
X5.107Y-2.454
X5.114Y-2.715
X5.15Y-2.985
X5.158Y-2.622
X5.165Y-2.512
X5.1724Y-2.7148
X5.1744Y-2.5582
X5.192Y-2.796
X5.21Y-3.0
X5.221Y-3.0472
X5.225Y-2.745
X5.243Y-2.885
X5.256Y-2.444
X5.267Y-2.73
X5.2682Y-2.667
X5.297Y-2.385
X5.3038Y-2.4448
X5.356Y-2.7286
X5.362Y-2.439
X5.367Y-2.349
T2
X3.649Y-3.048
X3.749Y-3.048
X3.849Y-3.048
X3.949Y-3.048
X4.049Y-3.048
X4.149Y-3.048
X4.249Y-3.048
X4.349Y-3.048
X4.449Y-3.048
X4.549Y-3.048
X4.649Y-3.048
X4.749Y-3.048
X4.849Y-3.048
X4.949Y-3.048
X5.049Y-3.048
X5.149Y-3.048
X4.049Y-2.248
X4.149Y-2.248
X4.249Y-2.248
X4.349Y-2.248
X4.449Y-2.248
X4.549Y-2.248
X4.649Y-2.248
X4.749Y-2.248
X4.849Y-2.248
X4.949Y-2.248
X5.049Y-2.248
X5.149Y-2.248
T3
X3.499Y-2.298
X3.499Y-2.998
T0
M30
