G04 #@! TF.GenerationSoftware,KiCad,Pcbnew,(5.1.4)-1*
G04 #@! TF.CreationDate,2020-01-22T17:25:58-05:00*
G04 #@! TF.ProjectId,Feather-SAM-M8Q-GPS,46656174-6865-4722-9d53-414d2d4d3851,rev?*
G04 #@! TF.SameCoordinates,Original*
G04 #@! TF.FileFunction,Soldermask,Top*
G04 #@! TF.FilePolarity,Negative*
%FSLAX46Y46*%
G04 Gerber Fmt 4.6, Leading zero omitted, Abs format (unit mm)*
G04 Created by KiCad (PCBNEW (5.1.4)-1) date 2020-01-22 17:25:58*
%MOMM*%
%LPD*%
G04 APERTURE LIST*
%ADD10C,0.100000*%
G04 APERTURE END LIST*
D10*
G36*
X130895043Y-76524719D02*
G01*
X130961227Y-76531237D01*
X131131066Y-76582757D01*
X131287591Y-76666422D01*
X131323329Y-76695752D01*
X131424786Y-76779014D01*
X131508048Y-76880471D01*
X131537378Y-76916209D01*
X131621043Y-77072734D01*
X131672563Y-77242573D01*
X131689959Y-77419200D01*
X131672563Y-77595827D01*
X131621043Y-77765666D01*
X131537378Y-77922191D01*
X131508048Y-77957929D01*
X131424786Y-78059386D01*
X131323329Y-78142648D01*
X131287591Y-78171978D01*
X131131066Y-78255643D01*
X130961227Y-78307163D01*
X130895043Y-78313681D01*
X130828860Y-78320200D01*
X130740340Y-78320200D01*
X130674157Y-78313681D01*
X130607973Y-78307163D01*
X130438134Y-78255643D01*
X130281609Y-78171978D01*
X130245871Y-78142648D01*
X130144414Y-78059386D01*
X130061152Y-77957929D01*
X130031822Y-77922191D01*
X129948157Y-77765666D01*
X129896637Y-77595827D01*
X129879241Y-77419200D01*
X129896637Y-77242573D01*
X129948157Y-77072734D01*
X130031822Y-76916209D01*
X130061152Y-76880471D01*
X130144414Y-76779014D01*
X130245871Y-76695752D01*
X130281609Y-76666422D01*
X130438134Y-76582757D01*
X130607973Y-76531237D01*
X130674157Y-76524719D01*
X130740340Y-76518200D01*
X130828860Y-76518200D01*
X130895043Y-76524719D01*
X130895043Y-76524719D01*
G37*
G36*
X108035043Y-76524719D02*
G01*
X108101227Y-76531237D01*
X108271066Y-76582757D01*
X108427591Y-76666422D01*
X108463329Y-76695752D01*
X108564786Y-76779014D01*
X108648048Y-76880471D01*
X108677378Y-76916209D01*
X108761043Y-77072734D01*
X108812563Y-77242573D01*
X108829959Y-77419200D01*
X108812563Y-77595827D01*
X108761043Y-77765666D01*
X108677378Y-77922191D01*
X108648048Y-77957929D01*
X108564786Y-78059386D01*
X108463329Y-78142648D01*
X108427591Y-78171978D01*
X108271066Y-78255643D01*
X108101227Y-78307163D01*
X108035043Y-78313681D01*
X107968860Y-78320200D01*
X107880340Y-78320200D01*
X107814157Y-78313681D01*
X107747973Y-78307163D01*
X107578134Y-78255643D01*
X107421609Y-78171978D01*
X107385871Y-78142648D01*
X107284414Y-78059386D01*
X107201152Y-77957929D01*
X107171822Y-77922191D01*
X107088157Y-77765666D01*
X107036637Y-77595827D01*
X107019241Y-77419200D01*
X107036637Y-77242573D01*
X107088157Y-77072734D01*
X107171822Y-76916209D01*
X107201152Y-76880471D01*
X107284414Y-76779014D01*
X107385871Y-76695752D01*
X107421609Y-76666422D01*
X107578134Y-76582757D01*
X107747973Y-76531237D01*
X107814157Y-76524719D01*
X107880340Y-76518200D01*
X107968860Y-76518200D01*
X108035043Y-76524719D01*
X108035043Y-76524719D01*
G37*
G36*
X125815043Y-76524719D02*
G01*
X125881227Y-76531237D01*
X126051066Y-76582757D01*
X126207591Y-76666422D01*
X126243329Y-76695752D01*
X126344786Y-76779014D01*
X126428048Y-76880471D01*
X126457378Y-76916209D01*
X126541043Y-77072734D01*
X126592563Y-77242573D01*
X126609959Y-77419200D01*
X126592563Y-77595827D01*
X126541043Y-77765666D01*
X126457378Y-77922191D01*
X126428048Y-77957929D01*
X126344786Y-78059386D01*
X126243329Y-78142648D01*
X126207591Y-78171978D01*
X126051066Y-78255643D01*
X125881227Y-78307163D01*
X125815043Y-78313681D01*
X125748860Y-78320200D01*
X125660340Y-78320200D01*
X125594157Y-78313681D01*
X125527973Y-78307163D01*
X125358134Y-78255643D01*
X125201609Y-78171978D01*
X125165871Y-78142648D01*
X125064414Y-78059386D01*
X124981152Y-77957929D01*
X124951822Y-77922191D01*
X124868157Y-77765666D01*
X124816637Y-77595827D01*
X124799241Y-77419200D01*
X124816637Y-77242573D01*
X124868157Y-77072734D01*
X124951822Y-76916209D01*
X124981152Y-76880471D01*
X125064414Y-76779014D01*
X125165871Y-76695752D01*
X125201609Y-76666422D01*
X125358134Y-76582757D01*
X125527973Y-76531237D01*
X125594157Y-76524719D01*
X125660340Y-76518200D01*
X125748860Y-76518200D01*
X125815043Y-76524719D01*
X125815043Y-76524719D01*
G37*
G36*
X123275043Y-76524719D02*
G01*
X123341227Y-76531237D01*
X123511066Y-76582757D01*
X123667591Y-76666422D01*
X123703329Y-76695752D01*
X123804786Y-76779014D01*
X123888048Y-76880471D01*
X123917378Y-76916209D01*
X124001043Y-77072734D01*
X124052563Y-77242573D01*
X124069959Y-77419200D01*
X124052563Y-77595827D01*
X124001043Y-77765666D01*
X123917378Y-77922191D01*
X123888048Y-77957929D01*
X123804786Y-78059386D01*
X123703329Y-78142648D01*
X123667591Y-78171978D01*
X123511066Y-78255643D01*
X123341227Y-78307163D01*
X123275043Y-78313681D01*
X123208860Y-78320200D01*
X123120340Y-78320200D01*
X123054157Y-78313681D01*
X122987973Y-78307163D01*
X122818134Y-78255643D01*
X122661609Y-78171978D01*
X122625871Y-78142648D01*
X122524414Y-78059386D01*
X122441152Y-77957929D01*
X122411822Y-77922191D01*
X122328157Y-77765666D01*
X122276637Y-77595827D01*
X122259241Y-77419200D01*
X122276637Y-77242573D01*
X122328157Y-77072734D01*
X122411822Y-76916209D01*
X122441152Y-76880471D01*
X122524414Y-76779014D01*
X122625871Y-76695752D01*
X122661609Y-76666422D01*
X122818134Y-76582757D01*
X122987973Y-76531237D01*
X123054157Y-76524719D01*
X123120340Y-76518200D01*
X123208860Y-76518200D01*
X123275043Y-76524719D01*
X123275043Y-76524719D01*
G37*
G36*
X120735043Y-76524719D02*
G01*
X120801227Y-76531237D01*
X120971066Y-76582757D01*
X121127591Y-76666422D01*
X121163329Y-76695752D01*
X121264786Y-76779014D01*
X121348048Y-76880471D01*
X121377378Y-76916209D01*
X121461043Y-77072734D01*
X121512563Y-77242573D01*
X121529959Y-77419200D01*
X121512563Y-77595827D01*
X121461043Y-77765666D01*
X121377378Y-77922191D01*
X121348048Y-77957929D01*
X121264786Y-78059386D01*
X121163329Y-78142648D01*
X121127591Y-78171978D01*
X120971066Y-78255643D01*
X120801227Y-78307163D01*
X120735043Y-78313681D01*
X120668860Y-78320200D01*
X120580340Y-78320200D01*
X120514157Y-78313681D01*
X120447973Y-78307163D01*
X120278134Y-78255643D01*
X120121609Y-78171978D01*
X120085871Y-78142648D01*
X119984414Y-78059386D01*
X119901152Y-77957929D01*
X119871822Y-77922191D01*
X119788157Y-77765666D01*
X119736637Y-77595827D01*
X119719241Y-77419200D01*
X119736637Y-77242573D01*
X119788157Y-77072734D01*
X119871822Y-76916209D01*
X119901152Y-76880471D01*
X119984414Y-76779014D01*
X120085871Y-76695752D01*
X120121609Y-76666422D01*
X120278134Y-76582757D01*
X120447973Y-76531237D01*
X120514157Y-76524719D01*
X120580340Y-76518200D01*
X120668860Y-76518200D01*
X120735043Y-76524719D01*
X120735043Y-76524719D01*
G37*
G36*
X118195043Y-76524719D02*
G01*
X118261227Y-76531237D01*
X118431066Y-76582757D01*
X118587591Y-76666422D01*
X118623329Y-76695752D01*
X118724786Y-76779014D01*
X118808048Y-76880471D01*
X118837378Y-76916209D01*
X118921043Y-77072734D01*
X118972563Y-77242573D01*
X118989959Y-77419200D01*
X118972563Y-77595827D01*
X118921043Y-77765666D01*
X118837378Y-77922191D01*
X118808048Y-77957929D01*
X118724786Y-78059386D01*
X118623329Y-78142648D01*
X118587591Y-78171978D01*
X118431066Y-78255643D01*
X118261227Y-78307163D01*
X118195043Y-78313681D01*
X118128860Y-78320200D01*
X118040340Y-78320200D01*
X117974157Y-78313681D01*
X117907973Y-78307163D01*
X117738134Y-78255643D01*
X117581609Y-78171978D01*
X117545871Y-78142648D01*
X117444414Y-78059386D01*
X117361152Y-77957929D01*
X117331822Y-77922191D01*
X117248157Y-77765666D01*
X117196637Y-77595827D01*
X117179241Y-77419200D01*
X117196637Y-77242573D01*
X117248157Y-77072734D01*
X117331822Y-76916209D01*
X117361152Y-76880471D01*
X117444414Y-76779014D01*
X117545871Y-76695752D01*
X117581609Y-76666422D01*
X117738134Y-76582757D01*
X117907973Y-76531237D01*
X117974157Y-76524719D01*
X118040340Y-76518200D01*
X118128860Y-76518200D01*
X118195043Y-76524719D01*
X118195043Y-76524719D01*
G37*
G36*
X115655043Y-76524719D02*
G01*
X115721227Y-76531237D01*
X115891066Y-76582757D01*
X116047591Y-76666422D01*
X116083329Y-76695752D01*
X116184786Y-76779014D01*
X116268048Y-76880471D01*
X116297378Y-76916209D01*
X116381043Y-77072734D01*
X116432563Y-77242573D01*
X116449959Y-77419200D01*
X116432563Y-77595827D01*
X116381043Y-77765666D01*
X116297378Y-77922191D01*
X116268048Y-77957929D01*
X116184786Y-78059386D01*
X116083329Y-78142648D01*
X116047591Y-78171978D01*
X115891066Y-78255643D01*
X115721227Y-78307163D01*
X115655043Y-78313681D01*
X115588860Y-78320200D01*
X115500340Y-78320200D01*
X115434157Y-78313681D01*
X115367973Y-78307163D01*
X115198134Y-78255643D01*
X115041609Y-78171978D01*
X115005871Y-78142648D01*
X114904414Y-78059386D01*
X114821152Y-77957929D01*
X114791822Y-77922191D01*
X114708157Y-77765666D01*
X114656637Y-77595827D01*
X114639241Y-77419200D01*
X114656637Y-77242573D01*
X114708157Y-77072734D01*
X114791822Y-76916209D01*
X114821152Y-76880471D01*
X114904414Y-76779014D01*
X115005871Y-76695752D01*
X115041609Y-76666422D01*
X115198134Y-76582757D01*
X115367973Y-76531237D01*
X115434157Y-76524719D01*
X115500340Y-76518200D01*
X115588860Y-76518200D01*
X115655043Y-76524719D01*
X115655043Y-76524719D01*
G37*
G36*
X113115043Y-76524719D02*
G01*
X113181227Y-76531237D01*
X113351066Y-76582757D01*
X113507591Y-76666422D01*
X113543329Y-76695752D01*
X113644786Y-76779014D01*
X113728048Y-76880471D01*
X113757378Y-76916209D01*
X113841043Y-77072734D01*
X113892563Y-77242573D01*
X113909959Y-77419200D01*
X113892563Y-77595827D01*
X113841043Y-77765666D01*
X113757378Y-77922191D01*
X113728048Y-77957929D01*
X113644786Y-78059386D01*
X113543329Y-78142648D01*
X113507591Y-78171978D01*
X113351066Y-78255643D01*
X113181227Y-78307163D01*
X113115043Y-78313681D01*
X113048860Y-78320200D01*
X112960340Y-78320200D01*
X112894157Y-78313681D01*
X112827973Y-78307163D01*
X112658134Y-78255643D01*
X112501609Y-78171978D01*
X112465871Y-78142648D01*
X112364414Y-78059386D01*
X112281152Y-77957929D01*
X112251822Y-77922191D01*
X112168157Y-77765666D01*
X112116637Y-77595827D01*
X112099241Y-77419200D01*
X112116637Y-77242573D01*
X112168157Y-77072734D01*
X112251822Y-76916209D01*
X112281152Y-76880471D01*
X112364414Y-76779014D01*
X112465871Y-76695752D01*
X112501609Y-76666422D01*
X112658134Y-76582757D01*
X112827973Y-76531237D01*
X112894157Y-76524719D01*
X112960340Y-76518200D01*
X113048860Y-76518200D01*
X113115043Y-76524719D01*
X113115043Y-76524719D01*
G37*
G36*
X110575043Y-76524719D02*
G01*
X110641227Y-76531237D01*
X110811066Y-76582757D01*
X110967591Y-76666422D01*
X111003329Y-76695752D01*
X111104786Y-76779014D01*
X111188048Y-76880471D01*
X111217378Y-76916209D01*
X111301043Y-77072734D01*
X111352563Y-77242573D01*
X111369959Y-77419200D01*
X111352563Y-77595827D01*
X111301043Y-77765666D01*
X111217378Y-77922191D01*
X111188048Y-77957929D01*
X111104786Y-78059386D01*
X111003329Y-78142648D01*
X110967591Y-78171978D01*
X110811066Y-78255643D01*
X110641227Y-78307163D01*
X110575043Y-78313681D01*
X110508860Y-78320200D01*
X110420340Y-78320200D01*
X110354157Y-78313681D01*
X110287973Y-78307163D01*
X110118134Y-78255643D01*
X109961609Y-78171978D01*
X109925871Y-78142648D01*
X109824414Y-78059386D01*
X109741152Y-77957929D01*
X109711822Y-77922191D01*
X109628157Y-77765666D01*
X109576637Y-77595827D01*
X109559241Y-77419200D01*
X109576637Y-77242573D01*
X109628157Y-77072734D01*
X109711822Y-76916209D01*
X109741152Y-76880471D01*
X109824414Y-76779014D01*
X109925871Y-76695752D01*
X109961609Y-76666422D01*
X110118134Y-76582757D01*
X110287973Y-76531237D01*
X110354157Y-76524719D01*
X110420340Y-76518200D01*
X110508860Y-76518200D01*
X110575043Y-76524719D01*
X110575043Y-76524719D01*
G37*
G36*
X105495043Y-76524719D02*
G01*
X105561227Y-76531237D01*
X105731066Y-76582757D01*
X105887591Y-76666422D01*
X105923329Y-76695752D01*
X106024786Y-76779014D01*
X106108048Y-76880471D01*
X106137378Y-76916209D01*
X106221043Y-77072734D01*
X106272563Y-77242573D01*
X106289959Y-77419200D01*
X106272563Y-77595827D01*
X106221043Y-77765666D01*
X106137378Y-77922191D01*
X106108048Y-77957929D01*
X106024786Y-78059386D01*
X105923329Y-78142648D01*
X105887591Y-78171978D01*
X105731066Y-78255643D01*
X105561227Y-78307163D01*
X105495043Y-78313681D01*
X105428860Y-78320200D01*
X105340340Y-78320200D01*
X105274157Y-78313681D01*
X105207973Y-78307163D01*
X105038134Y-78255643D01*
X104881609Y-78171978D01*
X104845871Y-78142648D01*
X104744414Y-78059386D01*
X104661152Y-77957929D01*
X104631822Y-77922191D01*
X104548157Y-77765666D01*
X104496637Y-77595827D01*
X104479241Y-77419200D01*
X104496637Y-77242573D01*
X104548157Y-77072734D01*
X104631822Y-76916209D01*
X104661152Y-76880471D01*
X104744414Y-76779014D01*
X104845871Y-76695752D01*
X104881609Y-76666422D01*
X105038134Y-76582757D01*
X105207973Y-76531237D01*
X105274157Y-76524719D01*
X105340340Y-76518200D01*
X105428860Y-76518200D01*
X105495043Y-76524719D01*
X105495043Y-76524719D01*
G37*
G36*
X128355043Y-76524719D02*
G01*
X128421227Y-76531237D01*
X128591066Y-76582757D01*
X128747591Y-76666422D01*
X128783329Y-76695752D01*
X128884786Y-76779014D01*
X128968048Y-76880471D01*
X128997378Y-76916209D01*
X129081043Y-77072734D01*
X129132563Y-77242573D01*
X129149959Y-77419200D01*
X129132563Y-77595827D01*
X129081043Y-77765666D01*
X128997378Y-77922191D01*
X128968048Y-77957929D01*
X128884786Y-78059386D01*
X128783329Y-78142648D01*
X128747591Y-78171978D01*
X128591066Y-78255643D01*
X128421227Y-78307163D01*
X128355043Y-78313681D01*
X128288860Y-78320200D01*
X128200340Y-78320200D01*
X128134157Y-78313681D01*
X128067973Y-78307163D01*
X127898134Y-78255643D01*
X127741609Y-78171978D01*
X127705871Y-78142648D01*
X127604414Y-78059386D01*
X127521152Y-77957929D01*
X127491822Y-77922191D01*
X127408157Y-77765666D01*
X127356637Y-77595827D01*
X127339241Y-77419200D01*
X127356637Y-77242573D01*
X127408157Y-77072734D01*
X127491822Y-76916209D01*
X127521152Y-76880471D01*
X127604414Y-76779014D01*
X127705871Y-76695752D01*
X127741609Y-76666422D01*
X127898134Y-76582757D01*
X128067973Y-76531237D01*
X128134157Y-76524719D01*
X128200340Y-76518200D01*
X128288860Y-76518200D01*
X128355043Y-76524719D01*
X128355043Y-76524719D01*
G37*
G36*
X93585600Y-78320200D02*
G01*
X91783600Y-78320200D01*
X91783600Y-76518200D01*
X93585600Y-76518200D01*
X93585600Y-78320200D01*
X93585600Y-78320200D01*
G37*
G36*
X95335043Y-76524719D02*
G01*
X95401227Y-76531237D01*
X95571066Y-76582757D01*
X95727591Y-76666422D01*
X95763329Y-76695752D01*
X95864786Y-76779014D01*
X95948048Y-76880471D01*
X95977378Y-76916209D01*
X96061043Y-77072734D01*
X96112563Y-77242573D01*
X96129959Y-77419200D01*
X96112563Y-77595827D01*
X96061043Y-77765666D01*
X95977378Y-77922191D01*
X95948048Y-77957929D01*
X95864786Y-78059386D01*
X95763329Y-78142648D01*
X95727591Y-78171978D01*
X95571066Y-78255643D01*
X95401227Y-78307163D01*
X95335043Y-78313681D01*
X95268860Y-78320200D01*
X95180340Y-78320200D01*
X95114157Y-78313681D01*
X95047973Y-78307163D01*
X94878134Y-78255643D01*
X94721609Y-78171978D01*
X94685871Y-78142648D01*
X94584414Y-78059386D01*
X94501152Y-77957929D01*
X94471822Y-77922191D01*
X94388157Y-77765666D01*
X94336637Y-77595827D01*
X94319241Y-77419200D01*
X94336637Y-77242573D01*
X94388157Y-77072734D01*
X94471822Y-76916209D01*
X94501152Y-76880471D01*
X94584414Y-76779014D01*
X94685871Y-76695752D01*
X94721609Y-76666422D01*
X94878134Y-76582757D01*
X95047973Y-76531237D01*
X95114157Y-76524719D01*
X95180340Y-76518200D01*
X95268860Y-76518200D01*
X95335043Y-76524719D01*
X95335043Y-76524719D01*
G37*
G36*
X97875043Y-76524719D02*
G01*
X97941227Y-76531237D01*
X98111066Y-76582757D01*
X98267591Y-76666422D01*
X98303329Y-76695752D01*
X98404786Y-76779014D01*
X98488048Y-76880471D01*
X98517378Y-76916209D01*
X98601043Y-77072734D01*
X98652563Y-77242573D01*
X98669959Y-77419200D01*
X98652563Y-77595827D01*
X98601043Y-77765666D01*
X98517378Y-77922191D01*
X98488048Y-77957929D01*
X98404786Y-78059386D01*
X98303329Y-78142648D01*
X98267591Y-78171978D01*
X98111066Y-78255643D01*
X97941227Y-78307163D01*
X97875043Y-78313681D01*
X97808860Y-78320200D01*
X97720340Y-78320200D01*
X97654157Y-78313681D01*
X97587973Y-78307163D01*
X97418134Y-78255643D01*
X97261609Y-78171978D01*
X97225871Y-78142648D01*
X97124414Y-78059386D01*
X97041152Y-77957929D01*
X97011822Y-77922191D01*
X96928157Y-77765666D01*
X96876637Y-77595827D01*
X96859241Y-77419200D01*
X96876637Y-77242573D01*
X96928157Y-77072734D01*
X97011822Y-76916209D01*
X97041152Y-76880471D01*
X97124414Y-76779014D01*
X97225871Y-76695752D01*
X97261609Y-76666422D01*
X97418134Y-76582757D01*
X97587973Y-76531237D01*
X97654157Y-76524719D01*
X97720340Y-76518200D01*
X97808860Y-76518200D01*
X97875043Y-76524719D01*
X97875043Y-76524719D01*
G37*
G36*
X100415043Y-76524719D02*
G01*
X100481227Y-76531237D01*
X100651066Y-76582757D01*
X100807591Y-76666422D01*
X100843329Y-76695752D01*
X100944786Y-76779014D01*
X101028048Y-76880471D01*
X101057378Y-76916209D01*
X101141043Y-77072734D01*
X101192563Y-77242573D01*
X101209959Y-77419200D01*
X101192563Y-77595827D01*
X101141043Y-77765666D01*
X101057378Y-77922191D01*
X101028048Y-77957929D01*
X100944786Y-78059386D01*
X100843329Y-78142648D01*
X100807591Y-78171978D01*
X100651066Y-78255643D01*
X100481227Y-78307163D01*
X100415043Y-78313681D01*
X100348860Y-78320200D01*
X100260340Y-78320200D01*
X100194157Y-78313681D01*
X100127973Y-78307163D01*
X99958134Y-78255643D01*
X99801609Y-78171978D01*
X99765871Y-78142648D01*
X99664414Y-78059386D01*
X99581152Y-77957929D01*
X99551822Y-77922191D01*
X99468157Y-77765666D01*
X99416637Y-77595827D01*
X99399241Y-77419200D01*
X99416637Y-77242573D01*
X99468157Y-77072734D01*
X99551822Y-76916209D01*
X99581152Y-76880471D01*
X99664414Y-76779014D01*
X99765871Y-76695752D01*
X99801609Y-76666422D01*
X99958134Y-76582757D01*
X100127973Y-76531237D01*
X100194157Y-76524719D01*
X100260340Y-76518200D01*
X100348860Y-76518200D01*
X100415043Y-76524719D01*
X100415043Y-76524719D01*
G37*
G36*
X102955043Y-76524719D02*
G01*
X103021227Y-76531237D01*
X103191066Y-76582757D01*
X103347591Y-76666422D01*
X103383329Y-76695752D01*
X103484786Y-76779014D01*
X103568048Y-76880471D01*
X103597378Y-76916209D01*
X103681043Y-77072734D01*
X103732563Y-77242573D01*
X103749959Y-77419200D01*
X103732563Y-77595827D01*
X103681043Y-77765666D01*
X103597378Y-77922191D01*
X103568048Y-77957929D01*
X103484786Y-78059386D01*
X103383329Y-78142648D01*
X103347591Y-78171978D01*
X103191066Y-78255643D01*
X103021227Y-78307163D01*
X102955043Y-78313681D01*
X102888860Y-78320200D01*
X102800340Y-78320200D01*
X102734157Y-78313681D01*
X102667973Y-78307163D01*
X102498134Y-78255643D01*
X102341609Y-78171978D01*
X102305871Y-78142648D01*
X102204414Y-78059386D01*
X102121152Y-77957929D01*
X102091822Y-77922191D01*
X102008157Y-77765666D01*
X101956637Y-77595827D01*
X101939241Y-77419200D01*
X101956637Y-77242573D01*
X102008157Y-77072734D01*
X102091822Y-76916209D01*
X102121152Y-76880471D01*
X102204414Y-76779014D01*
X102305871Y-76695752D01*
X102341609Y-76666422D01*
X102498134Y-76582757D01*
X102667973Y-76531237D01*
X102734157Y-76524719D01*
X102800340Y-76518200D01*
X102888860Y-76518200D01*
X102955043Y-76524719D01*
X102955043Y-76524719D01*
G37*
G36*
X89443685Y-74273175D02*
G01*
X89798743Y-74420245D01*
X89798745Y-74420246D01*
X90118290Y-74633759D01*
X90390041Y-74905510D01*
X90450684Y-74996269D01*
X90603555Y-75225057D01*
X90750625Y-75580115D01*
X90825600Y-75957042D01*
X90825600Y-76341358D01*
X90750625Y-76718285D01*
X90668642Y-76916209D01*
X90603554Y-77073345D01*
X90390041Y-77392890D01*
X90118290Y-77664641D01*
X89798745Y-77878154D01*
X89798744Y-77878155D01*
X89798743Y-77878155D01*
X89443685Y-78025225D01*
X89066758Y-78100200D01*
X88682442Y-78100200D01*
X88305515Y-78025225D01*
X87950457Y-77878155D01*
X87950456Y-77878155D01*
X87950455Y-77878154D01*
X87630910Y-77664641D01*
X87359159Y-77392890D01*
X87145646Y-77073345D01*
X87080558Y-76916209D01*
X86998575Y-76718285D01*
X86923600Y-76341358D01*
X86923600Y-75957042D01*
X86998575Y-75580115D01*
X87145645Y-75225057D01*
X87298516Y-74996269D01*
X87359159Y-74905510D01*
X87630910Y-74633759D01*
X87950455Y-74420246D01*
X87950457Y-74420245D01*
X88305515Y-74273175D01*
X88682442Y-74198200D01*
X89066758Y-74198200D01*
X89443685Y-74273175D01*
X89443685Y-74273175D01*
G37*
G36*
X134974087Y-74898196D02*
G01*
X135210853Y-74996268D01*
X135210855Y-74996269D01*
X135423939Y-75138647D01*
X135605153Y-75319861D01*
X135747532Y-75532947D01*
X135845604Y-75769713D01*
X135895600Y-76021061D01*
X135895600Y-76277339D01*
X135845604Y-76528687D01*
X135767069Y-76718286D01*
X135747531Y-76765455D01*
X135605153Y-76978539D01*
X135423939Y-77159753D01*
X135210855Y-77302131D01*
X135210854Y-77302132D01*
X135210853Y-77302132D01*
X134974087Y-77400204D01*
X134722739Y-77450200D01*
X134466461Y-77450200D01*
X134215113Y-77400204D01*
X133978347Y-77302132D01*
X133978346Y-77302132D01*
X133978345Y-77302131D01*
X133765261Y-77159753D01*
X133584047Y-76978539D01*
X133441669Y-76765455D01*
X133422131Y-76718286D01*
X133343596Y-76528687D01*
X133293600Y-76277339D01*
X133293600Y-76021061D01*
X133343596Y-75769713D01*
X133441668Y-75532947D01*
X133584047Y-75319861D01*
X133765261Y-75138647D01*
X133978345Y-74996269D01*
X133978347Y-74996268D01*
X134215113Y-74898196D01*
X134466461Y-74848200D01*
X134722739Y-74848200D01*
X134974087Y-74898196D01*
X134974087Y-74898196D01*
G37*
G36*
X93201108Y-74579805D02*
G01*
X93239778Y-74591536D01*
X93275417Y-74610586D01*
X93306657Y-74636223D01*
X93332294Y-74667463D01*
X93351344Y-74703102D01*
X93363075Y-74741772D01*
X93367640Y-74788128D01*
X93367640Y-75864352D01*
X93363075Y-75910708D01*
X93351344Y-75949378D01*
X93332294Y-75985017D01*
X93306657Y-76016257D01*
X93275417Y-76041894D01*
X93239778Y-76060944D01*
X93201108Y-76072675D01*
X93154752Y-76077240D01*
X92503528Y-76077240D01*
X92457172Y-76072675D01*
X92418502Y-76060944D01*
X92382863Y-76041894D01*
X92351623Y-76016257D01*
X92325986Y-75985017D01*
X92306936Y-75949378D01*
X92295205Y-75910708D01*
X92290640Y-75864352D01*
X92290640Y-74788128D01*
X92295205Y-74741772D01*
X92306936Y-74703102D01*
X92325986Y-74667463D01*
X92351623Y-74636223D01*
X92382863Y-74610586D01*
X92418502Y-74591536D01*
X92457172Y-74579805D01*
X92503528Y-74575240D01*
X93154752Y-74575240D01*
X93201108Y-74579805D01*
X93201108Y-74579805D01*
G37*
G36*
X95076108Y-74579805D02*
G01*
X95114778Y-74591536D01*
X95150417Y-74610586D01*
X95181657Y-74636223D01*
X95207294Y-74667463D01*
X95226344Y-74703102D01*
X95238075Y-74741772D01*
X95242640Y-74788128D01*
X95242640Y-75864352D01*
X95238075Y-75910708D01*
X95226344Y-75949378D01*
X95207294Y-75985017D01*
X95181657Y-76016257D01*
X95150417Y-76041894D01*
X95114778Y-76060944D01*
X95076108Y-76072675D01*
X95029752Y-76077240D01*
X94378528Y-76077240D01*
X94332172Y-76072675D01*
X94293502Y-76060944D01*
X94257863Y-76041894D01*
X94226623Y-76016257D01*
X94200986Y-75985017D01*
X94181936Y-75949378D01*
X94170205Y-75910708D01*
X94165640Y-75864352D01*
X94165640Y-74788128D01*
X94170205Y-74741772D01*
X94181936Y-74703102D01*
X94200986Y-74667463D01*
X94226623Y-74636223D01*
X94257863Y-74610586D01*
X94293502Y-74591536D01*
X94332172Y-74579805D01*
X94378528Y-74575240D01*
X95029752Y-74575240D01*
X95076108Y-74579805D01*
X95076108Y-74579805D01*
G37*
G36*
X110051121Y-74982721D02*
G01*
X108551119Y-74982721D01*
X108551119Y-73182719D01*
X110051121Y-73182719D01*
X110051121Y-74982721D01*
X110051121Y-74982721D01*
G37*
G36*
X111951121Y-74982721D02*
G01*
X110451119Y-74982721D01*
X110451119Y-73182719D01*
X111951121Y-73182719D01*
X111951121Y-74982721D01*
X111951121Y-74982721D01*
G37*
G36*
X113851121Y-74982721D02*
G01*
X112351119Y-74982721D01*
X112351119Y-73182719D01*
X113851121Y-73182719D01*
X113851121Y-74982721D01*
X113851121Y-74982721D01*
G37*
G36*
X115751121Y-74982721D02*
G01*
X114251119Y-74982721D01*
X114251119Y-73182719D01*
X115751121Y-73182719D01*
X115751121Y-74982721D01*
X115751121Y-74982721D01*
G37*
G36*
X117651121Y-74982721D02*
G01*
X116151119Y-74982721D01*
X116151119Y-73182719D01*
X117651121Y-73182719D01*
X117651121Y-74982721D01*
X117651121Y-74982721D01*
G37*
G36*
X130843908Y-73446965D02*
G01*
X130882578Y-73458696D01*
X130918217Y-73477746D01*
X130949457Y-73503383D01*
X130975094Y-73534623D01*
X130994144Y-73570262D01*
X131005875Y-73608932D01*
X131010440Y-73655288D01*
X131010440Y-74731512D01*
X131005875Y-74777868D01*
X130994144Y-74816538D01*
X130975094Y-74852177D01*
X130949457Y-74883417D01*
X130918217Y-74909054D01*
X130882578Y-74928104D01*
X130843908Y-74939835D01*
X130797552Y-74944400D01*
X130146328Y-74944400D01*
X130099972Y-74939835D01*
X130061302Y-74928104D01*
X130025663Y-74909054D01*
X129994423Y-74883417D01*
X129968786Y-74852177D01*
X129949736Y-74816538D01*
X129938005Y-74777868D01*
X129933440Y-74731512D01*
X129933440Y-73655288D01*
X129938005Y-73608932D01*
X129949736Y-73570262D01*
X129968786Y-73534623D01*
X129994423Y-73503383D01*
X130025663Y-73477746D01*
X130061302Y-73458696D01*
X130099972Y-73446965D01*
X130146328Y-73442400D01*
X130797552Y-73442400D01*
X130843908Y-73446965D01*
X130843908Y-73446965D01*
G37*
G36*
X132718908Y-73446965D02*
G01*
X132757578Y-73458696D01*
X132793217Y-73477746D01*
X132824457Y-73503383D01*
X132850094Y-73534623D01*
X132869144Y-73570262D01*
X132880875Y-73608932D01*
X132885440Y-73655288D01*
X132885440Y-74731512D01*
X132880875Y-74777868D01*
X132869144Y-74816538D01*
X132850094Y-74852177D01*
X132824457Y-74883417D01*
X132793217Y-74909054D01*
X132757578Y-74928104D01*
X132718908Y-74939835D01*
X132672552Y-74944400D01*
X132021328Y-74944400D01*
X131974972Y-74939835D01*
X131936302Y-74928104D01*
X131900663Y-74909054D01*
X131869423Y-74883417D01*
X131843786Y-74852177D01*
X131824736Y-74816538D01*
X131813005Y-74777868D01*
X131808440Y-74731512D01*
X131808440Y-73655288D01*
X131813005Y-73608932D01*
X131824736Y-73570262D01*
X131843786Y-73534623D01*
X131869423Y-73503383D01*
X131900663Y-73477746D01*
X131936302Y-73458696D01*
X131974972Y-73446965D01*
X132021328Y-73442400D01*
X132672552Y-73442400D01*
X132718908Y-73446965D01*
X132718908Y-73446965D01*
G37*
G36*
X88036668Y-72849445D02*
G01*
X88075338Y-72861176D01*
X88110977Y-72880226D01*
X88142217Y-72905863D01*
X88167854Y-72937103D01*
X88186904Y-72972742D01*
X88198635Y-73011412D01*
X88203200Y-73057768D01*
X88203200Y-73708992D01*
X88198635Y-73755348D01*
X88186904Y-73794018D01*
X88167854Y-73829657D01*
X88142217Y-73860897D01*
X88110977Y-73886534D01*
X88075338Y-73905584D01*
X88036668Y-73917315D01*
X87990312Y-73921880D01*
X86914088Y-73921880D01*
X86867732Y-73917315D01*
X86829062Y-73905584D01*
X86793423Y-73886534D01*
X86762183Y-73860897D01*
X86736546Y-73829657D01*
X86717496Y-73794018D01*
X86705765Y-73755348D01*
X86701200Y-73708992D01*
X86701200Y-73057768D01*
X86705765Y-73011412D01*
X86717496Y-72972742D01*
X86736546Y-72937103D01*
X86762183Y-72905863D01*
X86793423Y-72880226D01*
X86829062Y-72861176D01*
X86867732Y-72849445D01*
X86914088Y-72844880D01*
X87990312Y-72844880D01*
X88036668Y-72849445D01*
X88036668Y-72849445D01*
G37*
G36*
X91611548Y-72253165D02*
G01*
X91650218Y-72264896D01*
X91685857Y-72283946D01*
X91717097Y-72309583D01*
X91742734Y-72340823D01*
X91761784Y-72376462D01*
X91773515Y-72415132D01*
X91778080Y-72461488D01*
X91778080Y-73537712D01*
X91773515Y-73584068D01*
X91761784Y-73622738D01*
X91742734Y-73658377D01*
X91717097Y-73689617D01*
X91685857Y-73715254D01*
X91650218Y-73734304D01*
X91611548Y-73746035D01*
X91565192Y-73750600D01*
X90913968Y-73750600D01*
X90867612Y-73746035D01*
X90828942Y-73734304D01*
X90793303Y-73715254D01*
X90762063Y-73689617D01*
X90736426Y-73658377D01*
X90717376Y-73622738D01*
X90705645Y-73584068D01*
X90701080Y-73537712D01*
X90701080Y-72461488D01*
X90705645Y-72415132D01*
X90717376Y-72376462D01*
X90736426Y-72340823D01*
X90762063Y-72309583D01*
X90793303Y-72283946D01*
X90828942Y-72264896D01*
X90867612Y-72253165D01*
X90913968Y-72248600D01*
X91565192Y-72248600D01*
X91611548Y-72253165D01*
X91611548Y-72253165D01*
G37*
G36*
X89736548Y-72253165D02*
G01*
X89775218Y-72264896D01*
X89810857Y-72283946D01*
X89842097Y-72309583D01*
X89867734Y-72340823D01*
X89886784Y-72376462D01*
X89898515Y-72415132D01*
X89903080Y-72461488D01*
X89903080Y-73537712D01*
X89898515Y-73584068D01*
X89886784Y-73622738D01*
X89867734Y-73658377D01*
X89842097Y-73689617D01*
X89810857Y-73715254D01*
X89775218Y-73734304D01*
X89736548Y-73746035D01*
X89690192Y-73750600D01*
X89038968Y-73750600D01*
X88992612Y-73746035D01*
X88953942Y-73734304D01*
X88918303Y-73715254D01*
X88887063Y-73689617D01*
X88861426Y-73658377D01*
X88842376Y-73622738D01*
X88830645Y-73584068D01*
X88826080Y-73537712D01*
X88826080Y-72461488D01*
X88830645Y-72415132D01*
X88842376Y-72376462D01*
X88861426Y-72340823D01*
X88887063Y-72309583D01*
X88918303Y-72283946D01*
X88953942Y-72264896D01*
X88992612Y-72253165D01*
X89038968Y-72248600D01*
X89690192Y-72248600D01*
X89736548Y-72253165D01*
X89736548Y-72253165D01*
G37*
G36*
X132645488Y-71577525D02*
G01*
X132684158Y-71589256D01*
X132719797Y-71608306D01*
X132751037Y-71633943D01*
X132776674Y-71665183D01*
X132795724Y-71700822D01*
X132807455Y-71739492D01*
X132812020Y-71785848D01*
X132812020Y-72862072D01*
X132807455Y-72908428D01*
X132795724Y-72947098D01*
X132776674Y-72982737D01*
X132751037Y-73013977D01*
X132719797Y-73039614D01*
X132684158Y-73058664D01*
X132645488Y-73070395D01*
X132599132Y-73074960D01*
X131947908Y-73074960D01*
X131901552Y-73070395D01*
X131862882Y-73058664D01*
X131827243Y-73039614D01*
X131796003Y-73013977D01*
X131770366Y-72982737D01*
X131751316Y-72947098D01*
X131739585Y-72908428D01*
X131735020Y-72862072D01*
X131735020Y-71785848D01*
X131739585Y-71739492D01*
X131751316Y-71700822D01*
X131770366Y-71665183D01*
X131796003Y-71633943D01*
X131827243Y-71608306D01*
X131862882Y-71589256D01*
X131901552Y-71577525D01*
X131947908Y-71572960D01*
X132599132Y-71572960D01*
X132645488Y-71577525D01*
X132645488Y-71577525D01*
G37*
G36*
X130770488Y-71577525D02*
G01*
X130809158Y-71589256D01*
X130844797Y-71608306D01*
X130876037Y-71633943D01*
X130901674Y-71665183D01*
X130920724Y-71700822D01*
X130932455Y-71739492D01*
X130937020Y-71785848D01*
X130937020Y-72862072D01*
X130932455Y-72908428D01*
X130920724Y-72947098D01*
X130901674Y-72982737D01*
X130876037Y-73013977D01*
X130844797Y-73039614D01*
X130809158Y-73058664D01*
X130770488Y-73070395D01*
X130724132Y-73074960D01*
X130072908Y-73074960D01*
X130026552Y-73070395D01*
X129987882Y-73058664D01*
X129952243Y-73039614D01*
X129921003Y-73013977D01*
X129895366Y-72982737D01*
X129876316Y-72947098D01*
X129864585Y-72908428D01*
X129860020Y-72862072D01*
X129860020Y-71785848D01*
X129864585Y-71739492D01*
X129876316Y-71700822D01*
X129895366Y-71665183D01*
X129921003Y-71633943D01*
X129952243Y-71608306D01*
X129987882Y-71589256D01*
X130026552Y-71577525D01*
X130072908Y-71572960D01*
X130724132Y-71572960D01*
X130770488Y-71577525D01*
X130770488Y-71577525D01*
G37*
G36*
X95610948Y-71234005D02*
G01*
X95649618Y-71245736D01*
X95685257Y-71264786D01*
X95716497Y-71290423D01*
X95742134Y-71321663D01*
X95761184Y-71357302D01*
X95772915Y-71395972D01*
X95777480Y-71442328D01*
X95777480Y-72093552D01*
X95772915Y-72139908D01*
X95761184Y-72178578D01*
X95742134Y-72214217D01*
X95716497Y-72245457D01*
X95685257Y-72271094D01*
X95649618Y-72290144D01*
X95610948Y-72301875D01*
X95564592Y-72306440D01*
X94488368Y-72306440D01*
X94442012Y-72301875D01*
X94403342Y-72290144D01*
X94367703Y-72271094D01*
X94336463Y-72245457D01*
X94310826Y-72214217D01*
X94291776Y-72178578D01*
X94280045Y-72139908D01*
X94275480Y-72093552D01*
X94275480Y-71442328D01*
X94280045Y-71395972D01*
X94291776Y-71357302D01*
X94310826Y-71321663D01*
X94336463Y-71290423D01*
X94367703Y-71264786D01*
X94403342Y-71245736D01*
X94442012Y-71234005D01*
X94488368Y-71229440D01*
X95564592Y-71229440D01*
X95610948Y-71234005D01*
X95610948Y-71234005D01*
G37*
G36*
X88036668Y-70974445D02*
G01*
X88075338Y-70986176D01*
X88110977Y-71005226D01*
X88142217Y-71030863D01*
X88167854Y-71062103D01*
X88186904Y-71097742D01*
X88198635Y-71136412D01*
X88203200Y-71182768D01*
X88203200Y-71833992D01*
X88198635Y-71880348D01*
X88186904Y-71919018D01*
X88167854Y-71954657D01*
X88142217Y-71985897D01*
X88110977Y-72011534D01*
X88075338Y-72030584D01*
X88036668Y-72042315D01*
X87990312Y-72046880D01*
X86914088Y-72046880D01*
X86867732Y-72042315D01*
X86829062Y-72030584D01*
X86793423Y-72011534D01*
X86762183Y-71985897D01*
X86736546Y-71954657D01*
X86717496Y-71919018D01*
X86705765Y-71880348D01*
X86701200Y-71833992D01*
X86701200Y-71182768D01*
X86705765Y-71136412D01*
X86717496Y-71097742D01*
X86736546Y-71062103D01*
X86762183Y-71030863D01*
X86793423Y-71005226D01*
X86829062Y-70986176D01*
X86867732Y-70974445D01*
X86914088Y-70969880D01*
X87990312Y-70969880D01*
X88036668Y-70974445D01*
X88036668Y-70974445D01*
G37*
G36*
X120601121Y-72032721D02*
G01*
X118801119Y-72032721D01*
X118801119Y-70532719D01*
X120601121Y-70532719D01*
X120601121Y-72032721D01*
X120601121Y-72032721D01*
G37*
G36*
X107401121Y-72032721D02*
G01*
X105601119Y-72032721D01*
X105601119Y-70532719D01*
X107401121Y-70532719D01*
X107401121Y-72032721D01*
X107401121Y-72032721D01*
G37*
G36*
X89629700Y-71523300D02*
G01*
X88727700Y-71523300D01*
X88727700Y-69421300D01*
X89629700Y-69421300D01*
X89629700Y-71523300D01*
X89629700Y-71523300D01*
G37*
G36*
X91129700Y-71523300D02*
G01*
X90227700Y-71523300D01*
X90227700Y-69421300D01*
X91129700Y-69421300D01*
X91129700Y-71523300D01*
X91129700Y-71523300D01*
G37*
G36*
X95610948Y-69359005D02*
G01*
X95649618Y-69370736D01*
X95685257Y-69389786D01*
X95716497Y-69415423D01*
X95742134Y-69446663D01*
X95761184Y-69482302D01*
X95772915Y-69520972D01*
X95777480Y-69567328D01*
X95777480Y-70218552D01*
X95772915Y-70264908D01*
X95761184Y-70303578D01*
X95742134Y-70339217D01*
X95716497Y-70370457D01*
X95685257Y-70396094D01*
X95649618Y-70415144D01*
X95610948Y-70426875D01*
X95564592Y-70431440D01*
X94488368Y-70431440D01*
X94442012Y-70426875D01*
X94403342Y-70415144D01*
X94367703Y-70396094D01*
X94336463Y-70370457D01*
X94310826Y-70339217D01*
X94291776Y-70303578D01*
X94280045Y-70264908D01*
X94275480Y-70218552D01*
X94275480Y-69567328D01*
X94280045Y-69520972D01*
X94291776Y-69482302D01*
X94310826Y-69446663D01*
X94336463Y-69415423D01*
X94367703Y-69389786D01*
X94403342Y-69370736D01*
X94442012Y-69359005D01*
X94488368Y-69354440D01*
X95564592Y-69354440D01*
X95610948Y-69359005D01*
X95610948Y-69359005D01*
G37*
G36*
X107401121Y-70132721D02*
G01*
X105601119Y-70132721D01*
X105601119Y-68632719D01*
X107401121Y-68632719D01*
X107401121Y-70132721D01*
X107401121Y-70132721D01*
G37*
G36*
X120601121Y-70132721D02*
G01*
X118801119Y-70132721D01*
X118801119Y-68632719D01*
X120601121Y-68632719D01*
X120601121Y-70132721D01*
X120601121Y-70132721D01*
G37*
G36*
X133335028Y-68170765D02*
G01*
X133373698Y-68182496D01*
X133409337Y-68201546D01*
X133440577Y-68227183D01*
X133466214Y-68258423D01*
X133485264Y-68294062D01*
X133496995Y-68332732D01*
X133501560Y-68379088D01*
X133501560Y-69030312D01*
X133496995Y-69076668D01*
X133485264Y-69115338D01*
X133466214Y-69150977D01*
X133440577Y-69182217D01*
X133409337Y-69207854D01*
X133373698Y-69226904D01*
X133335028Y-69238635D01*
X133288672Y-69243200D01*
X132212448Y-69243200D01*
X132166092Y-69238635D01*
X132127422Y-69226904D01*
X132091783Y-69207854D01*
X132060543Y-69182217D01*
X132034906Y-69150977D01*
X132015856Y-69115338D01*
X132004125Y-69076668D01*
X131999560Y-69030312D01*
X131999560Y-68379088D01*
X132004125Y-68332732D01*
X132015856Y-68294062D01*
X132034906Y-68258423D01*
X132060543Y-68227183D01*
X132091783Y-68201546D01*
X132127422Y-68182496D01*
X132166092Y-68170765D01*
X132212448Y-68166200D01*
X133288672Y-68166200D01*
X133335028Y-68170765D01*
X133335028Y-68170765D01*
G37*
G36*
X135494028Y-68155525D02*
G01*
X135532698Y-68167256D01*
X135568337Y-68186306D01*
X135599577Y-68211943D01*
X135625214Y-68243183D01*
X135644264Y-68278822D01*
X135655995Y-68317492D01*
X135660560Y-68363848D01*
X135660560Y-69015072D01*
X135655995Y-69061428D01*
X135644264Y-69100098D01*
X135625214Y-69135737D01*
X135599577Y-69166977D01*
X135568337Y-69192614D01*
X135532698Y-69211664D01*
X135494028Y-69223395D01*
X135447672Y-69227960D01*
X134371448Y-69227960D01*
X134325092Y-69223395D01*
X134286422Y-69211664D01*
X134250783Y-69192614D01*
X134219543Y-69166977D01*
X134193906Y-69135737D01*
X134174856Y-69100098D01*
X134163125Y-69061428D01*
X134158560Y-69015072D01*
X134158560Y-68363848D01*
X134163125Y-68317492D01*
X134174856Y-68278822D01*
X134193906Y-68243183D01*
X134219543Y-68211943D01*
X134250783Y-68186306D01*
X134286422Y-68167256D01*
X134325092Y-68155525D01*
X134371448Y-68150960D01*
X135447672Y-68150960D01*
X135494028Y-68155525D01*
X135494028Y-68155525D01*
G37*
G36*
X107401121Y-68232721D02*
G01*
X105601119Y-68232721D01*
X105601119Y-66732719D01*
X107401121Y-66732719D01*
X107401121Y-68232721D01*
X107401121Y-68232721D01*
G37*
G36*
X120601121Y-68232721D02*
G01*
X118801119Y-68232721D01*
X118801119Y-66732719D01*
X120601121Y-66732719D01*
X120601121Y-68232721D01*
X120601121Y-68232721D01*
G37*
G36*
X133335028Y-66295765D02*
G01*
X133373698Y-66307496D01*
X133409337Y-66326546D01*
X133440577Y-66352183D01*
X133466214Y-66383423D01*
X133485264Y-66419062D01*
X133496995Y-66457732D01*
X133501560Y-66504088D01*
X133501560Y-67155312D01*
X133496995Y-67201668D01*
X133485264Y-67240338D01*
X133466214Y-67275977D01*
X133440577Y-67307217D01*
X133409337Y-67332854D01*
X133373698Y-67351904D01*
X133335028Y-67363635D01*
X133288672Y-67368200D01*
X132212448Y-67368200D01*
X132166092Y-67363635D01*
X132127422Y-67351904D01*
X132091783Y-67332854D01*
X132060543Y-67307217D01*
X132034906Y-67275977D01*
X132015856Y-67240338D01*
X132004125Y-67201668D01*
X131999560Y-67155312D01*
X131999560Y-66504088D01*
X132004125Y-66457732D01*
X132015856Y-66419062D01*
X132034906Y-66383423D01*
X132060543Y-66352183D01*
X132091783Y-66326546D01*
X132127422Y-66307496D01*
X132166092Y-66295765D01*
X132212448Y-66291200D01*
X133288672Y-66291200D01*
X133335028Y-66295765D01*
X133335028Y-66295765D01*
G37*
G36*
X135494028Y-66280525D02*
G01*
X135532698Y-66292256D01*
X135568337Y-66311306D01*
X135599577Y-66336943D01*
X135625214Y-66368183D01*
X135644264Y-66403822D01*
X135655995Y-66442492D01*
X135660560Y-66488848D01*
X135660560Y-67140072D01*
X135655995Y-67186428D01*
X135644264Y-67225098D01*
X135625214Y-67260737D01*
X135599577Y-67291977D01*
X135568337Y-67317614D01*
X135532698Y-67336664D01*
X135494028Y-67348395D01*
X135447672Y-67352960D01*
X134371448Y-67352960D01*
X134325092Y-67348395D01*
X134286422Y-67336664D01*
X134250783Y-67317614D01*
X134219543Y-67291977D01*
X134193906Y-67260737D01*
X134174856Y-67225098D01*
X134163125Y-67186428D01*
X134158560Y-67140072D01*
X134158560Y-66488848D01*
X134163125Y-66442492D01*
X134174856Y-66403822D01*
X134193906Y-66368183D01*
X134219543Y-66336943D01*
X134250783Y-66311306D01*
X134286422Y-66292256D01*
X134325092Y-66280525D01*
X134371448Y-66275960D01*
X135447672Y-66275960D01*
X135494028Y-66280525D01*
X135494028Y-66280525D01*
G37*
G36*
X120601121Y-66332721D02*
G01*
X118801119Y-66332721D01*
X118801119Y-64832719D01*
X120601121Y-64832719D01*
X120601121Y-66332721D01*
X120601121Y-66332721D01*
G37*
G36*
X107401121Y-66332721D02*
G01*
X105601119Y-66332721D01*
X105601119Y-64832719D01*
X107401121Y-64832719D01*
X107401121Y-66332721D01*
X107401121Y-66332721D01*
G37*
G36*
X135405128Y-64459825D02*
G01*
X135443798Y-64471556D01*
X135479437Y-64490606D01*
X135510677Y-64516243D01*
X135536314Y-64547483D01*
X135555364Y-64583122D01*
X135567095Y-64621792D01*
X135571660Y-64668148D01*
X135571660Y-65319372D01*
X135567095Y-65365728D01*
X135555364Y-65404398D01*
X135536314Y-65440037D01*
X135510677Y-65471277D01*
X135479437Y-65496914D01*
X135443798Y-65515964D01*
X135405128Y-65527695D01*
X135358772Y-65532260D01*
X134282548Y-65532260D01*
X134236192Y-65527695D01*
X134197522Y-65515964D01*
X134161883Y-65496914D01*
X134130643Y-65471277D01*
X134105006Y-65440037D01*
X134085956Y-65404398D01*
X134074225Y-65365728D01*
X134069660Y-65319372D01*
X134069660Y-64668148D01*
X134074225Y-64621792D01*
X134085956Y-64583122D01*
X134105006Y-64547483D01*
X134130643Y-64516243D01*
X134161883Y-64490606D01*
X134197522Y-64471556D01*
X134236192Y-64459825D01*
X134282548Y-64455260D01*
X135358772Y-64455260D01*
X135405128Y-64459825D01*
X135405128Y-64459825D01*
G37*
G36*
X133449328Y-64459825D02*
G01*
X133487998Y-64471556D01*
X133523637Y-64490606D01*
X133554877Y-64516243D01*
X133580514Y-64547483D01*
X133599564Y-64583122D01*
X133611295Y-64621792D01*
X133615860Y-64668148D01*
X133615860Y-65319372D01*
X133611295Y-65365728D01*
X133599564Y-65404398D01*
X133580514Y-65440037D01*
X133554877Y-65471277D01*
X133523637Y-65496914D01*
X133487998Y-65515964D01*
X133449328Y-65527695D01*
X133402972Y-65532260D01*
X132326748Y-65532260D01*
X132280392Y-65527695D01*
X132241722Y-65515964D01*
X132206083Y-65496914D01*
X132174843Y-65471277D01*
X132149206Y-65440037D01*
X132130156Y-65404398D01*
X132118425Y-65365728D01*
X132113860Y-65319372D01*
X132113860Y-64668148D01*
X132118425Y-64621792D01*
X132130156Y-64583122D01*
X132149206Y-64547483D01*
X132174843Y-64516243D01*
X132206083Y-64490606D01*
X132241722Y-64471556D01*
X132280392Y-64459825D01*
X132326748Y-64455260D01*
X133402972Y-64455260D01*
X133449328Y-64459825D01*
X133449328Y-64459825D01*
G37*
G36*
X107401121Y-64432721D02*
G01*
X105601119Y-64432721D01*
X105601119Y-62932719D01*
X107401121Y-62932719D01*
X107401121Y-64432721D01*
X107401121Y-64432721D01*
G37*
G36*
X120601121Y-64432721D02*
G01*
X118801119Y-64432721D01*
X118801119Y-62932719D01*
X120601121Y-62932719D01*
X120601121Y-64432721D01*
X120601121Y-64432721D01*
G37*
G36*
X135405128Y-62584825D02*
G01*
X135443798Y-62596556D01*
X135479437Y-62615606D01*
X135510677Y-62641243D01*
X135536314Y-62672483D01*
X135555364Y-62708122D01*
X135567095Y-62746792D01*
X135571660Y-62793148D01*
X135571660Y-63444372D01*
X135567095Y-63490728D01*
X135555364Y-63529398D01*
X135536314Y-63565037D01*
X135510677Y-63596277D01*
X135479437Y-63621914D01*
X135443798Y-63640964D01*
X135405128Y-63652695D01*
X135358772Y-63657260D01*
X134282548Y-63657260D01*
X134236192Y-63652695D01*
X134197522Y-63640964D01*
X134161883Y-63621914D01*
X134130643Y-63596277D01*
X134105006Y-63565037D01*
X134085956Y-63529398D01*
X134074225Y-63490728D01*
X134069660Y-63444372D01*
X134069660Y-62793148D01*
X134074225Y-62746792D01*
X134085956Y-62708122D01*
X134105006Y-62672483D01*
X134130643Y-62641243D01*
X134161883Y-62615606D01*
X134197522Y-62596556D01*
X134236192Y-62584825D01*
X134282548Y-62580260D01*
X135358772Y-62580260D01*
X135405128Y-62584825D01*
X135405128Y-62584825D01*
G37*
G36*
X133449328Y-62584825D02*
G01*
X133487998Y-62596556D01*
X133523637Y-62615606D01*
X133554877Y-62641243D01*
X133580514Y-62672483D01*
X133599564Y-62708122D01*
X133611295Y-62746792D01*
X133615860Y-62793148D01*
X133615860Y-63444372D01*
X133611295Y-63490728D01*
X133599564Y-63529398D01*
X133580514Y-63565037D01*
X133554877Y-63596277D01*
X133523637Y-63621914D01*
X133487998Y-63640964D01*
X133449328Y-63652695D01*
X133402972Y-63657260D01*
X132326748Y-63657260D01*
X132280392Y-63652695D01*
X132241722Y-63640964D01*
X132206083Y-63621914D01*
X132174843Y-63596277D01*
X132149206Y-63565037D01*
X132130156Y-63529398D01*
X132118425Y-63490728D01*
X132113860Y-63444372D01*
X132113860Y-62793148D01*
X132118425Y-62746792D01*
X132130156Y-62708122D01*
X132149206Y-62672483D01*
X132174843Y-62641243D01*
X132206083Y-62615606D01*
X132241722Y-62596556D01*
X132280392Y-62584825D01*
X132326748Y-62580260D01*
X133402972Y-62580260D01*
X133449328Y-62584825D01*
X133449328Y-62584825D01*
G37*
G36*
X115751121Y-61782721D02*
G01*
X114251119Y-61782721D01*
X114251119Y-59982719D01*
X115751121Y-59982719D01*
X115751121Y-61782721D01*
X115751121Y-61782721D01*
G37*
G36*
X117651121Y-61782721D02*
G01*
X116151119Y-61782721D01*
X116151119Y-59982719D01*
X117651121Y-59982719D01*
X117651121Y-61782721D01*
X117651121Y-61782721D01*
G37*
G36*
X113851121Y-61782721D02*
G01*
X112351119Y-61782721D01*
X112351119Y-59982719D01*
X113851121Y-59982719D01*
X113851121Y-61782721D01*
X113851121Y-61782721D01*
G37*
G36*
X111951121Y-61782721D02*
G01*
X110451119Y-61782721D01*
X110451119Y-59982719D01*
X111951121Y-59982719D01*
X111951121Y-61782721D01*
X111951121Y-61782721D01*
G37*
G36*
X110051121Y-61782721D02*
G01*
X108551119Y-61782721D01*
X108551119Y-59982719D01*
X110051121Y-59982719D01*
X110051121Y-61782721D01*
X110051121Y-61782721D01*
G37*
G36*
X100301759Y-59771117D02*
G01*
X100311368Y-59774032D01*
X100320232Y-59778770D01*
X100327997Y-59785143D01*
X100338208Y-59797586D01*
X100345138Y-59807955D01*
X100362465Y-59825282D01*
X100382840Y-59838895D01*
X100405480Y-59848271D01*
X100429513Y-59853051D01*
X100454017Y-59853050D01*
X100478050Y-59848268D01*
X100500689Y-59838890D01*
X100521062Y-59825275D01*
X100538389Y-59807948D01*
X100545318Y-59797578D01*
X100555523Y-59785143D01*
X100563288Y-59778770D01*
X100572152Y-59774032D01*
X100581761Y-59771117D01*
X100597900Y-59769528D01*
X101085621Y-59769528D01*
X101103959Y-59771334D01*
X101116210Y-59771936D01*
X101134629Y-59771936D01*
X101156909Y-59774130D01*
X101240993Y-59790856D01*
X101262420Y-59797356D01*
X101341618Y-59830160D01*
X101347063Y-59833071D01*
X101347069Y-59833073D01*
X101355929Y-59837809D01*
X101355933Y-59837812D01*
X101361374Y-59840720D01*
X101432659Y-59888351D01*
X101449964Y-59902552D01*
X101510588Y-59963176D01*
X101524789Y-59980481D01*
X101572420Y-60051766D01*
X101575328Y-60057207D01*
X101575331Y-60057211D01*
X101580067Y-60066071D01*
X101580069Y-60066077D01*
X101582980Y-60071522D01*
X101615784Y-60150720D01*
X101622284Y-60172147D01*
X101639010Y-60256231D01*
X101641204Y-60278511D01*
X101641204Y-60296930D01*
X101641806Y-60309181D01*
X101643612Y-60327519D01*
X101643612Y-60815241D01*
X101641806Y-60833579D01*
X101641204Y-60845830D01*
X101641204Y-60864249D01*
X101639010Y-60886529D01*
X101622284Y-60970613D01*
X101615784Y-60992040D01*
X101582980Y-61071238D01*
X101580069Y-61076683D01*
X101580067Y-61076689D01*
X101575331Y-61085549D01*
X101575328Y-61085553D01*
X101572420Y-61090994D01*
X101524789Y-61162279D01*
X101510588Y-61179584D01*
X101449964Y-61240208D01*
X101432659Y-61254409D01*
X101361374Y-61302040D01*
X101355933Y-61304948D01*
X101355929Y-61304951D01*
X101347069Y-61309687D01*
X101347063Y-61309689D01*
X101341618Y-61312600D01*
X101262420Y-61345404D01*
X101240993Y-61351904D01*
X101156909Y-61368630D01*
X101134629Y-61370824D01*
X101116210Y-61370824D01*
X101103959Y-61371426D01*
X101085622Y-61373232D01*
X100597900Y-61373232D01*
X100581761Y-61371643D01*
X100572152Y-61368728D01*
X100563288Y-61363990D01*
X100555523Y-61357617D01*
X100545312Y-61345174D01*
X100538382Y-61334805D01*
X100521055Y-61317478D01*
X100500680Y-61303865D01*
X100478040Y-61294489D01*
X100454007Y-61289709D01*
X100429503Y-61289710D01*
X100405470Y-61294492D01*
X100382831Y-61303870D01*
X100362458Y-61317485D01*
X100345131Y-61334812D01*
X100338202Y-61345182D01*
X100327997Y-61357617D01*
X100320232Y-61363990D01*
X100311368Y-61368728D01*
X100301759Y-61371643D01*
X100285620Y-61373232D01*
X99797898Y-61373232D01*
X99779561Y-61371426D01*
X99767310Y-61370824D01*
X99748891Y-61370824D01*
X99726611Y-61368630D01*
X99642527Y-61351904D01*
X99621100Y-61345404D01*
X99541902Y-61312600D01*
X99536457Y-61309689D01*
X99536451Y-61309687D01*
X99527591Y-61304951D01*
X99527587Y-61304948D01*
X99522146Y-61302040D01*
X99450861Y-61254409D01*
X99433556Y-61240208D01*
X99372932Y-61179584D01*
X99358731Y-61162279D01*
X99311100Y-61090994D01*
X99308192Y-61085553D01*
X99308189Y-61085549D01*
X99303453Y-61076689D01*
X99303451Y-61076683D01*
X99300540Y-61071238D01*
X99267736Y-60992040D01*
X99261236Y-60970613D01*
X99244510Y-60886529D01*
X99242316Y-60864249D01*
X99242316Y-60845830D01*
X99241714Y-60833579D01*
X99239908Y-60815242D01*
X99239908Y-60327519D01*
X99241714Y-60309181D01*
X99242316Y-60296930D01*
X99242316Y-60278511D01*
X99244510Y-60256231D01*
X99261236Y-60172147D01*
X99267736Y-60150720D01*
X99300540Y-60071522D01*
X99303451Y-60066077D01*
X99303453Y-60066071D01*
X99308189Y-60057211D01*
X99308192Y-60057207D01*
X99311100Y-60051766D01*
X99358731Y-59980481D01*
X99372932Y-59963176D01*
X99433556Y-59902552D01*
X99450861Y-59888351D01*
X99522146Y-59840720D01*
X99527587Y-59837812D01*
X99527591Y-59837809D01*
X99536451Y-59833073D01*
X99536457Y-59833071D01*
X99541902Y-59830160D01*
X99621100Y-59797356D01*
X99642527Y-59790856D01*
X99726611Y-59774130D01*
X99748891Y-59771936D01*
X99767310Y-59771936D01*
X99779561Y-59771334D01*
X99797899Y-59769528D01*
X100285620Y-59769528D01*
X100301759Y-59771117D01*
X100301759Y-59771117D01*
G37*
G36*
X93272228Y-59824945D02*
G01*
X93310898Y-59836676D01*
X93346537Y-59855726D01*
X93377777Y-59881363D01*
X93403414Y-59912603D01*
X93422464Y-59948242D01*
X93434195Y-59986912D01*
X93438760Y-60033268D01*
X93438760Y-61109492D01*
X93434195Y-61155848D01*
X93422464Y-61194518D01*
X93403414Y-61230157D01*
X93377777Y-61261397D01*
X93346537Y-61287034D01*
X93310898Y-61306084D01*
X93272228Y-61317815D01*
X93225872Y-61322380D01*
X92574648Y-61322380D01*
X92528292Y-61317815D01*
X92489622Y-61306084D01*
X92453983Y-61287034D01*
X92422743Y-61261397D01*
X92397106Y-61230157D01*
X92378056Y-61194518D01*
X92366325Y-61155848D01*
X92361760Y-61109492D01*
X92361760Y-60033268D01*
X92366325Y-59986912D01*
X92378056Y-59948242D01*
X92397106Y-59912603D01*
X92422743Y-59881363D01*
X92453983Y-59855726D01*
X92489622Y-59836676D01*
X92528292Y-59824945D01*
X92574648Y-59820380D01*
X93225872Y-59820380D01*
X93272228Y-59824945D01*
X93272228Y-59824945D01*
G37*
G36*
X95147228Y-59824945D02*
G01*
X95185898Y-59836676D01*
X95221537Y-59855726D01*
X95252777Y-59881363D01*
X95278414Y-59912603D01*
X95297464Y-59948242D01*
X95309195Y-59986912D01*
X95313760Y-60033268D01*
X95313760Y-61109492D01*
X95309195Y-61155848D01*
X95297464Y-61194518D01*
X95278414Y-61230157D01*
X95252777Y-61261397D01*
X95221537Y-61287034D01*
X95185898Y-61306084D01*
X95147228Y-61317815D01*
X95100872Y-61322380D01*
X94449648Y-61322380D01*
X94403292Y-61317815D01*
X94364622Y-61306084D01*
X94328983Y-61287034D01*
X94297743Y-61261397D01*
X94272106Y-61230157D01*
X94253056Y-61194518D01*
X94241325Y-61155848D01*
X94236760Y-61109492D01*
X94236760Y-60033268D01*
X94241325Y-59986912D01*
X94253056Y-59948242D01*
X94272106Y-59912603D01*
X94297743Y-59881363D01*
X94328983Y-59855726D01*
X94364622Y-59836676D01*
X94403292Y-59824945D01*
X94449648Y-59820380D01*
X95100872Y-59820380D01*
X95147228Y-59824945D01*
X95147228Y-59824945D01*
G37*
G36*
X98550828Y-59824945D02*
G01*
X98589498Y-59836676D01*
X98625137Y-59855726D01*
X98656377Y-59881363D01*
X98682014Y-59912603D01*
X98701064Y-59948242D01*
X98712795Y-59986912D01*
X98717360Y-60033268D01*
X98717360Y-61109492D01*
X98712795Y-61155848D01*
X98701064Y-61194518D01*
X98682014Y-61230157D01*
X98656377Y-61261397D01*
X98625137Y-61287034D01*
X98589498Y-61306084D01*
X98550828Y-61317815D01*
X98504472Y-61322380D01*
X97853248Y-61322380D01*
X97806892Y-61317815D01*
X97768222Y-61306084D01*
X97732583Y-61287034D01*
X97701343Y-61261397D01*
X97675706Y-61230157D01*
X97656656Y-61194518D01*
X97644925Y-61155848D01*
X97640360Y-61109492D01*
X97640360Y-60033268D01*
X97644925Y-59986912D01*
X97656656Y-59948242D01*
X97675706Y-59912603D01*
X97701343Y-59881363D01*
X97732583Y-59855726D01*
X97768222Y-59836676D01*
X97806892Y-59824945D01*
X97853248Y-59820380D01*
X98504472Y-59820380D01*
X98550828Y-59824945D01*
X98550828Y-59824945D01*
G37*
G36*
X96675828Y-59824945D02*
G01*
X96714498Y-59836676D01*
X96750137Y-59855726D01*
X96781377Y-59881363D01*
X96807014Y-59912603D01*
X96826064Y-59948242D01*
X96837795Y-59986912D01*
X96842360Y-60033268D01*
X96842360Y-61109492D01*
X96837795Y-61155848D01*
X96826064Y-61194518D01*
X96807014Y-61230157D01*
X96781377Y-61261397D01*
X96750137Y-61287034D01*
X96714498Y-61306084D01*
X96675828Y-61317815D01*
X96629472Y-61322380D01*
X95978248Y-61322380D01*
X95931892Y-61317815D01*
X95893222Y-61306084D01*
X95857583Y-61287034D01*
X95826343Y-61261397D01*
X95800706Y-61230157D01*
X95781656Y-61194518D01*
X95769925Y-61155848D01*
X95765360Y-61109492D01*
X95765360Y-60033268D01*
X95769925Y-59986912D01*
X95781656Y-59948242D01*
X95800706Y-59912603D01*
X95826343Y-59881363D01*
X95857583Y-59855726D01*
X95893222Y-59836676D01*
X95931892Y-59824945D01*
X95978248Y-59820380D01*
X96629472Y-59820380D01*
X96675828Y-59824945D01*
X96675828Y-59824945D01*
G37*
G36*
X89443685Y-56493175D02*
G01*
X89798743Y-56640245D01*
X89798745Y-56640246D01*
X90118290Y-56853759D01*
X90390041Y-57125510D01*
X90545818Y-57358647D01*
X90603555Y-57445057D01*
X90750625Y-57800115D01*
X90825600Y-58177042D01*
X90825600Y-58561358D01*
X90750625Y-58938285D01*
X90642824Y-59198539D01*
X90603554Y-59293345D01*
X90390041Y-59612890D01*
X90118290Y-59884641D01*
X89798745Y-60098154D01*
X89798744Y-60098155D01*
X89798743Y-60098155D01*
X89443685Y-60245225D01*
X89066758Y-60320200D01*
X88682442Y-60320200D01*
X88305515Y-60245225D01*
X87950457Y-60098155D01*
X87950456Y-60098155D01*
X87950455Y-60098154D01*
X87630910Y-59884641D01*
X87359159Y-59612890D01*
X87145646Y-59293345D01*
X87106376Y-59198539D01*
X86998575Y-58938285D01*
X86923600Y-58561358D01*
X86923600Y-58177042D01*
X86998575Y-57800115D01*
X87145645Y-57445057D01*
X87203382Y-57358647D01*
X87359159Y-57125510D01*
X87630910Y-56853759D01*
X87950455Y-56640246D01*
X87950457Y-56640245D01*
X88305515Y-56493175D01*
X88682442Y-56418200D01*
X89066758Y-56418200D01*
X89443685Y-56493175D01*
X89443685Y-56493175D01*
G37*
G36*
X134974087Y-57118196D02*
G01*
X135210853Y-57216268D01*
X135210855Y-57216269D01*
X135423939Y-57358647D01*
X135605153Y-57539861D01*
X135746159Y-57750891D01*
X135747532Y-57752947D01*
X135845604Y-57989713D01*
X135895600Y-58241061D01*
X135895600Y-58497339D01*
X135845604Y-58748687D01*
X135747532Y-58985453D01*
X135747531Y-58985455D01*
X135605153Y-59198539D01*
X135423939Y-59379753D01*
X135210855Y-59522131D01*
X135210854Y-59522132D01*
X135210853Y-59522132D01*
X134974087Y-59620204D01*
X134722739Y-59670200D01*
X134466461Y-59670200D01*
X134215113Y-59620204D01*
X133978347Y-59522132D01*
X133978346Y-59522132D01*
X133978345Y-59522131D01*
X133765261Y-59379753D01*
X133584047Y-59198539D01*
X133441669Y-58985455D01*
X133441668Y-58985453D01*
X133343596Y-58748687D01*
X133293600Y-58497339D01*
X133293600Y-58241061D01*
X133343596Y-57989713D01*
X133441668Y-57752947D01*
X133443042Y-57750891D01*
X133584047Y-57539861D01*
X133765261Y-57358647D01*
X133978345Y-57216269D01*
X133978347Y-57216268D01*
X134215113Y-57118196D01*
X134466461Y-57068200D01*
X134722739Y-57068200D01*
X134974087Y-57118196D01*
X134974087Y-57118196D01*
G37*
G36*
X100258579Y-57464797D02*
G01*
X100268188Y-57467712D01*
X100277052Y-57472450D01*
X100284817Y-57478823D01*
X100295028Y-57491266D01*
X100301958Y-57501635D01*
X100319285Y-57518962D01*
X100339660Y-57532575D01*
X100362300Y-57541951D01*
X100386333Y-57546731D01*
X100410837Y-57546730D01*
X100434870Y-57541948D01*
X100457509Y-57532570D01*
X100477882Y-57518955D01*
X100495209Y-57501628D01*
X100502138Y-57491258D01*
X100512343Y-57478823D01*
X100520108Y-57472450D01*
X100528972Y-57467712D01*
X100538581Y-57464797D01*
X100554720Y-57463208D01*
X101042441Y-57463208D01*
X101060779Y-57465014D01*
X101073030Y-57465616D01*
X101091449Y-57465616D01*
X101113729Y-57467810D01*
X101197813Y-57484536D01*
X101219240Y-57491036D01*
X101298438Y-57523840D01*
X101303883Y-57526751D01*
X101303889Y-57526753D01*
X101312749Y-57531489D01*
X101312753Y-57531492D01*
X101318194Y-57534400D01*
X101389479Y-57582031D01*
X101406784Y-57596232D01*
X101467408Y-57656856D01*
X101481609Y-57674161D01*
X101529240Y-57745446D01*
X101532148Y-57750887D01*
X101532151Y-57750891D01*
X101536887Y-57759751D01*
X101536889Y-57759757D01*
X101539800Y-57765202D01*
X101572604Y-57844400D01*
X101579104Y-57865827D01*
X101595830Y-57949911D01*
X101598024Y-57972191D01*
X101598024Y-57990610D01*
X101598626Y-58002861D01*
X101600432Y-58021199D01*
X101600432Y-58508921D01*
X101598626Y-58527259D01*
X101598024Y-58539510D01*
X101598024Y-58557929D01*
X101595830Y-58580209D01*
X101579104Y-58664293D01*
X101572604Y-58685720D01*
X101539800Y-58764918D01*
X101536889Y-58770363D01*
X101536887Y-58770369D01*
X101532151Y-58779229D01*
X101532148Y-58779233D01*
X101529240Y-58784674D01*
X101481609Y-58855959D01*
X101467408Y-58873264D01*
X101406784Y-58933888D01*
X101389479Y-58948089D01*
X101318194Y-58995720D01*
X101312753Y-58998628D01*
X101312749Y-58998631D01*
X101303889Y-59003367D01*
X101303883Y-59003369D01*
X101298438Y-59006280D01*
X101219240Y-59039084D01*
X101197813Y-59045584D01*
X101113729Y-59062310D01*
X101091449Y-59064504D01*
X101073030Y-59064504D01*
X101060779Y-59065106D01*
X101042442Y-59066912D01*
X100554720Y-59066912D01*
X100538581Y-59065323D01*
X100528972Y-59062408D01*
X100520108Y-59057670D01*
X100512343Y-59051297D01*
X100502132Y-59038854D01*
X100495202Y-59028485D01*
X100477875Y-59011158D01*
X100457500Y-58997545D01*
X100434860Y-58988169D01*
X100410827Y-58983389D01*
X100386323Y-58983390D01*
X100362290Y-58988172D01*
X100339651Y-58997550D01*
X100319278Y-59011165D01*
X100301951Y-59028492D01*
X100295022Y-59038862D01*
X100284817Y-59051297D01*
X100277052Y-59057670D01*
X100268188Y-59062408D01*
X100258579Y-59065323D01*
X100242440Y-59066912D01*
X99754718Y-59066912D01*
X99736381Y-59065106D01*
X99724130Y-59064504D01*
X99705711Y-59064504D01*
X99683431Y-59062310D01*
X99599347Y-59045584D01*
X99577920Y-59039084D01*
X99498722Y-59006280D01*
X99493277Y-59003369D01*
X99493271Y-59003367D01*
X99484411Y-58998631D01*
X99484407Y-58998628D01*
X99478966Y-58995720D01*
X99407681Y-58948089D01*
X99390376Y-58933888D01*
X99329752Y-58873264D01*
X99315551Y-58855959D01*
X99267920Y-58784674D01*
X99265012Y-58779233D01*
X99265009Y-58779229D01*
X99260273Y-58770369D01*
X99260271Y-58770363D01*
X99257360Y-58764918D01*
X99224556Y-58685720D01*
X99218056Y-58664293D01*
X99201330Y-58580209D01*
X99199136Y-58557929D01*
X99199136Y-58539510D01*
X99198534Y-58527259D01*
X99196728Y-58508922D01*
X99196728Y-58021199D01*
X99198534Y-58002861D01*
X99199136Y-57990610D01*
X99199136Y-57972191D01*
X99201330Y-57949911D01*
X99218056Y-57865827D01*
X99224556Y-57844400D01*
X99257360Y-57765202D01*
X99260271Y-57759757D01*
X99260273Y-57759751D01*
X99265009Y-57750891D01*
X99265012Y-57750887D01*
X99267920Y-57745446D01*
X99315551Y-57674161D01*
X99329752Y-57656856D01*
X99390376Y-57596232D01*
X99407681Y-57582031D01*
X99478966Y-57534400D01*
X99484407Y-57531492D01*
X99484411Y-57531489D01*
X99493271Y-57526753D01*
X99493277Y-57526751D01*
X99498722Y-57523840D01*
X99577920Y-57491036D01*
X99599347Y-57484536D01*
X99683431Y-57467810D01*
X99705711Y-57465616D01*
X99724130Y-57465616D01*
X99736381Y-57465014D01*
X99754719Y-57463208D01*
X100242440Y-57463208D01*
X100258579Y-57464797D01*
X100258579Y-57464797D01*
G37*
G36*
X93254448Y-57518625D02*
G01*
X93293118Y-57530356D01*
X93328757Y-57549406D01*
X93359997Y-57575043D01*
X93385634Y-57606283D01*
X93404684Y-57641922D01*
X93416415Y-57680592D01*
X93420980Y-57726948D01*
X93420980Y-58803172D01*
X93416415Y-58849528D01*
X93404684Y-58888198D01*
X93385634Y-58923837D01*
X93359997Y-58955077D01*
X93328757Y-58980714D01*
X93293118Y-58999764D01*
X93254448Y-59011495D01*
X93208092Y-59016060D01*
X92556868Y-59016060D01*
X92510512Y-59011495D01*
X92471842Y-58999764D01*
X92436203Y-58980714D01*
X92404963Y-58955077D01*
X92379326Y-58923837D01*
X92360276Y-58888198D01*
X92348545Y-58849528D01*
X92343980Y-58803172D01*
X92343980Y-57726948D01*
X92348545Y-57680592D01*
X92360276Y-57641922D01*
X92379326Y-57606283D01*
X92404963Y-57575043D01*
X92436203Y-57549406D01*
X92471842Y-57530356D01*
X92510512Y-57518625D01*
X92556868Y-57514060D01*
X93208092Y-57514060D01*
X93254448Y-57518625D01*
X93254448Y-57518625D01*
G37*
G36*
X98583848Y-57518625D02*
G01*
X98622518Y-57530356D01*
X98658157Y-57549406D01*
X98689397Y-57575043D01*
X98715034Y-57606283D01*
X98734084Y-57641922D01*
X98745815Y-57680592D01*
X98750380Y-57726948D01*
X98750380Y-58803172D01*
X98745815Y-58849528D01*
X98734084Y-58888198D01*
X98715034Y-58923837D01*
X98689397Y-58955077D01*
X98658157Y-58980714D01*
X98622518Y-58999764D01*
X98583848Y-59011495D01*
X98537492Y-59016060D01*
X97886268Y-59016060D01*
X97839912Y-59011495D01*
X97801242Y-58999764D01*
X97765603Y-58980714D01*
X97734363Y-58955077D01*
X97708726Y-58923837D01*
X97689676Y-58888198D01*
X97677945Y-58849528D01*
X97673380Y-58803172D01*
X97673380Y-57726948D01*
X97677945Y-57680592D01*
X97689676Y-57641922D01*
X97708726Y-57606283D01*
X97734363Y-57575043D01*
X97765603Y-57549406D01*
X97801242Y-57530356D01*
X97839912Y-57518625D01*
X97886268Y-57514060D01*
X98537492Y-57514060D01*
X98583848Y-57518625D01*
X98583848Y-57518625D01*
G37*
G36*
X96708848Y-57518625D02*
G01*
X96747518Y-57530356D01*
X96783157Y-57549406D01*
X96814397Y-57575043D01*
X96840034Y-57606283D01*
X96859084Y-57641922D01*
X96870815Y-57680592D01*
X96875380Y-57726948D01*
X96875380Y-58803172D01*
X96870815Y-58849528D01*
X96859084Y-58888198D01*
X96840034Y-58923837D01*
X96814397Y-58955077D01*
X96783157Y-58980714D01*
X96747518Y-58999764D01*
X96708848Y-59011495D01*
X96662492Y-59016060D01*
X96011268Y-59016060D01*
X95964912Y-59011495D01*
X95926242Y-58999764D01*
X95890603Y-58980714D01*
X95859363Y-58955077D01*
X95833726Y-58923837D01*
X95814676Y-58888198D01*
X95802945Y-58849528D01*
X95798380Y-58803172D01*
X95798380Y-57726948D01*
X95802945Y-57680592D01*
X95814676Y-57641922D01*
X95833726Y-57606283D01*
X95859363Y-57575043D01*
X95890603Y-57549406D01*
X95926242Y-57530356D01*
X95964912Y-57518625D01*
X96011268Y-57514060D01*
X96662492Y-57514060D01*
X96708848Y-57518625D01*
X96708848Y-57518625D01*
G37*
G36*
X95129448Y-57518625D02*
G01*
X95168118Y-57530356D01*
X95203757Y-57549406D01*
X95234997Y-57575043D01*
X95260634Y-57606283D01*
X95279684Y-57641922D01*
X95291415Y-57680592D01*
X95295980Y-57726948D01*
X95295980Y-58803172D01*
X95291415Y-58849528D01*
X95279684Y-58888198D01*
X95260634Y-58923837D01*
X95234997Y-58955077D01*
X95203757Y-58980714D01*
X95168118Y-58999764D01*
X95129448Y-59011495D01*
X95083092Y-59016060D01*
X94431868Y-59016060D01*
X94385512Y-59011495D01*
X94346842Y-58999764D01*
X94311203Y-58980714D01*
X94279963Y-58955077D01*
X94254326Y-58923837D01*
X94235276Y-58888198D01*
X94223545Y-58849528D01*
X94218980Y-58803172D01*
X94218980Y-57726948D01*
X94223545Y-57680592D01*
X94235276Y-57641922D01*
X94254326Y-57606283D01*
X94279963Y-57575043D01*
X94311203Y-57549406D01*
X94346842Y-57530356D01*
X94385512Y-57518625D01*
X94431868Y-57514060D01*
X95083092Y-57514060D01*
X95129448Y-57518625D01*
X95129448Y-57518625D01*
G37*
G36*
X115655042Y-56204718D02*
G01*
X115721227Y-56211237D01*
X115891066Y-56262757D01*
X116047591Y-56346422D01*
X116083329Y-56375752D01*
X116184786Y-56459014D01*
X116268048Y-56560471D01*
X116297378Y-56596209D01*
X116381043Y-56752734D01*
X116432563Y-56922573D01*
X116449959Y-57099200D01*
X116432563Y-57275827D01*
X116381043Y-57445666D01*
X116297378Y-57602191D01*
X116271500Y-57633723D01*
X116184786Y-57739386D01*
X116110786Y-57800115D01*
X116047591Y-57851978D01*
X115891066Y-57935643D01*
X115721227Y-57987163D01*
X115686228Y-57990610D01*
X115588860Y-58000200D01*
X115500340Y-58000200D01*
X115402972Y-57990610D01*
X115367973Y-57987163D01*
X115198134Y-57935643D01*
X115041609Y-57851978D01*
X114978414Y-57800115D01*
X114904414Y-57739386D01*
X114817700Y-57633723D01*
X114791822Y-57602191D01*
X114708157Y-57445666D01*
X114656637Y-57275827D01*
X114639241Y-57099200D01*
X114656637Y-56922573D01*
X114708157Y-56752734D01*
X114791822Y-56596209D01*
X114821152Y-56560471D01*
X114904414Y-56459014D01*
X115005871Y-56375752D01*
X115041609Y-56346422D01*
X115198134Y-56262757D01*
X115367973Y-56211237D01*
X115434158Y-56204718D01*
X115500340Y-56198200D01*
X115588860Y-56198200D01*
X115655042Y-56204718D01*
X115655042Y-56204718D01*
G37*
G36*
X113115042Y-56204718D02*
G01*
X113181227Y-56211237D01*
X113351066Y-56262757D01*
X113507591Y-56346422D01*
X113543329Y-56375752D01*
X113644786Y-56459014D01*
X113728048Y-56560471D01*
X113757378Y-56596209D01*
X113841043Y-56752734D01*
X113892563Y-56922573D01*
X113909959Y-57099200D01*
X113892563Y-57275827D01*
X113841043Y-57445666D01*
X113757378Y-57602191D01*
X113731500Y-57633723D01*
X113644786Y-57739386D01*
X113570786Y-57800115D01*
X113507591Y-57851978D01*
X113351066Y-57935643D01*
X113181227Y-57987163D01*
X113146228Y-57990610D01*
X113048860Y-58000200D01*
X112960340Y-58000200D01*
X112862972Y-57990610D01*
X112827973Y-57987163D01*
X112658134Y-57935643D01*
X112501609Y-57851978D01*
X112438414Y-57800115D01*
X112364414Y-57739386D01*
X112277700Y-57633723D01*
X112251822Y-57602191D01*
X112168157Y-57445666D01*
X112116637Y-57275827D01*
X112099241Y-57099200D01*
X112116637Y-56922573D01*
X112168157Y-56752734D01*
X112251822Y-56596209D01*
X112281152Y-56560471D01*
X112364414Y-56459014D01*
X112465871Y-56375752D01*
X112501609Y-56346422D01*
X112658134Y-56262757D01*
X112827973Y-56211237D01*
X112894158Y-56204718D01*
X112960340Y-56198200D01*
X113048860Y-56198200D01*
X113115042Y-56204718D01*
X113115042Y-56204718D01*
G37*
G36*
X103745600Y-58000200D02*
G01*
X101943600Y-58000200D01*
X101943600Y-56198200D01*
X103745600Y-56198200D01*
X103745600Y-58000200D01*
X103745600Y-58000200D01*
G37*
G36*
X105495042Y-56204718D02*
G01*
X105561227Y-56211237D01*
X105731066Y-56262757D01*
X105887591Y-56346422D01*
X105923329Y-56375752D01*
X106024786Y-56459014D01*
X106108048Y-56560471D01*
X106137378Y-56596209D01*
X106221043Y-56752734D01*
X106272563Y-56922573D01*
X106289959Y-57099200D01*
X106272563Y-57275827D01*
X106221043Y-57445666D01*
X106137378Y-57602191D01*
X106111500Y-57633723D01*
X106024786Y-57739386D01*
X105950786Y-57800115D01*
X105887591Y-57851978D01*
X105731066Y-57935643D01*
X105561227Y-57987163D01*
X105526228Y-57990610D01*
X105428860Y-58000200D01*
X105340340Y-58000200D01*
X105242972Y-57990610D01*
X105207973Y-57987163D01*
X105038134Y-57935643D01*
X104881609Y-57851978D01*
X104818414Y-57800115D01*
X104744414Y-57739386D01*
X104657700Y-57633723D01*
X104631822Y-57602191D01*
X104548157Y-57445666D01*
X104496637Y-57275827D01*
X104479241Y-57099200D01*
X104496637Y-56922573D01*
X104548157Y-56752734D01*
X104631822Y-56596209D01*
X104661152Y-56560471D01*
X104744414Y-56459014D01*
X104845871Y-56375752D01*
X104881609Y-56346422D01*
X105038134Y-56262757D01*
X105207973Y-56211237D01*
X105274158Y-56204718D01*
X105340340Y-56198200D01*
X105428860Y-56198200D01*
X105495042Y-56204718D01*
X105495042Y-56204718D01*
G37*
G36*
X108035042Y-56204718D02*
G01*
X108101227Y-56211237D01*
X108271066Y-56262757D01*
X108427591Y-56346422D01*
X108463329Y-56375752D01*
X108564786Y-56459014D01*
X108648048Y-56560471D01*
X108677378Y-56596209D01*
X108761043Y-56752734D01*
X108812563Y-56922573D01*
X108829959Y-57099200D01*
X108812563Y-57275827D01*
X108761043Y-57445666D01*
X108677378Y-57602191D01*
X108651500Y-57633723D01*
X108564786Y-57739386D01*
X108490786Y-57800115D01*
X108427591Y-57851978D01*
X108271066Y-57935643D01*
X108101227Y-57987163D01*
X108066228Y-57990610D01*
X107968860Y-58000200D01*
X107880340Y-58000200D01*
X107782972Y-57990610D01*
X107747973Y-57987163D01*
X107578134Y-57935643D01*
X107421609Y-57851978D01*
X107358414Y-57800115D01*
X107284414Y-57739386D01*
X107197700Y-57633723D01*
X107171822Y-57602191D01*
X107088157Y-57445666D01*
X107036637Y-57275827D01*
X107019241Y-57099200D01*
X107036637Y-56922573D01*
X107088157Y-56752734D01*
X107171822Y-56596209D01*
X107201152Y-56560471D01*
X107284414Y-56459014D01*
X107385871Y-56375752D01*
X107421609Y-56346422D01*
X107578134Y-56262757D01*
X107747973Y-56211237D01*
X107814158Y-56204718D01*
X107880340Y-56198200D01*
X107968860Y-56198200D01*
X108035042Y-56204718D01*
X108035042Y-56204718D01*
G37*
G36*
X118195042Y-56204718D02*
G01*
X118261227Y-56211237D01*
X118431066Y-56262757D01*
X118587591Y-56346422D01*
X118623329Y-56375752D01*
X118724786Y-56459014D01*
X118808048Y-56560471D01*
X118837378Y-56596209D01*
X118921043Y-56752734D01*
X118972563Y-56922573D01*
X118989959Y-57099200D01*
X118972563Y-57275827D01*
X118921043Y-57445666D01*
X118837378Y-57602191D01*
X118811500Y-57633723D01*
X118724786Y-57739386D01*
X118650786Y-57800115D01*
X118587591Y-57851978D01*
X118431066Y-57935643D01*
X118261227Y-57987163D01*
X118226228Y-57990610D01*
X118128860Y-58000200D01*
X118040340Y-58000200D01*
X117942972Y-57990610D01*
X117907973Y-57987163D01*
X117738134Y-57935643D01*
X117581609Y-57851978D01*
X117518414Y-57800115D01*
X117444414Y-57739386D01*
X117357700Y-57633723D01*
X117331822Y-57602191D01*
X117248157Y-57445666D01*
X117196637Y-57275827D01*
X117179241Y-57099200D01*
X117196637Y-56922573D01*
X117248157Y-56752734D01*
X117331822Y-56596209D01*
X117361152Y-56560471D01*
X117444414Y-56459014D01*
X117545871Y-56375752D01*
X117581609Y-56346422D01*
X117738134Y-56262757D01*
X117907973Y-56211237D01*
X117974158Y-56204718D01*
X118040340Y-56198200D01*
X118128860Y-56198200D01*
X118195042Y-56204718D01*
X118195042Y-56204718D01*
G37*
G36*
X120735042Y-56204718D02*
G01*
X120801227Y-56211237D01*
X120971066Y-56262757D01*
X121127591Y-56346422D01*
X121163329Y-56375752D01*
X121264786Y-56459014D01*
X121348048Y-56560471D01*
X121377378Y-56596209D01*
X121461043Y-56752734D01*
X121512563Y-56922573D01*
X121529959Y-57099200D01*
X121512563Y-57275827D01*
X121461043Y-57445666D01*
X121377378Y-57602191D01*
X121351500Y-57633723D01*
X121264786Y-57739386D01*
X121190786Y-57800115D01*
X121127591Y-57851978D01*
X120971066Y-57935643D01*
X120801227Y-57987163D01*
X120766228Y-57990610D01*
X120668860Y-58000200D01*
X120580340Y-58000200D01*
X120482972Y-57990610D01*
X120447973Y-57987163D01*
X120278134Y-57935643D01*
X120121609Y-57851978D01*
X120058414Y-57800115D01*
X119984414Y-57739386D01*
X119897700Y-57633723D01*
X119871822Y-57602191D01*
X119788157Y-57445666D01*
X119736637Y-57275827D01*
X119719241Y-57099200D01*
X119736637Y-56922573D01*
X119788157Y-56752734D01*
X119871822Y-56596209D01*
X119901152Y-56560471D01*
X119984414Y-56459014D01*
X120085871Y-56375752D01*
X120121609Y-56346422D01*
X120278134Y-56262757D01*
X120447973Y-56211237D01*
X120514158Y-56204718D01*
X120580340Y-56198200D01*
X120668860Y-56198200D01*
X120735042Y-56204718D01*
X120735042Y-56204718D01*
G37*
G36*
X110575042Y-56204718D02*
G01*
X110641227Y-56211237D01*
X110811066Y-56262757D01*
X110967591Y-56346422D01*
X111003329Y-56375752D01*
X111104786Y-56459014D01*
X111188048Y-56560471D01*
X111217378Y-56596209D01*
X111301043Y-56752734D01*
X111352563Y-56922573D01*
X111369959Y-57099200D01*
X111352563Y-57275827D01*
X111301043Y-57445666D01*
X111217378Y-57602191D01*
X111191500Y-57633723D01*
X111104786Y-57739386D01*
X111030786Y-57800115D01*
X110967591Y-57851978D01*
X110811066Y-57935643D01*
X110641227Y-57987163D01*
X110606228Y-57990610D01*
X110508860Y-58000200D01*
X110420340Y-58000200D01*
X110322972Y-57990610D01*
X110287973Y-57987163D01*
X110118134Y-57935643D01*
X109961609Y-57851978D01*
X109898414Y-57800115D01*
X109824414Y-57739386D01*
X109737700Y-57633723D01*
X109711822Y-57602191D01*
X109628157Y-57445666D01*
X109576637Y-57275827D01*
X109559241Y-57099200D01*
X109576637Y-56922573D01*
X109628157Y-56752734D01*
X109711822Y-56596209D01*
X109741152Y-56560471D01*
X109824414Y-56459014D01*
X109925871Y-56375752D01*
X109961609Y-56346422D01*
X110118134Y-56262757D01*
X110287973Y-56211237D01*
X110354158Y-56204718D01*
X110420340Y-56198200D01*
X110508860Y-56198200D01*
X110575042Y-56204718D01*
X110575042Y-56204718D01*
G37*
G36*
X123275042Y-56204718D02*
G01*
X123341227Y-56211237D01*
X123511066Y-56262757D01*
X123667591Y-56346422D01*
X123703329Y-56375752D01*
X123804786Y-56459014D01*
X123888048Y-56560471D01*
X123917378Y-56596209D01*
X124001043Y-56752734D01*
X124052563Y-56922573D01*
X124069959Y-57099200D01*
X124052563Y-57275827D01*
X124001043Y-57445666D01*
X123917378Y-57602191D01*
X123891500Y-57633723D01*
X123804786Y-57739386D01*
X123730786Y-57800115D01*
X123667591Y-57851978D01*
X123511066Y-57935643D01*
X123341227Y-57987163D01*
X123306228Y-57990610D01*
X123208860Y-58000200D01*
X123120340Y-58000200D01*
X123022972Y-57990610D01*
X122987973Y-57987163D01*
X122818134Y-57935643D01*
X122661609Y-57851978D01*
X122598414Y-57800115D01*
X122524414Y-57739386D01*
X122437700Y-57633723D01*
X122411822Y-57602191D01*
X122328157Y-57445666D01*
X122276637Y-57275827D01*
X122259241Y-57099200D01*
X122276637Y-56922573D01*
X122328157Y-56752734D01*
X122411822Y-56596209D01*
X122441152Y-56560471D01*
X122524414Y-56459014D01*
X122625871Y-56375752D01*
X122661609Y-56346422D01*
X122818134Y-56262757D01*
X122987973Y-56211237D01*
X123054158Y-56204718D01*
X123120340Y-56198200D01*
X123208860Y-56198200D01*
X123275042Y-56204718D01*
X123275042Y-56204718D01*
G37*
G36*
X130895042Y-56204718D02*
G01*
X130961227Y-56211237D01*
X131131066Y-56262757D01*
X131287591Y-56346422D01*
X131323329Y-56375752D01*
X131424786Y-56459014D01*
X131508048Y-56560471D01*
X131537378Y-56596209D01*
X131621043Y-56752734D01*
X131672563Y-56922573D01*
X131689959Y-57099200D01*
X131672563Y-57275827D01*
X131621043Y-57445666D01*
X131537378Y-57602191D01*
X131511500Y-57633723D01*
X131424786Y-57739386D01*
X131350786Y-57800115D01*
X131287591Y-57851978D01*
X131131066Y-57935643D01*
X130961227Y-57987163D01*
X130926228Y-57990610D01*
X130828860Y-58000200D01*
X130740340Y-58000200D01*
X130642972Y-57990610D01*
X130607973Y-57987163D01*
X130438134Y-57935643D01*
X130281609Y-57851978D01*
X130218414Y-57800115D01*
X130144414Y-57739386D01*
X130057700Y-57633723D01*
X130031822Y-57602191D01*
X129948157Y-57445666D01*
X129896637Y-57275827D01*
X129879241Y-57099200D01*
X129896637Y-56922573D01*
X129948157Y-56752734D01*
X130031822Y-56596209D01*
X130061152Y-56560471D01*
X130144414Y-56459014D01*
X130245871Y-56375752D01*
X130281609Y-56346422D01*
X130438134Y-56262757D01*
X130607973Y-56211237D01*
X130674158Y-56204718D01*
X130740340Y-56198200D01*
X130828860Y-56198200D01*
X130895042Y-56204718D01*
X130895042Y-56204718D01*
G37*
G36*
X128355042Y-56204718D02*
G01*
X128421227Y-56211237D01*
X128591066Y-56262757D01*
X128747591Y-56346422D01*
X128783329Y-56375752D01*
X128884786Y-56459014D01*
X128968048Y-56560471D01*
X128997378Y-56596209D01*
X129081043Y-56752734D01*
X129132563Y-56922573D01*
X129149959Y-57099200D01*
X129132563Y-57275827D01*
X129081043Y-57445666D01*
X128997378Y-57602191D01*
X128971500Y-57633723D01*
X128884786Y-57739386D01*
X128810786Y-57800115D01*
X128747591Y-57851978D01*
X128591066Y-57935643D01*
X128421227Y-57987163D01*
X128386228Y-57990610D01*
X128288860Y-58000200D01*
X128200340Y-58000200D01*
X128102972Y-57990610D01*
X128067973Y-57987163D01*
X127898134Y-57935643D01*
X127741609Y-57851978D01*
X127678414Y-57800115D01*
X127604414Y-57739386D01*
X127517700Y-57633723D01*
X127491822Y-57602191D01*
X127408157Y-57445666D01*
X127356637Y-57275827D01*
X127339241Y-57099200D01*
X127356637Y-56922573D01*
X127408157Y-56752734D01*
X127491822Y-56596209D01*
X127521152Y-56560471D01*
X127604414Y-56459014D01*
X127705871Y-56375752D01*
X127741609Y-56346422D01*
X127898134Y-56262757D01*
X128067973Y-56211237D01*
X128134158Y-56204718D01*
X128200340Y-56198200D01*
X128288860Y-56198200D01*
X128355042Y-56204718D01*
X128355042Y-56204718D01*
G37*
G36*
X125815042Y-56204718D02*
G01*
X125881227Y-56211237D01*
X126051066Y-56262757D01*
X126207591Y-56346422D01*
X126243329Y-56375752D01*
X126344786Y-56459014D01*
X126428048Y-56560471D01*
X126457378Y-56596209D01*
X126541043Y-56752734D01*
X126592563Y-56922573D01*
X126609959Y-57099200D01*
X126592563Y-57275827D01*
X126541043Y-57445666D01*
X126457378Y-57602191D01*
X126431500Y-57633723D01*
X126344786Y-57739386D01*
X126270786Y-57800115D01*
X126207591Y-57851978D01*
X126051066Y-57935643D01*
X125881227Y-57987163D01*
X125846228Y-57990610D01*
X125748860Y-58000200D01*
X125660340Y-58000200D01*
X125562972Y-57990610D01*
X125527973Y-57987163D01*
X125358134Y-57935643D01*
X125201609Y-57851978D01*
X125138414Y-57800115D01*
X125064414Y-57739386D01*
X124977700Y-57633723D01*
X124951822Y-57602191D01*
X124868157Y-57445666D01*
X124816637Y-57275827D01*
X124799241Y-57099200D01*
X124816637Y-56922573D01*
X124868157Y-56752734D01*
X124951822Y-56596209D01*
X124981152Y-56560471D01*
X125064414Y-56459014D01*
X125165871Y-56375752D01*
X125201609Y-56346422D01*
X125358134Y-56262757D01*
X125527973Y-56211237D01*
X125594158Y-56204718D01*
X125660340Y-56198200D01*
X125748860Y-56198200D01*
X125815042Y-56204718D01*
X125815042Y-56204718D01*
G37*
M02*
