G04 #@! TF.GenerationSoftware,KiCad,Pcbnew,(5.1.4)-1*
G04 #@! TF.CreationDate,2020-01-22T17:25:58-05:00*
G04 #@! TF.ProjectId,Feather-SAM-M8Q-GPS,46656174-6865-4722-9d53-414d2d4d3851,rev?*
G04 #@! TF.SameCoordinates,Original*
G04 #@! TF.FileFunction,Copper,L1,Top*
G04 #@! TF.FilePolarity,Positive*
%FSLAX46Y46*%
G04 Gerber Fmt 4.6, Leading zero omitted, Abs format (unit mm)*
G04 Created by KiCad (PCBNEW (5.1.4)-1) date 2020-01-22 17:25:58*
%MOMM*%
%LPD*%
G04 APERTURE LIST*
%ADD10C,0.100000*%
%ADD11C,0.975000*%
%ADD12R,1.500000X1.800000*%
%ADD13R,1.800000X1.500000*%
%ADD14O,1.700000X1.700000*%
%ADD15R,1.700000X1.700000*%
%ADD16C,3.800000*%
%ADD17C,0.500000*%
%ADD18R,0.800000X2.000000*%
%ADD19C,0.660400*%
%ADD20C,0.508000*%
%ADD21C,0.381000*%
%ADD22C,0.254000*%
%ADD23C,0.152400*%
G04 APERTURE END LIST*
D10*
G36*
X100191760Y-60871380D02*
G01*
X100691760Y-60871380D01*
X100691760Y-60271380D01*
X100191760Y-60271380D01*
X100191760Y-60871380D01*
G37*
G36*
X100148580Y-58565060D02*
G01*
X100648580Y-58565060D01*
X100648580Y-57965060D01*
X100148580Y-57965060D01*
X100148580Y-58565060D01*
G37*
G36*
X95506622Y-69406614D02*
G01*
X95530283Y-69410124D01*
X95553487Y-69415936D01*
X95576009Y-69423994D01*
X95597633Y-69434222D01*
X95618150Y-69446519D01*
X95637363Y-69460769D01*
X95655087Y-69476833D01*
X95671151Y-69494557D01*
X95685401Y-69513770D01*
X95697698Y-69534287D01*
X95707926Y-69555911D01*
X95715984Y-69578433D01*
X95721796Y-69601637D01*
X95725306Y-69625298D01*
X95726480Y-69649190D01*
X95726480Y-70136690D01*
X95725306Y-70160582D01*
X95721796Y-70184243D01*
X95715984Y-70207447D01*
X95707926Y-70229969D01*
X95697698Y-70251593D01*
X95685401Y-70272110D01*
X95671151Y-70291323D01*
X95655087Y-70309047D01*
X95637363Y-70325111D01*
X95618150Y-70339361D01*
X95597633Y-70351658D01*
X95576009Y-70361886D01*
X95553487Y-70369944D01*
X95530283Y-70375756D01*
X95506622Y-70379266D01*
X95482730Y-70380440D01*
X94570230Y-70380440D01*
X94546338Y-70379266D01*
X94522677Y-70375756D01*
X94499473Y-70369944D01*
X94476951Y-70361886D01*
X94455327Y-70351658D01*
X94434810Y-70339361D01*
X94415597Y-70325111D01*
X94397873Y-70309047D01*
X94381809Y-70291323D01*
X94367559Y-70272110D01*
X94355262Y-70251593D01*
X94345034Y-70229969D01*
X94336976Y-70207447D01*
X94331164Y-70184243D01*
X94327654Y-70160582D01*
X94326480Y-70136690D01*
X94326480Y-69649190D01*
X94327654Y-69625298D01*
X94331164Y-69601637D01*
X94336976Y-69578433D01*
X94345034Y-69555911D01*
X94355262Y-69534287D01*
X94367559Y-69513770D01*
X94381809Y-69494557D01*
X94397873Y-69476833D01*
X94415597Y-69460769D01*
X94434810Y-69446519D01*
X94455327Y-69434222D01*
X94476951Y-69423994D01*
X94499473Y-69415936D01*
X94522677Y-69410124D01*
X94546338Y-69406614D01*
X94570230Y-69405440D01*
X95482730Y-69405440D01*
X95506622Y-69406614D01*
X95506622Y-69406614D01*
G37*
D11*
X95026480Y-69892940D03*
D10*
G36*
X95506622Y-71281614D02*
G01*
X95530283Y-71285124D01*
X95553487Y-71290936D01*
X95576009Y-71298994D01*
X95597633Y-71309222D01*
X95618150Y-71321519D01*
X95637363Y-71335769D01*
X95655087Y-71351833D01*
X95671151Y-71369557D01*
X95685401Y-71388770D01*
X95697698Y-71409287D01*
X95707926Y-71430911D01*
X95715984Y-71453433D01*
X95721796Y-71476637D01*
X95725306Y-71500298D01*
X95726480Y-71524190D01*
X95726480Y-72011690D01*
X95725306Y-72035582D01*
X95721796Y-72059243D01*
X95715984Y-72082447D01*
X95707926Y-72104969D01*
X95697698Y-72126593D01*
X95685401Y-72147110D01*
X95671151Y-72166323D01*
X95655087Y-72184047D01*
X95637363Y-72200111D01*
X95618150Y-72214361D01*
X95597633Y-72226658D01*
X95576009Y-72236886D01*
X95553487Y-72244944D01*
X95530283Y-72250756D01*
X95506622Y-72254266D01*
X95482730Y-72255440D01*
X94570230Y-72255440D01*
X94546338Y-72254266D01*
X94522677Y-72250756D01*
X94499473Y-72244944D01*
X94476951Y-72236886D01*
X94455327Y-72226658D01*
X94434810Y-72214361D01*
X94415597Y-72200111D01*
X94397873Y-72184047D01*
X94381809Y-72166323D01*
X94367559Y-72147110D01*
X94355262Y-72126593D01*
X94345034Y-72104969D01*
X94336976Y-72082447D01*
X94331164Y-72059243D01*
X94327654Y-72035582D01*
X94326480Y-72011690D01*
X94326480Y-71524190D01*
X94327654Y-71500298D01*
X94331164Y-71476637D01*
X94336976Y-71453433D01*
X94345034Y-71430911D01*
X94355262Y-71409287D01*
X94367559Y-71388770D01*
X94381809Y-71369557D01*
X94397873Y-71351833D01*
X94415597Y-71335769D01*
X94434810Y-71321519D01*
X94455327Y-71309222D01*
X94476951Y-71298994D01*
X94499473Y-71290936D01*
X94522677Y-71285124D01*
X94546338Y-71281614D01*
X94570230Y-71280440D01*
X95482730Y-71280440D01*
X95506622Y-71281614D01*
X95506622Y-71281614D01*
G37*
D11*
X95026480Y-71767940D03*
D12*
X109301120Y-60882720D03*
X111201120Y-60882720D03*
X113101120Y-60882720D03*
X115001120Y-60882720D03*
X116901120Y-60882720D03*
D13*
X119701120Y-63682720D03*
X119701120Y-65582720D03*
X119701120Y-67482720D03*
X119701120Y-69382720D03*
X119701120Y-71282720D03*
D12*
X116901120Y-74082720D03*
X115001120Y-74082720D03*
X113101120Y-74082720D03*
X111201120Y-74082720D03*
X109301120Y-74082720D03*
D13*
X106501120Y-71282720D03*
X106501120Y-69382720D03*
X106501120Y-67482720D03*
X106501120Y-65582720D03*
X106501120Y-63682720D03*
D14*
X130784600Y-77419200D03*
X128244600Y-77419200D03*
X125704600Y-77419200D03*
X123164600Y-77419200D03*
X120624600Y-77419200D03*
X118084600Y-77419200D03*
X115544600Y-77419200D03*
X113004600Y-77419200D03*
X110464600Y-77419200D03*
X107924600Y-77419200D03*
X105384600Y-77419200D03*
X102844600Y-77419200D03*
X100304600Y-77419200D03*
X97764600Y-77419200D03*
X95224600Y-77419200D03*
D15*
X92684600Y-77419200D03*
D14*
X130784600Y-57099200D03*
X128244600Y-57099200D03*
X125704600Y-57099200D03*
X123164600Y-57099200D03*
X120624600Y-57099200D03*
X118084600Y-57099200D03*
X115544600Y-57099200D03*
X113004600Y-57099200D03*
X110464600Y-57099200D03*
X107924600Y-57099200D03*
X105384600Y-57099200D03*
D15*
X102844600Y-57099200D03*
D16*
X88874600Y-58369200D03*
X88874600Y-76149200D03*
D10*
G36*
X94971782Y-74627414D02*
G01*
X94995443Y-74630924D01*
X95018647Y-74636736D01*
X95041169Y-74644794D01*
X95062793Y-74655022D01*
X95083310Y-74667319D01*
X95102523Y-74681569D01*
X95120247Y-74697633D01*
X95136311Y-74715357D01*
X95150561Y-74734570D01*
X95162858Y-74755087D01*
X95173086Y-74776711D01*
X95181144Y-74799233D01*
X95186956Y-74822437D01*
X95190466Y-74846098D01*
X95191640Y-74869990D01*
X95191640Y-75782490D01*
X95190466Y-75806382D01*
X95186956Y-75830043D01*
X95181144Y-75853247D01*
X95173086Y-75875769D01*
X95162858Y-75897393D01*
X95150561Y-75917910D01*
X95136311Y-75937123D01*
X95120247Y-75954847D01*
X95102523Y-75970911D01*
X95083310Y-75985161D01*
X95062793Y-75997458D01*
X95041169Y-76007686D01*
X95018647Y-76015744D01*
X94995443Y-76021556D01*
X94971782Y-76025066D01*
X94947890Y-76026240D01*
X94460390Y-76026240D01*
X94436498Y-76025066D01*
X94412837Y-76021556D01*
X94389633Y-76015744D01*
X94367111Y-76007686D01*
X94345487Y-75997458D01*
X94324970Y-75985161D01*
X94305757Y-75970911D01*
X94288033Y-75954847D01*
X94271969Y-75937123D01*
X94257719Y-75917910D01*
X94245422Y-75897393D01*
X94235194Y-75875769D01*
X94227136Y-75853247D01*
X94221324Y-75830043D01*
X94217814Y-75806382D01*
X94216640Y-75782490D01*
X94216640Y-74869990D01*
X94217814Y-74846098D01*
X94221324Y-74822437D01*
X94227136Y-74799233D01*
X94235194Y-74776711D01*
X94245422Y-74755087D01*
X94257719Y-74734570D01*
X94271969Y-74715357D01*
X94288033Y-74697633D01*
X94305757Y-74681569D01*
X94324970Y-74667319D01*
X94345487Y-74655022D01*
X94367111Y-74644794D01*
X94389633Y-74636736D01*
X94412837Y-74630924D01*
X94436498Y-74627414D01*
X94460390Y-74626240D01*
X94947890Y-74626240D01*
X94971782Y-74627414D01*
X94971782Y-74627414D01*
G37*
D11*
X94704140Y-75326240D03*
D10*
G36*
X93096782Y-74627414D02*
G01*
X93120443Y-74630924D01*
X93143647Y-74636736D01*
X93166169Y-74644794D01*
X93187793Y-74655022D01*
X93208310Y-74667319D01*
X93227523Y-74681569D01*
X93245247Y-74697633D01*
X93261311Y-74715357D01*
X93275561Y-74734570D01*
X93287858Y-74755087D01*
X93298086Y-74776711D01*
X93306144Y-74799233D01*
X93311956Y-74822437D01*
X93315466Y-74846098D01*
X93316640Y-74869990D01*
X93316640Y-75782490D01*
X93315466Y-75806382D01*
X93311956Y-75830043D01*
X93306144Y-75853247D01*
X93298086Y-75875769D01*
X93287858Y-75897393D01*
X93275561Y-75917910D01*
X93261311Y-75937123D01*
X93245247Y-75954847D01*
X93227523Y-75970911D01*
X93208310Y-75985161D01*
X93187793Y-75997458D01*
X93166169Y-76007686D01*
X93143647Y-76015744D01*
X93120443Y-76021556D01*
X93096782Y-76025066D01*
X93072890Y-76026240D01*
X92585390Y-76026240D01*
X92561498Y-76025066D01*
X92537837Y-76021556D01*
X92514633Y-76015744D01*
X92492111Y-76007686D01*
X92470487Y-75997458D01*
X92449970Y-75985161D01*
X92430757Y-75970911D01*
X92413033Y-75954847D01*
X92396969Y-75937123D01*
X92382719Y-75917910D01*
X92370422Y-75897393D01*
X92360194Y-75875769D01*
X92352136Y-75853247D01*
X92346324Y-75830043D01*
X92342814Y-75806382D01*
X92341640Y-75782490D01*
X92341640Y-74869990D01*
X92342814Y-74846098D01*
X92346324Y-74822437D01*
X92352136Y-74799233D01*
X92360194Y-74776711D01*
X92370422Y-74755087D01*
X92382719Y-74734570D01*
X92396969Y-74715357D01*
X92413033Y-74697633D01*
X92430757Y-74681569D01*
X92449970Y-74667319D01*
X92470487Y-74655022D01*
X92492111Y-74644794D01*
X92514633Y-74636736D01*
X92537837Y-74630924D01*
X92561498Y-74627414D01*
X92585390Y-74626240D01*
X93072890Y-74626240D01*
X93096782Y-74627414D01*
X93096782Y-74627414D01*
G37*
D11*
X92829140Y-75326240D03*
D10*
G36*
X133230702Y-66343374D02*
G01*
X133254363Y-66346884D01*
X133277567Y-66352696D01*
X133300089Y-66360754D01*
X133321713Y-66370982D01*
X133342230Y-66383279D01*
X133361443Y-66397529D01*
X133379167Y-66413593D01*
X133395231Y-66431317D01*
X133409481Y-66450530D01*
X133421778Y-66471047D01*
X133432006Y-66492671D01*
X133440064Y-66515193D01*
X133445876Y-66538397D01*
X133449386Y-66562058D01*
X133450560Y-66585950D01*
X133450560Y-67073450D01*
X133449386Y-67097342D01*
X133445876Y-67121003D01*
X133440064Y-67144207D01*
X133432006Y-67166729D01*
X133421778Y-67188353D01*
X133409481Y-67208870D01*
X133395231Y-67228083D01*
X133379167Y-67245807D01*
X133361443Y-67261871D01*
X133342230Y-67276121D01*
X133321713Y-67288418D01*
X133300089Y-67298646D01*
X133277567Y-67306704D01*
X133254363Y-67312516D01*
X133230702Y-67316026D01*
X133206810Y-67317200D01*
X132294310Y-67317200D01*
X132270418Y-67316026D01*
X132246757Y-67312516D01*
X132223553Y-67306704D01*
X132201031Y-67298646D01*
X132179407Y-67288418D01*
X132158890Y-67276121D01*
X132139677Y-67261871D01*
X132121953Y-67245807D01*
X132105889Y-67228083D01*
X132091639Y-67208870D01*
X132079342Y-67188353D01*
X132069114Y-67166729D01*
X132061056Y-67144207D01*
X132055244Y-67121003D01*
X132051734Y-67097342D01*
X132050560Y-67073450D01*
X132050560Y-66585950D01*
X132051734Y-66562058D01*
X132055244Y-66538397D01*
X132061056Y-66515193D01*
X132069114Y-66492671D01*
X132079342Y-66471047D01*
X132091639Y-66450530D01*
X132105889Y-66431317D01*
X132121953Y-66413593D01*
X132139677Y-66397529D01*
X132158890Y-66383279D01*
X132179407Y-66370982D01*
X132201031Y-66360754D01*
X132223553Y-66352696D01*
X132246757Y-66346884D01*
X132270418Y-66343374D01*
X132294310Y-66342200D01*
X133206810Y-66342200D01*
X133230702Y-66343374D01*
X133230702Y-66343374D01*
G37*
D11*
X132750560Y-66829700D03*
D10*
G36*
X133230702Y-68218374D02*
G01*
X133254363Y-68221884D01*
X133277567Y-68227696D01*
X133300089Y-68235754D01*
X133321713Y-68245982D01*
X133342230Y-68258279D01*
X133361443Y-68272529D01*
X133379167Y-68288593D01*
X133395231Y-68306317D01*
X133409481Y-68325530D01*
X133421778Y-68346047D01*
X133432006Y-68367671D01*
X133440064Y-68390193D01*
X133445876Y-68413397D01*
X133449386Y-68437058D01*
X133450560Y-68460950D01*
X133450560Y-68948450D01*
X133449386Y-68972342D01*
X133445876Y-68996003D01*
X133440064Y-69019207D01*
X133432006Y-69041729D01*
X133421778Y-69063353D01*
X133409481Y-69083870D01*
X133395231Y-69103083D01*
X133379167Y-69120807D01*
X133361443Y-69136871D01*
X133342230Y-69151121D01*
X133321713Y-69163418D01*
X133300089Y-69173646D01*
X133277567Y-69181704D01*
X133254363Y-69187516D01*
X133230702Y-69191026D01*
X133206810Y-69192200D01*
X132294310Y-69192200D01*
X132270418Y-69191026D01*
X132246757Y-69187516D01*
X132223553Y-69181704D01*
X132201031Y-69173646D01*
X132179407Y-69163418D01*
X132158890Y-69151121D01*
X132139677Y-69136871D01*
X132121953Y-69120807D01*
X132105889Y-69103083D01*
X132091639Y-69083870D01*
X132079342Y-69063353D01*
X132069114Y-69041729D01*
X132061056Y-69019207D01*
X132055244Y-68996003D01*
X132051734Y-68972342D01*
X132050560Y-68948450D01*
X132050560Y-68460950D01*
X132051734Y-68437058D01*
X132055244Y-68413397D01*
X132061056Y-68390193D01*
X132069114Y-68367671D01*
X132079342Y-68346047D01*
X132091639Y-68325530D01*
X132105889Y-68306317D01*
X132121953Y-68288593D01*
X132139677Y-68272529D01*
X132158890Y-68258279D01*
X132179407Y-68245982D01*
X132201031Y-68235754D01*
X132223553Y-68227696D01*
X132246757Y-68221884D01*
X132270418Y-68218374D01*
X132294310Y-68217200D01*
X133206810Y-68217200D01*
X133230702Y-68218374D01*
X133230702Y-68218374D01*
G37*
D11*
X132750560Y-68704700D03*
D10*
G36*
X135389702Y-66328134D02*
G01*
X135413363Y-66331644D01*
X135436567Y-66337456D01*
X135459089Y-66345514D01*
X135480713Y-66355742D01*
X135501230Y-66368039D01*
X135520443Y-66382289D01*
X135538167Y-66398353D01*
X135554231Y-66416077D01*
X135568481Y-66435290D01*
X135580778Y-66455807D01*
X135591006Y-66477431D01*
X135599064Y-66499953D01*
X135604876Y-66523157D01*
X135608386Y-66546818D01*
X135609560Y-66570710D01*
X135609560Y-67058210D01*
X135608386Y-67082102D01*
X135604876Y-67105763D01*
X135599064Y-67128967D01*
X135591006Y-67151489D01*
X135580778Y-67173113D01*
X135568481Y-67193630D01*
X135554231Y-67212843D01*
X135538167Y-67230567D01*
X135520443Y-67246631D01*
X135501230Y-67260881D01*
X135480713Y-67273178D01*
X135459089Y-67283406D01*
X135436567Y-67291464D01*
X135413363Y-67297276D01*
X135389702Y-67300786D01*
X135365810Y-67301960D01*
X134453310Y-67301960D01*
X134429418Y-67300786D01*
X134405757Y-67297276D01*
X134382553Y-67291464D01*
X134360031Y-67283406D01*
X134338407Y-67273178D01*
X134317890Y-67260881D01*
X134298677Y-67246631D01*
X134280953Y-67230567D01*
X134264889Y-67212843D01*
X134250639Y-67193630D01*
X134238342Y-67173113D01*
X134228114Y-67151489D01*
X134220056Y-67128967D01*
X134214244Y-67105763D01*
X134210734Y-67082102D01*
X134209560Y-67058210D01*
X134209560Y-66570710D01*
X134210734Y-66546818D01*
X134214244Y-66523157D01*
X134220056Y-66499953D01*
X134228114Y-66477431D01*
X134238342Y-66455807D01*
X134250639Y-66435290D01*
X134264889Y-66416077D01*
X134280953Y-66398353D01*
X134298677Y-66382289D01*
X134317890Y-66368039D01*
X134338407Y-66355742D01*
X134360031Y-66345514D01*
X134382553Y-66337456D01*
X134405757Y-66331644D01*
X134429418Y-66328134D01*
X134453310Y-66326960D01*
X135365810Y-66326960D01*
X135389702Y-66328134D01*
X135389702Y-66328134D01*
G37*
D11*
X134909560Y-66814460D03*
D10*
G36*
X135389702Y-68203134D02*
G01*
X135413363Y-68206644D01*
X135436567Y-68212456D01*
X135459089Y-68220514D01*
X135480713Y-68230742D01*
X135501230Y-68243039D01*
X135520443Y-68257289D01*
X135538167Y-68273353D01*
X135554231Y-68291077D01*
X135568481Y-68310290D01*
X135580778Y-68330807D01*
X135591006Y-68352431D01*
X135599064Y-68374953D01*
X135604876Y-68398157D01*
X135608386Y-68421818D01*
X135609560Y-68445710D01*
X135609560Y-68933210D01*
X135608386Y-68957102D01*
X135604876Y-68980763D01*
X135599064Y-69003967D01*
X135591006Y-69026489D01*
X135580778Y-69048113D01*
X135568481Y-69068630D01*
X135554231Y-69087843D01*
X135538167Y-69105567D01*
X135520443Y-69121631D01*
X135501230Y-69135881D01*
X135480713Y-69148178D01*
X135459089Y-69158406D01*
X135436567Y-69166464D01*
X135413363Y-69172276D01*
X135389702Y-69175786D01*
X135365810Y-69176960D01*
X134453310Y-69176960D01*
X134429418Y-69175786D01*
X134405757Y-69172276D01*
X134382553Y-69166464D01*
X134360031Y-69158406D01*
X134338407Y-69148178D01*
X134317890Y-69135881D01*
X134298677Y-69121631D01*
X134280953Y-69105567D01*
X134264889Y-69087843D01*
X134250639Y-69068630D01*
X134238342Y-69048113D01*
X134228114Y-69026489D01*
X134220056Y-69003967D01*
X134214244Y-68980763D01*
X134210734Y-68957102D01*
X134209560Y-68933210D01*
X134209560Y-68445710D01*
X134210734Y-68421818D01*
X134214244Y-68398157D01*
X134220056Y-68374953D01*
X134228114Y-68352431D01*
X134238342Y-68330807D01*
X134250639Y-68310290D01*
X134264889Y-68291077D01*
X134280953Y-68273353D01*
X134298677Y-68257289D01*
X134317890Y-68243039D01*
X134338407Y-68230742D01*
X134360031Y-68220514D01*
X134382553Y-68212456D01*
X134405757Y-68206644D01*
X134429418Y-68203134D01*
X134453310Y-68201960D01*
X135365810Y-68201960D01*
X135389702Y-68203134D01*
X135389702Y-68203134D01*
G37*
D11*
X134909560Y-68689460D03*
D10*
G36*
X98446502Y-59872554D02*
G01*
X98470163Y-59876064D01*
X98493367Y-59881876D01*
X98515889Y-59889934D01*
X98537513Y-59900162D01*
X98558030Y-59912459D01*
X98577243Y-59926709D01*
X98594967Y-59942773D01*
X98611031Y-59960497D01*
X98625281Y-59979710D01*
X98637578Y-60000227D01*
X98647806Y-60021851D01*
X98655864Y-60044373D01*
X98661676Y-60067577D01*
X98665186Y-60091238D01*
X98666360Y-60115130D01*
X98666360Y-61027630D01*
X98665186Y-61051522D01*
X98661676Y-61075183D01*
X98655864Y-61098387D01*
X98647806Y-61120909D01*
X98637578Y-61142533D01*
X98625281Y-61163050D01*
X98611031Y-61182263D01*
X98594967Y-61199987D01*
X98577243Y-61216051D01*
X98558030Y-61230301D01*
X98537513Y-61242598D01*
X98515889Y-61252826D01*
X98493367Y-61260884D01*
X98470163Y-61266696D01*
X98446502Y-61270206D01*
X98422610Y-61271380D01*
X97935110Y-61271380D01*
X97911218Y-61270206D01*
X97887557Y-61266696D01*
X97864353Y-61260884D01*
X97841831Y-61252826D01*
X97820207Y-61242598D01*
X97799690Y-61230301D01*
X97780477Y-61216051D01*
X97762753Y-61199987D01*
X97746689Y-61182263D01*
X97732439Y-61163050D01*
X97720142Y-61142533D01*
X97709914Y-61120909D01*
X97701856Y-61098387D01*
X97696044Y-61075183D01*
X97692534Y-61051522D01*
X97691360Y-61027630D01*
X97691360Y-60115130D01*
X97692534Y-60091238D01*
X97696044Y-60067577D01*
X97701856Y-60044373D01*
X97709914Y-60021851D01*
X97720142Y-60000227D01*
X97732439Y-59979710D01*
X97746689Y-59960497D01*
X97762753Y-59942773D01*
X97780477Y-59926709D01*
X97799690Y-59912459D01*
X97820207Y-59900162D01*
X97841831Y-59889934D01*
X97864353Y-59881876D01*
X97887557Y-59876064D01*
X97911218Y-59872554D01*
X97935110Y-59871380D01*
X98422610Y-59871380D01*
X98446502Y-59872554D01*
X98446502Y-59872554D01*
G37*
D11*
X98178860Y-60571380D03*
D10*
G36*
X96571502Y-59872554D02*
G01*
X96595163Y-59876064D01*
X96618367Y-59881876D01*
X96640889Y-59889934D01*
X96662513Y-59900162D01*
X96683030Y-59912459D01*
X96702243Y-59926709D01*
X96719967Y-59942773D01*
X96736031Y-59960497D01*
X96750281Y-59979710D01*
X96762578Y-60000227D01*
X96772806Y-60021851D01*
X96780864Y-60044373D01*
X96786676Y-60067577D01*
X96790186Y-60091238D01*
X96791360Y-60115130D01*
X96791360Y-61027630D01*
X96790186Y-61051522D01*
X96786676Y-61075183D01*
X96780864Y-61098387D01*
X96772806Y-61120909D01*
X96762578Y-61142533D01*
X96750281Y-61163050D01*
X96736031Y-61182263D01*
X96719967Y-61199987D01*
X96702243Y-61216051D01*
X96683030Y-61230301D01*
X96662513Y-61242598D01*
X96640889Y-61252826D01*
X96618367Y-61260884D01*
X96595163Y-61266696D01*
X96571502Y-61270206D01*
X96547610Y-61271380D01*
X96060110Y-61271380D01*
X96036218Y-61270206D01*
X96012557Y-61266696D01*
X95989353Y-61260884D01*
X95966831Y-61252826D01*
X95945207Y-61242598D01*
X95924690Y-61230301D01*
X95905477Y-61216051D01*
X95887753Y-61199987D01*
X95871689Y-61182263D01*
X95857439Y-61163050D01*
X95845142Y-61142533D01*
X95834914Y-61120909D01*
X95826856Y-61098387D01*
X95821044Y-61075183D01*
X95817534Y-61051522D01*
X95816360Y-61027630D01*
X95816360Y-60115130D01*
X95817534Y-60091238D01*
X95821044Y-60067577D01*
X95826856Y-60044373D01*
X95834914Y-60021851D01*
X95845142Y-60000227D01*
X95857439Y-59979710D01*
X95871689Y-59960497D01*
X95887753Y-59942773D01*
X95905477Y-59926709D01*
X95924690Y-59912459D01*
X95945207Y-59900162D01*
X95966831Y-59889934D01*
X95989353Y-59881876D01*
X96012557Y-59876064D01*
X96036218Y-59872554D01*
X96060110Y-59871380D01*
X96547610Y-59871380D01*
X96571502Y-59872554D01*
X96571502Y-59872554D01*
G37*
D11*
X96303860Y-60571380D03*
D10*
G36*
X98479522Y-57566234D02*
G01*
X98503183Y-57569744D01*
X98526387Y-57575556D01*
X98548909Y-57583614D01*
X98570533Y-57593842D01*
X98591050Y-57606139D01*
X98610263Y-57620389D01*
X98627987Y-57636453D01*
X98644051Y-57654177D01*
X98658301Y-57673390D01*
X98670598Y-57693907D01*
X98680826Y-57715531D01*
X98688884Y-57738053D01*
X98694696Y-57761257D01*
X98698206Y-57784918D01*
X98699380Y-57808810D01*
X98699380Y-58721310D01*
X98698206Y-58745202D01*
X98694696Y-58768863D01*
X98688884Y-58792067D01*
X98680826Y-58814589D01*
X98670598Y-58836213D01*
X98658301Y-58856730D01*
X98644051Y-58875943D01*
X98627987Y-58893667D01*
X98610263Y-58909731D01*
X98591050Y-58923981D01*
X98570533Y-58936278D01*
X98548909Y-58946506D01*
X98526387Y-58954564D01*
X98503183Y-58960376D01*
X98479522Y-58963886D01*
X98455630Y-58965060D01*
X97968130Y-58965060D01*
X97944238Y-58963886D01*
X97920577Y-58960376D01*
X97897373Y-58954564D01*
X97874851Y-58946506D01*
X97853227Y-58936278D01*
X97832710Y-58923981D01*
X97813497Y-58909731D01*
X97795773Y-58893667D01*
X97779709Y-58875943D01*
X97765459Y-58856730D01*
X97753162Y-58836213D01*
X97742934Y-58814589D01*
X97734876Y-58792067D01*
X97729064Y-58768863D01*
X97725554Y-58745202D01*
X97724380Y-58721310D01*
X97724380Y-57808810D01*
X97725554Y-57784918D01*
X97729064Y-57761257D01*
X97734876Y-57738053D01*
X97742934Y-57715531D01*
X97753162Y-57693907D01*
X97765459Y-57673390D01*
X97779709Y-57654177D01*
X97795773Y-57636453D01*
X97813497Y-57620389D01*
X97832710Y-57606139D01*
X97853227Y-57593842D01*
X97874851Y-57583614D01*
X97897373Y-57575556D01*
X97920577Y-57569744D01*
X97944238Y-57566234D01*
X97968130Y-57565060D01*
X98455630Y-57565060D01*
X98479522Y-57566234D01*
X98479522Y-57566234D01*
G37*
D11*
X98211880Y-58265060D03*
D10*
G36*
X96604522Y-57566234D02*
G01*
X96628183Y-57569744D01*
X96651387Y-57575556D01*
X96673909Y-57583614D01*
X96695533Y-57593842D01*
X96716050Y-57606139D01*
X96735263Y-57620389D01*
X96752987Y-57636453D01*
X96769051Y-57654177D01*
X96783301Y-57673390D01*
X96795598Y-57693907D01*
X96805826Y-57715531D01*
X96813884Y-57738053D01*
X96819696Y-57761257D01*
X96823206Y-57784918D01*
X96824380Y-57808810D01*
X96824380Y-58721310D01*
X96823206Y-58745202D01*
X96819696Y-58768863D01*
X96813884Y-58792067D01*
X96805826Y-58814589D01*
X96795598Y-58836213D01*
X96783301Y-58856730D01*
X96769051Y-58875943D01*
X96752987Y-58893667D01*
X96735263Y-58909731D01*
X96716050Y-58923981D01*
X96695533Y-58936278D01*
X96673909Y-58946506D01*
X96651387Y-58954564D01*
X96628183Y-58960376D01*
X96604522Y-58963886D01*
X96580630Y-58965060D01*
X96093130Y-58965060D01*
X96069238Y-58963886D01*
X96045577Y-58960376D01*
X96022373Y-58954564D01*
X95999851Y-58946506D01*
X95978227Y-58936278D01*
X95957710Y-58923981D01*
X95938497Y-58909731D01*
X95920773Y-58893667D01*
X95904709Y-58875943D01*
X95890459Y-58856730D01*
X95878162Y-58836213D01*
X95867934Y-58814589D01*
X95859876Y-58792067D01*
X95854064Y-58768863D01*
X95850554Y-58745202D01*
X95849380Y-58721310D01*
X95849380Y-57808810D01*
X95850554Y-57784918D01*
X95854064Y-57761257D01*
X95859876Y-57738053D01*
X95867934Y-57715531D01*
X95878162Y-57693907D01*
X95890459Y-57673390D01*
X95904709Y-57654177D01*
X95920773Y-57636453D01*
X95938497Y-57620389D01*
X95957710Y-57606139D01*
X95978227Y-57593842D01*
X95999851Y-57583614D01*
X96022373Y-57575556D01*
X96045577Y-57569744D01*
X96069238Y-57566234D01*
X96093130Y-57565060D01*
X96580630Y-57565060D01*
X96604522Y-57566234D01*
X96604522Y-57566234D01*
G37*
D11*
X96336880Y-58265060D03*
D10*
G36*
X91507222Y-72300774D02*
G01*
X91530883Y-72304284D01*
X91554087Y-72310096D01*
X91576609Y-72318154D01*
X91598233Y-72328382D01*
X91618750Y-72340679D01*
X91637963Y-72354929D01*
X91655687Y-72370993D01*
X91671751Y-72388717D01*
X91686001Y-72407930D01*
X91698298Y-72428447D01*
X91708526Y-72450071D01*
X91716584Y-72472593D01*
X91722396Y-72495797D01*
X91725906Y-72519458D01*
X91727080Y-72543350D01*
X91727080Y-73455850D01*
X91725906Y-73479742D01*
X91722396Y-73503403D01*
X91716584Y-73526607D01*
X91708526Y-73549129D01*
X91698298Y-73570753D01*
X91686001Y-73591270D01*
X91671751Y-73610483D01*
X91655687Y-73628207D01*
X91637963Y-73644271D01*
X91618750Y-73658521D01*
X91598233Y-73670818D01*
X91576609Y-73681046D01*
X91554087Y-73689104D01*
X91530883Y-73694916D01*
X91507222Y-73698426D01*
X91483330Y-73699600D01*
X90995830Y-73699600D01*
X90971938Y-73698426D01*
X90948277Y-73694916D01*
X90925073Y-73689104D01*
X90902551Y-73681046D01*
X90880927Y-73670818D01*
X90860410Y-73658521D01*
X90841197Y-73644271D01*
X90823473Y-73628207D01*
X90807409Y-73610483D01*
X90793159Y-73591270D01*
X90780862Y-73570753D01*
X90770634Y-73549129D01*
X90762576Y-73526607D01*
X90756764Y-73503403D01*
X90753254Y-73479742D01*
X90752080Y-73455850D01*
X90752080Y-72543350D01*
X90753254Y-72519458D01*
X90756764Y-72495797D01*
X90762576Y-72472593D01*
X90770634Y-72450071D01*
X90780862Y-72428447D01*
X90793159Y-72407930D01*
X90807409Y-72388717D01*
X90823473Y-72370993D01*
X90841197Y-72354929D01*
X90860410Y-72340679D01*
X90880927Y-72328382D01*
X90902551Y-72318154D01*
X90925073Y-72310096D01*
X90948277Y-72304284D01*
X90971938Y-72300774D01*
X90995830Y-72299600D01*
X91483330Y-72299600D01*
X91507222Y-72300774D01*
X91507222Y-72300774D01*
G37*
D11*
X91239580Y-72999600D03*
D10*
G36*
X89632222Y-72300774D02*
G01*
X89655883Y-72304284D01*
X89679087Y-72310096D01*
X89701609Y-72318154D01*
X89723233Y-72328382D01*
X89743750Y-72340679D01*
X89762963Y-72354929D01*
X89780687Y-72370993D01*
X89796751Y-72388717D01*
X89811001Y-72407930D01*
X89823298Y-72428447D01*
X89833526Y-72450071D01*
X89841584Y-72472593D01*
X89847396Y-72495797D01*
X89850906Y-72519458D01*
X89852080Y-72543350D01*
X89852080Y-73455850D01*
X89850906Y-73479742D01*
X89847396Y-73503403D01*
X89841584Y-73526607D01*
X89833526Y-73549129D01*
X89823298Y-73570753D01*
X89811001Y-73591270D01*
X89796751Y-73610483D01*
X89780687Y-73628207D01*
X89762963Y-73644271D01*
X89743750Y-73658521D01*
X89723233Y-73670818D01*
X89701609Y-73681046D01*
X89679087Y-73689104D01*
X89655883Y-73694916D01*
X89632222Y-73698426D01*
X89608330Y-73699600D01*
X89120830Y-73699600D01*
X89096938Y-73698426D01*
X89073277Y-73694916D01*
X89050073Y-73689104D01*
X89027551Y-73681046D01*
X89005927Y-73670818D01*
X88985410Y-73658521D01*
X88966197Y-73644271D01*
X88948473Y-73628207D01*
X88932409Y-73610483D01*
X88918159Y-73591270D01*
X88905862Y-73570753D01*
X88895634Y-73549129D01*
X88887576Y-73526607D01*
X88881764Y-73503403D01*
X88878254Y-73479742D01*
X88877080Y-73455850D01*
X88877080Y-72543350D01*
X88878254Y-72519458D01*
X88881764Y-72495797D01*
X88887576Y-72472593D01*
X88895634Y-72450071D01*
X88905862Y-72428447D01*
X88918159Y-72407930D01*
X88932409Y-72388717D01*
X88948473Y-72370993D01*
X88966197Y-72354929D01*
X88985410Y-72340679D01*
X89005927Y-72328382D01*
X89027551Y-72318154D01*
X89050073Y-72310096D01*
X89073277Y-72304284D01*
X89096938Y-72300774D01*
X89120830Y-72299600D01*
X89608330Y-72299600D01*
X89632222Y-72300774D01*
X89632222Y-72300774D01*
G37*
D11*
X89364580Y-72999600D03*
D10*
G36*
X132541162Y-71625134D02*
G01*
X132564823Y-71628644D01*
X132588027Y-71634456D01*
X132610549Y-71642514D01*
X132632173Y-71652742D01*
X132652690Y-71665039D01*
X132671903Y-71679289D01*
X132689627Y-71695353D01*
X132705691Y-71713077D01*
X132719941Y-71732290D01*
X132732238Y-71752807D01*
X132742466Y-71774431D01*
X132750524Y-71796953D01*
X132756336Y-71820157D01*
X132759846Y-71843818D01*
X132761020Y-71867710D01*
X132761020Y-72780210D01*
X132759846Y-72804102D01*
X132756336Y-72827763D01*
X132750524Y-72850967D01*
X132742466Y-72873489D01*
X132732238Y-72895113D01*
X132719941Y-72915630D01*
X132705691Y-72934843D01*
X132689627Y-72952567D01*
X132671903Y-72968631D01*
X132652690Y-72982881D01*
X132632173Y-72995178D01*
X132610549Y-73005406D01*
X132588027Y-73013464D01*
X132564823Y-73019276D01*
X132541162Y-73022786D01*
X132517270Y-73023960D01*
X132029770Y-73023960D01*
X132005878Y-73022786D01*
X131982217Y-73019276D01*
X131959013Y-73013464D01*
X131936491Y-73005406D01*
X131914867Y-72995178D01*
X131894350Y-72982881D01*
X131875137Y-72968631D01*
X131857413Y-72952567D01*
X131841349Y-72934843D01*
X131827099Y-72915630D01*
X131814802Y-72895113D01*
X131804574Y-72873489D01*
X131796516Y-72850967D01*
X131790704Y-72827763D01*
X131787194Y-72804102D01*
X131786020Y-72780210D01*
X131786020Y-71867710D01*
X131787194Y-71843818D01*
X131790704Y-71820157D01*
X131796516Y-71796953D01*
X131804574Y-71774431D01*
X131814802Y-71752807D01*
X131827099Y-71732290D01*
X131841349Y-71713077D01*
X131857413Y-71695353D01*
X131875137Y-71679289D01*
X131894350Y-71665039D01*
X131914867Y-71652742D01*
X131936491Y-71642514D01*
X131959013Y-71634456D01*
X131982217Y-71628644D01*
X132005878Y-71625134D01*
X132029770Y-71623960D01*
X132517270Y-71623960D01*
X132541162Y-71625134D01*
X132541162Y-71625134D01*
G37*
D11*
X132273520Y-72323960D03*
D10*
G36*
X130666162Y-71625134D02*
G01*
X130689823Y-71628644D01*
X130713027Y-71634456D01*
X130735549Y-71642514D01*
X130757173Y-71652742D01*
X130777690Y-71665039D01*
X130796903Y-71679289D01*
X130814627Y-71695353D01*
X130830691Y-71713077D01*
X130844941Y-71732290D01*
X130857238Y-71752807D01*
X130867466Y-71774431D01*
X130875524Y-71796953D01*
X130881336Y-71820157D01*
X130884846Y-71843818D01*
X130886020Y-71867710D01*
X130886020Y-72780210D01*
X130884846Y-72804102D01*
X130881336Y-72827763D01*
X130875524Y-72850967D01*
X130867466Y-72873489D01*
X130857238Y-72895113D01*
X130844941Y-72915630D01*
X130830691Y-72934843D01*
X130814627Y-72952567D01*
X130796903Y-72968631D01*
X130777690Y-72982881D01*
X130757173Y-72995178D01*
X130735549Y-73005406D01*
X130713027Y-73013464D01*
X130689823Y-73019276D01*
X130666162Y-73022786D01*
X130642270Y-73023960D01*
X130154770Y-73023960D01*
X130130878Y-73022786D01*
X130107217Y-73019276D01*
X130084013Y-73013464D01*
X130061491Y-73005406D01*
X130039867Y-72995178D01*
X130019350Y-72982881D01*
X130000137Y-72968631D01*
X129982413Y-72952567D01*
X129966349Y-72934843D01*
X129952099Y-72915630D01*
X129939802Y-72895113D01*
X129929574Y-72873489D01*
X129921516Y-72850967D01*
X129915704Y-72827763D01*
X129912194Y-72804102D01*
X129911020Y-72780210D01*
X129911020Y-71867710D01*
X129912194Y-71843818D01*
X129915704Y-71820157D01*
X129921516Y-71796953D01*
X129929574Y-71774431D01*
X129939802Y-71752807D01*
X129952099Y-71732290D01*
X129966349Y-71713077D01*
X129982413Y-71695353D01*
X130000137Y-71679289D01*
X130019350Y-71665039D01*
X130039867Y-71652742D01*
X130061491Y-71642514D01*
X130084013Y-71634456D01*
X130107217Y-71628644D01*
X130130878Y-71625134D01*
X130154770Y-71623960D01*
X130642270Y-71623960D01*
X130666162Y-71625134D01*
X130666162Y-71625134D01*
G37*
D11*
X130398520Y-72323960D03*
D10*
G36*
X132614582Y-73494574D02*
G01*
X132638243Y-73498084D01*
X132661447Y-73503896D01*
X132683969Y-73511954D01*
X132705593Y-73522182D01*
X132726110Y-73534479D01*
X132745323Y-73548729D01*
X132763047Y-73564793D01*
X132779111Y-73582517D01*
X132793361Y-73601730D01*
X132805658Y-73622247D01*
X132815886Y-73643871D01*
X132823944Y-73666393D01*
X132829756Y-73689597D01*
X132833266Y-73713258D01*
X132834440Y-73737150D01*
X132834440Y-74649650D01*
X132833266Y-74673542D01*
X132829756Y-74697203D01*
X132823944Y-74720407D01*
X132815886Y-74742929D01*
X132805658Y-74764553D01*
X132793361Y-74785070D01*
X132779111Y-74804283D01*
X132763047Y-74822007D01*
X132745323Y-74838071D01*
X132726110Y-74852321D01*
X132705593Y-74864618D01*
X132683969Y-74874846D01*
X132661447Y-74882904D01*
X132638243Y-74888716D01*
X132614582Y-74892226D01*
X132590690Y-74893400D01*
X132103190Y-74893400D01*
X132079298Y-74892226D01*
X132055637Y-74888716D01*
X132032433Y-74882904D01*
X132009911Y-74874846D01*
X131988287Y-74864618D01*
X131967770Y-74852321D01*
X131948557Y-74838071D01*
X131930833Y-74822007D01*
X131914769Y-74804283D01*
X131900519Y-74785070D01*
X131888222Y-74764553D01*
X131877994Y-74742929D01*
X131869936Y-74720407D01*
X131864124Y-74697203D01*
X131860614Y-74673542D01*
X131859440Y-74649650D01*
X131859440Y-73737150D01*
X131860614Y-73713258D01*
X131864124Y-73689597D01*
X131869936Y-73666393D01*
X131877994Y-73643871D01*
X131888222Y-73622247D01*
X131900519Y-73601730D01*
X131914769Y-73582517D01*
X131930833Y-73564793D01*
X131948557Y-73548729D01*
X131967770Y-73534479D01*
X131988287Y-73522182D01*
X132009911Y-73511954D01*
X132032433Y-73503896D01*
X132055637Y-73498084D01*
X132079298Y-73494574D01*
X132103190Y-73493400D01*
X132590690Y-73493400D01*
X132614582Y-73494574D01*
X132614582Y-73494574D01*
G37*
D11*
X132346940Y-74193400D03*
D10*
G36*
X130739582Y-73494574D02*
G01*
X130763243Y-73498084D01*
X130786447Y-73503896D01*
X130808969Y-73511954D01*
X130830593Y-73522182D01*
X130851110Y-73534479D01*
X130870323Y-73548729D01*
X130888047Y-73564793D01*
X130904111Y-73582517D01*
X130918361Y-73601730D01*
X130930658Y-73622247D01*
X130940886Y-73643871D01*
X130948944Y-73666393D01*
X130954756Y-73689597D01*
X130958266Y-73713258D01*
X130959440Y-73737150D01*
X130959440Y-74649650D01*
X130958266Y-74673542D01*
X130954756Y-74697203D01*
X130948944Y-74720407D01*
X130940886Y-74742929D01*
X130930658Y-74764553D01*
X130918361Y-74785070D01*
X130904111Y-74804283D01*
X130888047Y-74822007D01*
X130870323Y-74838071D01*
X130851110Y-74852321D01*
X130830593Y-74864618D01*
X130808969Y-74874846D01*
X130786447Y-74882904D01*
X130763243Y-74888716D01*
X130739582Y-74892226D01*
X130715690Y-74893400D01*
X130228190Y-74893400D01*
X130204298Y-74892226D01*
X130180637Y-74888716D01*
X130157433Y-74882904D01*
X130134911Y-74874846D01*
X130113287Y-74864618D01*
X130092770Y-74852321D01*
X130073557Y-74838071D01*
X130055833Y-74822007D01*
X130039769Y-74804283D01*
X130025519Y-74785070D01*
X130013222Y-74764553D01*
X130002994Y-74742929D01*
X129994936Y-74720407D01*
X129989124Y-74697203D01*
X129985614Y-74673542D01*
X129984440Y-74649650D01*
X129984440Y-73737150D01*
X129985614Y-73713258D01*
X129989124Y-73689597D01*
X129994936Y-73666393D01*
X130002994Y-73643871D01*
X130013222Y-73622247D01*
X130025519Y-73601730D01*
X130039769Y-73582517D01*
X130055833Y-73564793D01*
X130073557Y-73548729D01*
X130092770Y-73534479D01*
X130113287Y-73522182D01*
X130134911Y-73511954D01*
X130157433Y-73503896D01*
X130180637Y-73498084D01*
X130204298Y-73494574D01*
X130228190Y-73493400D01*
X130715690Y-73493400D01*
X130739582Y-73494574D01*
X130739582Y-73494574D01*
G37*
D11*
X130471940Y-74193400D03*
D10*
G36*
X133345002Y-64507434D02*
G01*
X133368663Y-64510944D01*
X133391867Y-64516756D01*
X133414389Y-64524814D01*
X133436013Y-64535042D01*
X133456530Y-64547339D01*
X133475743Y-64561589D01*
X133493467Y-64577653D01*
X133509531Y-64595377D01*
X133523781Y-64614590D01*
X133536078Y-64635107D01*
X133546306Y-64656731D01*
X133554364Y-64679253D01*
X133560176Y-64702457D01*
X133563686Y-64726118D01*
X133564860Y-64750010D01*
X133564860Y-65237510D01*
X133563686Y-65261402D01*
X133560176Y-65285063D01*
X133554364Y-65308267D01*
X133546306Y-65330789D01*
X133536078Y-65352413D01*
X133523781Y-65372930D01*
X133509531Y-65392143D01*
X133493467Y-65409867D01*
X133475743Y-65425931D01*
X133456530Y-65440181D01*
X133436013Y-65452478D01*
X133414389Y-65462706D01*
X133391867Y-65470764D01*
X133368663Y-65476576D01*
X133345002Y-65480086D01*
X133321110Y-65481260D01*
X132408610Y-65481260D01*
X132384718Y-65480086D01*
X132361057Y-65476576D01*
X132337853Y-65470764D01*
X132315331Y-65462706D01*
X132293707Y-65452478D01*
X132273190Y-65440181D01*
X132253977Y-65425931D01*
X132236253Y-65409867D01*
X132220189Y-65392143D01*
X132205939Y-65372930D01*
X132193642Y-65352413D01*
X132183414Y-65330789D01*
X132175356Y-65308267D01*
X132169544Y-65285063D01*
X132166034Y-65261402D01*
X132164860Y-65237510D01*
X132164860Y-64750010D01*
X132166034Y-64726118D01*
X132169544Y-64702457D01*
X132175356Y-64679253D01*
X132183414Y-64656731D01*
X132193642Y-64635107D01*
X132205939Y-64614590D01*
X132220189Y-64595377D01*
X132236253Y-64577653D01*
X132253977Y-64561589D01*
X132273190Y-64547339D01*
X132293707Y-64535042D01*
X132315331Y-64524814D01*
X132337853Y-64516756D01*
X132361057Y-64510944D01*
X132384718Y-64507434D01*
X132408610Y-64506260D01*
X133321110Y-64506260D01*
X133345002Y-64507434D01*
X133345002Y-64507434D01*
G37*
D11*
X132864860Y-64993760D03*
D10*
G36*
X133345002Y-62632434D02*
G01*
X133368663Y-62635944D01*
X133391867Y-62641756D01*
X133414389Y-62649814D01*
X133436013Y-62660042D01*
X133456530Y-62672339D01*
X133475743Y-62686589D01*
X133493467Y-62702653D01*
X133509531Y-62720377D01*
X133523781Y-62739590D01*
X133536078Y-62760107D01*
X133546306Y-62781731D01*
X133554364Y-62804253D01*
X133560176Y-62827457D01*
X133563686Y-62851118D01*
X133564860Y-62875010D01*
X133564860Y-63362510D01*
X133563686Y-63386402D01*
X133560176Y-63410063D01*
X133554364Y-63433267D01*
X133546306Y-63455789D01*
X133536078Y-63477413D01*
X133523781Y-63497930D01*
X133509531Y-63517143D01*
X133493467Y-63534867D01*
X133475743Y-63550931D01*
X133456530Y-63565181D01*
X133436013Y-63577478D01*
X133414389Y-63587706D01*
X133391867Y-63595764D01*
X133368663Y-63601576D01*
X133345002Y-63605086D01*
X133321110Y-63606260D01*
X132408610Y-63606260D01*
X132384718Y-63605086D01*
X132361057Y-63601576D01*
X132337853Y-63595764D01*
X132315331Y-63587706D01*
X132293707Y-63577478D01*
X132273190Y-63565181D01*
X132253977Y-63550931D01*
X132236253Y-63534867D01*
X132220189Y-63517143D01*
X132205939Y-63497930D01*
X132193642Y-63477413D01*
X132183414Y-63455789D01*
X132175356Y-63433267D01*
X132169544Y-63410063D01*
X132166034Y-63386402D01*
X132164860Y-63362510D01*
X132164860Y-62875010D01*
X132166034Y-62851118D01*
X132169544Y-62827457D01*
X132175356Y-62804253D01*
X132183414Y-62781731D01*
X132193642Y-62760107D01*
X132205939Y-62739590D01*
X132220189Y-62720377D01*
X132236253Y-62702653D01*
X132253977Y-62686589D01*
X132273190Y-62672339D01*
X132293707Y-62660042D01*
X132315331Y-62649814D01*
X132337853Y-62641756D01*
X132361057Y-62635944D01*
X132384718Y-62632434D01*
X132408610Y-62631260D01*
X133321110Y-62631260D01*
X133345002Y-62632434D01*
X133345002Y-62632434D01*
G37*
D11*
X132864860Y-63118760D03*
D10*
G36*
X135300802Y-64507434D02*
G01*
X135324463Y-64510944D01*
X135347667Y-64516756D01*
X135370189Y-64524814D01*
X135391813Y-64535042D01*
X135412330Y-64547339D01*
X135431543Y-64561589D01*
X135449267Y-64577653D01*
X135465331Y-64595377D01*
X135479581Y-64614590D01*
X135491878Y-64635107D01*
X135502106Y-64656731D01*
X135510164Y-64679253D01*
X135515976Y-64702457D01*
X135519486Y-64726118D01*
X135520660Y-64750010D01*
X135520660Y-65237510D01*
X135519486Y-65261402D01*
X135515976Y-65285063D01*
X135510164Y-65308267D01*
X135502106Y-65330789D01*
X135491878Y-65352413D01*
X135479581Y-65372930D01*
X135465331Y-65392143D01*
X135449267Y-65409867D01*
X135431543Y-65425931D01*
X135412330Y-65440181D01*
X135391813Y-65452478D01*
X135370189Y-65462706D01*
X135347667Y-65470764D01*
X135324463Y-65476576D01*
X135300802Y-65480086D01*
X135276910Y-65481260D01*
X134364410Y-65481260D01*
X134340518Y-65480086D01*
X134316857Y-65476576D01*
X134293653Y-65470764D01*
X134271131Y-65462706D01*
X134249507Y-65452478D01*
X134228990Y-65440181D01*
X134209777Y-65425931D01*
X134192053Y-65409867D01*
X134175989Y-65392143D01*
X134161739Y-65372930D01*
X134149442Y-65352413D01*
X134139214Y-65330789D01*
X134131156Y-65308267D01*
X134125344Y-65285063D01*
X134121834Y-65261402D01*
X134120660Y-65237510D01*
X134120660Y-64750010D01*
X134121834Y-64726118D01*
X134125344Y-64702457D01*
X134131156Y-64679253D01*
X134139214Y-64656731D01*
X134149442Y-64635107D01*
X134161739Y-64614590D01*
X134175989Y-64595377D01*
X134192053Y-64577653D01*
X134209777Y-64561589D01*
X134228990Y-64547339D01*
X134249507Y-64535042D01*
X134271131Y-64524814D01*
X134293653Y-64516756D01*
X134316857Y-64510944D01*
X134340518Y-64507434D01*
X134364410Y-64506260D01*
X135276910Y-64506260D01*
X135300802Y-64507434D01*
X135300802Y-64507434D01*
G37*
D11*
X134820660Y-64993760D03*
D10*
G36*
X135300802Y-62632434D02*
G01*
X135324463Y-62635944D01*
X135347667Y-62641756D01*
X135370189Y-62649814D01*
X135391813Y-62660042D01*
X135412330Y-62672339D01*
X135431543Y-62686589D01*
X135449267Y-62702653D01*
X135465331Y-62720377D01*
X135479581Y-62739590D01*
X135491878Y-62760107D01*
X135502106Y-62781731D01*
X135510164Y-62804253D01*
X135515976Y-62827457D01*
X135519486Y-62851118D01*
X135520660Y-62875010D01*
X135520660Y-63362510D01*
X135519486Y-63386402D01*
X135515976Y-63410063D01*
X135510164Y-63433267D01*
X135502106Y-63455789D01*
X135491878Y-63477413D01*
X135479581Y-63497930D01*
X135465331Y-63517143D01*
X135449267Y-63534867D01*
X135431543Y-63550931D01*
X135412330Y-63565181D01*
X135391813Y-63577478D01*
X135370189Y-63587706D01*
X135347667Y-63595764D01*
X135324463Y-63601576D01*
X135300802Y-63605086D01*
X135276910Y-63606260D01*
X134364410Y-63606260D01*
X134340518Y-63605086D01*
X134316857Y-63601576D01*
X134293653Y-63595764D01*
X134271131Y-63587706D01*
X134249507Y-63577478D01*
X134228990Y-63565181D01*
X134209777Y-63550931D01*
X134192053Y-63534867D01*
X134175989Y-63517143D01*
X134161739Y-63497930D01*
X134149442Y-63477413D01*
X134139214Y-63455789D01*
X134131156Y-63433267D01*
X134125344Y-63410063D01*
X134121834Y-63386402D01*
X134120660Y-63362510D01*
X134120660Y-62875010D01*
X134121834Y-62851118D01*
X134125344Y-62827457D01*
X134131156Y-62804253D01*
X134139214Y-62781731D01*
X134149442Y-62760107D01*
X134161739Y-62739590D01*
X134175989Y-62720377D01*
X134192053Y-62702653D01*
X134209777Y-62686589D01*
X134228990Y-62672339D01*
X134249507Y-62660042D01*
X134271131Y-62649814D01*
X134293653Y-62641756D01*
X134316857Y-62635944D01*
X134340518Y-62632434D01*
X134364410Y-62631260D01*
X135276910Y-62631260D01*
X135300802Y-62632434D01*
X135300802Y-62632434D01*
G37*
D11*
X134820660Y-63118760D03*
D17*
X101091760Y-60571380D03*
D10*
G36*
X100591760Y-59821380D02*
G01*
X101091760Y-59821380D01*
X101091760Y-59821982D01*
X101116294Y-59821982D01*
X101165125Y-59826792D01*
X101213250Y-59836364D01*
X101260205Y-59850608D01*
X101305538Y-59869385D01*
X101348811Y-59892516D01*
X101389610Y-59919776D01*
X101427539Y-59950904D01*
X101462236Y-59985601D01*
X101493364Y-60023530D01*
X101520624Y-60064329D01*
X101543755Y-60107602D01*
X101562532Y-60152935D01*
X101576776Y-60199890D01*
X101586348Y-60248015D01*
X101591158Y-60296846D01*
X101591158Y-60321380D01*
X101591760Y-60321380D01*
X101591760Y-60821380D01*
X101591158Y-60821380D01*
X101591158Y-60845914D01*
X101586348Y-60894745D01*
X101576776Y-60942870D01*
X101562532Y-60989825D01*
X101543755Y-61035158D01*
X101520624Y-61078431D01*
X101493364Y-61119230D01*
X101462236Y-61157159D01*
X101427539Y-61191856D01*
X101389610Y-61222984D01*
X101348811Y-61250244D01*
X101305538Y-61273375D01*
X101260205Y-61292152D01*
X101213250Y-61306396D01*
X101165125Y-61315968D01*
X101116294Y-61320778D01*
X101091760Y-61320778D01*
X101091760Y-61321380D01*
X100591760Y-61321380D01*
X100591760Y-59821380D01*
X100591760Y-59821380D01*
G37*
D17*
X99791760Y-60571380D03*
D10*
G36*
X99791760Y-61320778D02*
G01*
X99767226Y-61320778D01*
X99718395Y-61315968D01*
X99670270Y-61306396D01*
X99623315Y-61292152D01*
X99577982Y-61273375D01*
X99534709Y-61250244D01*
X99493910Y-61222984D01*
X99455981Y-61191856D01*
X99421284Y-61157159D01*
X99390156Y-61119230D01*
X99362896Y-61078431D01*
X99339765Y-61035158D01*
X99320988Y-60989825D01*
X99306744Y-60942870D01*
X99297172Y-60894745D01*
X99292362Y-60845914D01*
X99292362Y-60821380D01*
X99291760Y-60821380D01*
X99291760Y-60321380D01*
X99292362Y-60321380D01*
X99292362Y-60296846D01*
X99297172Y-60248015D01*
X99306744Y-60199890D01*
X99320988Y-60152935D01*
X99339765Y-60107602D01*
X99362896Y-60064329D01*
X99390156Y-60023530D01*
X99421284Y-59985601D01*
X99455981Y-59950904D01*
X99493910Y-59919776D01*
X99534709Y-59892516D01*
X99577982Y-59869385D01*
X99623315Y-59850608D01*
X99670270Y-59836364D01*
X99718395Y-59826792D01*
X99767226Y-59821982D01*
X99791760Y-59821982D01*
X99791760Y-59821380D01*
X100291760Y-59821380D01*
X100291760Y-61321380D01*
X99791760Y-61321380D01*
X99791760Y-61320778D01*
X99791760Y-61320778D01*
G37*
D17*
X101048580Y-58265060D03*
D10*
G36*
X100548580Y-57515060D02*
G01*
X101048580Y-57515060D01*
X101048580Y-57515662D01*
X101073114Y-57515662D01*
X101121945Y-57520472D01*
X101170070Y-57530044D01*
X101217025Y-57544288D01*
X101262358Y-57563065D01*
X101305631Y-57586196D01*
X101346430Y-57613456D01*
X101384359Y-57644584D01*
X101419056Y-57679281D01*
X101450184Y-57717210D01*
X101477444Y-57758009D01*
X101500575Y-57801282D01*
X101519352Y-57846615D01*
X101533596Y-57893570D01*
X101543168Y-57941695D01*
X101547978Y-57990526D01*
X101547978Y-58015060D01*
X101548580Y-58015060D01*
X101548580Y-58515060D01*
X101547978Y-58515060D01*
X101547978Y-58539594D01*
X101543168Y-58588425D01*
X101533596Y-58636550D01*
X101519352Y-58683505D01*
X101500575Y-58728838D01*
X101477444Y-58772111D01*
X101450184Y-58812910D01*
X101419056Y-58850839D01*
X101384359Y-58885536D01*
X101346430Y-58916664D01*
X101305631Y-58943924D01*
X101262358Y-58967055D01*
X101217025Y-58985832D01*
X101170070Y-59000076D01*
X101121945Y-59009648D01*
X101073114Y-59014458D01*
X101048580Y-59014458D01*
X101048580Y-59015060D01*
X100548580Y-59015060D01*
X100548580Y-57515060D01*
X100548580Y-57515060D01*
G37*
D17*
X99748580Y-58265060D03*
D10*
G36*
X99748580Y-59014458D02*
G01*
X99724046Y-59014458D01*
X99675215Y-59009648D01*
X99627090Y-59000076D01*
X99580135Y-58985832D01*
X99534802Y-58967055D01*
X99491529Y-58943924D01*
X99450730Y-58916664D01*
X99412801Y-58885536D01*
X99378104Y-58850839D01*
X99346976Y-58812910D01*
X99319716Y-58772111D01*
X99296585Y-58728838D01*
X99277808Y-58683505D01*
X99263564Y-58636550D01*
X99253992Y-58588425D01*
X99249182Y-58539594D01*
X99249182Y-58515060D01*
X99248580Y-58515060D01*
X99248580Y-58015060D01*
X99249182Y-58015060D01*
X99249182Y-57990526D01*
X99253992Y-57941695D01*
X99263564Y-57893570D01*
X99277808Y-57846615D01*
X99296585Y-57801282D01*
X99319716Y-57758009D01*
X99346976Y-57717210D01*
X99378104Y-57679281D01*
X99412801Y-57644584D01*
X99450730Y-57613456D01*
X99491529Y-57586196D01*
X99534802Y-57563065D01*
X99580135Y-57544288D01*
X99627090Y-57530044D01*
X99675215Y-57520472D01*
X99724046Y-57515662D01*
X99748580Y-57515662D01*
X99748580Y-57515060D01*
X100248580Y-57515060D01*
X100248580Y-59015060D01*
X99748580Y-59015060D01*
X99748580Y-59014458D01*
X99748580Y-59014458D01*
G37*
G36*
X95042902Y-59872554D02*
G01*
X95066563Y-59876064D01*
X95089767Y-59881876D01*
X95112289Y-59889934D01*
X95133913Y-59900162D01*
X95154430Y-59912459D01*
X95173643Y-59926709D01*
X95191367Y-59942773D01*
X95207431Y-59960497D01*
X95221681Y-59979710D01*
X95233978Y-60000227D01*
X95244206Y-60021851D01*
X95252264Y-60044373D01*
X95258076Y-60067577D01*
X95261586Y-60091238D01*
X95262760Y-60115130D01*
X95262760Y-61027630D01*
X95261586Y-61051522D01*
X95258076Y-61075183D01*
X95252264Y-61098387D01*
X95244206Y-61120909D01*
X95233978Y-61142533D01*
X95221681Y-61163050D01*
X95207431Y-61182263D01*
X95191367Y-61199987D01*
X95173643Y-61216051D01*
X95154430Y-61230301D01*
X95133913Y-61242598D01*
X95112289Y-61252826D01*
X95089767Y-61260884D01*
X95066563Y-61266696D01*
X95042902Y-61270206D01*
X95019010Y-61271380D01*
X94531510Y-61271380D01*
X94507618Y-61270206D01*
X94483957Y-61266696D01*
X94460753Y-61260884D01*
X94438231Y-61252826D01*
X94416607Y-61242598D01*
X94396090Y-61230301D01*
X94376877Y-61216051D01*
X94359153Y-61199987D01*
X94343089Y-61182263D01*
X94328839Y-61163050D01*
X94316542Y-61142533D01*
X94306314Y-61120909D01*
X94298256Y-61098387D01*
X94292444Y-61075183D01*
X94288934Y-61051522D01*
X94287760Y-61027630D01*
X94287760Y-60115130D01*
X94288934Y-60091238D01*
X94292444Y-60067577D01*
X94298256Y-60044373D01*
X94306314Y-60021851D01*
X94316542Y-60000227D01*
X94328839Y-59979710D01*
X94343089Y-59960497D01*
X94359153Y-59942773D01*
X94376877Y-59926709D01*
X94396090Y-59912459D01*
X94416607Y-59900162D01*
X94438231Y-59889934D01*
X94460753Y-59881876D01*
X94483957Y-59876064D01*
X94507618Y-59872554D01*
X94531510Y-59871380D01*
X95019010Y-59871380D01*
X95042902Y-59872554D01*
X95042902Y-59872554D01*
G37*
D11*
X94775260Y-60571380D03*
D10*
G36*
X93167902Y-59872554D02*
G01*
X93191563Y-59876064D01*
X93214767Y-59881876D01*
X93237289Y-59889934D01*
X93258913Y-59900162D01*
X93279430Y-59912459D01*
X93298643Y-59926709D01*
X93316367Y-59942773D01*
X93332431Y-59960497D01*
X93346681Y-59979710D01*
X93358978Y-60000227D01*
X93369206Y-60021851D01*
X93377264Y-60044373D01*
X93383076Y-60067577D01*
X93386586Y-60091238D01*
X93387760Y-60115130D01*
X93387760Y-61027630D01*
X93386586Y-61051522D01*
X93383076Y-61075183D01*
X93377264Y-61098387D01*
X93369206Y-61120909D01*
X93358978Y-61142533D01*
X93346681Y-61163050D01*
X93332431Y-61182263D01*
X93316367Y-61199987D01*
X93298643Y-61216051D01*
X93279430Y-61230301D01*
X93258913Y-61242598D01*
X93237289Y-61252826D01*
X93214767Y-61260884D01*
X93191563Y-61266696D01*
X93167902Y-61270206D01*
X93144010Y-61271380D01*
X92656510Y-61271380D01*
X92632618Y-61270206D01*
X92608957Y-61266696D01*
X92585753Y-61260884D01*
X92563231Y-61252826D01*
X92541607Y-61242598D01*
X92521090Y-61230301D01*
X92501877Y-61216051D01*
X92484153Y-61199987D01*
X92468089Y-61182263D01*
X92453839Y-61163050D01*
X92441542Y-61142533D01*
X92431314Y-61120909D01*
X92423256Y-61098387D01*
X92417444Y-61075183D01*
X92413934Y-61051522D01*
X92412760Y-61027630D01*
X92412760Y-60115130D01*
X92413934Y-60091238D01*
X92417444Y-60067577D01*
X92423256Y-60044373D01*
X92431314Y-60021851D01*
X92441542Y-60000227D01*
X92453839Y-59979710D01*
X92468089Y-59960497D01*
X92484153Y-59942773D01*
X92501877Y-59926709D01*
X92521090Y-59912459D01*
X92541607Y-59900162D01*
X92563231Y-59889934D01*
X92585753Y-59881876D01*
X92608957Y-59876064D01*
X92632618Y-59872554D01*
X92656510Y-59871380D01*
X93144010Y-59871380D01*
X93167902Y-59872554D01*
X93167902Y-59872554D01*
G37*
D11*
X92900260Y-60571380D03*
D10*
G36*
X95025122Y-57566234D02*
G01*
X95048783Y-57569744D01*
X95071987Y-57575556D01*
X95094509Y-57583614D01*
X95116133Y-57593842D01*
X95136650Y-57606139D01*
X95155863Y-57620389D01*
X95173587Y-57636453D01*
X95189651Y-57654177D01*
X95203901Y-57673390D01*
X95216198Y-57693907D01*
X95226426Y-57715531D01*
X95234484Y-57738053D01*
X95240296Y-57761257D01*
X95243806Y-57784918D01*
X95244980Y-57808810D01*
X95244980Y-58721310D01*
X95243806Y-58745202D01*
X95240296Y-58768863D01*
X95234484Y-58792067D01*
X95226426Y-58814589D01*
X95216198Y-58836213D01*
X95203901Y-58856730D01*
X95189651Y-58875943D01*
X95173587Y-58893667D01*
X95155863Y-58909731D01*
X95136650Y-58923981D01*
X95116133Y-58936278D01*
X95094509Y-58946506D01*
X95071987Y-58954564D01*
X95048783Y-58960376D01*
X95025122Y-58963886D01*
X95001230Y-58965060D01*
X94513730Y-58965060D01*
X94489838Y-58963886D01*
X94466177Y-58960376D01*
X94442973Y-58954564D01*
X94420451Y-58946506D01*
X94398827Y-58936278D01*
X94378310Y-58923981D01*
X94359097Y-58909731D01*
X94341373Y-58893667D01*
X94325309Y-58875943D01*
X94311059Y-58856730D01*
X94298762Y-58836213D01*
X94288534Y-58814589D01*
X94280476Y-58792067D01*
X94274664Y-58768863D01*
X94271154Y-58745202D01*
X94269980Y-58721310D01*
X94269980Y-57808810D01*
X94271154Y-57784918D01*
X94274664Y-57761257D01*
X94280476Y-57738053D01*
X94288534Y-57715531D01*
X94298762Y-57693907D01*
X94311059Y-57673390D01*
X94325309Y-57654177D01*
X94341373Y-57636453D01*
X94359097Y-57620389D01*
X94378310Y-57606139D01*
X94398827Y-57593842D01*
X94420451Y-57583614D01*
X94442973Y-57575556D01*
X94466177Y-57569744D01*
X94489838Y-57566234D01*
X94513730Y-57565060D01*
X95001230Y-57565060D01*
X95025122Y-57566234D01*
X95025122Y-57566234D01*
G37*
D11*
X94757480Y-58265060D03*
D10*
G36*
X93150122Y-57566234D02*
G01*
X93173783Y-57569744D01*
X93196987Y-57575556D01*
X93219509Y-57583614D01*
X93241133Y-57593842D01*
X93261650Y-57606139D01*
X93280863Y-57620389D01*
X93298587Y-57636453D01*
X93314651Y-57654177D01*
X93328901Y-57673390D01*
X93341198Y-57693907D01*
X93351426Y-57715531D01*
X93359484Y-57738053D01*
X93365296Y-57761257D01*
X93368806Y-57784918D01*
X93369980Y-57808810D01*
X93369980Y-58721310D01*
X93368806Y-58745202D01*
X93365296Y-58768863D01*
X93359484Y-58792067D01*
X93351426Y-58814589D01*
X93341198Y-58836213D01*
X93328901Y-58856730D01*
X93314651Y-58875943D01*
X93298587Y-58893667D01*
X93280863Y-58909731D01*
X93261650Y-58923981D01*
X93241133Y-58936278D01*
X93219509Y-58946506D01*
X93196987Y-58954564D01*
X93173783Y-58960376D01*
X93150122Y-58963886D01*
X93126230Y-58965060D01*
X92638730Y-58965060D01*
X92614838Y-58963886D01*
X92591177Y-58960376D01*
X92567973Y-58954564D01*
X92545451Y-58946506D01*
X92523827Y-58936278D01*
X92503310Y-58923981D01*
X92484097Y-58909731D01*
X92466373Y-58893667D01*
X92450309Y-58875943D01*
X92436059Y-58856730D01*
X92423762Y-58836213D01*
X92413534Y-58814589D01*
X92405476Y-58792067D01*
X92399664Y-58768863D01*
X92396154Y-58745202D01*
X92394980Y-58721310D01*
X92394980Y-57808810D01*
X92396154Y-57784918D01*
X92399664Y-57761257D01*
X92405476Y-57738053D01*
X92413534Y-57715531D01*
X92423762Y-57693907D01*
X92436059Y-57673390D01*
X92450309Y-57654177D01*
X92466373Y-57636453D01*
X92484097Y-57620389D01*
X92503310Y-57606139D01*
X92523827Y-57593842D01*
X92545451Y-57583614D01*
X92567973Y-57575556D01*
X92591177Y-57569744D01*
X92614838Y-57566234D01*
X92638730Y-57565060D01*
X93126230Y-57565060D01*
X93150122Y-57566234D01*
X93150122Y-57566234D01*
G37*
D11*
X92882480Y-58265060D03*
D10*
G36*
X87932342Y-71022054D02*
G01*
X87956003Y-71025564D01*
X87979207Y-71031376D01*
X88001729Y-71039434D01*
X88023353Y-71049662D01*
X88043870Y-71061959D01*
X88063083Y-71076209D01*
X88080807Y-71092273D01*
X88096871Y-71109997D01*
X88111121Y-71129210D01*
X88123418Y-71149727D01*
X88133646Y-71171351D01*
X88141704Y-71193873D01*
X88147516Y-71217077D01*
X88151026Y-71240738D01*
X88152200Y-71264630D01*
X88152200Y-71752130D01*
X88151026Y-71776022D01*
X88147516Y-71799683D01*
X88141704Y-71822887D01*
X88133646Y-71845409D01*
X88123418Y-71867033D01*
X88111121Y-71887550D01*
X88096871Y-71906763D01*
X88080807Y-71924487D01*
X88063083Y-71940551D01*
X88043870Y-71954801D01*
X88023353Y-71967098D01*
X88001729Y-71977326D01*
X87979207Y-71985384D01*
X87956003Y-71991196D01*
X87932342Y-71994706D01*
X87908450Y-71995880D01*
X86995950Y-71995880D01*
X86972058Y-71994706D01*
X86948397Y-71991196D01*
X86925193Y-71985384D01*
X86902671Y-71977326D01*
X86881047Y-71967098D01*
X86860530Y-71954801D01*
X86841317Y-71940551D01*
X86823593Y-71924487D01*
X86807529Y-71906763D01*
X86793279Y-71887550D01*
X86780982Y-71867033D01*
X86770754Y-71845409D01*
X86762696Y-71822887D01*
X86756884Y-71799683D01*
X86753374Y-71776022D01*
X86752200Y-71752130D01*
X86752200Y-71264630D01*
X86753374Y-71240738D01*
X86756884Y-71217077D01*
X86762696Y-71193873D01*
X86770754Y-71171351D01*
X86780982Y-71149727D01*
X86793279Y-71129210D01*
X86807529Y-71109997D01*
X86823593Y-71092273D01*
X86841317Y-71076209D01*
X86860530Y-71061959D01*
X86881047Y-71049662D01*
X86902671Y-71039434D01*
X86925193Y-71031376D01*
X86948397Y-71025564D01*
X86972058Y-71022054D01*
X86995950Y-71020880D01*
X87908450Y-71020880D01*
X87932342Y-71022054D01*
X87932342Y-71022054D01*
G37*
D11*
X87452200Y-71508380D03*
D10*
G36*
X87932342Y-72897054D02*
G01*
X87956003Y-72900564D01*
X87979207Y-72906376D01*
X88001729Y-72914434D01*
X88023353Y-72924662D01*
X88043870Y-72936959D01*
X88063083Y-72951209D01*
X88080807Y-72967273D01*
X88096871Y-72984997D01*
X88111121Y-73004210D01*
X88123418Y-73024727D01*
X88133646Y-73046351D01*
X88141704Y-73068873D01*
X88147516Y-73092077D01*
X88151026Y-73115738D01*
X88152200Y-73139630D01*
X88152200Y-73627130D01*
X88151026Y-73651022D01*
X88147516Y-73674683D01*
X88141704Y-73697887D01*
X88133646Y-73720409D01*
X88123418Y-73742033D01*
X88111121Y-73762550D01*
X88096871Y-73781763D01*
X88080807Y-73799487D01*
X88063083Y-73815551D01*
X88043870Y-73829801D01*
X88023353Y-73842098D01*
X88001729Y-73852326D01*
X87979207Y-73860384D01*
X87956003Y-73866196D01*
X87932342Y-73869706D01*
X87908450Y-73870880D01*
X86995950Y-73870880D01*
X86972058Y-73869706D01*
X86948397Y-73866196D01*
X86925193Y-73860384D01*
X86902671Y-73852326D01*
X86881047Y-73842098D01*
X86860530Y-73829801D01*
X86841317Y-73815551D01*
X86823593Y-73799487D01*
X86807529Y-73781763D01*
X86793279Y-73762550D01*
X86780982Y-73742033D01*
X86770754Y-73720409D01*
X86762696Y-73697887D01*
X86756884Y-73674683D01*
X86753374Y-73651022D01*
X86752200Y-73627130D01*
X86752200Y-73139630D01*
X86753374Y-73115738D01*
X86756884Y-73092077D01*
X86762696Y-73068873D01*
X86770754Y-73046351D01*
X86780982Y-73024727D01*
X86793279Y-73004210D01*
X86807529Y-72984997D01*
X86823593Y-72967273D01*
X86841317Y-72951209D01*
X86860530Y-72936959D01*
X86881047Y-72924662D01*
X86902671Y-72914434D01*
X86925193Y-72906376D01*
X86948397Y-72900564D01*
X86972058Y-72897054D01*
X86995950Y-72895880D01*
X87908450Y-72895880D01*
X87932342Y-72897054D01*
X87932342Y-72897054D01*
G37*
D11*
X87452200Y-73383380D03*
D18*
X89178700Y-70472300D03*
X90678700Y-70472300D03*
D19*
X108315760Y-63162180D03*
X110195360Y-63162180D03*
X112074960Y-63162180D03*
X113954560Y-63162180D03*
X115834160Y-63162180D03*
X117713760Y-63162180D03*
X108315760Y-64625220D03*
X108315760Y-66494660D03*
X108315760Y-68364100D03*
X108315760Y-70233540D03*
X108315760Y-72102980D03*
X117713760Y-64625220D03*
X117713760Y-66494660D03*
X117713760Y-68364100D03*
X117713760Y-70233540D03*
X117713760Y-72102980D03*
X110195360Y-72102980D03*
X112074960Y-72102980D03*
X113954560Y-72102980D03*
X115834160Y-72102980D03*
X110195360Y-64625220D03*
X110195360Y-66494660D03*
X110195360Y-68364100D03*
X110195360Y-70233540D03*
X112074960Y-70233540D03*
X112074960Y-68364100D03*
X112074960Y-66494660D03*
X112074960Y-64625220D03*
X113954560Y-64625220D03*
X113954560Y-66494660D03*
X113954560Y-68364100D03*
X113954560Y-70233540D03*
X115834160Y-70233540D03*
X115834160Y-68364100D03*
X115834160Y-66494660D03*
X115834160Y-64625220D03*
X100258880Y-75768200D03*
X132613400Y-77398880D03*
X87416640Y-70170040D03*
X129357120Y-71953120D03*
X126918720Y-71963280D03*
X128290320Y-69580760D03*
X92867480Y-67873880D03*
X96672400Y-67873880D03*
X96657160Y-66248280D03*
X92867480Y-66248280D03*
X107843320Y-60228480D03*
X119014240Y-60147200D03*
X107492800Y-75189080D03*
X116768880Y-76210160D03*
X123063000Y-65963800D03*
X123799600Y-69240400D03*
X124968000Y-72237600D03*
X121666000Y-72263000D03*
X122885200Y-74396600D03*
X118668800Y-74472800D03*
X119862600Y-73126600D03*
X120777000Y-74498200D03*
X125806200Y-69138800D03*
X129895600Y-68961000D03*
X124866400Y-66294000D03*
X128447800Y-66370200D03*
X131013200Y-66598800D03*
X136194800Y-61950600D03*
X136321800Y-59664600D03*
X134543800Y-60579000D03*
X126034800Y-58928000D03*
X128092200Y-59029600D03*
X126111000Y-61087000D03*
X128193800Y-61036200D03*
X121589800Y-62687200D03*
X123393200Y-63525400D03*
X125501400Y-63906400D03*
X128473200Y-63957200D03*
X131191000Y-63804800D03*
X129717800Y-62331600D03*
X101041200Y-56667400D03*
X98298000Y-56692800D03*
X95072200Y-56692800D03*
X91440000Y-56718200D03*
X91389200Y-60325000D03*
X91363800Y-66598800D03*
X91262200Y-63373000D03*
X87503000Y-61290200D03*
X87655400Y-63347600D03*
X87680800Y-65989200D03*
X87630000Y-68986400D03*
X92176600Y-69469000D03*
X92583000Y-71424800D03*
X93218000Y-73380600D03*
X96469200Y-72999600D03*
X96520000Y-75996800D03*
X98247200Y-74574400D03*
X107492800Y-73126600D03*
X102743000Y-74930000D03*
X102870000Y-68199000D03*
X104648000Y-68707000D03*
X104648000Y-74930000D03*
X106299000Y-74930000D03*
X106299000Y-73025000D03*
X104902000Y-73025000D03*
X97663000Y-69850000D03*
X99695000Y-71882000D03*
X101346000Y-73660000D03*
X100076000Y-68199000D03*
X102362000Y-70993000D03*
X104775000Y-70993000D03*
X129540000Y-76073000D03*
X130810000Y-75819000D03*
X132334000Y-76200000D03*
X91567000Y-59309000D03*
X102616000Y-60198000D03*
X132715000Y-69723000D03*
X94361080Y-65156000D03*
X93360240Y-68666360D03*
X100944680Y-61965840D03*
X114960400Y-62113160D03*
X105069640Y-65598040D03*
X95356680Y-68691760D03*
X96591120Y-63886080D03*
X102306120Y-58760360D03*
X111277400Y-75509120D03*
X136042400Y-69306440D03*
X133781800Y-69342000D03*
X131378960Y-68955920D03*
X128031240Y-72608440D03*
X133812280Y-67741800D03*
X114056160Y-75488800D03*
X121401840Y-69021960D03*
X131429760Y-64978280D03*
X121478040Y-65151000D03*
X133172200Y-73279000D03*
X121437400Y-67076320D03*
X131876800Y-71018400D03*
X111292640Y-59446160D03*
X113136680Y-59446160D03*
X94467680Y-68717160D03*
X95199200Y-64272160D03*
X112186720Y-75458320D03*
X90703400Y-68915280D03*
X105064560Y-67442080D03*
X129463800Y-74193400D03*
X129286000Y-72872600D03*
X134716520Y-62097920D03*
X133502400Y-62077600D03*
D20*
X87452200Y-70205600D02*
X87416640Y-70170040D01*
X87452200Y-71508380D02*
X87452200Y-70205600D01*
X87718900Y-70472300D02*
X87416640Y-70170040D01*
X89178700Y-70472300D02*
X87718900Y-70472300D01*
X88142620Y-71508380D02*
X89178700Y-70472300D01*
X87452200Y-71508380D02*
X88142620Y-71508380D01*
D21*
X107492800Y-75189080D02*
X108920442Y-75189080D01*
X110931463Y-76229821D02*
X110754322Y-76052680D01*
X112481857Y-76229821D02*
X110931463Y-76229821D01*
X112532979Y-76178699D02*
X112481857Y-76229821D01*
X113600041Y-76178699D02*
X112532979Y-76178699D01*
X116301907Y-76210160D02*
X116270446Y-76178699D01*
X116768880Y-76210160D02*
X116301907Y-76210160D01*
X116270446Y-76178699D02*
X114432899Y-76178699D01*
X114432899Y-76178699D02*
X114309998Y-76301600D01*
X114309998Y-76301600D02*
X113722942Y-76301600D01*
X113722942Y-76301600D02*
X113600041Y-76178699D01*
X109784042Y-76052680D02*
X109725541Y-75994179D01*
X110754322Y-76052680D02*
X109784042Y-76052680D01*
X108920442Y-75189080D02*
X109725541Y-75994179D01*
D20*
X118684041Y-59817001D02*
X119014240Y-60147200D01*
X117528999Y-58661959D02*
X118684041Y-59817001D01*
X109409841Y-58661959D02*
X117528999Y-58661959D01*
X107843320Y-60228480D02*
X109409841Y-58661959D01*
D22*
X102616000Y-60198000D02*
X101854000Y-59436000D01*
X92033973Y-59309000D02*
X91567000Y-59309000D01*
X92160973Y-59436000D02*
X92033973Y-59309000D01*
X101854000Y-59436000D02*
X92160973Y-59436000D01*
D20*
X95224600Y-77419200D02*
X95224600Y-77378800D01*
X94361080Y-65156000D02*
X93872470Y-65644610D01*
X95224600Y-75846700D02*
X94704140Y-75326240D01*
X95224600Y-77419200D02*
X95224600Y-75846700D01*
X94704140Y-72090280D02*
X95026480Y-71767940D01*
X94704140Y-75326240D02*
X94704140Y-72090280D01*
X115189000Y-60527200D02*
X115260200Y-60456000D01*
X93690439Y-65826641D02*
X93872470Y-65644610D01*
X93690439Y-68336161D02*
X93690439Y-65826641D01*
X93360240Y-68666360D02*
X93690439Y-68336161D01*
X100944680Y-60718460D02*
X101091760Y-60571380D01*
X100944680Y-61965840D02*
X100944680Y-60718460D01*
X93360240Y-70101700D02*
X93360240Y-68666360D01*
X95026480Y-71767940D02*
X93360240Y-70101700D01*
X114960400Y-60923440D02*
X115001120Y-60882720D01*
X114960400Y-62113160D02*
X114960400Y-60923440D01*
X106485800Y-65598040D02*
X106501120Y-65582720D01*
X105069640Y-65598040D02*
X106485800Y-65598040D01*
D23*
X95749380Y-58265060D02*
X94757480Y-58265060D01*
X96336880Y-58265060D02*
X95749380Y-58265060D01*
X94775260Y-60571380D02*
X96303860Y-60571380D01*
X95686879Y-68361561D02*
X95686879Y-64749681D01*
X95356680Y-68691760D02*
X95686879Y-68361561D01*
X95727519Y-64749681D02*
X96591120Y-63886080D01*
X95686879Y-64749681D02*
X95727519Y-64749681D01*
X101810820Y-58265060D02*
X102306120Y-58760360D01*
X101048580Y-58265060D02*
X101810820Y-58265060D01*
X111277400Y-74159000D02*
X111201120Y-74082720D01*
X111277400Y-75509120D02*
X111277400Y-74159000D01*
X98799380Y-58265060D02*
X99748580Y-58265060D01*
X98211880Y-58265060D02*
X98799380Y-58265060D01*
X99191760Y-60571380D02*
X98178860Y-60571380D01*
X99791760Y-60571380D02*
X99191760Y-60571380D01*
X135526540Y-69306440D02*
X134909560Y-68689460D01*
X136042400Y-69306440D02*
X135526540Y-69306440D01*
X133387860Y-69342000D02*
X132750560Y-68704700D01*
X133781800Y-69342000D02*
X133387860Y-69342000D01*
X131048761Y-69286119D02*
X131378960Y-68955920D01*
X128361439Y-71973441D02*
X131048761Y-69286119D01*
X128361439Y-72278241D02*
X128361439Y-71973441D01*
X128031240Y-72608440D02*
X128361439Y-72278241D01*
X134264423Y-65549997D02*
X134820660Y-64993760D01*
X134264423Y-66024261D02*
X134264423Y-65549997D01*
X133812280Y-66476404D02*
X134264423Y-66024261D01*
X133812280Y-67741800D02*
X133812280Y-66476404D01*
X115300760Y-73696560D02*
X115260200Y-73656000D01*
X115036600Y-74118200D02*
X115001120Y-74082720D01*
X114386359Y-75158601D02*
X114056160Y-75488800D01*
X115001120Y-74543840D02*
X114386359Y-75158601D01*
X115001120Y-74082720D02*
X115001120Y-74543840D01*
X121335880Y-68956000D02*
X121401840Y-69021960D01*
X132849380Y-64978280D02*
X132864860Y-64993760D01*
X131429760Y-64978280D02*
X132849380Y-64978280D01*
X121041080Y-69382720D02*
X121401840Y-69021960D01*
X119701120Y-69382720D02*
X121041080Y-69382720D01*
X119965200Y-65151000D02*
X119960200Y-65156000D01*
X120132840Y-65151000D02*
X119701120Y-65582720D01*
X121478040Y-65151000D02*
X120132840Y-65151000D01*
X133172200Y-73368140D02*
X132346940Y-74193400D01*
X133172200Y-73279000D02*
X133172200Y-73368140D01*
X121417080Y-67056000D02*
X121437400Y-67076320D01*
X121031000Y-67482720D02*
X121437400Y-67076320D01*
X119701120Y-67482720D02*
X121031000Y-67482720D01*
X131876800Y-71927240D02*
X132273520Y-72323960D01*
X131876800Y-71018400D02*
X131876800Y-71927240D01*
D20*
X91239580Y-73736680D02*
X92829140Y-75326240D01*
X91239580Y-72999600D02*
X91239580Y-73736680D01*
D23*
X111424720Y-60420520D02*
X111460200Y-60456000D01*
X111221520Y-61009640D02*
X111206200Y-61024960D01*
X111201120Y-59537680D02*
X111292640Y-59446160D01*
X111201120Y-60882720D02*
X111201120Y-59537680D01*
X113355120Y-60450920D02*
X113360200Y-60456000D01*
X113146840Y-60984320D02*
X113106200Y-61024960D01*
X113136680Y-60847160D02*
X113101120Y-60882720D01*
X113136680Y-59446160D02*
X113136680Y-60847160D01*
X95199200Y-64739133D02*
X95199200Y-64272160D01*
X95199200Y-67518667D02*
X95199200Y-64739133D01*
X94467680Y-68250187D02*
X95199200Y-67518667D01*
X94467680Y-68717160D02*
X94467680Y-68250187D01*
X113101120Y-74543920D02*
X113101120Y-74082720D01*
X112186720Y-75458320D02*
X113101120Y-74543920D01*
D20*
X88980800Y-73383380D02*
X89364580Y-72999600D01*
X87452200Y-73383380D02*
X88980800Y-73383380D01*
X90678700Y-71685480D02*
X89364580Y-72999600D01*
X90678700Y-71459660D02*
X90678700Y-71685480D01*
X90678700Y-68939980D02*
X90703400Y-68915280D01*
X90678700Y-70472300D02*
X90678700Y-68939980D01*
X106460480Y-67442080D02*
X106501120Y-67482720D01*
X105064560Y-67442080D02*
X106460480Y-67442080D01*
D23*
X129463800Y-74193400D02*
X130471940Y-74193400D01*
X129849880Y-72872600D02*
X130398520Y-72323960D01*
X129286000Y-72872600D02*
X129849880Y-72872600D01*
X135376897Y-63674997D02*
X135796870Y-64094970D01*
X135796870Y-64094970D02*
X135796870Y-65927150D01*
X135796870Y-65927150D02*
X134909560Y-66814460D01*
X135376897Y-63674997D02*
X134820660Y-63118760D01*
X134820660Y-62202060D02*
X134716520Y-62097920D01*
X134820660Y-63118760D02*
X134820660Y-62202060D01*
X132864860Y-62715140D02*
X133502400Y-62077600D01*
X132864860Y-63118760D02*
X132864860Y-62715140D01*
X132750560Y-65821560D02*
X132750560Y-66829700D01*
X132864860Y-63118760D02*
X133841070Y-64094970D01*
X133841070Y-65739190D02*
X133554766Y-65739190D01*
X133841070Y-64094970D02*
X133841070Y-65739190D01*
X133554766Y-65739190D02*
X133536486Y-65757470D01*
X133536486Y-65757470D02*
X132814650Y-65757470D01*
X132814650Y-65757470D02*
X132750560Y-65821560D01*
D22*
G36*
X101356528Y-56922404D02*
G01*
X101318203Y-56910778D01*
X101222070Y-56891656D01*
X101097589Y-56879396D01*
X101073030Y-56879396D01*
X101048580Y-56876988D01*
X100548580Y-56876988D01*
X100424098Y-56889248D01*
X100398580Y-56896989D01*
X100373062Y-56889248D01*
X100248580Y-56876988D01*
X99748580Y-56876988D01*
X99724130Y-56879396D01*
X99699571Y-56879396D01*
X99575090Y-56891656D01*
X99478957Y-56910778D01*
X99359261Y-56947087D01*
X99268705Y-56984596D01*
X99158388Y-57043562D01*
X99076889Y-57098018D01*
X99024873Y-57140706D01*
X98945544Y-57075602D01*
X98793089Y-56994113D01*
X98627665Y-56943932D01*
X98455630Y-56926988D01*
X97968130Y-56926988D01*
X97796095Y-56943932D01*
X97630671Y-56994113D01*
X97478216Y-57075602D01*
X97344588Y-57185268D01*
X97274380Y-57270816D01*
X97204172Y-57185268D01*
X97070544Y-57075602D01*
X96918089Y-56994113D01*
X96752665Y-56943932D01*
X96580630Y-56926988D01*
X96093130Y-56926988D01*
X95921095Y-56943932D01*
X95755671Y-56994113D01*
X95603216Y-57075602D01*
X95547180Y-57121590D01*
X95491144Y-57075602D01*
X95338689Y-56994113D01*
X95173265Y-56943932D01*
X95001230Y-56926988D01*
X94513730Y-56926988D01*
X94341695Y-56943932D01*
X94176271Y-56994113D01*
X94023816Y-57075602D01*
X93890188Y-57185268D01*
X93884972Y-57191624D01*
X93821165Y-57113875D01*
X93724474Y-57034523D01*
X93614160Y-56975558D01*
X93494462Y-56939248D01*
X93369980Y-56926988D01*
X93168230Y-56930060D01*
X93009480Y-57088810D01*
X93009480Y-58138060D01*
X93029480Y-58138060D01*
X93029480Y-58392060D01*
X93009480Y-58392060D01*
X93009480Y-59441310D01*
X93027260Y-59459090D01*
X93027260Y-60444380D01*
X93047260Y-60444380D01*
X93047260Y-60698380D01*
X93027260Y-60698380D01*
X93027260Y-61747630D01*
X93186010Y-61906380D01*
X93387760Y-61909452D01*
X93512242Y-61897192D01*
X93631940Y-61860882D01*
X93742254Y-61801917D01*
X93838945Y-61722565D01*
X93902752Y-61644816D01*
X93907968Y-61651172D01*
X94041596Y-61760838D01*
X94194051Y-61842327D01*
X94359475Y-61892508D01*
X94531510Y-61909452D01*
X95019010Y-61909452D01*
X95191045Y-61892508D01*
X95356469Y-61842327D01*
X95508924Y-61760838D01*
X95539560Y-61735696D01*
X95570196Y-61760838D01*
X95722651Y-61842327D01*
X95888075Y-61892508D01*
X96060110Y-61909452D01*
X96547610Y-61909452D01*
X96719645Y-61892508D01*
X96885069Y-61842327D01*
X97037524Y-61760838D01*
X97171152Y-61651172D01*
X97241360Y-61565624D01*
X97311568Y-61651172D01*
X97445196Y-61760838D01*
X97597651Y-61842327D01*
X97763075Y-61892508D01*
X97935110Y-61909452D01*
X98422610Y-61909452D01*
X98594645Y-61892508D01*
X98760069Y-61842327D01*
X98912524Y-61760838D01*
X99029953Y-61664466D01*
X99120069Y-61738422D01*
X99201568Y-61792878D01*
X99311885Y-61851844D01*
X99402441Y-61889353D01*
X99522137Y-61925662D01*
X99618270Y-61944784D01*
X99742751Y-61957044D01*
X99767310Y-61957044D01*
X99791760Y-61959452D01*
X99979480Y-61959452D01*
X99979480Y-62060904D01*
X100016572Y-62247378D01*
X100089331Y-62423034D01*
X100194960Y-62581119D01*
X100329401Y-62715560D01*
X100487486Y-62821189D01*
X100663142Y-62893948D01*
X100849616Y-62931040D01*
X101039744Y-62931040D01*
X101226218Y-62893948D01*
X101401874Y-62821189D01*
X101559959Y-62715560D01*
X101694400Y-62581119D01*
X101800029Y-62423034D01*
X101872788Y-62247378D01*
X101909880Y-62060904D01*
X101909880Y-61870776D01*
X101892365Y-61782720D01*
X107913048Y-61782720D01*
X107925308Y-61907202D01*
X107961618Y-62026900D01*
X108020583Y-62137214D01*
X108099935Y-62233905D01*
X108196626Y-62313257D01*
X108306940Y-62372222D01*
X108426638Y-62408532D01*
X108551120Y-62420792D01*
X109015370Y-62417720D01*
X109174120Y-62258970D01*
X109174120Y-61009720D01*
X108074870Y-61009720D01*
X107916120Y-61168470D01*
X107913048Y-61782720D01*
X101892365Y-61782720D01*
X101872788Y-61684302D01*
X101861694Y-61657518D01*
X101929450Y-61589762D01*
X102008802Y-61493071D01*
X102063258Y-61411572D01*
X102122224Y-61301255D01*
X102159733Y-61210699D01*
X102196042Y-61091003D01*
X102215164Y-60994870D01*
X102227424Y-60870389D01*
X102227424Y-60845830D01*
X102229832Y-60821380D01*
X102229832Y-60321380D01*
X102227424Y-60296930D01*
X102227424Y-60272371D01*
X102215164Y-60147890D01*
X102196042Y-60051757D01*
X102175101Y-59982720D01*
X107913048Y-59982720D01*
X107916120Y-60596970D01*
X108074870Y-60755720D01*
X109174120Y-60755720D01*
X109174120Y-59506470D01*
X109015370Y-59347720D01*
X108551120Y-59344648D01*
X108426638Y-59356908D01*
X108306940Y-59393218D01*
X108196626Y-59452183D01*
X108099935Y-59531535D01*
X108020583Y-59628226D01*
X107961618Y-59738540D01*
X107925308Y-59858238D01*
X107913048Y-59982720D01*
X102175101Y-59982720D01*
X102159733Y-59932061D01*
X102122224Y-59841505D01*
X102063258Y-59731188D01*
X102036266Y-59690792D01*
X102211056Y-59725560D01*
X102401184Y-59725560D01*
X102587658Y-59688468D01*
X102763314Y-59615709D01*
X102921399Y-59510080D01*
X103055840Y-59375639D01*
X103161469Y-59217554D01*
X103234228Y-59041898D01*
X103271320Y-58855424D01*
X103271320Y-58665296D01*
X103255800Y-58587272D01*
X103694600Y-58587272D01*
X103819082Y-58575012D01*
X103938780Y-58538702D01*
X104049094Y-58479737D01*
X104145785Y-58400385D01*
X104225137Y-58303694D01*
X104284102Y-58193380D01*
X104304993Y-58124513D01*
X104329466Y-58154334D01*
X104555586Y-58339906D01*
X104813566Y-58477799D01*
X105093489Y-58562713D01*
X105311650Y-58584200D01*
X105457550Y-58584200D01*
X105675711Y-58562713D01*
X105955634Y-58477799D01*
X106213614Y-58339906D01*
X106439734Y-58154334D01*
X106625306Y-57928214D01*
X106654600Y-57873409D01*
X106683894Y-57928214D01*
X106869466Y-58154334D01*
X107095586Y-58339906D01*
X107353566Y-58477799D01*
X107633489Y-58562713D01*
X107851650Y-58584200D01*
X107997550Y-58584200D01*
X108215711Y-58562713D01*
X108495634Y-58477799D01*
X108753614Y-58339906D01*
X108979734Y-58154334D01*
X109165306Y-57928214D01*
X109194600Y-57873409D01*
X109223894Y-57928214D01*
X109409466Y-58154334D01*
X109635586Y-58339906D01*
X109893566Y-58477799D01*
X110173489Y-58562713D01*
X110391650Y-58584200D01*
X110537550Y-58584200D01*
X110755711Y-58562713D01*
X111035634Y-58477799D01*
X111293614Y-58339906D01*
X111519734Y-58154334D01*
X111705306Y-57928214D01*
X111734600Y-57873409D01*
X111763894Y-57928214D01*
X111949466Y-58154334D01*
X112175586Y-58339906D01*
X112433566Y-58477799D01*
X112713489Y-58562713D01*
X112740822Y-58565405D01*
X112679486Y-58590811D01*
X112521401Y-58696440D01*
X112386960Y-58830881D01*
X112281331Y-58988966D01*
X112214660Y-59149924D01*
X112147989Y-58988966D01*
X112042360Y-58830881D01*
X111907919Y-58696440D01*
X111749834Y-58590811D01*
X111574178Y-58518052D01*
X111387704Y-58480960D01*
X111197576Y-58480960D01*
X111011102Y-58518052D01*
X110835446Y-58590811D01*
X110677361Y-58696440D01*
X110542920Y-58830881D01*
X110437291Y-58988966D01*
X110364532Y-59164622D01*
X110327440Y-59351096D01*
X110327440Y-59356829D01*
X110326638Y-59356908D01*
X110251120Y-59379816D01*
X110175602Y-59356908D01*
X110051120Y-59344648D01*
X109586870Y-59347720D01*
X109428120Y-59506470D01*
X109428120Y-60755720D01*
X109448120Y-60755720D01*
X109448120Y-61009720D01*
X109428120Y-61009720D01*
X109428120Y-62258970D01*
X109586870Y-62417720D01*
X110051120Y-62420792D01*
X110175602Y-62408532D01*
X110251120Y-62385624D01*
X110326638Y-62408532D01*
X110451120Y-62420792D01*
X111951120Y-62420792D01*
X112075602Y-62408532D01*
X112151120Y-62385624D01*
X112226638Y-62408532D01*
X112351120Y-62420792D01*
X113851120Y-62420792D01*
X113975602Y-62408532D01*
X114031661Y-62391527D01*
X114032292Y-62394698D01*
X114105051Y-62570354D01*
X114210680Y-62728439D01*
X114345121Y-62862880D01*
X114503206Y-62968509D01*
X114678862Y-63041268D01*
X114865336Y-63078360D01*
X115055464Y-63078360D01*
X115241938Y-63041268D01*
X115417594Y-62968509D01*
X115471156Y-62932720D01*
X118163048Y-62932720D01*
X118166120Y-63396970D01*
X118324870Y-63555720D01*
X119574120Y-63555720D01*
X119574120Y-62456470D01*
X119828120Y-62456470D01*
X119828120Y-63555720D01*
X121077370Y-63555720D01*
X121236120Y-63396970D01*
X121239192Y-62932720D01*
X121226932Y-62808238D01*
X121190622Y-62688540D01*
X121131657Y-62578226D01*
X121052305Y-62481535D01*
X120955614Y-62402183D01*
X120845300Y-62343218D01*
X120725602Y-62306908D01*
X120601120Y-62294648D01*
X119986870Y-62297720D01*
X119828120Y-62456470D01*
X119574120Y-62456470D01*
X119415370Y-62297720D01*
X118801120Y-62294648D01*
X118676638Y-62306908D01*
X118556940Y-62343218D01*
X118446626Y-62402183D01*
X118349935Y-62481535D01*
X118270583Y-62578226D01*
X118211618Y-62688540D01*
X118175308Y-62808238D01*
X118163048Y-62932720D01*
X115471156Y-62932720D01*
X115575679Y-62862880D01*
X115710120Y-62728439D01*
X115815749Y-62570354D01*
X115883809Y-62406042D01*
X115951120Y-62385624D01*
X116026638Y-62408532D01*
X116151120Y-62420792D01*
X116615370Y-62417720D01*
X116774120Y-62258970D01*
X116774120Y-61009720D01*
X117028120Y-61009720D01*
X117028120Y-62258970D01*
X117186870Y-62417720D01*
X117651120Y-62420792D01*
X117775602Y-62408532D01*
X117895300Y-62372222D01*
X118005614Y-62313257D01*
X118102305Y-62233905D01*
X118181657Y-62137214D01*
X118240622Y-62026900D01*
X118276932Y-61907202D01*
X118289192Y-61782720D01*
X118286120Y-61168470D01*
X118127370Y-61009720D01*
X117028120Y-61009720D01*
X116774120Y-61009720D01*
X116754120Y-61009720D01*
X116754120Y-60755720D01*
X116774120Y-60755720D01*
X116774120Y-59506470D01*
X117028120Y-59506470D01*
X117028120Y-60755720D01*
X118127370Y-60755720D01*
X118286120Y-60596970D01*
X118289192Y-59982720D01*
X118276932Y-59858238D01*
X118240622Y-59738540D01*
X118181657Y-59628226D01*
X118102305Y-59531535D01*
X118005614Y-59452183D01*
X117895300Y-59393218D01*
X117775602Y-59356908D01*
X117651120Y-59344648D01*
X117186870Y-59347720D01*
X117028120Y-59506470D01*
X116774120Y-59506470D01*
X116615370Y-59347720D01*
X116151120Y-59344648D01*
X116026638Y-59356908D01*
X115951120Y-59379816D01*
X115875602Y-59356908D01*
X115751120Y-59344648D01*
X114251120Y-59344648D01*
X114126638Y-59356908D01*
X114101880Y-59364418D01*
X114101880Y-59351096D01*
X114064788Y-59164622D01*
X113992029Y-58988966D01*
X113886400Y-58830881D01*
X113751959Y-58696440D01*
X113593874Y-58590811D01*
X113428668Y-58522381D01*
X113575634Y-58477799D01*
X113833614Y-58339906D01*
X114059734Y-58154334D01*
X114245306Y-57928214D01*
X114274600Y-57873409D01*
X114303894Y-57928214D01*
X114489466Y-58154334D01*
X114715586Y-58339906D01*
X114973566Y-58477799D01*
X115253489Y-58562713D01*
X115471650Y-58584200D01*
X115617550Y-58584200D01*
X115835711Y-58562713D01*
X116115634Y-58477799D01*
X116373614Y-58339906D01*
X116599734Y-58154334D01*
X116785306Y-57928214D01*
X116814600Y-57873409D01*
X116843894Y-57928214D01*
X117029466Y-58154334D01*
X117255586Y-58339906D01*
X117513566Y-58477799D01*
X117793489Y-58562713D01*
X118011650Y-58584200D01*
X118157550Y-58584200D01*
X118375711Y-58562713D01*
X118655634Y-58477799D01*
X118913614Y-58339906D01*
X119139734Y-58154334D01*
X119325306Y-57928214D01*
X119354600Y-57873409D01*
X119383894Y-57928214D01*
X119569466Y-58154334D01*
X119795586Y-58339906D01*
X120053566Y-58477799D01*
X120333489Y-58562713D01*
X120551650Y-58584200D01*
X120697550Y-58584200D01*
X120915711Y-58562713D01*
X121195634Y-58477799D01*
X121453614Y-58339906D01*
X121679734Y-58154334D01*
X121865306Y-57928214D01*
X121894600Y-57873409D01*
X121923894Y-57928214D01*
X122109466Y-58154334D01*
X122335586Y-58339906D01*
X122593566Y-58477799D01*
X122873489Y-58562713D01*
X123091650Y-58584200D01*
X123237550Y-58584200D01*
X123455711Y-58562713D01*
X123735634Y-58477799D01*
X123993614Y-58339906D01*
X124219734Y-58154334D01*
X124405306Y-57928214D01*
X124434600Y-57873409D01*
X124463894Y-57928214D01*
X124649466Y-58154334D01*
X124875586Y-58339906D01*
X125133566Y-58477799D01*
X125413489Y-58562713D01*
X125631650Y-58584200D01*
X125777550Y-58584200D01*
X125995711Y-58562713D01*
X126275634Y-58477799D01*
X126533614Y-58339906D01*
X126759734Y-58154334D01*
X126945306Y-57928214D01*
X126974600Y-57873409D01*
X127003894Y-57928214D01*
X127189466Y-58154334D01*
X127415586Y-58339906D01*
X127673566Y-58477799D01*
X127953489Y-58562713D01*
X128171650Y-58584200D01*
X128317550Y-58584200D01*
X128535711Y-58562713D01*
X128815634Y-58477799D01*
X129073614Y-58339906D01*
X129299734Y-58154334D01*
X129485306Y-57928214D01*
X129514600Y-57873409D01*
X129543894Y-57928214D01*
X129729466Y-58154334D01*
X129955586Y-58339906D01*
X130213566Y-58477799D01*
X130493489Y-58562713D01*
X130711650Y-58584200D01*
X130857550Y-58584200D01*
X131075711Y-58562713D01*
X131355634Y-58477799D01*
X131613614Y-58339906D01*
X131839734Y-58154334D01*
X132025306Y-57928214D01*
X132163199Y-57670234D01*
X132248113Y-57390311D01*
X132276785Y-57099200D01*
X132248113Y-56808089D01*
X132163199Y-56528166D01*
X132142371Y-56489200D01*
X134383807Y-56489200D01*
X134044766Y-56556639D01*
X133701718Y-56698734D01*
X133392982Y-56905025D01*
X133130425Y-57167582D01*
X132924134Y-57476318D01*
X132782039Y-57819366D01*
X132709600Y-58183544D01*
X132709600Y-58554856D01*
X132782039Y-58919034D01*
X132924134Y-59262082D01*
X133130425Y-59570818D01*
X133392982Y-59833375D01*
X133701718Y-60039666D01*
X134044766Y-60181761D01*
X134408944Y-60254200D01*
X134780256Y-60254200D01*
X135144434Y-60181761D01*
X135487482Y-60039666D01*
X135796218Y-59833375D01*
X136058775Y-59570818D01*
X136265066Y-59262082D01*
X136407161Y-58919034D01*
X136474601Y-58579988D01*
X136474601Y-63879141D01*
X136457112Y-63821489D01*
X136391072Y-63697937D01*
X136324468Y-63616780D01*
X136324463Y-63616775D01*
X136302196Y-63589643D01*
X136275065Y-63567377D01*
X136150794Y-63443106D01*
X136158732Y-63362510D01*
X136158732Y-62875010D01*
X136141788Y-62702975D01*
X136091607Y-62537551D01*
X136010118Y-62385096D01*
X135900452Y-62251468D01*
X135766824Y-62141802D01*
X135681720Y-62096313D01*
X135681720Y-62002856D01*
X135644628Y-61816382D01*
X135571869Y-61640726D01*
X135466240Y-61482641D01*
X135331799Y-61348200D01*
X135173714Y-61242571D01*
X134998058Y-61169812D01*
X134811584Y-61132720D01*
X134621456Y-61132720D01*
X134434982Y-61169812D01*
X134259326Y-61242571D01*
X134123276Y-61333477D01*
X134117679Y-61327880D01*
X133959594Y-61222251D01*
X133783938Y-61149492D01*
X133597464Y-61112400D01*
X133407336Y-61112400D01*
X133220862Y-61149492D01*
X133045206Y-61222251D01*
X132887121Y-61327880D01*
X132752680Y-61462321D01*
X132647051Y-61620406D01*
X132574292Y-61796062D01*
X132537200Y-61982536D01*
X132537200Y-61993188D01*
X132408610Y-61993188D01*
X132236575Y-62010132D01*
X132071151Y-62060313D01*
X131918696Y-62141802D01*
X131785068Y-62251468D01*
X131675402Y-62385096D01*
X131593913Y-62537551D01*
X131543732Y-62702975D01*
X131526788Y-62875010D01*
X131526788Y-63362510D01*
X131543732Y-63534545D01*
X131593913Y-63699969D01*
X131675402Y-63852424D01*
X131785068Y-63986052D01*
X131870616Y-64056260D01*
X131822107Y-64096071D01*
X131711298Y-64050172D01*
X131524824Y-64013080D01*
X131334696Y-64013080D01*
X131148222Y-64050172D01*
X130972566Y-64122931D01*
X130814481Y-64228560D01*
X130680040Y-64363001D01*
X130574411Y-64521086D01*
X130501652Y-64696742D01*
X130464560Y-64883216D01*
X130464560Y-65073344D01*
X130501652Y-65259818D01*
X130574411Y-65435474D01*
X130680040Y-65593559D01*
X130814481Y-65728000D01*
X130972566Y-65833629D01*
X131148222Y-65906388D01*
X131334696Y-65943480D01*
X131524824Y-65943480D01*
X131711298Y-65906388D01*
X131767287Y-65883197D01*
X131670768Y-65962408D01*
X131561102Y-66096036D01*
X131479613Y-66248491D01*
X131429432Y-66413915D01*
X131412488Y-66585950D01*
X131412488Y-67073450D01*
X131429432Y-67245485D01*
X131479613Y-67410909D01*
X131561102Y-67563364D01*
X131670768Y-67696992D01*
X131756316Y-67767200D01*
X131670768Y-67837408D01*
X131561102Y-67971036D01*
X131543223Y-68004485D01*
X131474024Y-67990720D01*
X131283896Y-67990720D01*
X131097422Y-68027812D01*
X130921766Y-68100571D01*
X130763681Y-68206200D01*
X130629240Y-68340641D01*
X130523611Y-68498726D01*
X130450852Y-68674382D01*
X130413760Y-68860856D01*
X130413760Y-68915331D01*
X127883249Y-71445844D01*
X127856113Y-71468114D01*
X127767237Y-71576408D01*
X127701197Y-71699960D01*
X127701036Y-71700490D01*
X127574046Y-71753091D01*
X127415961Y-71858720D01*
X127281520Y-71993161D01*
X127175891Y-72151246D01*
X127103132Y-72326902D01*
X127066040Y-72513376D01*
X127066040Y-72703504D01*
X127103132Y-72889978D01*
X127175891Y-73065634D01*
X127281520Y-73223719D01*
X127415961Y-73358160D01*
X127574046Y-73463789D01*
X127749702Y-73536548D01*
X127936176Y-73573640D01*
X128126304Y-73573640D01*
X128312778Y-73536548D01*
X128488434Y-73463789D01*
X128510384Y-73449123D01*
X128536280Y-73487879D01*
X128670721Y-73622320D01*
X128680280Y-73628707D01*
X128608451Y-73736206D01*
X128535692Y-73911862D01*
X128498600Y-74098336D01*
X128498600Y-74288464D01*
X128535692Y-74474938D01*
X128608451Y-74650594D01*
X128714080Y-74808679D01*
X128848521Y-74943120D01*
X129006606Y-75048749D01*
X129182262Y-75121508D01*
X129368736Y-75158600D01*
X129510604Y-75158600D01*
X129604648Y-75273192D01*
X129738276Y-75382858D01*
X129890731Y-75464347D01*
X130056155Y-75514528D01*
X130228190Y-75531472D01*
X130715690Y-75531472D01*
X130887725Y-75514528D01*
X131053149Y-75464347D01*
X131205604Y-75382858D01*
X131339232Y-75273192D01*
X131409440Y-75187644D01*
X131479648Y-75273192D01*
X131613276Y-75382858D01*
X131765731Y-75464347D01*
X131931155Y-75514528D01*
X132103190Y-75531472D01*
X132590690Y-75531472D01*
X132762725Y-75514528D01*
X132825006Y-75495635D01*
X132782039Y-75599366D01*
X132709600Y-75963544D01*
X132709600Y-76334856D01*
X132782039Y-76699034D01*
X132924134Y-77042082D01*
X133130425Y-77350818D01*
X133392982Y-77613375D01*
X133701718Y-77819666D01*
X134044766Y-77961761D01*
X134383807Y-78029200D01*
X132136296Y-78029200D01*
X132226081Y-77776091D01*
X132105414Y-77546200D01*
X130911600Y-77546200D01*
X130911600Y-77566200D01*
X130657600Y-77566200D01*
X130657600Y-77546200D01*
X130637600Y-77546200D01*
X130637600Y-77292200D01*
X130657600Y-77292200D01*
X130657600Y-76099045D01*
X130911600Y-76099045D01*
X130911600Y-77292200D01*
X132105414Y-77292200D01*
X132226081Y-77062309D01*
X132128757Y-76787948D01*
X131979778Y-76537845D01*
X131784869Y-76321612D01*
X131551520Y-76147559D01*
X131288699Y-76022375D01*
X131141490Y-75977724D01*
X130911600Y-76099045D01*
X130657600Y-76099045D01*
X130427710Y-75977724D01*
X130280501Y-76022375D01*
X130017680Y-76147559D01*
X129784331Y-76321612D01*
X129589422Y-76537845D01*
X129519801Y-76654723D01*
X129485306Y-76590186D01*
X129299734Y-76364066D01*
X129073614Y-76178494D01*
X128815634Y-76040601D01*
X128535711Y-75955687D01*
X128317550Y-75934200D01*
X128171650Y-75934200D01*
X127953489Y-75955687D01*
X127673566Y-76040601D01*
X127415586Y-76178494D01*
X127189466Y-76364066D01*
X127003894Y-76590186D01*
X126974600Y-76644991D01*
X126945306Y-76590186D01*
X126759734Y-76364066D01*
X126533614Y-76178494D01*
X126275634Y-76040601D01*
X125995711Y-75955687D01*
X125777550Y-75934200D01*
X125631650Y-75934200D01*
X125413489Y-75955687D01*
X125133566Y-76040601D01*
X124875586Y-76178494D01*
X124649466Y-76364066D01*
X124463894Y-76590186D01*
X124434600Y-76644991D01*
X124405306Y-76590186D01*
X124219734Y-76364066D01*
X123993614Y-76178494D01*
X123735634Y-76040601D01*
X123455711Y-75955687D01*
X123237550Y-75934200D01*
X123091650Y-75934200D01*
X122873489Y-75955687D01*
X122593566Y-76040601D01*
X122335586Y-76178494D01*
X122109466Y-76364066D01*
X121923894Y-76590186D01*
X121894600Y-76644991D01*
X121865306Y-76590186D01*
X121679734Y-76364066D01*
X121453614Y-76178494D01*
X121195634Y-76040601D01*
X120915711Y-75955687D01*
X120697550Y-75934200D01*
X120551650Y-75934200D01*
X120333489Y-75955687D01*
X120053566Y-76040601D01*
X119795586Y-76178494D01*
X119569466Y-76364066D01*
X119383894Y-76590186D01*
X119354600Y-76644991D01*
X119325306Y-76590186D01*
X119139734Y-76364066D01*
X118913614Y-76178494D01*
X118655634Y-76040601D01*
X118375711Y-75955687D01*
X118157550Y-75934200D01*
X118011650Y-75934200D01*
X117793489Y-75955687D01*
X117513566Y-76040601D01*
X117255586Y-76178494D01*
X117029466Y-76364066D01*
X116843894Y-76590186D01*
X116814600Y-76644991D01*
X116785306Y-76590186D01*
X116599734Y-76364066D01*
X116373614Y-76178494D01*
X116115634Y-76040601D01*
X115835711Y-75955687D01*
X115617550Y-75934200D01*
X115471650Y-75934200D01*
X115253489Y-75955687D01*
X114973566Y-76040601D01*
X114749698Y-76160261D01*
X114805880Y-76104079D01*
X114911509Y-75945994D01*
X114984268Y-75770338D01*
X115014015Y-75620792D01*
X115751120Y-75620792D01*
X115875602Y-75608532D01*
X115951120Y-75585624D01*
X116026638Y-75608532D01*
X116151120Y-75620792D01*
X116615370Y-75617720D01*
X116774120Y-75458970D01*
X116774120Y-74209720D01*
X117028120Y-74209720D01*
X117028120Y-75458970D01*
X117186870Y-75617720D01*
X117651120Y-75620792D01*
X117775602Y-75608532D01*
X117895300Y-75572222D01*
X118005614Y-75513257D01*
X118102305Y-75433905D01*
X118181657Y-75337214D01*
X118240622Y-75226900D01*
X118276932Y-75107202D01*
X118289192Y-74982720D01*
X118286120Y-74368470D01*
X118127370Y-74209720D01*
X117028120Y-74209720D01*
X116774120Y-74209720D01*
X116754120Y-74209720D01*
X116754120Y-73955720D01*
X116774120Y-73955720D01*
X116774120Y-72706470D01*
X117028120Y-72706470D01*
X117028120Y-73955720D01*
X118127370Y-73955720D01*
X118286120Y-73796970D01*
X118289192Y-73182720D01*
X118276932Y-73058238D01*
X118240622Y-72938540D01*
X118181657Y-72828226D01*
X118102305Y-72731535D01*
X118005614Y-72652183D01*
X117895300Y-72593218D01*
X117775602Y-72556908D01*
X117651120Y-72544648D01*
X117186870Y-72547720D01*
X117028120Y-72706470D01*
X116774120Y-72706470D01*
X116615370Y-72547720D01*
X116151120Y-72544648D01*
X116026638Y-72556908D01*
X115951120Y-72579816D01*
X115875602Y-72556908D01*
X115751120Y-72544648D01*
X114251120Y-72544648D01*
X114126638Y-72556908D01*
X114051120Y-72579816D01*
X113975602Y-72556908D01*
X113851120Y-72544648D01*
X112351120Y-72544648D01*
X112226638Y-72556908D01*
X112151120Y-72579816D01*
X112075602Y-72556908D01*
X111951120Y-72544648D01*
X110451120Y-72544648D01*
X110326638Y-72556908D01*
X110251120Y-72579816D01*
X110175602Y-72556908D01*
X110051120Y-72544648D01*
X109586870Y-72547720D01*
X109428120Y-72706470D01*
X109428120Y-73955720D01*
X109448120Y-73955720D01*
X109448120Y-74209720D01*
X109428120Y-74209720D01*
X109428120Y-75458970D01*
X109586870Y-75617720D01*
X110051120Y-75620792D01*
X110175602Y-75608532D01*
X110251120Y-75585624D01*
X110312200Y-75604152D01*
X110312200Y-75604184D01*
X110349292Y-75790658D01*
X110408749Y-75934200D01*
X110391650Y-75934200D01*
X110173489Y-75955687D01*
X109893566Y-76040601D01*
X109635586Y-76178494D01*
X109409466Y-76364066D01*
X109223894Y-76590186D01*
X109194600Y-76644991D01*
X109165306Y-76590186D01*
X108979734Y-76364066D01*
X108753614Y-76178494D01*
X108495634Y-76040601D01*
X108215711Y-75955687D01*
X107997550Y-75934200D01*
X107851650Y-75934200D01*
X107633489Y-75955687D01*
X107353566Y-76040601D01*
X107095586Y-76178494D01*
X106869466Y-76364066D01*
X106683894Y-76590186D01*
X106654600Y-76644991D01*
X106625306Y-76590186D01*
X106439734Y-76364066D01*
X106213614Y-76178494D01*
X105955634Y-76040601D01*
X105675711Y-75955687D01*
X105457550Y-75934200D01*
X105311650Y-75934200D01*
X105093489Y-75955687D01*
X104813566Y-76040601D01*
X104555586Y-76178494D01*
X104329466Y-76364066D01*
X104143894Y-76590186D01*
X104114600Y-76644991D01*
X104085306Y-76590186D01*
X103899734Y-76364066D01*
X103673614Y-76178494D01*
X103415634Y-76040601D01*
X103135711Y-75955687D01*
X102917550Y-75934200D01*
X102771650Y-75934200D01*
X102553489Y-75955687D01*
X102273566Y-76040601D01*
X102015586Y-76178494D01*
X101789466Y-76364066D01*
X101603894Y-76590186D01*
X101569399Y-76654723D01*
X101499778Y-76537845D01*
X101304869Y-76321612D01*
X101071520Y-76147559D01*
X100808699Y-76022375D01*
X100661490Y-75977724D01*
X100431600Y-76099045D01*
X100431600Y-77292200D01*
X100451600Y-77292200D01*
X100451600Y-77546200D01*
X100431600Y-77546200D01*
X100431600Y-77566200D01*
X100177600Y-77566200D01*
X100177600Y-77546200D01*
X100157600Y-77546200D01*
X100157600Y-77292200D01*
X100177600Y-77292200D01*
X100177600Y-76099045D01*
X99947710Y-75977724D01*
X99800501Y-76022375D01*
X99537680Y-76147559D01*
X99304331Y-76321612D01*
X99109422Y-76537845D01*
X99039801Y-76654723D01*
X99005306Y-76590186D01*
X98819734Y-76364066D01*
X98593614Y-76178494D01*
X98335634Y-76040601D01*
X98055711Y-75955687D01*
X97837550Y-75934200D01*
X97691650Y-75934200D01*
X97473489Y-75955687D01*
X97193566Y-76040601D01*
X96935586Y-76178494D01*
X96709466Y-76364066D01*
X96523894Y-76590186D01*
X96494600Y-76644991D01*
X96465306Y-76590186D01*
X96279734Y-76364066D01*
X96113600Y-76227723D01*
X96113600Y-75890368D01*
X96117901Y-75846700D01*
X96100736Y-75672425D01*
X96073969Y-75584186D01*
X96049903Y-75504849D01*
X95967353Y-75350409D01*
X95856259Y-75215041D01*
X95829712Y-75193254D01*
X95829712Y-74982720D01*
X107913048Y-74982720D01*
X107925308Y-75107202D01*
X107961618Y-75226900D01*
X108020583Y-75337214D01*
X108099935Y-75433905D01*
X108196626Y-75513257D01*
X108306940Y-75572222D01*
X108426638Y-75608532D01*
X108551120Y-75620792D01*
X109015370Y-75617720D01*
X109174120Y-75458970D01*
X109174120Y-74209720D01*
X108074870Y-74209720D01*
X107916120Y-74368470D01*
X107913048Y-74982720D01*
X95829712Y-74982720D01*
X95829712Y-74869990D01*
X95812768Y-74697955D01*
X95762587Y-74532531D01*
X95681098Y-74380076D01*
X95593140Y-74272899D01*
X95593140Y-73182720D01*
X107913048Y-73182720D01*
X107916120Y-73796970D01*
X108074870Y-73955720D01*
X109174120Y-73955720D01*
X109174120Y-72706470D01*
X109015370Y-72547720D01*
X108551120Y-72544648D01*
X108426638Y-72556908D01*
X108306940Y-72593218D01*
X108196626Y-72652183D01*
X108099935Y-72731535D01*
X108020583Y-72828226D01*
X107961618Y-72938540D01*
X107925308Y-73058238D01*
X107913048Y-73182720D01*
X95593140Y-73182720D01*
X95593140Y-72882638D01*
X95654765Y-72876568D01*
X95820189Y-72826387D01*
X95972644Y-72744898D01*
X96106272Y-72635232D01*
X96215938Y-72501604D01*
X96297427Y-72349149D01*
X96347608Y-72183725D01*
X96362480Y-72032720D01*
X104963048Y-72032720D01*
X104975308Y-72157202D01*
X105011618Y-72276900D01*
X105070583Y-72387214D01*
X105149935Y-72483905D01*
X105246626Y-72563257D01*
X105356940Y-72622222D01*
X105476638Y-72658532D01*
X105601120Y-72670792D01*
X106215370Y-72667720D01*
X106374120Y-72508970D01*
X106374120Y-71409720D01*
X106628120Y-71409720D01*
X106628120Y-72508970D01*
X106786870Y-72667720D01*
X107401120Y-72670792D01*
X107525602Y-72658532D01*
X107645300Y-72622222D01*
X107755614Y-72563257D01*
X107852305Y-72483905D01*
X107931657Y-72387214D01*
X107990622Y-72276900D01*
X108026932Y-72157202D01*
X108039192Y-72032720D01*
X118163048Y-72032720D01*
X118175308Y-72157202D01*
X118211618Y-72276900D01*
X118270583Y-72387214D01*
X118349935Y-72483905D01*
X118446626Y-72563257D01*
X118556940Y-72622222D01*
X118676638Y-72658532D01*
X118801120Y-72670792D01*
X119415370Y-72667720D01*
X119574120Y-72508970D01*
X119574120Y-71409720D01*
X119828120Y-71409720D01*
X119828120Y-72508970D01*
X119986870Y-72667720D01*
X120601120Y-72670792D01*
X120725602Y-72658532D01*
X120845300Y-72622222D01*
X120955614Y-72563257D01*
X121052305Y-72483905D01*
X121131657Y-72387214D01*
X121190622Y-72276900D01*
X121226932Y-72157202D01*
X121239192Y-72032720D01*
X121236120Y-71568470D01*
X121077370Y-71409720D01*
X119828120Y-71409720D01*
X119574120Y-71409720D01*
X118324870Y-71409720D01*
X118166120Y-71568470D01*
X118163048Y-72032720D01*
X108039192Y-72032720D01*
X108036120Y-71568470D01*
X107877370Y-71409720D01*
X106628120Y-71409720D01*
X106374120Y-71409720D01*
X105124870Y-71409720D01*
X104966120Y-71568470D01*
X104963048Y-72032720D01*
X96362480Y-72032720D01*
X96364552Y-72011690D01*
X96364552Y-71524190D01*
X96347608Y-71352155D01*
X96297427Y-71186731D01*
X96215938Y-71034276D01*
X96106272Y-70900648D01*
X96099916Y-70895432D01*
X96177665Y-70831625D01*
X96257017Y-70734934D01*
X96315982Y-70624620D01*
X96352292Y-70504922D01*
X96364552Y-70380440D01*
X96361480Y-70178690D01*
X96315510Y-70132720D01*
X104963048Y-70132720D01*
X104975308Y-70257202D01*
X104998216Y-70332720D01*
X104975308Y-70408238D01*
X104963048Y-70532720D01*
X104966120Y-70996970D01*
X105124870Y-71155720D01*
X106374120Y-71155720D01*
X106374120Y-69509720D01*
X106628120Y-69509720D01*
X106628120Y-71155720D01*
X107877370Y-71155720D01*
X108036120Y-70996970D01*
X108039192Y-70532720D01*
X108026932Y-70408238D01*
X108004024Y-70332720D01*
X108026932Y-70257202D01*
X108039192Y-70132720D01*
X108036120Y-69668470D01*
X107877370Y-69509720D01*
X106628120Y-69509720D01*
X106374120Y-69509720D01*
X105124870Y-69509720D01*
X104966120Y-69668470D01*
X104963048Y-70132720D01*
X96315510Y-70132720D01*
X96202730Y-70019940D01*
X95153480Y-70019940D01*
X95153480Y-70039940D01*
X94899480Y-70039940D01*
X94899480Y-70019940D01*
X94879480Y-70019940D01*
X94879480Y-69765940D01*
X94899480Y-69765940D01*
X94899480Y-69745940D01*
X95153480Y-69745940D01*
X95153480Y-69765940D01*
X96202730Y-69765940D01*
X96361480Y-69607190D01*
X96364552Y-69405440D01*
X96352292Y-69280958D01*
X96315982Y-69161260D01*
X96257017Y-69050946D01*
X96254098Y-69047390D01*
X96284788Y-68973298D01*
X96321880Y-68786824D01*
X96321880Y-68682265D01*
X96347121Y-68635042D01*
X96387788Y-68500981D01*
X96398079Y-68396497D01*
X96398079Y-68396490D01*
X96401519Y-68361561D01*
X96398079Y-68326633D01*
X96398079Y-67347016D01*
X104099360Y-67347016D01*
X104099360Y-67537144D01*
X104136452Y-67723618D01*
X104209211Y-67899274D01*
X104314840Y-68057359D01*
X104449281Y-68191800D01*
X104607366Y-68297429D01*
X104783022Y-68370188D01*
X104969496Y-68407280D01*
X104990499Y-68407280D01*
X104998216Y-68432720D01*
X104975308Y-68508238D01*
X104963048Y-68632720D01*
X104966120Y-69096970D01*
X105124870Y-69255720D01*
X106374120Y-69255720D01*
X106374120Y-69235720D01*
X106628120Y-69235720D01*
X106628120Y-69255720D01*
X107877370Y-69255720D01*
X108036120Y-69096970D01*
X108039192Y-68632720D01*
X108026932Y-68508238D01*
X108004024Y-68432720D01*
X108026932Y-68357202D01*
X108039192Y-68232720D01*
X108039192Y-66732720D01*
X108026932Y-66608238D01*
X108004024Y-66532720D01*
X108026932Y-66457202D01*
X108039192Y-66332720D01*
X108039192Y-64832720D01*
X108026932Y-64708238D01*
X108004024Y-64632720D01*
X108026932Y-64557202D01*
X108039192Y-64432720D01*
X118163048Y-64432720D01*
X118175308Y-64557202D01*
X118198216Y-64632720D01*
X118175308Y-64708238D01*
X118163048Y-64832720D01*
X118163048Y-66332720D01*
X118175308Y-66457202D01*
X118198216Y-66532720D01*
X118175308Y-66608238D01*
X118163048Y-66732720D01*
X118163048Y-68232720D01*
X118175308Y-68357202D01*
X118198216Y-68432720D01*
X118175308Y-68508238D01*
X118163048Y-68632720D01*
X118163048Y-70132720D01*
X118175308Y-70257202D01*
X118198216Y-70332720D01*
X118175308Y-70408238D01*
X118163048Y-70532720D01*
X118166120Y-70996970D01*
X118324870Y-71155720D01*
X119574120Y-71155720D01*
X119574120Y-71135720D01*
X119828120Y-71135720D01*
X119828120Y-71155720D01*
X121077370Y-71155720D01*
X121236120Y-70996970D01*
X121239192Y-70532720D01*
X121226932Y-70408238D01*
X121204024Y-70332720D01*
X121226932Y-70257202D01*
X121239192Y-70132720D01*
X121239192Y-70065825D01*
X121314561Y-70042962D01*
X121418959Y-69987160D01*
X121496904Y-69987160D01*
X121683378Y-69950068D01*
X121859034Y-69877309D01*
X122017119Y-69771680D01*
X122151560Y-69637239D01*
X122257189Y-69479154D01*
X122329948Y-69303498D01*
X122367040Y-69117024D01*
X122367040Y-68926896D01*
X122329948Y-68740422D01*
X122257189Y-68564766D01*
X122151560Y-68406681D01*
X122017119Y-68272240D01*
X121859034Y-68166611D01*
X121683378Y-68093852D01*
X121496904Y-68056760D01*
X121452600Y-68056760D01*
X121471170Y-68041520D01*
X121532464Y-68041520D01*
X121718938Y-68004428D01*
X121894594Y-67931669D01*
X122052679Y-67826040D01*
X122187120Y-67691599D01*
X122292749Y-67533514D01*
X122365508Y-67357858D01*
X122402600Y-67171384D01*
X122402600Y-66981256D01*
X122365508Y-66794782D01*
X122292749Y-66619126D01*
X122187120Y-66461041D01*
X122052679Y-66326600D01*
X121894594Y-66220971D01*
X121718938Y-66148212D01*
X121558003Y-66116200D01*
X121573104Y-66116200D01*
X121759578Y-66079108D01*
X121935234Y-66006349D01*
X122093319Y-65900720D01*
X122227760Y-65766279D01*
X122333389Y-65608194D01*
X122406148Y-65432538D01*
X122443240Y-65246064D01*
X122443240Y-65055936D01*
X122406148Y-64869462D01*
X122333389Y-64693806D01*
X122227760Y-64535721D01*
X122093319Y-64401280D01*
X121935234Y-64295651D01*
X121759578Y-64222892D01*
X121573104Y-64185800D01*
X121382976Y-64185800D01*
X121237749Y-64214687D01*
X121236120Y-63968470D01*
X121077370Y-63809720D01*
X119828120Y-63809720D01*
X119828120Y-63829720D01*
X119574120Y-63829720D01*
X119574120Y-63809720D01*
X118324870Y-63809720D01*
X118166120Y-63968470D01*
X118163048Y-64432720D01*
X108039192Y-64432720D01*
X108036120Y-63968470D01*
X107877370Y-63809720D01*
X106628120Y-63809720D01*
X106628120Y-63829720D01*
X106374120Y-63829720D01*
X106374120Y-63809720D01*
X105124870Y-63809720D01*
X104966120Y-63968470D01*
X104963048Y-64432720D01*
X104975308Y-64557202D01*
X104998216Y-64632720D01*
X104998180Y-64632840D01*
X104974576Y-64632840D01*
X104788102Y-64669932D01*
X104612446Y-64742691D01*
X104454361Y-64848320D01*
X104319920Y-64982761D01*
X104214291Y-65140846D01*
X104141532Y-65316502D01*
X104104440Y-65502976D01*
X104104440Y-65693104D01*
X104141532Y-65879578D01*
X104214291Y-66055234D01*
X104319920Y-66213319D01*
X104454361Y-66347760D01*
X104612446Y-66453389D01*
X104770864Y-66519008D01*
X104607366Y-66586731D01*
X104449281Y-66692360D01*
X104314840Y-66826801D01*
X104209211Y-66984886D01*
X104136452Y-67160542D01*
X104099360Y-67347016D01*
X96398079Y-67347016D01*
X96398079Y-65084908D01*
X96631708Y-64851280D01*
X96686184Y-64851280D01*
X96872658Y-64814188D01*
X97048314Y-64741429D01*
X97206399Y-64635800D01*
X97340840Y-64501359D01*
X97446469Y-64343274D01*
X97519228Y-64167618D01*
X97556320Y-63981144D01*
X97556320Y-63791016D01*
X97519228Y-63604542D01*
X97446469Y-63428886D01*
X97340840Y-63270801D01*
X97206399Y-63136360D01*
X97048314Y-63030731D01*
X96872658Y-62957972D01*
X96745708Y-62932720D01*
X104963048Y-62932720D01*
X104966120Y-63396970D01*
X105124870Y-63555720D01*
X106374120Y-63555720D01*
X106374120Y-62456470D01*
X106628120Y-62456470D01*
X106628120Y-63555720D01*
X107877370Y-63555720D01*
X108036120Y-63396970D01*
X108039192Y-62932720D01*
X108026932Y-62808238D01*
X107990622Y-62688540D01*
X107931657Y-62578226D01*
X107852305Y-62481535D01*
X107755614Y-62402183D01*
X107645300Y-62343218D01*
X107525602Y-62306908D01*
X107401120Y-62294648D01*
X106786870Y-62297720D01*
X106628120Y-62456470D01*
X106374120Y-62456470D01*
X106215370Y-62297720D01*
X105601120Y-62294648D01*
X105476638Y-62306908D01*
X105356940Y-62343218D01*
X105246626Y-62402183D01*
X105149935Y-62481535D01*
X105070583Y-62578226D01*
X105011618Y-62688540D01*
X104975308Y-62808238D01*
X104963048Y-62932720D01*
X96745708Y-62932720D01*
X96686184Y-62920880D01*
X96496056Y-62920880D01*
X96309582Y-62957972D01*
X96133926Y-63030731D01*
X95975841Y-63136360D01*
X95841400Y-63270801D01*
X95735771Y-63428886D01*
X95722482Y-63460969D01*
X95656394Y-63416811D01*
X95480738Y-63344052D01*
X95294264Y-63306960D01*
X95104136Y-63306960D01*
X94917662Y-63344052D01*
X94742006Y-63416811D01*
X94583921Y-63522440D01*
X94449480Y-63656881D01*
X94343851Y-63814966D01*
X94271092Y-63990622D01*
X94234000Y-64177096D01*
X94234000Y-64197168D01*
X94079542Y-64227892D01*
X93903886Y-64300651D01*
X93745801Y-64406280D01*
X93611360Y-64540721D01*
X93505731Y-64698806D01*
X93466622Y-64793223D01*
X93092698Y-65167147D01*
X93058781Y-65194982D01*
X93030946Y-65228899D01*
X93030944Y-65228901D01*
X92947687Y-65330350D01*
X92865137Y-65484789D01*
X92814303Y-65652367D01*
X92797139Y-65826641D01*
X92801440Y-65870311D01*
X92801439Y-67878902D01*
X92744961Y-67916640D01*
X92610520Y-68051081D01*
X92504891Y-68209166D01*
X92432132Y-68384822D01*
X92395040Y-68571296D01*
X92395040Y-68761424D01*
X92432132Y-68947898D01*
X92471241Y-69042315D01*
X92471240Y-70058040D01*
X92466940Y-70101700D01*
X92471240Y-70145360D01*
X92471240Y-70145366D01*
X92476360Y-70197349D01*
X92484104Y-70275974D01*
X92493576Y-70307200D01*
X92534937Y-70443550D01*
X92617487Y-70597990D01*
X92728581Y-70733359D01*
X92762504Y-70761199D01*
X93688408Y-71687104D01*
X93688408Y-72011690D01*
X93705352Y-72183725D01*
X93755533Y-72349149D01*
X93815141Y-72460667D01*
X93815140Y-74272899D01*
X93766640Y-74331996D01*
X93696432Y-74246448D01*
X93562804Y-74136782D01*
X93410349Y-74055293D01*
X93244925Y-74005112D01*
X93072890Y-73988168D01*
X92748303Y-73988168D01*
X92351778Y-73591643D01*
X92365152Y-73455850D01*
X92365152Y-72543350D01*
X92348208Y-72371315D01*
X92298027Y-72205891D01*
X92216538Y-72053436D01*
X92106872Y-71919808D01*
X91973244Y-71810142D01*
X91820789Y-71728653D01*
X91677678Y-71685241D01*
X91704512Y-71596782D01*
X91716772Y-71472300D01*
X91716772Y-69472300D01*
X91704512Y-69347818D01*
X91668202Y-69228120D01*
X91636922Y-69169600D01*
X91668600Y-69010344D01*
X91668600Y-68820216D01*
X91631508Y-68633742D01*
X91558749Y-68458086D01*
X91453120Y-68300001D01*
X91318679Y-68165560D01*
X91160594Y-68059931D01*
X90984938Y-67987172D01*
X90798464Y-67950080D01*
X90608336Y-67950080D01*
X90421862Y-67987172D01*
X90246206Y-68059931D01*
X90088121Y-68165560D01*
X89953680Y-68300001D01*
X89848051Y-68458086D01*
X89775292Y-68633742D01*
X89738200Y-68820216D01*
X89738200Y-68857111D01*
X89703182Y-68846488D01*
X89578700Y-68834228D01*
X89464450Y-68837300D01*
X89305700Y-68996050D01*
X89305700Y-70345300D01*
X89325700Y-70345300D01*
X89325700Y-70599300D01*
X89305700Y-70599300D01*
X89305700Y-70619300D01*
X89051700Y-70619300D01*
X89051700Y-70599300D01*
X89031700Y-70599300D01*
X89031700Y-70345300D01*
X89051700Y-70345300D01*
X89051700Y-68996050D01*
X88892950Y-68837300D01*
X88778700Y-68834228D01*
X88654218Y-68846488D01*
X88534520Y-68882798D01*
X88424206Y-68941763D01*
X88327515Y-69021115D01*
X88248163Y-69117806D01*
X88189198Y-69228120D01*
X88152888Y-69347818D01*
X88140628Y-69472300D01*
X88143700Y-70186550D01*
X88302448Y-70345298D01*
X88143700Y-70345298D01*
X88143700Y-70382871D01*
X87737950Y-70385880D01*
X87579200Y-70544630D01*
X87579200Y-71381380D01*
X87599200Y-71381380D01*
X87599200Y-71635380D01*
X87579200Y-71635380D01*
X87579200Y-71655380D01*
X87325200Y-71655380D01*
X87325200Y-71635380D01*
X87305200Y-71635380D01*
X87305200Y-71381380D01*
X87325200Y-71381380D01*
X87325200Y-70544630D01*
X87166450Y-70385880D01*
X86994600Y-70384606D01*
X86994600Y-61271380D01*
X91774688Y-61271380D01*
X91786948Y-61395862D01*
X91823258Y-61515560D01*
X91882223Y-61625874D01*
X91961575Y-61722565D01*
X92058266Y-61801917D01*
X92168580Y-61860882D01*
X92288278Y-61897192D01*
X92412760Y-61909452D01*
X92614510Y-61906380D01*
X92773260Y-61747630D01*
X92773260Y-60698380D01*
X91936510Y-60698380D01*
X91777760Y-60857130D01*
X91774688Y-61271380D01*
X86994600Y-61271380D01*
X86994600Y-60074231D01*
X87258632Y-60338263D01*
X87673827Y-60615688D01*
X88135168Y-60806782D01*
X88624924Y-60904200D01*
X89124276Y-60904200D01*
X89614032Y-60806782D01*
X90075373Y-60615688D01*
X90490568Y-60338263D01*
X90843663Y-59985168D01*
X91121088Y-59569973D01*
X91312182Y-59108632D01*
X91340740Y-58965060D01*
X91756908Y-58965060D01*
X91769168Y-59089542D01*
X91805478Y-59209240D01*
X91864443Y-59319554D01*
X91943795Y-59416245D01*
X91956356Y-59426554D01*
X91882223Y-59516886D01*
X91823258Y-59627200D01*
X91786948Y-59746898D01*
X91774688Y-59871380D01*
X91777760Y-60285630D01*
X91936510Y-60444380D01*
X92773260Y-60444380D01*
X92773260Y-59395130D01*
X92755480Y-59377350D01*
X92755480Y-58392060D01*
X91918730Y-58392060D01*
X91759980Y-58550810D01*
X91756908Y-58965060D01*
X91340740Y-58965060D01*
X91409600Y-58618876D01*
X91409600Y-58119524D01*
X91312182Y-57629768D01*
X91285380Y-57565060D01*
X91756908Y-57565060D01*
X91759980Y-57979310D01*
X91918730Y-58138060D01*
X92755480Y-58138060D01*
X92755480Y-57088810D01*
X92596730Y-56930060D01*
X92394980Y-56926988D01*
X92270498Y-56939248D01*
X92150800Y-56975558D01*
X92040486Y-57034523D01*
X91943795Y-57113875D01*
X91864443Y-57210566D01*
X91805478Y-57320880D01*
X91769168Y-57440578D01*
X91756908Y-57565060D01*
X91285380Y-57565060D01*
X91121088Y-57168427D01*
X90843663Y-56753232D01*
X90579631Y-56489200D01*
X101356528Y-56489200D01*
X101356528Y-56922404D01*
X101356528Y-56922404D01*
G37*
X101356528Y-56922404D02*
X101318203Y-56910778D01*
X101222070Y-56891656D01*
X101097589Y-56879396D01*
X101073030Y-56879396D01*
X101048580Y-56876988D01*
X100548580Y-56876988D01*
X100424098Y-56889248D01*
X100398580Y-56896989D01*
X100373062Y-56889248D01*
X100248580Y-56876988D01*
X99748580Y-56876988D01*
X99724130Y-56879396D01*
X99699571Y-56879396D01*
X99575090Y-56891656D01*
X99478957Y-56910778D01*
X99359261Y-56947087D01*
X99268705Y-56984596D01*
X99158388Y-57043562D01*
X99076889Y-57098018D01*
X99024873Y-57140706D01*
X98945544Y-57075602D01*
X98793089Y-56994113D01*
X98627665Y-56943932D01*
X98455630Y-56926988D01*
X97968130Y-56926988D01*
X97796095Y-56943932D01*
X97630671Y-56994113D01*
X97478216Y-57075602D01*
X97344588Y-57185268D01*
X97274380Y-57270816D01*
X97204172Y-57185268D01*
X97070544Y-57075602D01*
X96918089Y-56994113D01*
X96752665Y-56943932D01*
X96580630Y-56926988D01*
X96093130Y-56926988D01*
X95921095Y-56943932D01*
X95755671Y-56994113D01*
X95603216Y-57075602D01*
X95547180Y-57121590D01*
X95491144Y-57075602D01*
X95338689Y-56994113D01*
X95173265Y-56943932D01*
X95001230Y-56926988D01*
X94513730Y-56926988D01*
X94341695Y-56943932D01*
X94176271Y-56994113D01*
X94023816Y-57075602D01*
X93890188Y-57185268D01*
X93884972Y-57191624D01*
X93821165Y-57113875D01*
X93724474Y-57034523D01*
X93614160Y-56975558D01*
X93494462Y-56939248D01*
X93369980Y-56926988D01*
X93168230Y-56930060D01*
X93009480Y-57088810D01*
X93009480Y-58138060D01*
X93029480Y-58138060D01*
X93029480Y-58392060D01*
X93009480Y-58392060D01*
X93009480Y-59441310D01*
X93027260Y-59459090D01*
X93027260Y-60444380D01*
X93047260Y-60444380D01*
X93047260Y-60698380D01*
X93027260Y-60698380D01*
X93027260Y-61747630D01*
X93186010Y-61906380D01*
X93387760Y-61909452D01*
X93512242Y-61897192D01*
X93631940Y-61860882D01*
X93742254Y-61801917D01*
X93838945Y-61722565D01*
X93902752Y-61644816D01*
X93907968Y-61651172D01*
X94041596Y-61760838D01*
X94194051Y-61842327D01*
X94359475Y-61892508D01*
X94531510Y-61909452D01*
X95019010Y-61909452D01*
X95191045Y-61892508D01*
X95356469Y-61842327D01*
X95508924Y-61760838D01*
X95539560Y-61735696D01*
X95570196Y-61760838D01*
X95722651Y-61842327D01*
X95888075Y-61892508D01*
X96060110Y-61909452D01*
X96547610Y-61909452D01*
X96719645Y-61892508D01*
X96885069Y-61842327D01*
X97037524Y-61760838D01*
X97171152Y-61651172D01*
X97241360Y-61565624D01*
X97311568Y-61651172D01*
X97445196Y-61760838D01*
X97597651Y-61842327D01*
X97763075Y-61892508D01*
X97935110Y-61909452D01*
X98422610Y-61909452D01*
X98594645Y-61892508D01*
X98760069Y-61842327D01*
X98912524Y-61760838D01*
X99029953Y-61664466D01*
X99120069Y-61738422D01*
X99201568Y-61792878D01*
X99311885Y-61851844D01*
X99402441Y-61889353D01*
X99522137Y-61925662D01*
X99618270Y-61944784D01*
X99742751Y-61957044D01*
X99767310Y-61957044D01*
X99791760Y-61959452D01*
X99979480Y-61959452D01*
X99979480Y-62060904D01*
X100016572Y-62247378D01*
X100089331Y-62423034D01*
X100194960Y-62581119D01*
X100329401Y-62715560D01*
X100487486Y-62821189D01*
X100663142Y-62893948D01*
X100849616Y-62931040D01*
X101039744Y-62931040D01*
X101226218Y-62893948D01*
X101401874Y-62821189D01*
X101559959Y-62715560D01*
X101694400Y-62581119D01*
X101800029Y-62423034D01*
X101872788Y-62247378D01*
X101909880Y-62060904D01*
X101909880Y-61870776D01*
X101892365Y-61782720D01*
X107913048Y-61782720D01*
X107925308Y-61907202D01*
X107961618Y-62026900D01*
X108020583Y-62137214D01*
X108099935Y-62233905D01*
X108196626Y-62313257D01*
X108306940Y-62372222D01*
X108426638Y-62408532D01*
X108551120Y-62420792D01*
X109015370Y-62417720D01*
X109174120Y-62258970D01*
X109174120Y-61009720D01*
X108074870Y-61009720D01*
X107916120Y-61168470D01*
X107913048Y-61782720D01*
X101892365Y-61782720D01*
X101872788Y-61684302D01*
X101861694Y-61657518D01*
X101929450Y-61589762D01*
X102008802Y-61493071D01*
X102063258Y-61411572D01*
X102122224Y-61301255D01*
X102159733Y-61210699D01*
X102196042Y-61091003D01*
X102215164Y-60994870D01*
X102227424Y-60870389D01*
X102227424Y-60845830D01*
X102229832Y-60821380D01*
X102229832Y-60321380D01*
X102227424Y-60296930D01*
X102227424Y-60272371D01*
X102215164Y-60147890D01*
X102196042Y-60051757D01*
X102175101Y-59982720D01*
X107913048Y-59982720D01*
X107916120Y-60596970D01*
X108074870Y-60755720D01*
X109174120Y-60755720D01*
X109174120Y-59506470D01*
X109015370Y-59347720D01*
X108551120Y-59344648D01*
X108426638Y-59356908D01*
X108306940Y-59393218D01*
X108196626Y-59452183D01*
X108099935Y-59531535D01*
X108020583Y-59628226D01*
X107961618Y-59738540D01*
X107925308Y-59858238D01*
X107913048Y-59982720D01*
X102175101Y-59982720D01*
X102159733Y-59932061D01*
X102122224Y-59841505D01*
X102063258Y-59731188D01*
X102036266Y-59690792D01*
X102211056Y-59725560D01*
X102401184Y-59725560D01*
X102587658Y-59688468D01*
X102763314Y-59615709D01*
X102921399Y-59510080D01*
X103055840Y-59375639D01*
X103161469Y-59217554D01*
X103234228Y-59041898D01*
X103271320Y-58855424D01*
X103271320Y-58665296D01*
X103255800Y-58587272D01*
X103694600Y-58587272D01*
X103819082Y-58575012D01*
X103938780Y-58538702D01*
X104049094Y-58479737D01*
X104145785Y-58400385D01*
X104225137Y-58303694D01*
X104284102Y-58193380D01*
X104304993Y-58124513D01*
X104329466Y-58154334D01*
X104555586Y-58339906D01*
X104813566Y-58477799D01*
X105093489Y-58562713D01*
X105311650Y-58584200D01*
X105457550Y-58584200D01*
X105675711Y-58562713D01*
X105955634Y-58477799D01*
X106213614Y-58339906D01*
X106439734Y-58154334D01*
X106625306Y-57928214D01*
X106654600Y-57873409D01*
X106683894Y-57928214D01*
X106869466Y-58154334D01*
X107095586Y-58339906D01*
X107353566Y-58477799D01*
X107633489Y-58562713D01*
X107851650Y-58584200D01*
X107997550Y-58584200D01*
X108215711Y-58562713D01*
X108495634Y-58477799D01*
X108753614Y-58339906D01*
X108979734Y-58154334D01*
X109165306Y-57928214D01*
X109194600Y-57873409D01*
X109223894Y-57928214D01*
X109409466Y-58154334D01*
X109635586Y-58339906D01*
X109893566Y-58477799D01*
X110173489Y-58562713D01*
X110391650Y-58584200D01*
X110537550Y-58584200D01*
X110755711Y-58562713D01*
X111035634Y-58477799D01*
X111293614Y-58339906D01*
X111519734Y-58154334D01*
X111705306Y-57928214D01*
X111734600Y-57873409D01*
X111763894Y-57928214D01*
X111949466Y-58154334D01*
X112175586Y-58339906D01*
X112433566Y-58477799D01*
X112713489Y-58562713D01*
X112740822Y-58565405D01*
X112679486Y-58590811D01*
X112521401Y-58696440D01*
X112386960Y-58830881D01*
X112281331Y-58988966D01*
X112214660Y-59149924D01*
X112147989Y-58988966D01*
X112042360Y-58830881D01*
X111907919Y-58696440D01*
X111749834Y-58590811D01*
X111574178Y-58518052D01*
X111387704Y-58480960D01*
X111197576Y-58480960D01*
X111011102Y-58518052D01*
X110835446Y-58590811D01*
X110677361Y-58696440D01*
X110542920Y-58830881D01*
X110437291Y-58988966D01*
X110364532Y-59164622D01*
X110327440Y-59351096D01*
X110327440Y-59356829D01*
X110326638Y-59356908D01*
X110251120Y-59379816D01*
X110175602Y-59356908D01*
X110051120Y-59344648D01*
X109586870Y-59347720D01*
X109428120Y-59506470D01*
X109428120Y-60755720D01*
X109448120Y-60755720D01*
X109448120Y-61009720D01*
X109428120Y-61009720D01*
X109428120Y-62258970D01*
X109586870Y-62417720D01*
X110051120Y-62420792D01*
X110175602Y-62408532D01*
X110251120Y-62385624D01*
X110326638Y-62408532D01*
X110451120Y-62420792D01*
X111951120Y-62420792D01*
X112075602Y-62408532D01*
X112151120Y-62385624D01*
X112226638Y-62408532D01*
X112351120Y-62420792D01*
X113851120Y-62420792D01*
X113975602Y-62408532D01*
X114031661Y-62391527D01*
X114032292Y-62394698D01*
X114105051Y-62570354D01*
X114210680Y-62728439D01*
X114345121Y-62862880D01*
X114503206Y-62968509D01*
X114678862Y-63041268D01*
X114865336Y-63078360D01*
X115055464Y-63078360D01*
X115241938Y-63041268D01*
X115417594Y-62968509D01*
X115471156Y-62932720D01*
X118163048Y-62932720D01*
X118166120Y-63396970D01*
X118324870Y-63555720D01*
X119574120Y-63555720D01*
X119574120Y-62456470D01*
X119828120Y-62456470D01*
X119828120Y-63555720D01*
X121077370Y-63555720D01*
X121236120Y-63396970D01*
X121239192Y-62932720D01*
X121226932Y-62808238D01*
X121190622Y-62688540D01*
X121131657Y-62578226D01*
X121052305Y-62481535D01*
X120955614Y-62402183D01*
X120845300Y-62343218D01*
X120725602Y-62306908D01*
X120601120Y-62294648D01*
X119986870Y-62297720D01*
X119828120Y-62456470D01*
X119574120Y-62456470D01*
X119415370Y-62297720D01*
X118801120Y-62294648D01*
X118676638Y-62306908D01*
X118556940Y-62343218D01*
X118446626Y-62402183D01*
X118349935Y-62481535D01*
X118270583Y-62578226D01*
X118211618Y-62688540D01*
X118175308Y-62808238D01*
X118163048Y-62932720D01*
X115471156Y-62932720D01*
X115575679Y-62862880D01*
X115710120Y-62728439D01*
X115815749Y-62570354D01*
X115883809Y-62406042D01*
X115951120Y-62385624D01*
X116026638Y-62408532D01*
X116151120Y-62420792D01*
X116615370Y-62417720D01*
X116774120Y-62258970D01*
X116774120Y-61009720D01*
X117028120Y-61009720D01*
X117028120Y-62258970D01*
X117186870Y-62417720D01*
X117651120Y-62420792D01*
X117775602Y-62408532D01*
X117895300Y-62372222D01*
X118005614Y-62313257D01*
X118102305Y-62233905D01*
X118181657Y-62137214D01*
X118240622Y-62026900D01*
X118276932Y-61907202D01*
X118289192Y-61782720D01*
X118286120Y-61168470D01*
X118127370Y-61009720D01*
X117028120Y-61009720D01*
X116774120Y-61009720D01*
X116754120Y-61009720D01*
X116754120Y-60755720D01*
X116774120Y-60755720D01*
X116774120Y-59506470D01*
X117028120Y-59506470D01*
X117028120Y-60755720D01*
X118127370Y-60755720D01*
X118286120Y-60596970D01*
X118289192Y-59982720D01*
X118276932Y-59858238D01*
X118240622Y-59738540D01*
X118181657Y-59628226D01*
X118102305Y-59531535D01*
X118005614Y-59452183D01*
X117895300Y-59393218D01*
X117775602Y-59356908D01*
X117651120Y-59344648D01*
X117186870Y-59347720D01*
X117028120Y-59506470D01*
X116774120Y-59506470D01*
X116615370Y-59347720D01*
X116151120Y-59344648D01*
X116026638Y-59356908D01*
X115951120Y-59379816D01*
X115875602Y-59356908D01*
X115751120Y-59344648D01*
X114251120Y-59344648D01*
X114126638Y-59356908D01*
X114101880Y-59364418D01*
X114101880Y-59351096D01*
X114064788Y-59164622D01*
X113992029Y-58988966D01*
X113886400Y-58830881D01*
X113751959Y-58696440D01*
X113593874Y-58590811D01*
X113428668Y-58522381D01*
X113575634Y-58477799D01*
X113833614Y-58339906D01*
X114059734Y-58154334D01*
X114245306Y-57928214D01*
X114274600Y-57873409D01*
X114303894Y-57928214D01*
X114489466Y-58154334D01*
X114715586Y-58339906D01*
X114973566Y-58477799D01*
X115253489Y-58562713D01*
X115471650Y-58584200D01*
X115617550Y-58584200D01*
X115835711Y-58562713D01*
X116115634Y-58477799D01*
X116373614Y-58339906D01*
X116599734Y-58154334D01*
X116785306Y-57928214D01*
X116814600Y-57873409D01*
X116843894Y-57928214D01*
X117029466Y-58154334D01*
X117255586Y-58339906D01*
X117513566Y-58477799D01*
X117793489Y-58562713D01*
X118011650Y-58584200D01*
X118157550Y-58584200D01*
X118375711Y-58562713D01*
X118655634Y-58477799D01*
X118913614Y-58339906D01*
X119139734Y-58154334D01*
X119325306Y-57928214D01*
X119354600Y-57873409D01*
X119383894Y-57928214D01*
X119569466Y-58154334D01*
X119795586Y-58339906D01*
X120053566Y-58477799D01*
X120333489Y-58562713D01*
X120551650Y-58584200D01*
X120697550Y-58584200D01*
X120915711Y-58562713D01*
X121195634Y-58477799D01*
X121453614Y-58339906D01*
X121679734Y-58154334D01*
X121865306Y-57928214D01*
X121894600Y-57873409D01*
X121923894Y-57928214D01*
X122109466Y-58154334D01*
X122335586Y-58339906D01*
X122593566Y-58477799D01*
X122873489Y-58562713D01*
X123091650Y-58584200D01*
X123237550Y-58584200D01*
X123455711Y-58562713D01*
X123735634Y-58477799D01*
X123993614Y-58339906D01*
X124219734Y-58154334D01*
X124405306Y-57928214D01*
X124434600Y-57873409D01*
X124463894Y-57928214D01*
X124649466Y-58154334D01*
X124875586Y-58339906D01*
X125133566Y-58477799D01*
X125413489Y-58562713D01*
X125631650Y-58584200D01*
X125777550Y-58584200D01*
X125995711Y-58562713D01*
X126275634Y-58477799D01*
X126533614Y-58339906D01*
X126759734Y-58154334D01*
X126945306Y-57928214D01*
X126974600Y-57873409D01*
X127003894Y-57928214D01*
X127189466Y-58154334D01*
X127415586Y-58339906D01*
X127673566Y-58477799D01*
X127953489Y-58562713D01*
X128171650Y-58584200D01*
X128317550Y-58584200D01*
X128535711Y-58562713D01*
X128815634Y-58477799D01*
X129073614Y-58339906D01*
X129299734Y-58154334D01*
X129485306Y-57928214D01*
X129514600Y-57873409D01*
X129543894Y-57928214D01*
X129729466Y-58154334D01*
X129955586Y-58339906D01*
X130213566Y-58477799D01*
X130493489Y-58562713D01*
X130711650Y-58584200D01*
X130857550Y-58584200D01*
X131075711Y-58562713D01*
X131355634Y-58477799D01*
X131613614Y-58339906D01*
X131839734Y-58154334D01*
X132025306Y-57928214D01*
X132163199Y-57670234D01*
X132248113Y-57390311D01*
X132276785Y-57099200D01*
X132248113Y-56808089D01*
X132163199Y-56528166D01*
X132142371Y-56489200D01*
X134383807Y-56489200D01*
X134044766Y-56556639D01*
X133701718Y-56698734D01*
X133392982Y-56905025D01*
X133130425Y-57167582D01*
X132924134Y-57476318D01*
X132782039Y-57819366D01*
X132709600Y-58183544D01*
X132709600Y-58554856D01*
X132782039Y-58919034D01*
X132924134Y-59262082D01*
X133130425Y-59570818D01*
X133392982Y-59833375D01*
X133701718Y-60039666D01*
X134044766Y-60181761D01*
X134408944Y-60254200D01*
X134780256Y-60254200D01*
X135144434Y-60181761D01*
X135487482Y-60039666D01*
X135796218Y-59833375D01*
X136058775Y-59570818D01*
X136265066Y-59262082D01*
X136407161Y-58919034D01*
X136474601Y-58579988D01*
X136474601Y-63879141D01*
X136457112Y-63821489D01*
X136391072Y-63697937D01*
X136324468Y-63616780D01*
X136324463Y-63616775D01*
X136302196Y-63589643D01*
X136275065Y-63567377D01*
X136150794Y-63443106D01*
X136158732Y-63362510D01*
X136158732Y-62875010D01*
X136141788Y-62702975D01*
X136091607Y-62537551D01*
X136010118Y-62385096D01*
X135900452Y-62251468D01*
X135766824Y-62141802D01*
X135681720Y-62096313D01*
X135681720Y-62002856D01*
X135644628Y-61816382D01*
X135571869Y-61640726D01*
X135466240Y-61482641D01*
X135331799Y-61348200D01*
X135173714Y-61242571D01*
X134998058Y-61169812D01*
X134811584Y-61132720D01*
X134621456Y-61132720D01*
X134434982Y-61169812D01*
X134259326Y-61242571D01*
X134123276Y-61333477D01*
X134117679Y-61327880D01*
X133959594Y-61222251D01*
X133783938Y-61149492D01*
X133597464Y-61112400D01*
X133407336Y-61112400D01*
X133220862Y-61149492D01*
X133045206Y-61222251D01*
X132887121Y-61327880D01*
X132752680Y-61462321D01*
X132647051Y-61620406D01*
X132574292Y-61796062D01*
X132537200Y-61982536D01*
X132537200Y-61993188D01*
X132408610Y-61993188D01*
X132236575Y-62010132D01*
X132071151Y-62060313D01*
X131918696Y-62141802D01*
X131785068Y-62251468D01*
X131675402Y-62385096D01*
X131593913Y-62537551D01*
X131543732Y-62702975D01*
X131526788Y-62875010D01*
X131526788Y-63362510D01*
X131543732Y-63534545D01*
X131593913Y-63699969D01*
X131675402Y-63852424D01*
X131785068Y-63986052D01*
X131870616Y-64056260D01*
X131822107Y-64096071D01*
X131711298Y-64050172D01*
X131524824Y-64013080D01*
X131334696Y-64013080D01*
X131148222Y-64050172D01*
X130972566Y-64122931D01*
X130814481Y-64228560D01*
X130680040Y-64363001D01*
X130574411Y-64521086D01*
X130501652Y-64696742D01*
X130464560Y-64883216D01*
X130464560Y-65073344D01*
X130501652Y-65259818D01*
X130574411Y-65435474D01*
X130680040Y-65593559D01*
X130814481Y-65728000D01*
X130972566Y-65833629D01*
X131148222Y-65906388D01*
X131334696Y-65943480D01*
X131524824Y-65943480D01*
X131711298Y-65906388D01*
X131767287Y-65883197D01*
X131670768Y-65962408D01*
X131561102Y-66096036D01*
X131479613Y-66248491D01*
X131429432Y-66413915D01*
X131412488Y-66585950D01*
X131412488Y-67073450D01*
X131429432Y-67245485D01*
X131479613Y-67410909D01*
X131561102Y-67563364D01*
X131670768Y-67696992D01*
X131756316Y-67767200D01*
X131670768Y-67837408D01*
X131561102Y-67971036D01*
X131543223Y-68004485D01*
X131474024Y-67990720D01*
X131283896Y-67990720D01*
X131097422Y-68027812D01*
X130921766Y-68100571D01*
X130763681Y-68206200D01*
X130629240Y-68340641D01*
X130523611Y-68498726D01*
X130450852Y-68674382D01*
X130413760Y-68860856D01*
X130413760Y-68915331D01*
X127883249Y-71445844D01*
X127856113Y-71468114D01*
X127767237Y-71576408D01*
X127701197Y-71699960D01*
X127701036Y-71700490D01*
X127574046Y-71753091D01*
X127415961Y-71858720D01*
X127281520Y-71993161D01*
X127175891Y-72151246D01*
X127103132Y-72326902D01*
X127066040Y-72513376D01*
X127066040Y-72703504D01*
X127103132Y-72889978D01*
X127175891Y-73065634D01*
X127281520Y-73223719D01*
X127415961Y-73358160D01*
X127574046Y-73463789D01*
X127749702Y-73536548D01*
X127936176Y-73573640D01*
X128126304Y-73573640D01*
X128312778Y-73536548D01*
X128488434Y-73463789D01*
X128510384Y-73449123D01*
X128536280Y-73487879D01*
X128670721Y-73622320D01*
X128680280Y-73628707D01*
X128608451Y-73736206D01*
X128535692Y-73911862D01*
X128498600Y-74098336D01*
X128498600Y-74288464D01*
X128535692Y-74474938D01*
X128608451Y-74650594D01*
X128714080Y-74808679D01*
X128848521Y-74943120D01*
X129006606Y-75048749D01*
X129182262Y-75121508D01*
X129368736Y-75158600D01*
X129510604Y-75158600D01*
X129604648Y-75273192D01*
X129738276Y-75382858D01*
X129890731Y-75464347D01*
X130056155Y-75514528D01*
X130228190Y-75531472D01*
X130715690Y-75531472D01*
X130887725Y-75514528D01*
X131053149Y-75464347D01*
X131205604Y-75382858D01*
X131339232Y-75273192D01*
X131409440Y-75187644D01*
X131479648Y-75273192D01*
X131613276Y-75382858D01*
X131765731Y-75464347D01*
X131931155Y-75514528D01*
X132103190Y-75531472D01*
X132590690Y-75531472D01*
X132762725Y-75514528D01*
X132825006Y-75495635D01*
X132782039Y-75599366D01*
X132709600Y-75963544D01*
X132709600Y-76334856D01*
X132782039Y-76699034D01*
X132924134Y-77042082D01*
X133130425Y-77350818D01*
X133392982Y-77613375D01*
X133701718Y-77819666D01*
X134044766Y-77961761D01*
X134383807Y-78029200D01*
X132136296Y-78029200D01*
X132226081Y-77776091D01*
X132105414Y-77546200D01*
X130911600Y-77546200D01*
X130911600Y-77566200D01*
X130657600Y-77566200D01*
X130657600Y-77546200D01*
X130637600Y-77546200D01*
X130637600Y-77292200D01*
X130657600Y-77292200D01*
X130657600Y-76099045D01*
X130911600Y-76099045D01*
X130911600Y-77292200D01*
X132105414Y-77292200D01*
X132226081Y-77062309D01*
X132128757Y-76787948D01*
X131979778Y-76537845D01*
X131784869Y-76321612D01*
X131551520Y-76147559D01*
X131288699Y-76022375D01*
X131141490Y-75977724D01*
X130911600Y-76099045D01*
X130657600Y-76099045D01*
X130427710Y-75977724D01*
X130280501Y-76022375D01*
X130017680Y-76147559D01*
X129784331Y-76321612D01*
X129589422Y-76537845D01*
X129519801Y-76654723D01*
X129485306Y-76590186D01*
X129299734Y-76364066D01*
X129073614Y-76178494D01*
X128815634Y-76040601D01*
X128535711Y-75955687D01*
X128317550Y-75934200D01*
X128171650Y-75934200D01*
X127953489Y-75955687D01*
X127673566Y-76040601D01*
X127415586Y-76178494D01*
X127189466Y-76364066D01*
X127003894Y-76590186D01*
X126974600Y-76644991D01*
X126945306Y-76590186D01*
X126759734Y-76364066D01*
X126533614Y-76178494D01*
X126275634Y-76040601D01*
X125995711Y-75955687D01*
X125777550Y-75934200D01*
X125631650Y-75934200D01*
X125413489Y-75955687D01*
X125133566Y-76040601D01*
X124875586Y-76178494D01*
X124649466Y-76364066D01*
X124463894Y-76590186D01*
X124434600Y-76644991D01*
X124405306Y-76590186D01*
X124219734Y-76364066D01*
X123993614Y-76178494D01*
X123735634Y-76040601D01*
X123455711Y-75955687D01*
X123237550Y-75934200D01*
X123091650Y-75934200D01*
X122873489Y-75955687D01*
X122593566Y-76040601D01*
X122335586Y-76178494D01*
X122109466Y-76364066D01*
X121923894Y-76590186D01*
X121894600Y-76644991D01*
X121865306Y-76590186D01*
X121679734Y-76364066D01*
X121453614Y-76178494D01*
X121195634Y-76040601D01*
X120915711Y-75955687D01*
X120697550Y-75934200D01*
X120551650Y-75934200D01*
X120333489Y-75955687D01*
X120053566Y-76040601D01*
X119795586Y-76178494D01*
X119569466Y-76364066D01*
X119383894Y-76590186D01*
X119354600Y-76644991D01*
X119325306Y-76590186D01*
X119139734Y-76364066D01*
X118913614Y-76178494D01*
X118655634Y-76040601D01*
X118375711Y-75955687D01*
X118157550Y-75934200D01*
X118011650Y-75934200D01*
X117793489Y-75955687D01*
X117513566Y-76040601D01*
X117255586Y-76178494D01*
X117029466Y-76364066D01*
X116843894Y-76590186D01*
X116814600Y-76644991D01*
X116785306Y-76590186D01*
X116599734Y-76364066D01*
X116373614Y-76178494D01*
X116115634Y-76040601D01*
X115835711Y-75955687D01*
X115617550Y-75934200D01*
X115471650Y-75934200D01*
X115253489Y-75955687D01*
X114973566Y-76040601D01*
X114749698Y-76160261D01*
X114805880Y-76104079D01*
X114911509Y-75945994D01*
X114984268Y-75770338D01*
X115014015Y-75620792D01*
X115751120Y-75620792D01*
X115875602Y-75608532D01*
X115951120Y-75585624D01*
X116026638Y-75608532D01*
X116151120Y-75620792D01*
X116615370Y-75617720D01*
X116774120Y-75458970D01*
X116774120Y-74209720D01*
X117028120Y-74209720D01*
X117028120Y-75458970D01*
X117186870Y-75617720D01*
X117651120Y-75620792D01*
X117775602Y-75608532D01*
X117895300Y-75572222D01*
X118005614Y-75513257D01*
X118102305Y-75433905D01*
X118181657Y-75337214D01*
X118240622Y-75226900D01*
X118276932Y-75107202D01*
X118289192Y-74982720D01*
X118286120Y-74368470D01*
X118127370Y-74209720D01*
X117028120Y-74209720D01*
X116774120Y-74209720D01*
X116754120Y-74209720D01*
X116754120Y-73955720D01*
X116774120Y-73955720D01*
X116774120Y-72706470D01*
X117028120Y-72706470D01*
X117028120Y-73955720D01*
X118127370Y-73955720D01*
X118286120Y-73796970D01*
X118289192Y-73182720D01*
X118276932Y-73058238D01*
X118240622Y-72938540D01*
X118181657Y-72828226D01*
X118102305Y-72731535D01*
X118005614Y-72652183D01*
X117895300Y-72593218D01*
X117775602Y-72556908D01*
X117651120Y-72544648D01*
X117186870Y-72547720D01*
X117028120Y-72706470D01*
X116774120Y-72706470D01*
X116615370Y-72547720D01*
X116151120Y-72544648D01*
X116026638Y-72556908D01*
X115951120Y-72579816D01*
X115875602Y-72556908D01*
X115751120Y-72544648D01*
X114251120Y-72544648D01*
X114126638Y-72556908D01*
X114051120Y-72579816D01*
X113975602Y-72556908D01*
X113851120Y-72544648D01*
X112351120Y-72544648D01*
X112226638Y-72556908D01*
X112151120Y-72579816D01*
X112075602Y-72556908D01*
X111951120Y-72544648D01*
X110451120Y-72544648D01*
X110326638Y-72556908D01*
X110251120Y-72579816D01*
X110175602Y-72556908D01*
X110051120Y-72544648D01*
X109586870Y-72547720D01*
X109428120Y-72706470D01*
X109428120Y-73955720D01*
X109448120Y-73955720D01*
X109448120Y-74209720D01*
X109428120Y-74209720D01*
X109428120Y-75458970D01*
X109586870Y-75617720D01*
X110051120Y-75620792D01*
X110175602Y-75608532D01*
X110251120Y-75585624D01*
X110312200Y-75604152D01*
X110312200Y-75604184D01*
X110349292Y-75790658D01*
X110408749Y-75934200D01*
X110391650Y-75934200D01*
X110173489Y-75955687D01*
X109893566Y-76040601D01*
X109635586Y-76178494D01*
X109409466Y-76364066D01*
X109223894Y-76590186D01*
X109194600Y-76644991D01*
X109165306Y-76590186D01*
X108979734Y-76364066D01*
X108753614Y-76178494D01*
X108495634Y-76040601D01*
X108215711Y-75955687D01*
X107997550Y-75934200D01*
X107851650Y-75934200D01*
X107633489Y-75955687D01*
X107353566Y-76040601D01*
X107095586Y-76178494D01*
X106869466Y-76364066D01*
X106683894Y-76590186D01*
X106654600Y-76644991D01*
X106625306Y-76590186D01*
X106439734Y-76364066D01*
X106213614Y-76178494D01*
X105955634Y-76040601D01*
X105675711Y-75955687D01*
X105457550Y-75934200D01*
X105311650Y-75934200D01*
X105093489Y-75955687D01*
X104813566Y-76040601D01*
X104555586Y-76178494D01*
X104329466Y-76364066D01*
X104143894Y-76590186D01*
X104114600Y-76644991D01*
X104085306Y-76590186D01*
X103899734Y-76364066D01*
X103673614Y-76178494D01*
X103415634Y-76040601D01*
X103135711Y-75955687D01*
X102917550Y-75934200D01*
X102771650Y-75934200D01*
X102553489Y-75955687D01*
X102273566Y-76040601D01*
X102015586Y-76178494D01*
X101789466Y-76364066D01*
X101603894Y-76590186D01*
X101569399Y-76654723D01*
X101499778Y-76537845D01*
X101304869Y-76321612D01*
X101071520Y-76147559D01*
X100808699Y-76022375D01*
X100661490Y-75977724D01*
X100431600Y-76099045D01*
X100431600Y-77292200D01*
X100451600Y-77292200D01*
X100451600Y-77546200D01*
X100431600Y-77546200D01*
X100431600Y-77566200D01*
X100177600Y-77566200D01*
X100177600Y-77546200D01*
X100157600Y-77546200D01*
X100157600Y-77292200D01*
X100177600Y-77292200D01*
X100177600Y-76099045D01*
X99947710Y-75977724D01*
X99800501Y-76022375D01*
X99537680Y-76147559D01*
X99304331Y-76321612D01*
X99109422Y-76537845D01*
X99039801Y-76654723D01*
X99005306Y-76590186D01*
X98819734Y-76364066D01*
X98593614Y-76178494D01*
X98335634Y-76040601D01*
X98055711Y-75955687D01*
X97837550Y-75934200D01*
X97691650Y-75934200D01*
X97473489Y-75955687D01*
X97193566Y-76040601D01*
X96935586Y-76178494D01*
X96709466Y-76364066D01*
X96523894Y-76590186D01*
X96494600Y-76644991D01*
X96465306Y-76590186D01*
X96279734Y-76364066D01*
X96113600Y-76227723D01*
X96113600Y-75890368D01*
X96117901Y-75846700D01*
X96100736Y-75672425D01*
X96073969Y-75584186D01*
X96049903Y-75504849D01*
X95967353Y-75350409D01*
X95856259Y-75215041D01*
X95829712Y-75193254D01*
X95829712Y-74982720D01*
X107913048Y-74982720D01*
X107925308Y-75107202D01*
X107961618Y-75226900D01*
X108020583Y-75337214D01*
X108099935Y-75433905D01*
X108196626Y-75513257D01*
X108306940Y-75572222D01*
X108426638Y-75608532D01*
X108551120Y-75620792D01*
X109015370Y-75617720D01*
X109174120Y-75458970D01*
X109174120Y-74209720D01*
X108074870Y-74209720D01*
X107916120Y-74368470D01*
X107913048Y-74982720D01*
X95829712Y-74982720D01*
X95829712Y-74869990D01*
X95812768Y-74697955D01*
X95762587Y-74532531D01*
X95681098Y-74380076D01*
X95593140Y-74272899D01*
X95593140Y-73182720D01*
X107913048Y-73182720D01*
X107916120Y-73796970D01*
X108074870Y-73955720D01*
X109174120Y-73955720D01*
X109174120Y-72706470D01*
X109015370Y-72547720D01*
X108551120Y-72544648D01*
X108426638Y-72556908D01*
X108306940Y-72593218D01*
X108196626Y-72652183D01*
X108099935Y-72731535D01*
X108020583Y-72828226D01*
X107961618Y-72938540D01*
X107925308Y-73058238D01*
X107913048Y-73182720D01*
X95593140Y-73182720D01*
X95593140Y-72882638D01*
X95654765Y-72876568D01*
X95820189Y-72826387D01*
X95972644Y-72744898D01*
X96106272Y-72635232D01*
X96215938Y-72501604D01*
X96297427Y-72349149D01*
X96347608Y-72183725D01*
X96362480Y-72032720D01*
X104963048Y-72032720D01*
X104975308Y-72157202D01*
X105011618Y-72276900D01*
X105070583Y-72387214D01*
X105149935Y-72483905D01*
X105246626Y-72563257D01*
X105356940Y-72622222D01*
X105476638Y-72658532D01*
X105601120Y-72670792D01*
X106215370Y-72667720D01*
X106374120Y-72508970D01*
X106374120Y-71409720D01*
X106628120Y-71409720D01*
X106628120Y-72508970D01*
X106786870Y-72667720D01*
X107401120Y-72670792D01*
X107525602Y-72658532D01*
X107645300Y-72622222D01*
X107755614Y-72563257D01*
X107852305Y-72483905D01*
X107931657Y-72387214D01*
X107990622Y-72276900D01*
X108026932Y-72157202D01*
X108039192Y-72032720D01*
X118163048Y-72032720D01*
X118175308Y-72157202D01*
X118211618Y-72276900D01*
X118270583Y-72387214D01*
X118349935Y-72483905D01*
X118446626Y-72563257D01*
X118556940Y-72622222D01*
X118676638Y-72658532D01*
X118801120Y-72670792D01*
X119415370Y-72667720D01*
X119574120Y-72508970D01*
X119574120Y-71409720D01*
X119828120Y-71409720D01*
X119828120Y-72508970D01*
X119986870Y-72667720D01*
X120601120Y-72670792D01*
X120725602Y-72658532D01*
X120845300Y-72622222D01*
X120955614Y-72563257D01*
X121052305Y-72483905D01*
X121131657Y-72387214D01*
X121190622Y-72276900D01*
X121226932Y-72157202D01*
X121239192Y-72032720D01*
X121236120Y-71568470D01*
X121077370Y-71409720D01*
X119828120Y-71409720D01*
X119574120Y-71409720D01*
X118324870Y-71409720D01*
X118166120Y-71568470D01*
X118163048Y-72032720D01*
X108039192Y-72032720D01*
X108036120Y-71568470D01*
X107877370Y-71409720D01*
X106628120Y-71409720D01*
X106374120Y-71409720D01*
X105124870Y-71409720D01*
X104966120Y-71568470D01*
X104963048Y-72032720D01*
X96362480Y-72032720D01*
X96364552Y-72011690D01*
X96364552Y-71524190D01*
X96347608Y-71352155D01*
X96297427Y-71186731D01*
X96215938Y-71034276D01*
X96106272Y-70900648D01*
X96099916Y-70895432D01*
X96177665Y-70831625D01*
X96257017Y-70734934D01*
X96315982Y-70624620D01*
X96352292Y-70504922D01*
X96364552Y-70380440D01*
X96361480Y-70178690D01*
X96315510Y-70132720D01*
X104963048Y-70132720D01*
X104975308Y-70257202D01*
X104998216Y-70332720D01*
X104975308Y-70408238D01*
X104963048Y-70532720D01*
X104966120Y-70996970D01*
X105124870Y-71155720D01*
X106374120Y-71155720D01*
X106374120Y-69509720D01*
X106628120Y-69509720D01*
X106628120Y-71155720D01*
X107877370Y-71155720D01*
X108036120Y-70996970D01*
X108039192Y-70532720D01*
X108026932Y-70408238D01*
X108004024Y-70332720D01*
X108026932Y-70257202D01*
X108039192Y-70132720D01*
X108036120Y-69668470D01*
X107877370Y-69509720D01*
X106628120Y-69509720D01*
X106374120Y-69509720D01*
X105124870Y-69509720D01*
X104966120Y-69668470D01*
X104963048Y-70132720D01*
X96315510Y-70132720D01*
X96202730Y-70019940D01*
X95153480Y-70019940D01*
X95153480Y-70039940D01*
X94899480Y-70039940D01*
X94899480Y-70019940D01*
X94879480Y-70019940D01*
X94879480Y-69765940D01*
X94899480Y-69765940D01*
X94899480Y-69745940D01*
X95153480Y-69745940D01*
X95153480Y-69765940D01*
X96202730Y-69765940D01*
X96361480Y-69607190D01*
X96364552Y-69405440D01*
X96352292Y-69280958D01*
X96315982Y-69161260D01*
X96257017Y-69050946D01*
X96254098Y-69047390D01*
X96284788Y-68973298D01*
X96321880Y-68786824D01*
X96321880Y-68682265D01*
X96347121Y-68635042D01*
X96387788Y-68500981D01*
X96398079Y-68396497D01*
X96398079Y-68396490D01*
X96401519Y-68361561D01*
X96398079Y-68326633D01*
X96398079Y-67347016D01*
X104099360Y-67347016D01*
X104099360Y-67537144D01*
X104136452Y-67723618D01*
X104209211Y-67899274D01*
X104314840Y-68057359D01*
X104449281Y-68191800D01*
X104607366Y-68297429D01*
X104783022Y-68370188D01*
X104969496Y-68407280D01*
X104990499Y-68407280D01*
X104998216Y-68432720D01*
X104975308Y-68508238D01*
X104963048Y-68632720D01*
X104966120Y-69096970D01*
X105124870Y-69255720D01*
X106374120Y-69255720D01*
X106374120Y-69235720D01*
X106628120Y-69235720D01*
X106628120Y-69255720D01*
X107877370Y-69255720D01*
X108036120Y-69096970D01*
X108039192Y-68632720D01*
X108026932Y-68508238D01*
X108004024Y-68432720D01*
X108026932Y-68357202D01*
X108039192Y-68232720D01*
X108039192Y-66732720D01*
X108026932Y-66608238D01*
X108004024Y-66532720D01*
X108026932Y-66457202D01*
X108039192Y-66332720D01*
X108039192Y-64832720D01*
X108026932Y-64708238D01*
X108004024Y-64632720D01*
X108026932Y-64557202D01*
X108039192Y-64432720D01*
X118163048Y-64432720D01*
X118175308Y-64557202D01*
X118198216Y-64632720D01*
X118175308Y-64708238D01*
X118163048Y-64832720D01*
X118163048Y-66332720D01*
X118175308Y-66457202D01*
X118198216Y-66532720D01*
X118175308Y-66608238D01*
X118163048Y-66732720D01*
X118163048Y-68232720D01*
X118175308Y-68357202D01*
X118198216Y-68432720D01*
X118175308Y-68508238D01*
X118163048Y-68632720D01*
X118163048Y-70132720D01*
X118175308Y-70257202D01*
X118198216Y-70332720D01*
X118175308Y-70408238D01*
X118163048Y-70532720D01*
X118166120Y-70996970D01*
X118324870Y-71155720D01*
X119574120Y-71155720D01*
X119574120Y-71135720D01*
X119828120Y-71135720D01*
X119828120Y-71155720D01*
X121077370Y-71155720D01*
X121236120Y-70996970D01*
X121239192Y-70532720D01*
X121226932Y-70408238D01*
X121204024Y-70332720D01*
X121226932Y-70257202D01*
X121239192Y-70132720D01*
X121239192Y-70065825D01*
X121314561Y-70042962D01*
X121418959Y-69987160D01*
X121496904Y-69987160D01*
X121683378Y-69950068D01*
X121859034Y-69877309D01*
X122017119Y-69771680D01*
X122151560Y-69637239D01*
X122257189Y-69479154D01*
X122329948Y-69303498D01*
X122367040Y-69117024D01*
X122367040Y-68926896D01*
X122329948Y-68740422D01*
X122257189Y-68564766D01*
X122151560Y-68406681D01*
X122017119Y-68272240D01*
X121859034Y-68166611D01*
X121683378Y-68093852D01*
X121496904Y-68056760D01*
X121452600Y-68056760D01*
X121471170Y-68041520D01*
X121532464Y-68041520D01*
X121718938Y-68004428D01*
X121894594Y-67931669D01*
X122052679Y-67826040D01*
X122187120Y-67691599D01*
X122292749Y-67533514D01*
X122365508Y-67357858D01*
X122402600Y-67171384D01*
X122402600Y-66981256D01*
X122365508Y-66794782D01*
X122292749Y-66619126D01*
X122187120Y-66461041D01*
X122052679Y-66326600D01*
X121894594Y-66220971D01*
X121718938Y-66148212D01*
X121558003Y-66116200D01*
X121573104Y-66116200D01*
X121759578Y-66079108D01*
X121935234Y-66006349D01*
X122093319Y-65900720D01*
X122227760Y-65766279D01*
X122333389Y-65608194D01*
X122406148Y-65432538D01*
X122443240Y-65246064D01*
X122443240Y-65055936D01*
X122406148Y-64869462D01*
X122333389Y-64693806D01*
X122227760Y-64535721D01*
X122093319Y-64401280D01*
X121935234Y-64295651D01*
X121759578Y-64222892D01*
X121573104Y-64185800D01*
X121382976Y-64185800D01*
X121237749Y-64214687D01*
X121236120Y-63968470D01*
X121077370Y-63809720D01*
X119828120Y-63809720D01*
X119828120Y-63829720D01*
X119574120Y-63829720D01*
X119574120Y-63809720D01*
X118324870Y-63809720D01*
X118166120Y-63968470D01*
X118163048Y-64432720D01*
X108039192Y-64432720D01*
X108036120Y-63968470D01*
X107877370Y-63809720D01*
X106628120Y-63809720D01*
X106628120Y-63829720D01*
X106374120Y-63829720D01*
X106374120Y-63809720D01*
X105124870Y-63809720D01*
X104966120Y-63968470D01*
X104963048Y-64432720D01*
X104975308Y-64557202D01*
X104998216Y-64632720D01*
X104998180Y-64632840D01*
X104974576Y-64632840D01*
X104788102Y-64669932D01*
X104612446Y-64742691D01*
X104454361Y-64848320D01*
X104319920Y-64982761D01*
X104214291Y-65140846D01*
X104141532Y-65316502D01*
X104104440Y-65502976D01*
X104104440Y-65693104D01*
X104141532Y-65879578D01*
X104214291Y-66055234D01*
X104319920Y-66213319D01*
X104454361Y-66347760D01*
X104612446Y-66453389D01*
X104770864Y-66519008D01*
X104607366Y-66586731D01*
X104449281Y-66692360D01*
X104314840Y-66826801D01*
X104209211Y-66984886D01*
X104136452Y-67160542D01*
X104099360Y-67347016D01*
X96398079Y-67347016D01*
X96398079Y-65084908D01*
X96631708Y-64851280D01*
X96686184Y-64851280D01*
X96872658Y-64814188D01*
X97048314Y-64741429D01*
X97206399Y-64635800D01*
X97340840Y-64501359D01*
X97446469Y-64343274D01*
X97519228Y-64167618D01*
X97556320Y-63981144D01*
X97556320Y-63791016D01*
X97519228Y-63604542D01*
X97446469Y-63428886D01*
X97340840Y-63270801D01*
X97206399Y-63136360D01*
X97048314Y-63030731D01*
X96872658Y-62957972D01*
X96745708Y-62932720D01*
X104963048Y-62932720D01*
X104966120Y-63396970D01*
X105124870Y-63555720D01*
X106374120Y-63555720D01*
X106374120Y-62456470D01*
X106628120Y-62456470D01*
X106628120Y-63555720D01*
X107877370Y-63555720D01*
X108036120Y-63396970D01*
X108039192Y-62932720D01*
X108026932Y-62808238D01*
X107990622Y-62688540D01*
X107931657Y-62578226D01*
X107852305Y-62481535D01*
X107755614Y-62402183D01*
X107645300Y-62343218D01*
X107525602Y-62306908D01*
X107401120Y-62294648D01*
X106786870Y-62297720D01*
X106628120Y-62456470D01*
X106374120Y-62456470D01*
X106215370Y-62297720D01*
X105601120Y-62294648D01*
X105476638Y-62306908D01*
X105356940Y-62343218D01*
X105246626Y-62402183D01*
X105149935Y-62481535D01*
X105070583Y-62578226D01*
X105011618Y-62688540D01*
X104975308Y-62808238D01*
X104963048Y-62932720D01*
X96745708Y-62932720D01*
X96686184Y-62920880D01*
X96496056Y-62920880D01*
X96309582Y-62957972D01*
X96133926Y-63030731D01*
X95975841Y-63136360D01*
X95841400Y-63270801D01*
X95735771Y-63428886D01*
X95722482Y-63460969D01*
X95656394Y-63416811D01*
X95480738Y-63344052D01*
X95294264Y-63306960D01*
X95104136Y-63306960D01*
X94917662Y-63344052D01*
X94742006Y-63416811D01*
X94583921Y-63522440D01*
X94449480Y-63656881D01*
X94343851Y-63814966D01*
X94271092Y-63990622D01*
X94234000Y-64177096D01*
X94234000Y-64197168D01*
X94079542Y-64227892D01*
X93903886Y-64300651D01*
X93745801Y-64406280D01*
X93611360Y-64540721D01*
X93505731Y-64698806D01*
X93466622Y-64793223D01*
X93092698Y-65167147D01*
X93058781Y-65194982D01*
X93030946Y-65228899D01*
X93030944Y-65228901D01*
X92947687Y-65330350D01*
X92865137Y-65484789D01*
X92814303Y-65652367D01*
X92797139Y-65826641D01*
X92801440Y-65870311D01*
X92801439Y-67878902D01*
X92744961Y-67916640D01*
X92610520Y-68051081D01*
X92504891Y-68209166D01*
X92432132Y-68384822D01*
X92395040Y-68571296D01*
X92395040Y-68761424D01*
X92432132Y-68947898D01*
X92471241Y-69042315D01*
X92471240Y-70058040D01*
X92466940Y-70101700D01*
X92471240Y-70145360D01*
X92471240Y-70145366D01*
X92476360Y-70197349D01*
X92484104Y-70275974D01*
X92493576Y-70307200D01*
X92534937Y-70443550D01*
X92617487Y-70597990D01*
X92728581Y-70733359D01*
X92762504Y-70761199D01*
X93688408Y-71687104D01*
X93688408Y-72011690D01*
X93705352Y-72183725D01*
X93755533Y-72349149D01*
X93815141Y-72460667D01*
X93815140Y-74272899D01*
X93766640Y-74331996D01*
X93696432Y-74246448D01*
X93562804Y-74136782D01*
X93410349Y-74055293D01*
X93244925Y-74005112D01*
X93072890Y-73988168D01*
X92748303Y-73988168D01*
X92351778Y-73591643D01*
X92365152Y-73455850D01*
X92365152Y-72543350D01*
X92348208Y-72371315D01*
X92298027Y-72205891D01*
X92216538Y-72053436D01*
X92106872Y-71919808D01*
X91973244Y-71810142D01*
X91820789Y-71728653D01*
X91677678Y-71685241D01*
X91704512Y-71596782D01*
X91716772Y-71472300D01*
X91716772Y-69472300D01*
X91704512Y-69347818D01*
X91668202Y-69228120D01*
X91636922Y-69169600D01*
X91668600Y-69010344D01*
X91668600Y-68820216D01*
X91631508Y-68633742D01*
X91558749Y-68458086D01*
X91453120Y-68300001D01*
X91318679Y-68165560D01*
X91160594Y-68059931D01*
X90984938Y-67987172D01*
X90798464Y-67950080D01*
X90608336Y-67950080D01*
X90421862Y-67987172D01*
X90246206Y-68059931D01*
X90088121Y-68165560D01*
X89953680Y-68300001D01*
X89848051Y-68458086D01*
X89775292Y-68633742D01*
X89738200Y-68820216D01*
X89738200Y-68857111D01*
X89703182Y-68846488D01*
X89578700Y-68834228D01*
X89464450Y-68837300D01*
X89305700Y-68996050D01*
X89305700Y-70345300D01*
X89325700Y-70345300D01*
X89325700Y-70599300D01*
X89305700Y-70599300D01*
X89305700Y-70619300D01*
X89051700Y-70619300D01*
X89051700Y-70599300D01*
X89031700Y-70599300D01*
X89031700Y-70345300D01*
X89051700Y-70345300D01*
X89051700Y-68996050D01*
X88892950Y-68837300D01*
X88778700Y-68834228D01*
X88654218Y-68846488D01*
X88534520Y-68882798D01*
X88424206Y-68941763D01*
X88327515Y-69021115D01*
X88248163Y-69117806D01*
X88189198Y-69228120D01*
X88152888Y-69347818D01*
X88140628Y-69472300D01*
X88143700Y-70186550D01*
X88302448Y-70345298D01*
X88143700Y-70345298D01*
X88143700Y-70382871D01*
X87737950Y-70385880D01*
X87579200Y-70544630D01*
X87579200Y-71381380D01*
X87599200Y-71381380D01*
X87599200Y-71635380D01*
X87579200Y-71635380D01*
X87579200Y-71655380D01*
X87325200Y-71655380D01*
X87325200Y-71635380D01*
X87305200Y-71635380D01*
X87305200Y-71381380D01*
X87325200Y-71381380D01*
X87325200Y-70544630D01*
X87166450Y-70385880D01*
X86994600Y-70384606D01*
X86994600Y-61271380D01*
X91774688Y-61271380D01*
X91786948Y-61395862D01*
X91823258Y-61515560D01*
X91882223Y-61625874D01*
X91961575Y-61722565D01*
X92058266Y-61801917D01*
X92168580Y-61860882D01*
X92288278Y-61897192D01*
X92412760Y-61909452D01*
X92614510Y-61906380D01*
X92773260Y-61747630D01*
X92773260Y-60698380D01*
X91936510Y-60698380D01*
X91777760Y-60857130D01*
X91774688Y-61271380D01*
X86994600Y-61271380D01*
X86994600Y-60074231D01*
X87258632Y-60338263D01*
X87673827Y-60615688D01*
X88135168Y-60806782D01*
X88624924Y-60904200D01*
X89124276Y-60904200D01*
X89614032Y-60806782D01*
X90075373Y-60615688D01*
X90490568Y-60338263D01*
X90843663Y-59985168D01*
X91121088Y-59569973D01*
X91312182Y-59108632D01*
X91340740Y-58965060D01*
X91756908Y-58965060D01*
X91769168Y-59089542D01*
X91805478Y-59209240D01*
X91864443Y-59319554D01*
X91943795Y-59416245D01*
X91956356Y-59426554D01*
X91882223Y-59516886D01*
X91823258Y-59627200D01*
X91786948Y-59746898D01*
X91774688Y-59871380D01*
X91777760Y-60285630D01*
X91936510Y-60444380D01*
X92773260Y-60444380D01*
X92773260Y-59395130D01*
X92755480Y-59377350D01*
X92755480Y-58392060D01*
X91918730Y-58392060D01*
X91759980Y-58550810D01*
X91756908Y-58965060D01*
X91340740Y-58965060D01*
X91409600Y-58618876D01*
X91409600Y-58119524D01*
X91312182Y-57629768D01*
X91285380Y-57565060D01*
X91756908Y-57565060D01*
X91759980Y-57979310D01*
X91918730Y-58138060D01*
X92755480Y-58138060D01*
X92755480Y-57088810D01*
X92596730Y-56930060D01*
X92394980Y-56926988D01*
X92270498Y-56939248D01*
X92150800Y-56975558D01*
X92040486Y-57034523D01*
X91943795Y-57113875D01*
X91864443Y-57210566D01*
X91805478Y-57320880D01*
X91769168Y-57440578D01*
X91756908Y-57565060D01*
X91285380Y-57565060D01*
X91121088Y-57168427D01*
X90843663Y-56753232D01*
X90579631Y-56489200D01*
X101356528Y-56489200D01*
X101356528Y-56922404D01*
G36*
X114489466Y-76364066D02*
G01*
X114303894Y-76590186D01*
X114274600Y-76644991D01*
X114245306Y-76590186D01*
X114133541Y-76454000D01*
X114151224Y-76454000D01*
X114337698Y-76416908D01*
X114513354Y-76344149D01*
X114515404Y-76342779D01*
X114489466Y-76364066D01*
X114489466Y-76364066D01*
G37*
X114489466Y-76364066D02*
X114303894Y-76590186D01*
X114274600Y-76644991D01*
X114245306Y-76590186D01*
X114133541Y-76454000D01*
X114151224Y-76454000D01*
X114337698Y-76416908D01*
X114513354Y-76344149D01*
X114515404Y-76342779D01*
X114489466Y-76364066D01*
G36*
X131956851Y-69763147D02*
G01*
X132122275Y-69813328D01*
X132294310Y-69830272D01*
X132868536Y-69830272D01*
X132882533Y-69847327D01*
X132909664Y-69869593D01*
X132909668Y-69869597D01*
X132973179Y-69921719D01*
X132990827Y-69936202D01*
X133034171Y-69959370D01*
X133166521Y-70091720D01*
X133324606Y-70197349D01*
X133500262Y-70270108D01*
X133686736Y-70307200D01*
X133876864Y-70307200D01*
X134063338Y-70270108D01*
X134238994Y-70197349D01*
X134397079Y-70091720D01*
X134531520Y-69957279D01*
X134626566Y-69815032D01*
X135025191Y-69815032D01*
X135048344Y-69834033D01*
X135048348Y-69834037D01*
X135101076Y-69877309D01*
X135129507Y-69900642D01*
X135253059Y-69966682D01*
X135374474Y-70003513D01*
X135427121Y-70056160D01*
X135585206Y-70161789D01*
X135760862Y-70234548D01*
X135947336Y-70271640D01*
X136137464Y-70271640D01*
X136323938Y-70234548D01*
X136474600Y-70172142D01*
X136474600Y-75938407D01*
X136407161Y-75599366D01*
X136265066Y-75256318D01*
X136058775Y-74947582D01*
X135796218Y-74685025D01*
X135487482Y-74478734D01*
X135144434Y-74336639D01*
X134780256Y-74264200D01*
X134408944Y-74264200D01*
X134044766Y-74336639D01*
X133701718Y-74478734D01*
X133472512Y-74631885D01*
X133472512Y-74199332D01*
X133629394Y-74134349D01*
X133787479Y-74028720D01*
X133921920Y-73894279D01*
X134027549Y-73736194D01*
X134100308Y-73560538D01*
X134137400Y-73374064D01*
X134137400Y-73183936D01*
X134100308Y-72997462D01*
X134027549Y-72821806D01*
X133921920Y-72663721D01*
X133787479Y-72529280D01*
X133629394Y-72423651D01*
X133453738Y-72350892D01*
X133399092Y-72340022D01*
X133399092Y-71867710D01*
X133382148Y-71695675D01*
X133331967Y-71530251D01*
X133250478Y-71377796D01*
X133140812Y-71244168D01*
X133007184Y-71134502D01*
X132854729Y-71053013D01*
X132842000Y-71049152D01*
X132842000Y-70923336D01*
X132804908Y-70736862D01*
X132732149Y-70561206D01*
X132626520Y-70403121D01*
X132492079Y-70268680D01*
X132333994Y-70163051D01*
X132158338Y-70090292D01*
X131971864Y-70053200D01*
X131781736Y-70053200D01*
X131595262Y-70090292D01*
X131419606Y-70163051D01*
X131261521Y-70268680D01*
X131127080Y-70403121D01*
X131021451Y-70561206D01*
X130948692Y-70736862D01*
X130911600Y-70923336D01*
X130911600Y-71032346D01*
X130814305Y-71002832D01*
X130642270Y-70985888D01*
X130354780Y-70985888D01*
X131419549Y-69921120D01*
X131474024Y-69921120D01*
X131660498Y-69884028D01*
X131836154Y-69811269D01*
X131929807Y-69748692D01*
X131956851Y-69763147D01*
X131956851Y-69763147D01*
G37*
X131956851Y-69763147D02*
X132122275Y-69813328D01*
X132294310Y-69830272D01*
X132868536Y-69830272D01*
X132882533Y-69847327D01*
X132909664Y-69869593D01*
X132909668Y-69869597D01*
X132973179Y-69921719D01*
X132990827Y-69936202D01*
X133034171Y-69959370D01*
X133166521Y-70091720D01*
X133324606Y-70197349D01*
X133500262Y-70270108D01*
X133686736Y-70307200D01*
X133876864Y-70307200D01*
X134063338Y-70270108D01*
X134238994Y-70197349D01*
X134397079Y-70091720D01*
X134531520Y-69957279D01*
X134626566Y-69815032D01*
X135025191Y-69815032D01*
X135048344Y-69834033D01*
X135048348Y-69834037D01*
X135101076Y-69877309D01*
X135129507Y-69900642D01*
X135253059Y-69966682D01*
X135374474Y-70003513D01*
X135427121Y-70056160D01*
X135585206Y-70161789D01*
X135760862Y-70234548D01*
X135947336Y-70271640D01*
X136137464Y-70271640D01*
X136323938Y-70234548D01*
X136474600Y-70172142D01*
X136474600Y-75938407D01*
X136407161Y-75599366D01*
X136265066Y-75256318D01*
X136058775Y-74947582D01*
X135796218Y-74685025D01*
X135487482Y-74478734D01*
X135144434Y-74336639D01*
X134780256Y-74264200D01*
X134408944Y-74264200D01*
X134044766Y-74336639D01*
X133701718Y-74478734D01*
X133472512Y-74631885D01*
X133472512Y-74199332D01*
X133629394Y-74134349D01*
X133787479Y-74028720D01*
X133921920Y-73894279D01*
X134027549Y-73736194D01*
X134100308Y-73560538D01*
X134137400Y-73374064D01*
X134137400Y-73183936D01*
X134100308Y-72997462D01*
X134027549Y-72821806D01*
X133921920Y-72663721D01*
X133787479Y-72529280D01*
X133629394Y-72423651D01*
X133453738Y-72350892D01*
X133399092Y-72340022D01*
X133399092Y-71867710D01*
X133382148Y-71695675D01*
X133331967Y-71530251D01*
X133250478Y-71377796D01*
X133140812Y-71244168D01*
X133007184Y-71134502D01*
X132854729Y-71053013D01*
X132842000Y-71049152D01*
X132842000Y-70923336D01*
X132804908Y-70736862D01*
X132732149Y-70561206D01*
X132626520Y-70403121D01*
X132492079Y-70268680D01*
X132333994Y-70163051D01*
X132158338Y-70090292D01*
X131971864Y-70053200D01*
X131781736Y-70053200D01*
X131595262Y-70090292D01*
X131419606Y-70163051D01*
X131261521Y-70268680D01*
X131127080Y-70403121D01*
X131021451Y-70561206D01*
X130948692Y-70736862D01*
X130911600Y-70923336D01*
X130911600Y-71032346D01*
X130814305Y-71002832D01*
X130642270Y-70985888D01*
X130354780Y-70985888D01*
X131419549Y-69921120D01*
X131474024Y-69921120D01*
X131660498Y-69884028D01*
X131836154Y-69811269D01*
X131929807Y-69748692D01*
X131956851Y-69763147D01*
M02*
