G04 #@! TF.GenerationSoftware,KiCad,Pcbnew,(5.1.4)-1*
G04 #@! TF.CreationDate,2019-12-30T09:54:18-05:00*
G04 #@! TF.ProjectId,Feather-SAM-M8Q-GPS,46656174-6865-4722-9d53-414d2d4d3851,rev?*
G04 #@! TF.SameCoordinates,Original*
G04 #@! TF.FileFunction,Copper,L2,Bot*
G04 #@! TF.FilePolarity,Positive*
%FSLAX46Y46*%
G04 Gerber Fmt 4.6, Leading zero omitted, Abs format (unit mm)*
G04 Created by KiCad (PCBNEW (5.1.4)-1) date 2019-12-30 09:54:18*
%MOMM*%
%LPD*%
G04 APERTURE LIST*
%ADD10C,0.100000*%
%ADD11O,1.700000X1.700000*%
%ADD12R,1.700000X1.700000*%
%ADD13C,1.676400*%
%ADD14C,0.500000*%
%ADD15C,3.800000*%
%ADD16C,0.660400*%
%ADD17C,0.508000*%
%ADD18C,0.152400*%
%ADD19C,0.254000*%
G04 APERTURE END LIST*
D10*
G36*
X128798600Y-59795600D02*
G01*
X128798600Y-60295600D01*
X128198600Y-60295600D01*
X128198600Y-59795600D01*
X128798600Y-59795600D01*
G37*
G36*
X130957600Y-59795600D02*
G01*
X130957600Y-60295600D01*
X130357600Y-60295600D01*
X130357600Y-59795600D01*
X130957600Y-59795600D01*
G37*
G36*
X100522200Y-63809600D02*
G01*
X101022200Y-63809600D01*
X101022200Y-64409600D01*
X100522200Y-64409600D01*
X100522200Y-63809600D01*
G37*
G36*
X100522200Y-61676000D02*
G01*
X101022200Y-61676000D01*
X101022200Y-62276000D01*
X100522200Y-62276000D01*
X100522200Y-61676000D01*
G37*
D11*
X130784600Y-77419200D03*
X128244600Y-77419200D03*
X125704600Y-77419200D03*
X123164600Y-77419200D03*
X120624600Y-77419200D03*
X118084600Y-77419200D03*
X115544600Y-77419200D03*
X113004600Y-77419200D03*
X110464600Y-77419200D03*
X107924600Y-77419200D03*
X105384600Y-77419200D03*
X102844600Y-77419200D03*
X100304600Y-77419200D03*
X97764600Y-77419200D03*
X95224600Y-77419200D03*
D12*
X92684600Y-77419200D03*
D11*
X130784600Y-57099200D03*
X128244600Y-57099200D03*
X125704600Y-57099200D03*
X123164600Y-57099200D03*
X120624600Y-57099200D03*
X118084600Y-57099200D03*
X115544600Y-57099200D03*
X113004600Y-57099200D03*
X110464600Y-57099200D03*
X107924600Y-57099200D03*
X105384600Y-57099200D03*
D12*
X102844600Y-57099200D03*
D13*
X105016300Y-67767200D03*
X105016300Y-65227200D03*
X105016300Y-70307200D03*
X91313000Y-63601600D03*
X91313000Y-66141600D03*
D14*
X128498600Y-60695600D03*
D10*
G36*
X129248600Y-60195600D02*
G01*
X129248600Y-60695600D01*
X129247998Y-60695600D01*
X129247998Y-60720134D01*
X129243188Y-60768965D01*
X129233616Y-60817090D01*
X129219372Y-60864045D01*
X129200595Y-60909378D01*
X129177464Y-60952651D01*
X129150204Y-60993450D01*
X129119076Y-61031379D01*
X129084379Y-61066076D01*
X129046450Y-61097204D01*
X129005651Y-61124464D01*
X128962378Y-61147595D01*
X128917045Y-61166372D01*
X128870090Y-61180616D01*
X128821965Y-61190188D01*
X128773134Y-61194998D01*
X128748600Y-61194998D01*
X128748600Y-61195600D01*
X128248600Y-61195600D01*
X128248600Y-61194998D01*
X128224066Y-61194998D01*
X128175235Y-61190188D01*
X128127110Y-61180616D01*
X128080155Y-61166372D01*
X128034822Y-61147595D01*
X127991549Y-61124464D01*
X127950750Y-61097204D01*
X127912821Y-61066076D01*
X127878124Y-61031379D01*
X127846996Y-60993450D01*
X127819736Y-60952651D01*
X127796605Y-60909378D01*
X127777828Y-60864045D01*
X127763584Y-60817090D01*
X127754012Y-60768965D01*
X127749202Y-60720134D01*
X127749202Y-60695600D01*
X127748600Y-60695600D01*
X127748600Y-60195600D01*
X129248600Y-60195600D01*
X129248600Y-60195600D01*
G37*
D14*
X128498600Y-59395600D03*
D10*
G36*
X127749202Y-59395600D02*
G01*
X127749202Y-59371066D01*
X127754012Y-59322235D01*
X127763584Y-59274110D01*
X127777828Y-59227155D01*
X127796605Y-59181822D01*
X127819736Y-59138549D01*
X127846996Y-59097750D01*
X127878124Y-59059821D01*
X127912821Y-59025124D01*
X127950750Y-58993996D01*
X127991549Y-58966736D01*
X128034822Y-58943605D01*
X128080155Y-58924828D01*
X128127110Y-58910584D01*
X128175235Y-58901012D01*
X128224066Y-58896202D01*
X128248600Y-58896202D01*
X128248600Y-58895600D01*
X128748600Y-58895600D01*
X128748600Y-58896202D01*
X128773134Y-58896202D01*
X128821965Y-58901012D01*
X128870090Y-58910584D01*
X128917045Y-58924828D01*
X128962378Y-58943605D01*
X129005651Y-58966736D01*
X129046450Y-58993996D01*
X129084379Y-59025124D01*
X129119076Y-59059821D01*
X129150204Y-59097750D01*
X129177464Y-59138549D01*
X129200595Y-59181822D01*
X129219372Y-59227155D01*
X129233616Y-59274110D01*
X129243188Y-59322235D01*
X129247998Y-59371066D01*
X129247998Y-59395600D01*
X129248600Y-59395600D01*
X129248600Y-59895600D01*
X127748600Y-59895600D01*
X127748600Y-59395600D01*
X127749202Y-59395600D01*
X127749202Y-59395600D01*
G37*
D14*
X130657600Y-60695600D03*
D10*
G36*
X131407600Y-60195600D02*
G01*
X131407600Y-60695600D01*
X131406998Y-60695600D01*
X131406998Y-60720134D01*
X131402188Y-60768965D01*
X131392616Y-60817090D01*
X131378372Y-60864045D01*
X131359595Y-60909378D01*
X131336464Y-60952651D01*
X131309204Y-60993450D01*
X131278076Y-61031379D01*
X131243379Y-61066076D01*
X131205450Y-61097204D01*
X131164651Y-61124464D01*
X131121378Y-61147595D01*
X131076045Y-61166372D01*
X131029090Y-61180616D01*
X130980965Y-61190188D01*
X130932134Y-61194998D01*
X130907600Y-61194998D01*
X130907600Y-61195600D01*
X130407600Y-61195600D01*
X130407600Y-61194998D01*
X130383066Y-61194998D01*
X130334235Y-61190188D01*
X130286110Y-61180616D01*
X130239155Y-61166372D01*
X130193822Y-61147595D01*
X130150549Y-61124464D01*
X130109750Y-61097204D01*
X130071821Y-61066076D01*
X130037124Y-61031379D01*
X130005996Y-60993450D01*
X129978736Y-60952651D01*
X129955605Y-60909378D01*
X129936828Y-60864045D01*
X129922584Y-60817090D01*
X129913012Y-60768965D01*
X129908202Y-60720134D01*
X129908202Y-60695600D01*
X129907600Y-60695600D01*
X129907600Y-60195600D01*
X131407600Y-60195600D01*
X131407600Y-60195600D01*
G37*
D14*
X130657600Y-59395600D03*
D10*
G36*
X129908202Y-59395600D02*
G01*
X129908202Y-59371066D01*
X129913012Y-59322235D01*
X129922584Y-59274110D01*
X129936828Y-59227155D01*
X129955605Y-59181822D01*
X129978736Y-59138549D01*
X130005996Y-59097750D01*
X130037124Y-59059821D01*
X130071821Y-59025124D01*
X130109750Y-58993996D01*
X130150549Y-58966736D01*
X130193822Y-58943605D01*
X130239155Y-58924828D01*
X130286110Y-58910584D01*
X130334235Y-58901012D01*
X130383066Y-58896202D01*
X130407600Y-58896202D01*
X130407600Y-58895600D01*
X130907600Y-58895600D01*
X130907600Y-58896202D01*
X130932134Y-58896202D01*
X130980965Y-58901012D01*
X131029090Y-58910584D01*
X131076045Y-58924828D01*
X131121378Y-58943605D01*
X131164651Y-58966736D01*
X131205450Y-58993996D01*
X131243379Y-59025124D01*
X131278076Y-59059821D01*
X131309204Y-59097750D01*
X131336464Y-59138549D01*
X131359595Y-59181822D01*
X131378372Y-59227155D01*
X131392616Y-59274110D01*
X131402188Y-59322235D01*
X131406998Y-59371066D01*
X131406998Y-59395600D01*
X131407600Y-59395600D01*
X131407600Y-59895600D01*
X129907600Y-59895600D01*
X129907600Y-59395600D01*
X129908202Y-59395600D01*
X129908202Y-59395600D01*
G37*
D13*
X91313000Y-71221600D03*
X91313000Y-68681600D03*
D15*
X88874600Y-58369200D03*
X88874600Y-76149200D03*
D14*
X106921300Y-72387700D03*
D10*
G36*
X106171300Y-72887700D02*
G01*
X106171300Y-72387700D01*
X106171902Y-72387700D01*
X106171902Y-72363166D01*
X106176712Y-72314335D01*
X106186284Y-72266210D01*
X106200528Y-72219255D01*
X106219305Y-72173922D01*
X106242436Y-72130649D01*
X106269696Y-72089850D01*
X106300824Y-72051921D01*
X106335521Y-72017224D01*
X106373450Y-71986096D01*
X106414249Y-71958836D01*
X106457522Y-71935705D01*
X106502855Y-71916928D01*
X106549810Y-71902684D01*
X106597935Y-71893112D01*
X106646766Y-71888302D01*
X106671300Y-71888302D01*
X106671300Y-71887700D01*
X107171300Y-71887700D01*
X107171300Y-71888302D01*
X107195834Y-71888302D01*
X107244665Y-71893112D01*
X107292790Y-71902684D01*
X107339745Y-71916928D01*
X107385078Y-71935705D01*
X107428351Y-71958836D01*
X107469150Y-71986096D01*
X107507079Y-72017224D01*
X107541776Y-72051921D01*
X107572904Y-72089850D01*
X107600164Y-72130649D01*
X107623295Y-72173922D01*
X107642072Y-72219255D01*
X107656316Y-72266210D01*
X107665888Y-72314335D01*
X107670698Y-72363166D01*
X107670698Y-72387700D01*
X107671300Y-72387700D01*
X107671300Y-72887700D01*
X106171300Y-72887700D01*
X106171300Y-72887700D01*
G37*
D14*
X106921300Y-73687700D03*
D10*
G36*
X107670698Y-73687700D02*
G01*
X107670698Y-73712234D01*
X107665888Y-73761065D01*
X107656316Y-73809190D01*
X107642072Y-73856145D01*
X107623295Y-73901478D01*
X107600164Y-73944751D01*
X107572904Y-73985550D01*
X107541776Y-74023479D01*
X107507079Y-74058176D01*
X107469150Y-74089304D01*
X107428351Y-74116564D01*
X107385078Y-74139695D01*
X107339745Y-74158472D01*
X107292790Y-74172716D01*
X107244665Y-74182288D01*
X107195834Y-74187098D01*
X107171300Y-74187098D01*
X107171300Y-74187700D01*
X106671300Y-74187700D01*
X106671300Y-74187098D01*
X106646766Y-74187098D01*
X106597935Y-74182288D01*
X106549810Y-74172716D01*
X106502855Y-74158472D01*
X106457522Y-74139695D01*
X106414249Y-74116564D01*
X106373450Y-74089304D01*
X106335521Y-74058176D01*
X106300824Y-74023479D01*
X106269696Y-73985550D01*
X106242436Y-73944751D01*
X106219305Y-73901478D01*
X106200528Y-73856145D01*
X106186284Y-73809190D01*
X106176712Y-73761065D01*
X106171902Y-73712234D01*
X106171902Y-73687700D01*
X106171300Y-73687700D01*
X106171300Y-73187700D01*
X107671300Y-73187700D01*
X107671300Y-73687700D01*
X107670698Y-73687700D01*
X107670698Y-73687700D01*
G37*
D14*
X109080300Y-72400400D03*
D10*
G36*
X108330300Y-72900400D02*
G01*
X108330300Y-72400400D01*
X108330902Y-72400400D01*
X108330902Y-72375866D01*
X108335712Y-72327035D01*
X108345284Y-72278910D01*
X108359528Y-72231955D01*
X108378305Y-72186622D01*
X108401436Y-72143349D01*
X108428696Y-72102550D01*
X108459824Y-72064621D01*
X108494521Y-72029924D01*
X108532450Y-71998796D01*
X108573249Y-71971536D01*
X108616522Y-71948405D01*
X108661855Y-71929628D01*
X108708810Y-71915384D01*
X108756935Y-71905812D01*
X108805766Y-71901002D01*
X108830300Y-71901002D01*
X108830300Y-71900400D01*
X109330300Y-71900400D01*
X109330300Y-71901002D01*
X109354834Y-71901002D01*
X109403665Y-71905812D01*
X109451790Y-71915384D01*
X109498745Y-71929628D01*
X109544078Y-71948405D01*
X109587351Y-71971536D01*
X109628150Y-71998796D01*
X109666079Y-72029924D01*
X109700776Y-72064621D01*
X109731904Y-72102550D01*
X109759164Y-72143349D01*
X109782295Y-72186622D01*
X109801072Y-72231955D01*
X109815316Y-72278910D01*
X109824888Y-72327035D01*
X109829698Y-72375866D01*
X109829698Y-72400400D01*
X109830300Y-72400400D01*
X109830300Y-72900400D01*
X108330300Y-72900400D01*
X108330300Y-72900400D01*
G37*
D14*
X109080300Y-73700400D03*
D10*
G36*
X109829698Y-73700400D02*
G01*
X109829698Y-73724934D01*
X109824888Y-73773765D01*
X109815316Y-73821890D01*
X109801072Y-73868845D01*
X109782295Y-73914178D01*
X109759164Y-73957451D01*
X109731904Y-73998250D01*
X109700776Y-74036179D01*
X109666079Y-74070876D01*
X109628150Y-74102004D01*
X109587351Y-74129264D01*
X109544078Y-74152395D01*
X109498745Y-74171172D01*
X109451790Y-74185416D01*
X109403665Y-74194988D01*
X109354834Y-74199798D01*
X109330300Y-74199798D01*
X109330300Y-74200400D01*
X108830300Y-74200400D01*
X108830300Y-74199798D01*
X108805766Y-74199798D01*
X108756935Y-74194988D01*
X108708810Y-74185416D01*
X108661855Y-74171172D01*
X108616522Y-74152395D01*
X108573249Y-74129264D01*
X108532450Y-74102004D01*
X108494521Y-74070876D01*
X108459824Y-74036179D01*
X108428696Y-73998250D01*
X108401436Y-73957451D01*
X108378305Y-73914178D01*
X108359528Y-73868845D01*
X108345284Y-73821890D01*
X108335712Y-73773765D01*
X108330902Y-73724934D01*
X108330902Y-73700400D01*
X108330300Y-73700400D01*
X108330300Y-73200400D01*
X109830300Y-73200400D01*
X109830300Y-73700400D01*
X109829698Y-73700400D01*
X109829698Y-73700400D01*
G37*
D14*
X101422200Y-64109600D03*
D10*
G36*
X100922200Y-63359600D02*
G01*
X101422200Y-63359600D01*
X101422200Y-63360202D01*
X101446734Y-63360202D01*
X101495565Y-63365012D01*
X101543690Y-63374584D01*
X101590645Y-63388828D01*
X101635978Y-63407605D01*
X101679251Y-63430736D01*
X101720050Y-63457996D01*
X101757979Y-63489124D01*
X101792676Y-63523821D01*
X101823804Y-63561750D01*
X101851064Y-63602549D01*
X101874195Y-63645822D01*
X101892972Y-63691155D01*
X101907216Y-63738110D01*
X101916788Y-63786235D01*
X101921598Y-63835066D01*
X101921598Y-63859600D01*
X101922200Y-63859600D01*
X101922200Y-64359600D01*
X101921598Y-64359600D01*
X101921598Y-64384134D01*
X101916788Y-64432965D01*
X101907216Y-64481090D01*
X101892972Y-64528045D01*
X101874195Y-64573378D01*
X101851064Y-64616651D01*
X101823804Y-64657450D01*
X101792676Y-64695379D01*
X101757979Y-64730076D01*
X101720050Y-64761204D01*
X101679251Y-64788464D01*
X101635978Y-64811595D01*
X101590645Y-64830372D01*
X101543690Y-64844616D01*
X101495565Y-64854188D01*
X101446734Y-64858998D01*
X101422200Y-64858998D01*
X101422200Y-64859600D01*
X100922200Y-64859600D01*
X100922200Y-63359600D01*
X100922200Y-63359600D01*
G37*
D14*
X100122200Y-64109600D03*
D10*
G36*
X100122200Y-64858998D02*
G01*
X100097666Y-64858998D01*
X100048835Y-64854188D01*
X100000710Y-64844616D01*
X99953755Y-64830372D01*
X99908422Y-64811595D01*
X99865149Y-64788464D01*
X99824350Y-64761204D01*
X99786421Y-64730076D01*
X99751724Y-64695379D01*
X99720596Y-64657450D01*
X99693336Y-64616651D01*
X99670205Y-64573378D01*
X99651428Y-64528045D01*
X99637184Y-64481090D01*
X99627612Y-64432965D01*
X99622802Y-64384134D01*
X99622802Y-64359600D01*
X99622200Y-64359600D01*
X99622200Y-63859600D01*
X99622802Y-63859600D01*
X99622802Y-63835066D01*
X99627612Y-63786235D01*
X99637184Y-63738110D01*
X99651428Y-63691155D01*
X99670205Y-63645822D01*
X99693336Y-63602549D01*
X99720596Y-63561750D01*
X99751724Y-63523821D01*
X99786421Y-63489124D01*
X99824350Y-63457996D01*
X99865149Y-63430736D01*
X99908422Y-63407605D01*
X99953755Y-63388828D01*
X100000710Y-63374584D01*
X100048835Y-63365012D01*
X100097666Y-63360202D01*
X100122200Y-63360202D01*
X100122200Y-63359600D01*
X100622200Y-63359600D01*
X100622200Y-64859600D01*
X100122200Y-64859600D01*
X100122200Y-64858998D01*
X100122200Y-64858998D01*
G37*
D14*
X101422200Y-61976000D03*
D10*
G36*
X100922200Y-61226000D02*
G01*
X101422200Y-61226000D01*
X101422200Y-61226602D01*
X101446734Y-61226602D01*
X101495565Y-61231412D01*
X101543690Y-61240984D01*
X101590645Y-61255228D01*
X101635978Y-61274005D01*
X101679251Y-61297136D01*
X101720050Y-61324396D01*
X101757979Y-61355524D01*
X101792676Y-61390221D01*
X101823804Y-61428150D01*
X101851064Y-61468949D01*
X101874195Y-61512222D01*
X101892972Y-61557555D01*
X101907216Y-61604510D01*
X101916788Y-61652635D01*
X101921598Y-61701466D01*
X101921598Y-61726000D01*
X101922200Y-61726000D01*
X101922200Y-62226000D01*
X101921598Y-62226000D01*
X101921598Y-62250534D01*
X101916788Y-62299365D01*
X101907216Y-62347490D01*
X101892972Y-62394445D01*
X101874195Y-62439778D01*
X101851064Y-62483051D01*
X101823804Y-62523850D01*
X101792676Y-62561779D01*
X101757979Y-62596476D01*
X101720050Y-62627604D01*
X101679251Y-62654864D01*
X101635978Y-62677995D01*
X101590645Y-62696772D01*
X101543690Y-62711016D01*
X101495565Y-62720588D01*
X101446734Y-62725398D01*
X101422200Y-62725398D01*
X101422200Y-62726000D01*
X100922200Y-62726000D01*
X100922200Y-61226000D01*
X100922200Y-61226000D01*
G37*
D14*
X100122200Y-61976000D03*
D10*
G36*
X100122200Y-62725398D02*
G01*
X100097666Y-62725398D01*
X100048835Y-62720588D01*
X100000710Y-62711016D01*
X99953755Y-62696772D01*
X99908422Y-62677995D01*
X99865149Y-62654864D01*
X99824350Y-62627604D01*
X99786421Y-62596476D01*
X99751724Y-62561779D01*
X99720596Y-62523850D01*
X99693336Y-62483051D01*
X99670205Y-62439778D01*
X99651428Y-62394445D01*
X99637184Y-62347490D01*
X99627612Y-62299365D01*
X99622802Y-62250534D01*
X99622802Y-62226000D01*
X99622200Y-62226000D01*
X99622200Y-61726000D01*
X99622802Y-61726000D01*
X99622802Y-61701466D01*
X99627612Y-61652635D01*
X99637184Y-61604510D01*
X99651428Y-61557555D01*
X99670205Y-61512222D01*
X99693336Y-61468949D01*
X99720596Y-61428150D01*
X99751724Y-61390221D01*
X99786421Y-61355524D01*
X99824350Y-61324396D01*
X99865149Y-61297136D01*
X99908422Y-61274005D01*
X99953755Y-61255228D01*
X100000710Y-61240984D01*
X100048835Y-61231412D01*
X100097666Y-61226602D01*
X100122200Y-61226602D01*
X100122200Y-61226000D01*
X100622200Y-61226000D01*
X100622200Y-62726000D01*
X100122200Y-62726000D01*
X100122200Y-62725398D01*
X100122200Y-62725398D01*
G37*
D16*
X95237300Y-66230500D03*
X95237300Y-71437500D03*
X97028000Y-71412100D03*
X97028000Y-66230500D03*
X92113100Y-56781700D03*
X96583500Y-56781700D03*
X101053900Y-56781700D03*
X88188800Y-71361300D03*
X88188800Y-66890900D03*
X88188800Y-62420500D03*
X102831900Y-60629800D03*
X98615500Y-61429900D03*
X96316800Y-63220600D03*
X93941900Y-62064900D03*
X93535500Y-64414400D03*
X90957400Y-61188600D03*
X105054400Y-59194700D03*
X106972100Y-59207400D03*
X108343700Y-59207400D03*
X103987600Y-59563000D03*
X99352100Y-74980800D03*
X97586800Y-74955400D03*
X95161100Y-75374500D03*
X94538800Y-71907400D03*
X93116400Y-71793100D03*
X87223600Y-73761600D03*
X114706400Y-62115700D03*
X116586000Y-62115700D03*
X118465600Y-62115700D03*
X120345200Y-62115700D03*
X122224800Y-62115700D03*
X124104400Y-62115700D03*
X112699800Y-72313800D03*
X114160300Y-73355200D03*
X114058700Y-72301100D03*
X122732800Y-75018900D03*
X124828300Y-74980800D03*
X126911100Y-74955400D03*
X126936500Y-72263000D03*
X124980700Y-72237600D03*
X125907800Y-73507600D03*
X124955300Y-59766200D03*
X126860300Y-59867800D03*
X126771400Y-61099700D03*
X125031500Y-61188600D03*
X133210300Y-56718200D03*
X132372100Y-58204100D03*
X132372100Y-59448700D03*
X136207500Y-59956700D03*
X136207500Y-61961485D03*
X136207500Y-63966270D03*
X136207500Y-65971055D03*
X136207500Y-67975840D03*
X136207500Y-69980625D03*
X136207500Y-71985410D03*
X136207500Y-73990200D03*
X127927100Y-63030100D03*
X128435100Y-64033400D03*
X130035300Y-66382900D03*
X131940300Y-66395600D03*
X134277100Y-66370200D03*
X134251700Y-63792100D03*
X134327900Y-61874400D03*
X132740400Y-60833000D03*
X132346700Y-62560200D03*
X129971800Y-63246000D03*
X132232400Y-63792100D03*
X130695700Y-64643000D03*
X133032500Y-65087500D03*
X129222500Y-72618600D03*
X130238500Y-72732900D03*
X131356100Y-72745600D03*
X132854700Y-72821800D03*
X134594600Y-72821800D03*
X133896100Y-73926700D03*
X132499100Y-75298300D03*
X129413000Y-76009500D03*
X130797300Y-75869800D03*
X132448300Y-76327000D03*
X132575300Y-77584300D03*
X114706400Y-63985140D03*
X114706400Y-65854580D03*
X114706400Y-67724020D03*
X114706400Y-69593460D03*
X114706400Y-71462900D03*
X124104400Y-63985140D03*
X124104400Y-65854580D03*
X124104400Y-67724020D03*
X124104400Y-69593460D03*
X124104400Y-71462900D03*
X116586000Y-71462900D03*
X118465600Y-71462900D03*
X120345200Y-71462900D03*
X122224800Y-71462900D03*
X116586000Y-63985140D03*
X116586000Y-65854580D03*
X116586000Y-67724020D03*
X116586000Y-69593460D03*
X118465600Y-69593460D03*
X118465600Y-67724020D03*
X118465600Y-65854580D03*
X118465600Y-63985140D03*
X120345200Y-63985140D03*
X120345200Y-65854580D03*
X120345200Y-67724020D03*
X120345200Y-69593460D03*
X122224800Y-69593460D03*
X122224800Y-67724020D03*
X122224800Y-65854580D03*
X122224800Y-63985140D03*
X98577400Y-64693800D03*
X98209100Y-65887600D03*
X94259400Y-58178700D03*
X99237800Y-58115200D03*
X96583500Y-61455300D03*
X114020600Y-61264800D03*
X90131900Y-64833500D03*
X90131900Y-67398900D03*
X90119200Y-69938900D03*
X90220800Y-72631300D03*
X91567000Y-74472800D03*
X92862400Y-75361800D03*
X98933000Y-63042800D03*
X104444800Y-60782200D03*
X104470200Y-62738000D03*
X115265200Y-75260200D03*
X121437400Y-75133200D03*
X111086900Y-72199500D03*
X116649500Y-74853800D03*
X119507000Y-74879200D03*
X109969300Y-67297300D03*
X112674400Y-60121800D03*
X112674400Y-60121800D03*
X112687100Y-61404500D03*
X107569000Y-70789800D03*
X97942400Y-70573900D03*
X94526100Y-70586600D03*
X107569000Y-68884800D03*
X97942400Y-69579066D03*
X94526100Y-69591766D03*
X130657600Y-61899800D03*
X97942400Y-67589400D03*
X94526100Y-67602100D03*
X122034300Y-58013600D03*
X112737900Y-58839100D03*
X128498600Y-61899800D03*
X97942400Y-68584233D03*
X94526100Y-68596933D03*
X122351800Y-58839100D03*
X107365800Y-63982600D03*
X111798100Y-59588400D03*
D17*
X99055400Y-63042800D02*
X100122200Y-61976000D01*
X98933000Y-63042800D02*
X99055400Y-63042800D01*
X99060000Y-63042800D02*
X99055400Y-63042800D01*
X99597426Y-63580226D02*
X99060000Y-63042800D01*
X100122200Y-64109600D02*
X99597426Y-63584826D01*
X99597426Y-63584826D02*
X99597426Y-63580226D01*
X103251000Y-61976000D02*
X104444800Y-60782200D01*
X101422200Y-61976000D02*
X103251000Y-61976000D01*
X102793800Y-62738000D02*
X101422200Y-64109600D01*
X104470200Y-62738000D02*
X102793800Y-62738000D01*
D18*
X130657600Y-57226200D02*
X130784600Y-57099200D01*
X130657600Y-59395600D02*
X130657600Y-57226200D01*
X128244600Y-59141600D02*
X128498600Y-59395600D01*
X128244600Y-57099200D02*
X128244600Y-59141600D01*
X121437400Y-75133200D02*
X120175874Y-75133200D01*
X119823473Y-75485601D02*
X119866837Y-75442237D01*
X115265200Y-75260200D02*
X116158426Y-75260200D01*
X116158426Y-75260200D02*
X116361626Y-75463400D01*
X119215927Y-75485601D02*
X119823473Y-75485601D01*
X120175874Y-75133200D02*
X119866837Y-75442237D01*
X116361626Y-75463400D02*
X119193726Y-75463400D01*
X119193726Y-75463400D02*
X119215927Y-75485601D01*
X110756701Y-71869301D02*
X110312201Y-71869301D01*
X111086900Y-72199500D02*
X110756701Y-71869301D01*
X110312201Y-71869301D02*
X109943900Y-71501000D01*
X109969300Y-71475600D02*
X109969300Y-67297300D01*
X109943900Y-71501000D02*
X109969300Y-71475600D01*
X116674900Y-74879200D02*
X116649500Y-74853800D01*
X119507000Y-74879200D02*
X116674900Y-74879200D01*
X112674400Y-61391800D02*
X112687100Y-61404500D01*
X112674400Y-60121800D02*
X112674400Y-61391800D01*
X107446074Y-74212474D02*
X106921300Y-73687700D01*
X109452611Y-76219011D02*
X107446074Y-74212474D01*
X124504411Y-76219011D02*
X109452611Y-76219011D01*
X125704600Y-77419200D02*
X124504411Y-76219011D01*
X127394601Y-76569201D02*
X128244600Y-77419200D01*
X126692001Y-75866601D02*
X127394601Y-76569201D01*
X111246501Y-75866601D02*
X126692001Y-75866601D01*
X109080300Y-73700400D02*
X111246501Y-75866601D01*
X94538800Y-70573900D02*
X94526100Y-70586600D01*
X97942400Y-70573900D02*
X94538800Y-70573900D01*
X109080300Y-72301100D02*
X109080300Y-72400400D01*
X107569000Y-70789800D02*
X109080300Y-72301100D01*
X97929700Y-69591766D02*
X97942400Y-69579066D01*
X94526100Y-69591766D02*
X97929700Y-69591766D01*
X106921300Y-71787700D02*
X106921300Y-72387700D01*
X106921300Y-70540026D02*
X106921300Y-71787700D01*
X107569000Y-69892326D02*
X106921300Y-70540026D01*
X107569000Y-68884800D02*
X107569000Y-69892326D01*
X130657600Y-61899800D02*
X130657600Y-60695600D01*
X113090310Y-58486690D02*
X112737900Y-58839100D01*
X121094237Y-58486690D02*
X113090310Y-58486690D01*
X122034300Y-58013600D02*
X121567327Y-58013600D01*
X121567327Y-58013600D02*
X121094237Y-58486690D01*
X97929700Y-67602100D02*
X97942400Y-67589400D01*
X94526100Y-67602100D02*
X97929700Y-67602100D01*
X128498600Y-61899800D02*
X128498600Y-60695600D01*
X122351800Y-58839100D02*
X113944400Y-58839100D01*
X113635374Y-58839100D02*
X113944400Y-58839100D01*
X113028973Y-59445501D02*
X113635374Y-58839100D01*
X111798100Y-59588400D02*
X111940999Y-59445501D01*
X111940999Y-59445501D02*
X113028973Y-59445501D01*
X94538800Y-68584233D02*
X94526100Y-68596933D01*
X97942400Y-68584233D02*
X94538800Y-68584233D01*
D19*
G36*
X101356528Y-57949200D02*
G01*
X101368788Y-58073682D01*
X101405098Y-58193380D01*
X101464063Y-58303694D01*
X101543415Y-58400385D01*
X101640106Y-58479737D01*
X101750420Y-58538702D01*
X101870118Y-58575012D01*
X101994600Y-58587272D01*
X103694600Y-58587272D01*
X103819082Y-58575012D01*
X103938780Y-58538702D01*
X104049094Y-58479737D01*
X104145785Y-58400385D01*
X104225137Y-58303694D01*
X104284102Y-58193380D01*
X104304993Y-58124513D01*
X104329466Y-58154334D01*
X104555586Y-58339906D01*
X104813566Y-58477799D01*
X105093489Y-58562713D01*
X105311650Y-58584200D01*
X105457550Y-58584200D01*
X105675711Y-58562713D01*
X105955634Y-58477799D01*
X106213614Y-58339906D01*
X106439734Y-58154334D01*
X106625306Y-57928214D01*
X106654600Y-57873409D01*
X106683894Y-57928214D01*
X106869466Y-58154334D01*
X107095586Y-58339906D01*
X107353566Y-58477799D01*
X107633489Y-58562713D01*
X107851650Y-58584200D01*
X107997550Y-58584200D01*
X108215711Y-58562713D01*
X108495634Y-58477799D01*
X108753614Y-58339906D01*
X108979734Y-58154334D01*
X109165306Y-57928214D01*
X109194600Y-57873409D01*
X109223894Y-57928214D01*
X109409466Y-58154334D01*
X109635586Y-58339906D01*
X109893566Y-58477799D01*
X110173489Y-58562713D01*
X110391650Y-58584200D01*
X110537550Y-58584200D01*
X110755711Y-58562713D01*
X111035634Y-58477799D01*
X111293614Y-58339906D01*
X111519734Y-58154334D01*
X111705306Y-57928214D01*
X111734600Y-57873409D01*
X111763894Y-57928214D01*
X111949466Y-58154334D01*
X112008895Y-58203106D01*
X111988180Y-58223821D01*
X111882551Y-58381906D01*
X111809792Y-58557562D01*
X111796736Y-58623200D01*
X111703036Y-58623200D01*
X111516562Y-58660292D01*
X111340906Y-58733051D01*
X111182821Y-58838680D01*
X111048380Y-58973121D01*
X110942751Y-59131206D01*
X110869992Y-59306862D01*
X110832900Y-59493336D01*
X110832900Y-59683464D01*
X110869992Y-59869938D01*
X110942751Y-60045594D01*
X111048380Y-60203679D01*
X111182821Y-60338120D01*
X111340906Y-60443749D01*
X111516562Y-60516508D01*
X111703036Y-60553600D01*
X111808532Y-60553600D01*
X111819051Y-60578994D01*
X111924680Y-60737079D01*
X111957101Y-60769500D01*
X111937380Y-60789221D01*
X111831751Y-60947306D01*
X111758992Y-61122962D01*
X111721900Y-61309436D01*
X111721900Y-61499564D01*
X111758992Y-61686038D01*
X111831751Y-61861694D01*
X111937380Y-62019779D01*
X112071821Y-62154220D01*
X112229906Y-62259849D01*
X112405562Y-62332608D01*
X112592036Y-62369700D01*
X112782164Y-62369700D01*
X112968638Y-62332608D01*
X113144294Y-62259849D01*
X113302379Y-62154220D01*
X113436820Y-62019779D01*
X113542449Y-61861694D01*
X113615208Y-61686038D01*
X113652300Y-61499564D01*
X113652300Y-61309436D01*
X113615208Y-61122962D01*
X113542449Y-60947306D01*
X113436820Y-60789221D01*
X113404399Y-60756800D01*
X113424120Y-60737079D01*
X113529749Y-60578994D01*
X113602508Y-60403338D01*
X113639600Y-60216864D01*
X113639600Y-60026736D01*
X113608728Y-59871533D01*
X113929962Y-59550300D01*
X121698001Y-59550300D01*
X121736521Y-59588820D01*
X121894606Y-59694449D01*
X122070262Y-59767208D01*
X122256736Y-59804300D01*
X122446864Y-59804300D01*
X122633338Y-59767208D01*
X122808994Y-59694449D01*
X122967079Y-59588820D01*
X123101520Y-59454379D01*
X123207149Y-59296294D01*
X123279908Y-59120638D01*
X123317000Y-58934164D01*
X123317000Y-58744036D01*
X123284291Y-58579596D01*
X123455711Y-58562713D01*
X123735634Y-58477799D01*
X123993614Y-58339906D01*
X124219734Y-58154334D01*
X124405306Y-57928214D01*
X124434600Y-57873409D01*
X124463894Y-57928214D01*
X124649466Y-58154334D01*
X124875586Y-58339906D01*
X125133566Y-58477799D01*
X125413489Y-58562713D01*
X125631650Y-58584200D01*
X125777550Y-58584200D01*
X125995711Y-58562713D01*
X126275634Y-58477799D01*
X126533614Y-58339906D01*
X126759734Y-58154334D01*
X126945306Y-57928214D01*
X126974600Y-57873409D01*
X127003894Y-57928214D01*
X127189466Y-58154334D01*
X127415586Y-58339906D01*
X127533401Y-58402879D01*
X127533401Y-58514264D01*
X127480218Y-58557910D01*
X127410910Y-58627218D01*
X127331558Y-58723909D01*
X127277102Y-58805408D01*
X127218136Y-58915725D01*
X127180627Y-59006281D01*
X127144318Y-59125977D01*
X127125196Y-59222110D01*
X127112936Y-59346591D01*
X127112936Y-59371150D01*
X127110528Y-59395600D01*
X127110528Y-59895600D01*
X127122788Y-60020082D01*
X127130529Y-60045600D01*
X127122788Y-60071118D01*
X127110528Y-60195600D01*
X127110528Y-60695600D01*
X127112936Y-60720050D01*
X127112936Y-60744609D01*
X127125196Y-60869090D01*
X127144318Y-60965223D01*
X127180627Y-61084919D01*
X127218136Y-61175475D01*
X127277102Y-61285792D01*
X127331558Y-61367291D01*
X127410910Y-61463982D01*
X127480218Y-61533290D01*
X127573857Y-61610138D01*
X127570492Y-61618262D01*
X127533400Y-61804736D01*
X127533400Y-61994864D01*
X127570492Y-62181338D01*
X127643251Y-62356994D01*
X127748880Y-62515079D01*
X127883321Y-62649520D01*
X128041406Y-62755149D01*
X128217062Y-62827908D01*
X128403536Y-62865000D01*
X128593664Y-62865000D01*
X128780138Y-62827908D01*
X128955794Y-62755149D01*
X129113879Y-62649520D01*
X129248320Y-62515079D01*
X129353949Y-62356994D01*
X129426708Y-62181338D01*
X129463800Y-61994864D01*
X129463800Y-61804736D01*
X129426708Y-61618262D01*
X129423343Y-61610138D01*
X129516982Y-61533290D01*
X129578100Y-61472172D01*
X129639218Y-61533290D01*
X129732857Y-61610138D01*
X129729492Y-61618262D01*
X129692400Y-61804736D01*
X129692400Y-61994864D01*
X129729492Y-62181338D01*
X129802251Y-62356994D01*
X129907880Y-62515079D01*
X130042321Y-62649520D01*
X130200406Y-62755149D01*
X130376062Y-62827908D01*
X130562536Y-62865000D01*
X130752664Y-62865000D01*
X130939138Y-62827908D01*
X131114794Y-62755149D01*
X131272879Y-62649520D01*
X131407320Y-62515079D01*
X131512949Y-62356994D01*
X131585708Y-62181338D01*
X131622800Y-61994864D01*
X131622800Y-61804736D01*
X131585708Y-61618262D01*
X131582343Y-61610138D01*
X131675982Y-61533290D01*
X131745290Y-61463982D01*
X131824642Y-61367291D01*
X131879098Y-61285792D01*
X131938064Y-61175475D01*
X131975573Y-61084919D01*
X132011882Y-60965223D01*
X132031004Y-60869090D01*
X132043264Y-60744609D01*
X132043264Y-60720050D01*
X132045672Y-60695600D01*
X132045672Y-60195600D01*
X132033412Y-60071118D01*
X132025671Y-60045600D01*
X132033412Y-60020082D01*
X132045672Y-59895600D01*
X132045672Y-59395600D01*
X132043264Y-59371150D01*
X132043264Y-59346591D01*
X132031004Y-59222110D01*
X132011882Y-59125977D01*
X131975573Y-59006281D01*
X131938064Y-58915725D01*
X131879098Y-58805408D01*
X131824642Y-58723909D01*
X131745290Y-58627218D01*
X131675982Y-58557910D01*
X131579291Y-58478558D01*
X131497792Y-58424102D01*
X131476943Y-58412958D01*
X131613614Y-58339906D01*
X131839734Y-58154334D01*
X132025306Y-57928214D01*
X132163199Y-57670234D01*
X132248113Y-57390311D01*
X132276785Y-57099200D01*
X132248113Y-56808089D01*
X132163199Y-56528166D01*
X132142371Y-56489200D01*
X134383807Y-56489200D01*
X134044766Y-56556639D01*
X133701718Y-56698734D01*
X133392982Y-56905025D01*
X133130425Y-57167582D01*
X132924134Y-57476318D01*
X132782039Y-57819366D01*
X132709600Y-58183544D01*
X132709600Y-58554856D01*
X132782039Y-58919034D01*
X132924134Y-59262082D01*
X133130425Y-59570818D01*
X133392982Y-59833375D01*
X133701718Y-60039666D01*
X134044766Y-60181761D01*
X134408944Y-60254200D01*
X134780256Y-60254200D01*
X135144434Y-60181761D01*
X135487482Y-60039666D01*
X135796218Y-59833375D01*
X136058775Y-59570818D01*
X136265066Y-59262082D01*
X136407161Y-58919034D01*
X136474601Y-58579988D01*
X136474600Y-75938407D01*
X136407161Y-75599366D01*
X136265066Y-75256318D01*
X136058775Y-74947582D01*
X135796218Y-74685025D01*
X135487482Y-74478734D01*
X135144434Y-74336639D01*
X134780256Y-74264200D01*
X134408944Y-74264200D01*
X134044766Y-74336639D01*
X133701718Y-74478734D01*
X133392982Y-74685025D01*
X133130425Y-74947582D01*
X132924134Y-75256318D01*
X132782039Y-75599366D01*
X132709600Y-75963544D01*
X132709600Y-76334856D01*
X132782039Y-76699034D01*
X132924134Y-77042082D01*
X133130425Y-77350818D01*
X133392982Y-77613375D01*
X133701718Y-77819666D01*
X134044766Y-77961761D01*
X134383807Y-78029200D01*
X132136296Y-78029200D01*
X132226081Y-77776091D01*
X132105414Y-77546200D01*
X130911600Y-77546200D01*
X130911600Y-77566200D01*
X130657600Y-77566200D01*
X130657600Y-77546200D01*
X130637600Y-77546200D01*
X130637600Y-77292200D01*
X130657600Y-77292200D01*
X130657600Y-76099045D01*
X130911600Y-76099045D01*
X130911600Y-77292200D01*
X132105414Y-77292200D01*
X132226081Y-77062309D01*
X132128757Y-76787948D01*
X131979778Y-76537845D01*
X131784869Y-76321612D01*
X131551520Y-76147559D01*
X131288699Y-76022375D01*
X131141490Y-75977724D01*
X130911600Y-76099045D01*
X130657600Y-76099045D01*
X130427710Y-75977724D01*
X130280501Y-76022375D01*
X130017680Y-76147559D01*
X129784331Y-76321612D01*
X129589422Y-76537845D01*
X129519801Y-76654723D01*
X129485306Y-76590186D01*
X129299734Y-76364066D01*
X129073614Y-76178494D01*
X128815634Y-76040601D01*
X128535711Y-75955687D01*
X128317550Y-75934200D01*
X128171650Y-75934200D01*
X127953489Y-75955687D01*
X127825654Y-75994465D01*
X127219602Y-75388415D01*
X127197328Y-75361274D01*
X127089034Y-75272399D01*
X126965482Y-75206359D01*
X126831421Y-75165692D01*
X126726937Y-75155401D01*
X126726927Y-75155401D01*
X126692001Y-75151961D01*
X126657075Y-75155401D01*
X122402600Y-75155401D01*
X122402600Y-75038136D01*
X122365508Y-74851662D01*
X122292749Y-74676006D01*
X122187120Y-74517921D01*
X122052679Y-74383480D01*
X121894594Y-74277851D01*
X121718938Y-74205092D01*
X121532464Y-74168000D01*
X121342336Y-74168000D01*
X121155862Y-74205092D01*
X120980206Y-74277851D01*
X120822121Y-74383480D01*
X120783601Y-74422000D01*
X120362345Y-74422000D01*
X120256720Y-74263921D01*
X120122279Y-74129480D01*
X119964194Y-74023851D01*
X119788538Y-73951092D01*
X119602064Y-73914000D01*
X119411936Y-73914000D01*
X119225462Y-73951092D01*
X119049806Y-74023851D01*
X118891721Y-74129480D01*
X118853201Y-74168000D01*
X117328699Y-74168000D01*
X117264779Y-74104080D01*
X117106694Y-73998451D01*
X116931038Y-73925692D01*
X116744564Y-73888600D01*
X116554436Y-73888600D01*
X116367962Y-73925692D01*
X116192306Y-73998451D01*
X116034221Y-74104080D01*
X115899780Y-74238521D01*
X115794151Y-74396606D01*
X115775921Y-74440617D01*
X115722394Y-74404851D01*
X115546738Y-74332092D01*
X115360264Y-74295000D01*
X115170136Y-74295000D01*
X114983662Y-74332092D01*
X114808006Y-74404851D01*
X114649921Y-74510480D01*
X114515480Y-74644921D01*
X114409851Y-74803006D01*
X114337092Y-74978662D01*
X114301936Y-75155401D01*
X111541089Y-75155401D01*
X110416225Y-74030538D01*
X110434582Y-73970023D01*
X110453704Y-73873890D01*
X110465964Y-73749409D01*
X110465964Y-73724850D01*
X110468372Y-73700400D01*
X110468372Y-73200400D01*
X110456112Y-73075918D01*
X110448371Y-73050400D01*
X110456112Y-73024882D01*
X110464286Y-72941885D01*
X110471621Y-72949220D01*
X110629706Y-73054849D01*
X110805362Y-73127608D01*
X110991836Y-73164700D01*
X111181964Y-73164700D01*
X111368438Y-73127608D01*
X111544094Y-73054849D01*
X111702179Y-72949220D01*
X111836620Y-72814779D01*
X111942249Y-72656694D01*
X112015008Y-72481038D01*
X112052100Y-72294564D01*
X112052100Y-72104436D01*
X112015008Y-71917962D01*
X111942249Y-71742306D01*
X111836620Y-71584221D01*
X111702179Y-71449780D01*
X111544094Y-71344151D01*
X111368438Y-71271392D01*
X111181964Y-71234300D01*
X111077405Y-71234300D01*
X111030182Y-71209059D01*
X110896121Y-71168392D01*
X110791637Y-71158101D01*
X110791627Y-71158101D01*
X110756701Y-71154661D01*
X110721775Y-71158101D01*
X110680500Y-71158101D01*
X110680500Y-67951099D01*
X110719020Y-67912579D01*
X110824649Y-67754494D01*
X110897408Y-67578838D01*
X110934500Y-67392364D01*
X110934500Y-67202236D01*
X110897408Y-67015762D01*
X110824649Y-66840106D01*
X110719020Y-66682021D01*
X110584579Y-66547580D01*
X110426494Y-66441951D01*
X110250838Y-66369192D01*
X110064364Y-66332100D01*
X109874236Y-66332100D01*
X109687762Y-66369192D01*
X109512106Y-66441951D01*
X109354021Y-66547580D01*
X109219580Y-66682021D01*
X109113951Y-66840106D01*
X109041192Y-67015762D01*
X109004100Y-67202236D01*
X109004100Y-67392364D01*
X109041192Y-67578838D01*
X109113951Y-67754494D01*
X109219580Y-67912579D01*
X109258101Y-67951100D01*
X109258100Y-71262328D01*
X109047316Y-71262328D01*
X108534200Y-70749213D01*
X108534200Y-70694736D01*
X108497108Y-70508262D01*
X108424349Y-70332606D01*
X108318720Y-70174521D01*
X108248039Y-70103840D01*
X108269909Y-70031746D01*
X108280200Y-69927262D01*
X108280200Y-69927253D01*
X108283640Y-69892327D01*
X108280200Y-69857401D01*
X108280200Y-69538599D01*
X108318720Y-69500079D01*
X108424349Y-69341994D01*
X108497108Y-69166338D01*
X108534200Y-68979864D01*
X108534200Y-68789736D01*
X108497108Y-68603262D01*
X108424349Y-68427606D01*
X108318720Y-68269521D01*
X108184279Y-68135080D01*
X108026194Y-68029451D01*
X107850538Y-67956692D01*
X107664064Y-67919600D01*
X107473936Y-67919600D01*
X107287462Y-67956692D01*
X107111806Y-68029451D01*
X106953721Y-68135080D01*
X106819280Y-68269521D01*
X106713651Y-68427606D01*
X106640892Y-68603262D01*
X106603800Y-68789736D01*
X106603800Y-68979864D01*
X106640892Y-69166338D01*
X106713651Y-69341994D01*
X106819280Y-69500079D01*
X106857801Y-69538600D01*
X106857801Y-69597738D01*
X106456971Y-69998568D01*
X106432886Y-69877483D01*
X106321833Y-69609378D01*
X106160609Y-69368090D01*
X105955410Y-69162891D01*
X105767301Y-69037200D01*
X105955410Y-68911509D01*
X106160609Y-68706310D01*
X106321833Y-68465022D01*
X106432886Y-68196917D01*
X106489500Y-67912298D01*
X106489500Y-67622102D01*
X106432886Y-67337483D01*
X106321833Y-67069378D01*
X106160609Y-66828090D01*
X105955410Y-66622891D01*
X105767301Y-66497200D01*
X105955410Y-66371509D01*
X106160609Y-66166310D01*
X106321833Y-65925022D01*
X106432886Y-65656917D01*
X106489500Y-65372298D01*
X106489500Y-65082102D01*
X106432886Y-64797483D01*
X106321833Y-64529378D01*
X106160609Y-64288090D01*
X105955410Y-64082891D01*
X105714122Y-63921667D01*
X105631723Y-63887536D01*
X106400600Y-63887536D01*
X106400600Y-64077664D01*
X106437692Y-64264138D01*
X106510451Y-64439794D01*
X106616080Y-64597879D01*
X106750521Y-64732320D01*
X106908606Y-64837949D01*
X107084262Y-64910708D01*
X107270736Y-64947800D01*
X107460864Y-64947800D01*
X107647338Y-64910708D01*
X107822994Y-64837949D01*
X107981079Y-64732320D01*
X108115520Y-64597879D01*
X108221149Y-64439794D01*
X108293908Y-64264138D01*
X108331000Y-64077664D01*
X108331000Y-63887536D01*
X108293908Y-63701062D01*
X108221149Y-63525406D01*
X108115520Y-63367321D01*
X107981079Y-63232880D01*
X107822994Y-63127251D01*
X107647338Y-63054492D01*
X107460864Y-63017400D01*
X107270736Y-63017400D01*
X107084262Y-63054492D01*
X106908606Y-63127251D01*
X106750521Y-63232880D01*
X106616080Y-63367321D01*
X106510451Y-63525406D01*
X106437692Y-63701062D01*
X106400600Y-63887536D01*
X105631723Y-63887536D01*
X105446017Y-63810614D01*
X105161398Y-63754000D01*
X104871202Y-63754000D01*
X104586583Y-63810614D01*
X104318478Y-63921667D01*
X104077190Y-64082891D01*
X103871991Y-64288090D01*
X103710767Y-64529378D01*
X103599714Y-64797483D01*
X103543100Y-65082102D01*
X103543100Y-65372298D01*
X103599714Y-65656917D01*
X103710767Y-65925022D01*
X103871991Y-66166310D01*
X104077190Y-66371509D01*
X104265299Y-66497200D01*
X104077190Y-66622891D01*
X103871991Y-66828090D01*
X103710767Y-67069378D01*
X103599714Y-67337483D01*
X103543100Y-67622102D01*
X103543100Y-67912298D01*
X103599714Y-68196917D01*
X103710767Y-68465022D01*
X103871991Y-68706310D01*
X104077190Y-68911509D01*
X104265299Y-69037200D01*
X104077190Y-69162891D01*
X103871991Y-69368090D01*
X103710767Y-69609378D01*
X103599714Y-69877483D01*
X103543100Y-70162102D01*
X103543100Y-70452298D01*
X103599714Y-70736917D01*
X103710767Y-71005022D01*
X103871991Y-71246310D01*
X104077190Y-71451509D01*
X104318478Y-71612733D01*
X104586583Y-71723786D01*
X104871202Y-71780400D01*
X105161398Y-71780400D01*
X105446017Y-71723786D01*
X105714122Y-71612733D01*
X105955410Y-71451509D01*
X106160609Y-71246310D01*
X106210101Y-71172241D01*
X106210101Y-71349500D01*
X106191425Y-71357236D01*
X106081108Y-71416202D01*
X105999609Y-71470658D01*
X105902918Y-71550010D01*
X105833610Y-71619318D01*
X105754258Y-71716009D01*
X105699802Y-71797508D01*
X105640836Y-71907825D01*
X105603327Y-71998381D01*
X105567018Y-72118077D01*
X105547896Y-72214210D01*
X105535636Y-72338691D01*
X105535636Y-72363250D01*
X105533228Y-72387700D01*
X105533228Y-72887700D01*
X105545488Y-73012182D01*
X105553229Y-73037700D01*
X105545488Y-73063218D01*
X105533228Y-73187700D01*
X105533228Y-73687700D01*
X105535636Y-73712150D01*
X105535636Y-73736709D01*
X105547896Y-73861190D01*
X105567018Y-73957323D01*
X105603327Y-74077019D01*
X105640836Y-74167575D01*
X105699802Y-74277892D01*
X105754258Y-74359391D01*
X105833610Y-74456082D01*
X105902918Y-74525390D01*
X105999609Y-74604742D01*
X106081108Y-74659198D01*
X106191425Y-74718164D01*
X106281981Y-74755673D01*
X106401677Y-74791982D01*
X106497810Y-74811104D01*
X106622291Y-74823364D01*
X106646850Y-74823364D01*
X106671300Y-74825772D01*
X107053585Y-74825772D01*
X108179980Y-75952168D01*
X107997550Y-75934200D01*
X107851650Y-75934200D01*
X107633489Y-75955687D01*
X107353566Y-76040601D01*
X107095586Y-76178494D01*
X106869466Y-76364066D01*
X106683894Y-76590186D01*
X106654600Y-76644991D01*
X106625306Y-76590186D01*
X106439734Y-76364066D01*
X106213614Y-76178494D01*
X105955634Y-76040601D01*
X105675711Y-75955687D01*
X105457550Y-75934200D01*
X105311650Y-75934200D01*
X105093489Y-75955687D01*
X104813566Y-76040601D01*
X104555586Y-76178494D01*
X104329466Y-76364066D01*
X104143894Y-76590186D01*
X104114600Y-76644991D01*
X104085306Y-76590186D01*
X103899734Y-76364066D01*
X103673614Y-76178494D01*
X103415634Y-76040601D01*
X103135711Y-75955687D01*
X102917550Y-75934200D01*
X102771650Y-75934200D01*
X102553489Y-75955687D01*
X102273566Y-76040601D01*
X102015586Y-76178494D01*
X101789466Y-76364066D01*
X101603894Y-76590186D01*
X101569399Y-76654723D01*
X101499778Y-76537845D01*
X101304869Y-76321612D01*
X101071520Y-76147559D01*
X100808699Y-76022375D01*
X100661490Y-75977724D01*
X100431600Y-76099045D01*
X100431600Y-77292200D01*
X100451600Y-77292200D01*
X100451600Y-77546200D01*
X100431600Y-77546200D01*
X100431600Y-77566200D01*
X100177600Y-77566200D01*
X100177600Y-77546200D01*
X100157600Y-77546200D01*
X100157600Y-77292200D01*
X100177600Y-77292200D01*
X100177600Y-76099045D01*
X99947710Y-75977724D01*
X99800501Y-76022375D01*
X99537680Y-76147559D01*
X99304331Y-76321612D01*
X99109422Y-76537845D01*
X99039801Y-76654723D01*
X99005306Y-76590186D01*
X98819734Y-76364066D01*
X98593614Y-76178494D01*
X98335634Y-76040601D01*
X98055711Y-75955687D01*
X97837550Y-75934200D01*
X97691650Y-75934200D01*
X97473489Y-75955687D01*
X97193566Y-76040601D01*
X96935586Y-76178494D01*
X96709466Y-76364066D01*
X96523894Y-76590186D01*
X96494600Y-76644991D01*
X96465306Y-76590186D01*
X96279734Y-76364066D01*
X96053614Y-76178494D01*
X95795634Y-76040601D01*
X95515711Y-75955687D01*
X95297550Y-75934200D01*
X95151650Y-75934200D01*
X94933489Y-75955687D01*
X94653566Y-76040601D01*
X94395586Y-76178494D01*
X94169466Y-76364066D01*
X94144993Y-76393887D01*
X94124102Y-76325020D01*
X94065137Y-76214706D01*
X93985785Y-76118015D01*
X93889094Y-76038663D01*
X93778780Y-75979698D01*
X93659082Y-75943388D01*
X93534600Y-75931128D01*
X91834600Y-75931128D01*
X91710118Y-75943388D01*
X91590420Y-75979698D01*
X91480106Y-76038663D01*
X91409600Y-76096526D01*
X91409600Y-75899524D01*
X91312182Y-75409768D01*
X91121088Y-74948427D01*
X90843663Y-74533232D01*
X90490568Y-74180137D01*
X90075373Y-73902712D01*
X89614032Y-73711618D01*
X89124276Y-73614200D01*
X88624924Y-73614200D01*
X88135168Y-73711618D01*
X87673827Y-73902712D01*
X87258632Y-74180137D01*
X86994600Y-74444169D01*
X86994600Y-63456502D01*
X89839800Y-63456502D01*
X89839800Y-63746698D01*
X89896414Y-64031317D01*
X90007467Y-64299422D01*
X90168691Y-64540710D01*
X90373890Y-64745909D01*
X90561999Y-64871600D01*
X90373890Y-64997291D01*
X90168691Y-65202490D01*
X90007467Y-65443778D01*
X89896414Y-65711883D01*
X89839800Y-65996502D01*
X89839800Y-66286698D01*
X89896414Y-66571317D01*
X90007467Y-66839422D01*
X90168691Y-67080710D01*
X90373890Y-67285909D01*
X90561999Y-67411600D01*
X90373890Y-67537291D01*
X90168691Y-67742490D01*
X90007467Y-67983778D01*
X89896414Y-68251883D01*
X89839800Y-68536502D01*
X89839800Y-68826698D01*
X89896414Y-69111317D01*
X90007467Y-69379422D01*
X90168691Y-69620710D01*
X90373890Y-69825909D01*
X90561999Y-69951600D01*
X90373890Y-70077291D01*
X90168691Y-70282490D01*
X90007467Y-70523778D01*
X89896414Y-70791883D01*
X89839800Y-71076502D01*
X89839800Y-71366698D01*
X89896414Y-71651317D01*
X90007467Y-71919422D01*
X90168691Y-72160710D01*
X90373890Y-72365909D01*
X90615178Y-72527133D01*
X90883283Y-72638186D01*
X91167902Y-72694800D01*
X91458098Y-72694800D01*
X91742717Y-72638186D01*
X92010822Y-72527133D01*
X92252110Y-72365909D01*
X92457309Y-72160710D01*
X92618533Y-71919422D01*
X92729586Y-71651317D01*
X92786200Y-71366698D01*
X92786200Y-71076502D01*
X92729586Y-70791883D01*
X92618533Y-70523778D01*
X92457309Y-70282490D01*
X92252110Y-70077291D01*
X92064001Y-69951600D01*
X92252110Y-69825909D01*
X92457309Y-69620710D01*
X92618533Y-69379422D01*
X92729586Y-69111317D01*
X92786200Y-68826698D01*
X92786200Y-68536502D01*
X92729586Y-68251883D01*
X92618533Y-67983778D01*
X92457309Y-67742490D01*
X92252110Y-67537291D01*
X92206831Y-67507036D01*
X93560900Y-67507036D01*
X93560900Y-67697164D01*
X93597992Y-67883638D01*
X93670751Y-68059294D01*
X93697627Y-68099517D01*
X93670751Y-68139739D01*
X93597992Y-68315395D01*
X93560900Y-68501869D01*
X93560900Y-68691997D01*
X93597992Y-68878471D01*
X93670751Y-69054127D01*
X93697627Y-69094350D01*
X93670751Y-69134572D01*
X93597992Y-69310228D01*
X93560900Y-69496702D01*
X93560900Y-69686830D01*
X93597992Y-69873304D01*
X93670751Y-70048960D01*
X93697627Y-70089183D01*
X93670751Y-70129406D01*
X93597992Y-70305062D01*
X93560900Y-70491536D01*
X93560900Y-70681664D01*
X93597992Y-70868138D01*
X93670751Y-71043794D01*
X93776380Y-71201879D01*
X93910821Y-71336320D01*
X94068906Y-71441949D01*
X94244562Y-71514708D01*
X94431036Y-71551800D01*
X94621164Y-71551800D01*
X94807638Y-71514708D01*
X94983294Y-71441949D01*
X95141379Y-71336320D01*
X95192599Y-71285100D01*
X97288601Y-71285100D01*
X97327121Y-71323620D01*
X97485206Y-71429249D01*
X97660862Y-71502008D01*
X97847336Y-71539100D01*
X98037464Y-71539100D01*
X98223938Y-71502008D01*
X98399594Y-71429249D01*
X98557679Y-71323620D01*
X98692120Y-71189179D01*
X98797749Y-71031094D01*
X98870508Y-70855438D01*
X98907600Y-70668964D01*
X98907600Y-70478836D01*
X98870508Y-70292362D01*
X98797749Y-70116706D01*
X98770873Y-70076483D01*
X98797749Y-70036260D01*
X98870508Y-69860604D01*
X98907600Y-69674130D01*
X98907600Y-69484002D01*
X98870508Y-69297528D01*
X98797749Y-69121872D01*
X98770873Y-69081650D01*
X98797749Y-69041427D01*
X98870508Y-68865771D01*
X98907600Y-68679297D01*
X98907600Y-68489169D01*
X98870508Y-68302695D01*
X98797749Y-68127039D01*
X98770873Y-68086817D01*
X98797749Y-68046594D01*
X98870508Y-67870938D01*
X98907600Y-67684464D01*
X98907600Y-67494336D01*
X98870508Y-67307862D01*
X98797749Y-67132206D01*
X98692120Y-66974121D01*
X98557679Y-66839680D01*
X98399594Y-66734051D01*
X98223938Y-66661292D01*
X98037464Y-66624200D01*
X97847336Y-66624200D01*
X97660862Y-66661292D01*
X97485206Y-66734051D01*
X97327121Y-66839680D01*
X97275901Y-66890900D01*
X95179899Y-66890900D01*
X95141379Y-66852380D01*
X94983294Y-66746751D01*
X94807638Y-66673992D01*
X94621164Y-66636900D01*
X94431036Y-66636900D01*
X94244562Y-66673992D01*
X94068906Y-66746751D01*
X93910821Y-66852380D01*
X93776380Y-66986821D01*
X93670751Y-67144906D01*
X93597992Y-67320562D01*
X93560900Y-67507036D01*
X92206831Y-67507036D01*
X92064001Y-67411600D01*
X92252110Y-67285909D01*
X92457309Y-67080710D01*
X92618533Y-66839422D01*
X92729586Y-66571317D01*
X92786200Y-66286698D01*
X92786200Y-65996502D01*
X92729586Y-65711883D01*
X92618533Y-65443778D01*
X92457309Y-65202490D01*
X92252110Y-64997291D01*
X92064001Y-64871600D01*
X92252110Y-64745909D01*
X92457309Y-64540710D01*
X92618533Y-64299422D01*
X92729586Y-64031317D01*
X92786200Y-63746698D01*
X92786200Y-63456502D01*
X92729586Y-63171883D01*
X92636742Y-62947736D01*
X97967800Y-62947736D01*
X97967800Y-63137864D01*
X98004892Y-63324338D01*
X98077651Y-63499994D01*
X98183280Y-63658079D01*
X98317721Y-63792520D01*
X98475806Y-63898149D01*
X98651462Y-63970908D01*
X98750591Y-63990626D01*
X98916876Y-64156911D01*
X98965767Y-64216485D01*
X98984128Y-64231554D01*
X98984128Y-64359600D01*
X98986536Y-64384050D01*
X98986536Y-64408609D01*
X98998796Y-64533090D01*
X99017918Y-64629223D01*
X99054227Y-64748919D01*
X99091736Y-64839475D01*
X99150702Y-64949792D01*
X99205158Y-65031291D01*
X99284510Y-65127982D01*
X99353818Y-65197290D01*
X99450509Y-65276642D01*
X99532008Y-65331098D01*
X99642325Y-65390064D01*
X99732881Y-65427573D01*
X99852577Y-65463882D01*
X99948710Y-65483004D01*
X100073191Y-65495264D01*
X100097750Y-65495264D01*
X100122200Y-65497672D01*
X100622200Y-65497672D01*
X100746682Y-65485412D01*
X100772200Y-65477671D01*
X100797718Y-65485412D01*
X100922200Y-65497672D01*
X101422200Y-65497672D01*
X101446650Y-65495264D01*
X101471209Y-65495264D01*
X101595690Y-65483004D01*
X101691823Y-65463882D01*
X101811519Y-65427573D01*
X101902075Y-65390064D01*
X102012392Y-65331098D01*
X102093891Y-65276642D01*
X102190582Y-65197290D01*
X102259890Y-65127982D01*
X102339242Y-65031291D01*
X102393698Y-64949792D01*
X102452664Y-64839475D01*
X102490173Y-64748919D01*
X102526482Y-64629223D01*
X102545604Y-64533090D01*
X102557864Y-64408609D01*
X102557864Y-64384050D01*
X102560272Y-64359600D01*
X102560272Y-64228763D01*
X103162035Y-63627000D01*
X104094247Y-63627000D01*
X104188662Y-63666108D01*
X104375136Y-63703200D01*
X104565264Y-63703200D01*
X104751738Y-63666108D01*
X104927394Y-63593349D01*
X105085479Y-63487720D01*
X105219920Y-63353279D01*
X105325549Y-63195194D01*
X105398308Y-63019538D01*
X105435400Y-62833064D01*
X105435400Y-62642936D01*
X105398308Y-62456462D01*
X105325549Y-62280806D01*
X105219920Y-62122721D01*
X105085479Y-61988280D01*
X104927394Y-61882651D01*
X104751738Y-61809892D01*
X104687184Y-61797051D01*
X104807579Y-61676657D01*
X104901994Y-61637549D01*
X105060079Y-61531920D01*
X105194520Y-61397479D01*
X105300149Y-61239394D01*
X105372908Y-61063738D01*
X105410000Y-60877264D01*
X105410000Y-60687136D01*
X105372908Y-60500662D01*
X105300149Y-60325006D01*
X105194520Y-60166921D01*
X105060079Y-60032480D01*
X104901994Y-59926851D01*
X104726338Y-59854092D01*
X104539864Y-59817000D01*
X104349736Y-59817000D01*
X104163262Y-59854092D01*
X103987606Y-59926851D01*
X103829521Y-60032480D01*
X103695080Y-60166921D01*
X103589451Y-60325006D01*
X103550343Y-60419421D01*
X102882765Y-61087000D01*
X102361085Y-61087000D01*
X102339242Y-61054309D01*
X102259890Y-60957618D01*
X102190582Y-60888310D01*
X102093891Y-60808958D01*
X102012392Y-60754502D01*
X101902075Y-60695536D01*
X101811519Y-60658027D01*
X101691823Y-60621718D01*
X101595690Y-60602596D01*
X101471209Y-60590336D01*
X101446650Y-60590336D01*
X101422200Y-60587928D01*
X100922200Y-60587928D01*
X100797718Y-60600188D01*
X100772200Y-60607929D01*
X100746682Y-60600188D01*
X100622200Y-60587928D01*
X100122200Y-60587928D01*
X100097750Y-60590336D01*
X100073191Y-60590336D01*
X99948710Y-60602596D01*
X99852577Y-60621718D01*
X99732881Y-60658027D01*
X99642325Y-60695536D01*
X99532008Y-60754502D01*
X99450509Y-60808958D01*
X99353818Y-60888310D01*
X99284510Y-60957618D01*
X99205158Y-61054309D01*
X99150702Y-61135808D01*
X99091736Y-61246125D01*
X99054227Y-61336681D01*
X99017918Y-61456377D01*
X98998796Y-61552510D01*
X98986536Y-61676991D01*
X98986536Y-61701550D01*
X98984128Y-61726000D01*
X98984128Y-61856836D01*
X98744848Y-62096116D01*
X98651462Y-62114692D01*
X98475806Y-62187451D01*
X98317721Y-62293080D01*
X98183280Y-62427521D01*
X98077651Y-62585606D01*
X98004892Y-62761262D01*
X97967800Y-62947736D01*
X92636742Y-62947736D01*
X92618533Y-62903778D01*
X92457309Y-62662490D01*
X92252110Y-62457291D01*
X92010822Y-62296067D01*
X91742717Y-62185014D01*
X91458098Y-62128400D01*
X91167902Y-62128400D01*
X90883283Y-62185014D01*
X90615178Y-62296067D01*
X90373890Y-62457291D01*
X90168691Y-62662490D01*
X90007467Y-62903778D01*
X89896414Y-63171883D01*
X89839800Y-63456502D01*
X86994600Y-63456502D01*
X86994600Y-60074231D01*
X87258632Y-60338263D01*
X87673827Y-60615688D01*
X88135168Y-60806782D01*
X88624924Y-60904200D01*
X89124276Y-60904200D01*
X89614032Y-60806782D01*
X90075373Y-60615688D01*
X90490568Y-60338263D01*
X90843663Y-59985168D01*
X91121088Y-59569973D01*
X91312182Y-59108632D01*
X91409600Y-58618876D01*
X91409600Y-58119524D01*
X91312182Y-57629768D01*
X91121088Y-57168427D01*
X90843663Y-56753232D01*
X90579631Y-56489200D01*
X101356528Y-56489200D01*
X101356528Y-57949200D01*
X101356528Y-57949200D01*
G37*
X101356528Y-57949200D02*
X101368788Y-58073682D01*
X101405098Y-58193380D01*
X101464063Y-58303694D01*
X101543415Y-58400385D01*
X101640106Y-58479737D01*
X101750420Y-58538702D01*
X101870118Y-58575012D01*
X101994600Y-58587272D01*
X103694600Y-58587272D01*
X103819082Y-58575012D01*
X103938780Y-58538702D01*
X104049094Y-58479737D01*
X104145785Y-58400385D01*
X104225137Y-58303694D01*
X104284102Y-58193380D01*
X104304993Y-58124513D01*
X104329466Y-58154334D01*
X104555586Y-58339906D01*
X104813566Y-58477799D01*
X105093489Y-58562713D01*
X105311650Y-58584200D01*
X105457550Y-58584200D01*
X105675711Y-58562713D01*
X105955634Y-58477799D01*
X106213614Y-58339906D01*
X106439734Y-58154334D01*
X106625306Y-57928214D01*
X106654600Y-57873409D01*
X106683894Y-57928214D01*
X106869466Y-58154334D01*
X107095586Y-58339906D01*
X107353566Y-58477799D01*
X107633489Y-58562713D01*
X107851650Y-58584200D01*
X107997550Y-58584200D01*
X108215711Y-58562713D01*
X108495634Y-58477799D01*
X108753614Y-58339906D01*
X108979734Y-58154334D01*
X109165306Y-57928214D01*
X109194600Y-57873409D01*
X109223894Y-57928214D01*
X109409466Y-58154334D01*
X109635586Y-58339906D01*
X109893566Y-58477799D01*
X110173489Y-58562713D01*
X110391650Y-58584200D01*
X110537550Y-58584200D01*
X110755711Y-58562713D01*
X111035634Y-58477799D01*
X111293614Y-58339906D01*
X111519734Y-58154334D01*
X111705306Y-57928214D01*
X111734600Y-57873409D01*
X111763894Y-57928214D01*
X111949466Y-58154334D01*
X112008895Y-58203106D01*
X111988180Y-58223821D01*
X111882551Y-58381906D01*
X111809792Y-58557562D01*
X111796736Y-58623200D01*
X111703036Y-58623200D01*
X111516562Y-58660292D01*
X111340906Y-58733051D01*
X111182821Y-58838680D01*
X111048380Y-58973121D01*
X110942751Y-59131206D01*
X110869992Y-59306862D01*
X110832900Y-59493336D01*
X110832900Y-59683464D01*
X110869992Y-59869938D01*
X110942751Y-60045594D01*
X111048380Y-60203679D01*
X111182821Y-60338120D01*
X111340906Y-60443749D01*
X111516562Y-60516508D01*
X111703036Y-60553600D01*
X111808532Y-60553600D01*
X111819051Y-60578994D01*
X111924680Y-60737079D01*
X111957101Y-60769500D01*
X111937380Y-60789221D01*
X111831751Y-60947306D01*
X111758992Y-61122962D01*
X111721900Y-61309436D01*
X111721900Y-61499564D01*
X111758992Y-61686038D01*
X111831751Y-61861694D01*
X111937380Y-62019779D01*
X112071821Y-62154220D01*
X112229906Y-62259849D01*
X112405562Y-62332608D01*
X112592036Y-62369700D01*
X112782164Y-62369700D01*
X112968638Y-62332608D01*
X113144294Y-62259849D01*
X113302379Y-62154220D01*
X113436820Y-62019779D01*
X113542449Y-61861694D01*
X113615208Y-61686038D01*
X113652300Y-61499564D01*
X113652300Y-61309436D01*
X113615208Y-61122962D01*
X113542449Y-60947306D01*
X113436820Y-60789221D01*
X113404399Y-60756800D01*
X113424120Y-60737079D01*
X113529749Y-60578994D01*
X113602508Y-60403338D01*
X113639600Y-60216864D01*
X113639600Y-60026736D01*
X113608728Y-59871533D01*
X113929962Y-59550300D01*
X121698001Y-59550300D01*
X121736521Y-59588820D01*
X121894606Y-59694449D01*
X122070262Y-59767208D01*
X122256736Y-59804300D01*
X122446864Y-59804300D01*
X122633338Y-59767208D01*
X122808994Y-59694449D01*
X122967079Y-59588820D01*
X123101520Y-59454379D01*
X123207149Y-59296294D01*
X123279908Y-59120638D01*
X123317000Y-58934164D01*
X123317000Y-58744036D01*
X123284291Y-58579596D01*
X123455711Y-58562713D01*
X123735634Y-58477799D01*
X123993614Y-58339906D01*
X124219734Y-58154334D01*
X124405306Y-57928214D01*
X124434600Y-57873409D01*
X124463894Y-57928214D01*
X124649466Y-58154334D01*
X124875586Y-58339906D01*
X125133566Y-58477799D01*
X125413489Y-58562713D01*
X125631650Y-58584200D01*
X125777550Y-58584200D01*
X125995711Y-58562713D01*
X126275634Y-58477799D01*
X126533614Y-58339906D01*
X126759734Y-58154334D01*
X126945306Y-57928214D01*
X126974600Y-57873409D01*
X127003894Y-57928214D01*
X127189466Y-58154334D01*
X127415586Y-58339906D01*
X127533401Y-58402879D01*
X127533401Y-58514264D01*
X127480218Y-58557910D01*
X127410910Y-58627218D01*
X127331558Y-58723909D01*
X127277102Y-58805408D01*
X127218136Y-58915725D01*
X127180627Y-59006281D01*
X127144318Y-59125977D01*
X127125196Y-59222110D01*
X127112936Y-59346591D01*
X127112936Y-59371150D01*
X127110528Y-59395600D01*
X127110528Y-59895600D01*
X127122788Y-60020082D01*
X127130529Y-60045600D01*
X127122788Y-60071118D01*
X127110528Y-60195600D01*
X127110528Y-60695600D01*
X127112936Y-60720050D01*
X127112936Y-60744609D01*
X127125196Y-60869090D01*
X127144318Y-60965223D01*
X127180627Y-61084919D01*
X127218136Y-61175475D01*
X127277102Y-61285792D01*
X127331558Y-61367291D01*
X127410910Y-61463982D01*
X127480218Y-61533290D01*
X127573857Y-61610138D01*
X127570492Y-61618262D01*
X127533400Y-61804736D01*
X127533400Y-61994864D01*
X127570492Y-62181338D01*
X127643251Y-62356994D01*
X127748880Y-62515079D01*
X127883321Y-62649520D01*
X128041406Y-62755149D01*
X128217062Y-62827908D01*
X128403536Y-62865000D01*
X128593664Y-62865000D01*
X128780138Y-62827908D01*
X128955794Y-62755149D01*
X129113879Y-62649520D01*
X129248320Y-62515079D01*
X129353949Y-62356994D01*
X129426708Y-62181338D01*
X129463800Y-61994864D01*
X129463800Y-61804736D01*
X129426708Y-61618262D01*
X129423343Y-61610138D01*
X129516982Y-61533290D01*
X129578100Y-61472172D01*
X129639218Y-61533290D01*
X129732857Y-61610138D01*
X129729492Y-61618262D01*
X129692400Y-61804736D01*
X129692400Y-61994864D01*
X129729492Y-62181338D01*
X129802251Y-62356994D01*
X129907880Y-62515079D01*
X130042321Y-62649520D01*
X130200406Y-62755149D01*
X130376062Y-62827908D01*
X130562536Y-62865000D01*
X130752664Y-62865000D01*
X130939138Y-62827908D01*
X131114794Y-62755149D01*
X131272879Y-62649520D01*
X131407320Y-62515079D01*
X131512949Y-62356994D01*
X131585708Y-62181338D01*
X131622800Y-61994864D01*
X131622800Y-61804736D01*
X131585708Y-61618262D01*
X131582343Y-61610138D01*
X131675982Y-61533290D01*
X131745290Y-61463982D01*
X131824642Y-61367291D01*
X131879098Y-61285792D01*
X131938064Y-61175475D01*
X131975573Y-61084919D01*
X132011882Y-60965223D01*
X132031004Y-60869090D01*
X132043264Y-60744609D01*
X132043264Y-60720050D01*
X132045672Y-60695600D01*
X132045672Y-60195600D01*
X132033412Y-60071118D01*
X132025671Y-60045600D01*
X132033412Y-60020082D01*
X132045672Y-59895600D01*
X132045672Y-59395600D01*
X132043264Y-59371150D01*
X132043264Y-59346591D01*
X132031004Y-59222110D01*
X132011882Y-59125977D01*
X131975573Y-59006281D01*
X131938064Y-58915725D01*
X131879098Y-58805408D01*
X131824642Y-58723909D01*
X131745290Y-58627218D01*
X131675982Y-58557910D01*
X131579291Y-58478558D01*
X131497792Y-58424102D01*
X131476943Y-58412958D01*
X131613614Y-58339906D01*
X131839734Y-58154334D01*
X132025306Y-57928214D01*
X132163199Y-57670234D01*
X132248113Y-57390311D01*
X132276785Y-57099200D01*
X132248113Y-56808089D01*
X132163199Y-56528166D01*
X132142371Y-56489200D01*
X134383807Y-56489200D01*
X134044766Y-56556639D01*
X133701718Y-56698734D01*
X133392982Y-56905025D01*
X133130425Y-57167582D01*
X132924134Y-57476318D01*
X132782039Y-57819366D01*
X132709600Y-58183544D01*
X132709600Y-58554856D01*
X132782039Y-58919034D01*
X132924134Y-59262082D01*
X133130425Y-59570818D01*
X133392982Y-59833375D01*
X133701718Y-60039666D01*
X134044766Y-60181761D01*
X134408944Y-60254200D01*
X134780256Y-60254200D01*
X135144434Y-60181761D01*
X135487482Y-60039666D01*
X135796218Y-59833375D01*
X136058775Y-59570818D01*
X136265066Y-59262082D01*
X136407161Y-58919034D01*
X136474601Y-58579988D01*
X136474600Y-75938407D01*
X136407161Y-75599366D01*
X136265066Y-75256318D01*
X136058775Y-74947582D01*
X135796218Y-74685025D01*
X135487482Y-74478734D01*
X135144434Y-74336639D01*
X134780256Y-74264200D01*
X134408944Y-74264200D01*
X134044766Y-74336639D01*
X133701718Y-74478734D01*
X133392982Y-74685025D01*
X133130425Y-74947582D01*
X132924134Y-75256318D01*
X132782039Y-75599366D01*
X132709600Y-75963544D01*
X132709600Y-76334856D01*
X132782039Y-76699034D01*
X132924134Y-77042082D01*
X133130425Y-77350818D01*
X133392982Y-77613375D01*
X133701718Y-77819666D01*
X134044766Y-77961761D01*
X134383807Y-78029200D01*
X132136296Y-78029200D01*
X132226081Y-77776091D01*
X132105414Y-77546200D01*
X130911600Y-77546200D01*
X130911600Y-77566200D01*
X130657600Y-77566200D01*
X130657600Y-77546200D01*
X130637600Y-77546200D01*
X130637600Y-77292200D01*
X130657600Y-77292200D01*
X130657600Y-76099045D01*
X130911600Y-76099045D01*
X130911600Y-77292200D01*
X132105414Y-77292200D01*
X132226081Y-77062309D01*
X132128757Y-76787948D01*
X131979778Y-76537845D01*
X131784869Y-76321612D01*
X131551520Y-76147559D01*
X131288699Y-76022375D01*
X131141490Y-75977724D01*
X130911600Y-76099045D01*
X130657600Y-76099045D01*
X130427710Y-75977724D01*
X130280501Y-76022375D01*
X130017680Y-76147559D01*
X129784331Y-76321612D01*
X129589422Y-76537845D01*
X129519801Y-76654723D01*
X129485306Y-76590186D01*
X129299734Y-76364066D01*
X129073614Y-76178494D01*
X128815634Y-76040601D01*
X128535711Y-75955687D01*
X128317550Y-75934200D01*
X128171650Y-75934200D01*
X127953489Y-75955687D01*
X127825654Y-75994465D01*
X127219602Y-75388415D01*
X127197328Y-75361274D01*
X127089034Y-75272399D01*
X126965482Y-75206359D01*
X126831421Y-75165692D01*
X126726937Y-75155401D01*
X126726927Y-75155401D01*
X126692001Y-75151961D01*
X126657075Y-75155401D01*
X122402600Y-75155401D01*
X122402600Y-75038136D01*
X122365508Y-74851662D01*
X122292749Y-74676006D01*
X122187120Y-74517921D01*
X122052679Y-74383480D01*
X121894594Y-74277851D01*
X121718938Y-74205092D01*
X121532464Y-74168000D01*
X121342336Y-74168000D01*
X121155862Y-74205092D01*
X120980206Y-74277851D01*
X120822121Y-74383480D01*
X120783601Y-74422000D01*
X120362345Y-74422000D01*
X120256720Y-74263921D01*
X120122279Y-74129480D01*
X119964194Y-74023851D01*
X119788538Y-73951092D01*
X119602064Y-73914000D01*
X119411936Y-73914000D01*
X119225462Y-73951092D01*
X119049806Y-74023851D01*
X118891721Y-74129480D01*
X118853201Y-74168000D01*
X117328699Y-74168000D01*
X117264779Y-74104080D01*
X117106694Y-73998451D01*
X116931038Y-73925692D01*
X116744564Y-73888600D01*
X116554436Y-73888600D01*
X116367962Y-73925692D01*
X116192306Y-73998451D01*
X116034221Y-74104080D01*
X115899780Y-74238521D01*
X115794151Y-74396606D01*
X115775921Y-74440617D01*
X115722394Y-74404851D01*
X115546738Y-74332092D01*
X115360264Y-74295000D01*
X115170136Y-74295000D01*
X114983662Y-74332092D01*
X114808006Y-74404851D01*
X114649921Y-74510480D01*
X114515480Y-74644921D01*
X114409851Y-74803006D01*
X114337092Y-74978662D01*
X114301936Y-75155401D01*
X111541089Y-75155401D01*
X110416225Y-74030538D01*
X110434582Y-73970023D01*
X110453704Y-73873890D01*
X110465964Y-73749409D01*
X110465964Y-73724850D01*
X110468372Y-73700400D01*
X110468372Y-73200400D01*
X110456112Y-73075918D01*
X110448371Y-73050400D01*
X110456112Y-73024882D01*
X110464286Y-72941885D01*
X110471621Y-72949220D01*
X110629706Y-73054849D01*
X110805362Y-73127608D01*
X110991836Y-73164700D01*
X111181964Y-73164700D01*
X111368438Y-73127608D01*
X111544094Y-73054849D01*
X111702179Y-72949220D01*
X111836620Y-72814779D01*
X111942249Y-72656694D01*
X112015008Y-72481038D01*
X112052100Y-72294564D01*
X112052100Y-72104436D01*
X112015008Y-71917962D01*
X111942249Y-71742306D01*
X111836620Y-71584221D01*
X111702179Y-71449780D01*
X111544094Y-71344151D01*
X111368438Y-71271392D01*
X111181964Y-71234300D01*
X111077405Y-71234300D01*
X111030182Y-71209059D01*
X110896121Y-71168392D01*
X110791637Y-71158101D01*
X110791627Y-71158101D01*
X110756701Y-71154661D01*
X110721775Y-71158101D01*
X110680500Y-71158101D01*
X110680500Y-67951099D01*
X110719020Y-67912579D01*
X110824649Y-67754494D01*
X110897408Y-67578838D01*
X110934500Y-67392364D01*
X110934500Y-67202236D01*
X110897408Y-67015762D01*
X110824649Y-66840106D01*
X110719020Y-66682021D01*
X110584579Y-66547580D01*
X110426494Y-66441951D01*
X110250838Y-66369192D01*
X110064364Y-66332100D01*
X109874236Y-66332100D01*
X109687762Y-66369192D01*
X109512106Y-66441951D01*
X109354021Y-66547580D01*
X109219580Y-66682021D01*
X109113951Y-66840106D01*
X109041192Y-67015762D01*
X109004100Y-67202236D01*
X109004100Y-67392364D01*
X109041192Y-67578838D01*
X109113951Y-67754494D01*
X109219580Y-67912579D01*
X109258101Y-67951100D01*
X109258100Y-71262328D01*
X109047316Y-71262328D01*
X108534200Y-70749213D01*
X108534200Y-70694736D01*
X108497108Y-70508262D01*
X108424349Y-70332606D01*
X108318720Y-70174521D01*
X108248039Y-70103840D01*
X108269909Y-70031746D01*
X108280200Y-69927262D01*
X108280200Y-69927253D01*
X108283640Y-69892327D01*
X108280200Y-69857401D01*
X108280200Y-69538599D01*
X108318720Y-69500079D01*
X108424349Y-69341994D01*
X108497108Y-69166338D01*
X108534200Y-68979864D01*
X108534200Y-68789736D01*
X108497108Y-68603262D01*
X108424349Y-68427606D01*
X108318720Y-68269521D01*
X108184279Y-68135080D01*
X108026194Y-68029451D01*
X107850538Y-67956692D01*
X107664064Y-67919600D01*
X107473936Y-67919600D01*
X107287462Y-67956692D01*
X107111806Y-68029451D01*
X106953721Y-68135080D01*
X106819280Y-68269521D01*
X106713651Y-68427606D01*
X106640892Y-68603262D01*
X106603800Y-68789736D01*
X106603800Y-68979864D01*
X106640892Y-69166338D01*
X106713651Y-69341994D01*
X106819280Y-69500079D01*
X106857801Y-69538600D01*
X106857801Y-69597738D01*
X106456971Y-69998568D01*
X106432886Y-69877483D01*
X106321833Y-69609378D01*
X106160609Y-69368090D01*
X105955410Y-69162891D01*
X105767301Y-69037200D01*
X105955410Y-68911509D01*
X106160609Y-68706310D01*
X106321833Y-68465022D01*
X106432886Y-68196917D01*
X106489500Y-67912298D01*
X106489500Y-67622102D01*
X106432886Y-67337483D01*
X106321833Y-67069378D01*
X106160609Y-66828090D01*
X105955410Y-66622891D01*
X105767301Y-66497200D01*
X105955410Y-66371509D01*
X106160609Y-66166310D01*
X106321833Y-65925022D01*
X106432886Y-65656917D01*
X106489500Y-65372298D01*
X106489500Y-65082102D01*
X106432886Y-64797483D01*
X106321833Y-64529378D01*
X106160609Y-64288090D01*
X105955410Y-64082891D01*
X105714122Y-63921667D01*
X105631723Y-63887536D01*
X106400600Y-63887536D01*
X106400600Y-64077664D01*
X106437692Y-64264138D01*
X106510451Y-64439794D01*
X106616080Y-64597879D01*
X106750521Y-64732320D01*
X106908606Y-64837949D01*
X107084262Y-64910708D01*
X107270736Y-64947800D01*
X107460864Y-64947800D01*
X107647338Y-64910708D01*
X107822994Y-64837949D01*
X107981079Y-64732320D01*
X108115520Y-64597879D01*
X108221149Y-64439794D01*
X108293908Y-64264138D01*
X108331000Y-64077664D01*
X108331000Y-63887536D01*
X108293908Y-63701062D01*
X108221149Y-63525406D01*
X108115520Y-63367321D01*
X107981079Y-63232880D01*
X107822994Y-63127251D01*
X107647338Y-63054492D01*
X107460864Y-63017400D01*
X107270736Y-63017400D01*
X107084262Y-63054492D01*
X106908606Y-63127251D01*
X106750521Y-63232880D01*
X106616080Y-63367321D01*
X106510451Y-63525406D01*
X106437692Y-63701062D01*
X106400600Y-63887536D01*
X105631723Y-63887536D01*
X105446017Y-63810614D01*
X105161398Y-63754000D01*
X104871202Y-63754000D01*
X104586583Y-63810614D01*
X104318478Y-63921667D01*
X104077190Y-64082891D01*
X103871991Y-64288090D01*
X103710767Y-64529378D01*
X103599714Y-64797483D01*
X103543100Y-65082102D01*
X103543100Y-65372298D01*
X103599714Y-65656917D01*
X103710767Y-65925022D01*
X103871991Y-66166310D01*
X104077190Y-66371509D01*
X104265299Y-66497200D01*
X104077190Y-66622891D01*
X103871991Y-66828090D01*
X103710767Y-67069378D01*
X103599714Y-67337483D01*
X103543100Y-67622102D01*
X103543100Y-67912298D01*
X103599714Y-68196917D01*
X103710767Y-68465022D01*
X103871991Y-68706310D01*
X104077190Y-68911509D01*
X104265299Y-69037200D01*
X104077190Y-69162891D01*
X103871991Y-69368090D01*
X103710767Y-69609378D01*
X103599714Y-69877483D01*
X103543100Y-70162102D01*
X103543100Y-70452298D01*
X103599714Y-70736917D01*
X103710767Y-71005022D01*
X103871991Y-71246310D01*
X104077190Y-71451509D01*
X104318478Y-71612733D01*
X104586583Y-71723786D01*
X104871202Y-71780400D01*
X105161398Y-71780400D01*
X105446017Y-71723786D01*
X105714122Y-71612733D01*
X105955410Y-71451509D01*
X106160609Y-71246310D01*
X106210101Y-71172241D01*
X106210101Y-71349500D01*
X106191425Y-71357236D01*
X106081108Y-71416202D01*
X105999609Y-71470658D01*
X105902918Y-71550010D01*
X105833610Y-71619318D01*
X105754258Y-71716009D01*
X105699802Y-71797508D01*
X105640836Y-71907825D01*
X105603327Y-71998381D01*
X105567018Y-72118077D01*
X105547896Y-72214210D01*
X105535636Y-72338691D01*
X105535636Y-72363250D01*
X105533228Y-72387700D01*
X105533228Y-72887700D01*
X105545488Y-73012182D01*
X105553229Y-73037700D01*
X105545488Y-73063218D01*
X105533228Y-73187700D01*
X105533228Y-73687700D01*
X105535636Y-73712150D01*
X105535636Y-73736709D01*
X105547896Y-73861190D01*
X105567018Y-73957323D01*
X105603327Y-74077019D01*
X105640836Y-74167575D01*
X105699802Y-74277892D01*
X105754258Y-74359391D01*
X105833610Y-74456082D01*
X105902918Y-74525390D01*
X105999609Y-74604742D01*
X106081108Y-74659198D01*
X106191425Y-74718164D01*
X106281981Y-74755673D01*
X106401677Y-74791982D01*
X106497810Y-74811104D01*
X106622291Y-74823364D01*
X106646850Y-74823364D01*
X106671300Y-74825772D01*
X107053585Y-74825772D01*
X108179980Y-75952168D01*
X107997550Y-75934200D01*
X107851650Y-75934200D01*
X107633489Y-75955687D01*
X107353566Y-76040601D01*
X107095586Y-76178494D01*
X106869466Y-76364066D01*
X106683894Y-76590186D01*
X106654600Y-76644991D01*
X106625306Y-76590186D01*
X106439734Y-76364066D01*
X106213614Y-76178494D01*
X105955634Y-76040601D01*
X105675711Y-75955687D01*
X105457550Y-75934200D01*
X105311650Y-75934200D01*
X105093489Y-75955687D01*
X104813566Y-76040601D01*
X104555586Y-76178494D01*
X104329466Y-76364066D01*
X104143894Y-76590186D01*
X104114600Y-76644991D01*
X104085306Y-76590186D01*
X103899734Y-76364066D01*
X103673614Y-76178494D01*
X103415634Y-76040601D01*
X103135711Y-75955687D01*
X102917550Y-75934200D01*
X102771650Y-75934200D01*
X102553489Y-75955687D01*
X102273566Y-76040601D01*
X102015586Y-76178494D01*
X101789466Y-76364066D01*
X101603894Y-76590186D01*
X101569399Y-76654723D01*
X101499778Y-76537845D01*
X101304869Y-76321612D01*
X101071520Y-76147559D01*
X100808699Y-76022375D01*
X100661490Y-75977724D01*
X100431600Y-76099045D01*
X100431600Y-77292200D01*
X100451600Y-77292200D01*
X100451600Y-77546200D01*
X100431600Y-77546200D01*
X100431600Y-77566200D01*
X100177600Y-77566200D01*
X100177600Y-77546200D01*
X100157600Y-77546200D01*
X100157600Y-77292200D01*
X100177600Y-77292200D01*
X100177600Y-76099045D01*
X99947710Y-75977724D01*
X99800501Y-76022375D01*
X99537680Y-76147559D01*
X99304331Y-76321612D01*
X99109422Y-76537845D01*
X99039801Y-76654723D01*
X99005306Y-76590186D01*
X98819734Y-76364066D01*
X98593614Y-76178494D01*
X98335634Y-76040601D01*
X98055711Y-75955687D01*
X97837550Y-75934200D01*
X97691650Y-75934200D01*
X97473489Y-75955687D01*
X97193566Y-76040601D01*
X96935586Y-76178494D01*
X96709466Y-76364066D01*
X96523894Y-76590186D01*
X96494600Y-76644991D01*
X96465306Y-76590186D01*
X96279734Y-76364066D01*
X96053614Y-76178494D01*
X95795634Y-76040601D01*
X95515711Y-75955687D01*
X95297550Y-75934200D01*
X95151650Y-75934200D01*
X94933489Y-75955687D01*
X94653566Y-76040601D01*
X94395586Y-76178494D01*
X94169466Y-76364066D01*
X94144993Y-76393887D01*
X94124102Y-76325020D01*
X94065137Y-76214706D01*
X93985785Y-76118015D01*
X93889094Y-76038663D01*
X93778780Y-75979698D01*
X93659082Y-75943388D01*
X93534600Y-75931128D01*
X91834600Y-75931128D01*
X91710118Y-75943388D01*
X91590420Y-75979698D01*
X91480106Y-76038663D01*
X91409600Y-76096526D01*
X91409600Y-75899524D01*
X91312182Y-75409768D01*
X91121088Y-74948427D01*
X90843663Y-74533232D01*
X90490568Y-74180137D01*
X90075373Y-73902712D01*
X89614032Y-73711618D01*
X89124276Y-73614200D01*
X88624924Y-73614200D01*
X88135168Y-73711618D01*
X87673827Y-73902712D01*
X87258632Y-74180137D01*
X86994600Y-74444169D01*
X86994600Y-63456502D01*
X89839800Y-63456502D01*
X89839800Y-63746698D01*
X89896414Y-64031317D01*
X90007467Y-64299422D01*
X90168691Y-64540710D01*
X90373890Y-64745909D01*
X90561999Y-64871600D01*
X90373890Y-64997291D01*
X90168691Y-65202490D01*
X90007467Y-65443778D01*
X89896414Y-65711883D01*
X89839800Y-65996502D01*
X89839800Y-66286698D01*
X89896414Y-66571317D01*
X90007467Y-66839422D01*
X90168691Y-67080710D01*
X90373890Y-67285909D01*
X90561999Y-67411600D01*
X90373890Y-67537291D01*
X90168691Y-67742490D01*
X90007467Y-67983778D01*
X89896414Y-68251883D01*
X89839800Y-68536502D01*
X89839800Y-68826698D01*
X89896414Y-69111317D01*
X90007467Y-69379422D01*
X90168691Y-69620710D01*
X90373890Y-69825909D01*
X90561999Y-69951600D01*
X90373890Y-70077291D01*
X90168691Y-70282490D01*
X90007467Y-70523778D01*
X89896414Y-70791883D01*
X89839800Y-71076502D01*
X89839800Y-71366698D01*
X89896414Y-71651317D01*
X90007467Y-71919422D01*
X90168691Y-72160710D01*
X90373890Y-72365909D01*
X90615178Y-72527133D01*
X90883283Y-72638186D01*
X91167902Y-72694800D01*
X91458098Y-72694800D01*
X91742717Y-72638186D01*
X92010822Y-72527133D01*
X92252110Y-72365909D01*
X92457309Y-72160710D01*
X92618533Y-71919422D01*
X92729586Y-71651317D01*
X92786200Y-71366698D01*
X92786200Y-71076502D01*
X92729586Y-70791883D01*
X92618533Y-70523778D01*
X92457309Y-70282490D01*
X92252110Y-70077291D01*
X92064001Y-69951600D01*
X92252110Y-69825909D01*
X92457309Y-69620710D01*
X92618533Y-69379422D01*
X92729586Y-69111317D01*
X92786200Y-68826698D01*
X92786200Y-68536502D01*
X92729586Y-68251883D01*
X92618533Y-67983778D01*
X92457309Y-67742490D01*
X92252110Y-67537291D01*
X92206831Y-67507036D01*
X93560900Y-67507036D01*
X93560900Y-67697164D01*
X93597992Y-67883638D01*
X93670751Y-68059294D01*
X93697627Y-68099517D01*
X93670751Y-68139739D01*
X93597992Y-68315395D01*
X93560900Y-68501869D01*
X93560900Y-68691997D01*
X93597992Y-68878471D01*
X93670751Y-69054127D01*
X93697627Y-69094350D01*
X93670751Y-69134572D01*
X93597992Y-69310228D01*
X93560900Y-69496702D01*
X93560900Y-69686830D01*
X93597992Y-69873304D01*
X93670751Y-70048960D01*
X93697627Y-70089183D01*
X93670751Y-70129406D01*
X93597992Y-70305062D01*
X93560900Y-70491536D01*
X93560900Y-70681664D01*
X93597992Y-70868138D01*
X93670751Y-71043794D01*
X93776380Y-71201879D01*
X93910821Y-71336320D01*
X94068906Y-71441949D01*
X94244562Y-71514708D01*
X94431036Y-71551800D01*
X94621164Y-71551800D01*
X94807638Y-71514708D01*
X94983294Y-71441949D01*
X95141379Y-71336320D01*
X95192599Y-71285100D01*
X97288601Y-71285100D01*
X97327121Y-71323620D01*
X97485206Y-71429249D01*
X97660862Y-71502008D01*
X97847336Y-71539100D01*
X98037464Y-71539100D01*
X98223938Y-71502008D01*
X98399594Y-71429249D01*
X98557679Y-71323620D01*
X98692120Y-71189179D01*
X98797749Y-71031094D01*
X98870508Y-70855438D01*
X98907600Y-70668964D01*
X98907600Y-70478836D01*
X98870508Y-70292362D01*
X98797749Y-70116706D01*
X98770873Y-70076483D01*
X98797749Y-70036260D01*
X98870508Y-69860604D01*
X98907600Y-69674130D01*
X98907600Y-69484002D01*
X98870508Y-69297528D01*
X98797749Y-69121872D01*
X98770873Y-69081650D01*
X98797749Y-69041427D01*
X98870508Y-68865771D01*
X98907600Y-68679297D01*
X98907600Y-68489169D01*
X98870508Y-68302695D01*
X98797749Y-68127039D01*
X98770873Y-68086817D01*
X98797749Y-68046594D01*
X98870508Y-67870938D01*
X98907600Y-67684464D01*
X98907600Y-67494336D01*
X98870508Y-67307862D01*
X98797749Y-67132206D01*
X98692120Y-66974121D01*
X98557679Y-66839680D01*
X98399594Y-66734051D01*
X98223938Y-66661292D01*
X98037464Y-66624200D01*
X97847336Y-66624200D01*
X97660862Y-66661292D01*
X97485206Y-66734051D01*
X97327121Y-66839680D01*
X97275901Y-66890900D01*
X95179899Y-66890900D01*
X95141379Y-66852380D01*
X94983294Y-66746751D01*
X94807638Y-66673992D01*
X94621164Y-66636900D01*
X94431036Y-66636900D01*
X94244562Y-66673992D01*
X94068906Y-66746751D01*
X93910821Y-66852380D01*
X93776380Y-66986821D01*
X93670751Y-67144906D01*
X93597992Y-67320562D01*
X93560900Y-67507036D01*
X92206831Y-67507036D01*
X92064001Y-67411600D01*
X92252110Y-67285909D01*
X92457309Y-67080710D01*
X92618533Y-66839422D01*
X92729586Y-66571317D01*
X92786200Y-66286698D01*
X92786200Y-65996502D01*
X92729586Y-65711883D01*
X92618533Y-65443778D01*
X92457309Y-65202490D01*
X92252110Y-64997291D01*
X92064001Y-64871600D01*
X92252110Y-64745909D01*
X92457309Y-64540710D01*
X92618533Y-64299422D01*
X92729586Y-64031317D01*
X92786200Y-63746698D01*
X92786200Y-63456502D01*
X92729586Y-63171883D01*
X92636742Y-62947736D01*
X97967800Y-62947736D01*
X97967800Y-63137864D01*
X98004892Y-63324338D01*
X98077651Y-63499994D01*
X98183280Y-63658079D01*
X98317721Y-63792520D01*
X98475806Y-63898149D01*
X98651462Y-63970908D01*
X98750591Y-63990626D01*
X98916876Y-64156911D01*
X98965767Y-64216485D01*
X98984128Y-64231554D01*
X98984128Y-64359600D01*
X98986536Y-64384050D01*
X98986536Y-64408609D01*
X98998796Y-64533090D01*
X99017918Y-64629223D01*
X99054227Y-64748919D01*
X99091736Y-64839475D01*
X99150702Y-64949792D01*
X99205158Y-65031291D01*
X99284510Y-65127982D01*
X99353818Y-65197290D01*
X99450509Y-65276642D01*
X99532008Y-65331098D01*
X99642325Y-65390064D01*
X99732881Y-65427573D01*
X99852577Y-65463882D01*
X99948710Y-65483004D01*
X100073191Y-65495264D01*
X100097750Y-65495264D01*
X100122200Y-65497672D01*
X100622200Y-65497672D01*
X100746682Y-65485412D01*
X100772200Y-65477671D01*
X100797718Y-65485412D01*
X100922200Y-65497672D01*
X101422200Y-65497672D01*
X101446650Y-65495264D01*
X101471209Y-65495264D01*
X101595690Y-65483004D01*
X101691823Y-65463882D01*
X101811519Y-65427573D01*
X101902075Y-65390064D01*
X102012392Y-65331098D01*
X102093891Y-65276642D01*
X102190582Y-65197290D01*
X102259890Y-65127982D01*
X102339242Y-65031291D01*
X102393698Y-64949792D01*
X102452664Y-64839475D01*
X102490173Y-64748919D01*
X102526482Y-64629223D01*
X102545604Y-64533090D01*
X102557864Y-64408609D01*
X102557864Y-64384050D01*
X102560272Y-64359600D01*
X102560272Y-64228763D01*
X103162035Y-63627000D01*
X104094247Y-63627000D01*
X104188662Y-63666108D01*
X104375136Y-63703200D01*
X104565264Y-63703200D01*
X104751738Y-63666108D01*
X104927394Y-63593349D01*
X105085479Y-63487720D01*
X105219920Y-63353279D01*
X105325549Y-63195194D01*
X105398308Y-63019538D01*
X105435400Y-62833064D01*
X105435400Y-62642936D01*
X105398308Y-62456462D01*
X105325549Y-62280806D01*
X105219920Y-62122721D01*
X105085479Y-61988280D01*
X104927394Y-61882651D01*
X104751738Y-61809892D01*
X104687184Y-61797051D01*
X104807579Y-61676657D01*
X104901994Y-61637549D01*
X105060079Y-61531920D01*
X105194520Y-61397479D01*
X105300149Y-61239394D01*
X105372908Y-61063738D01*
X105410000Y-60877264D01*
X105410000Y-60687136D01*
X105372908Y-60500662D01*
X105300149Y-60325006D01*
X105194520Y-60166921D01*
X105060079Y-60032480D01*
X104901994Y-59926851D01*
X104726338Y-59854092D01*
X104539864Y-59817000D01*
X104349736Y-59817000D01*
X104163262Y-59854092D01*
X103987606Y-59926851D01*
X103829521Y-60032480D01*
X103695080Y-60166921D01*
X103589451Y-60325006D01*
X103550343Y-60419421D01*
X102882765Y-61087000D01*
X102361085Y-61087000D01*
X102339242Y-61054309D01*
X102259890Y-60957618D01*
X102190582Y-60888310D01*
X102093891Y-60808958D01*
X102012392Y-60754502D01*
X101902075Y-60695536D01*
X101811519Y-60658027D01*
X101691823Y-60621718D01*
X101595690Y-60602596D01*
X101471209Y-60590336D01*
X101446650Y-60590336D01*
X101422200Y-60587928D01*
X100922200Y-60587928D01*
X100797718Y-60600188D01*
X100772200Y-60607929D01*
X100746682Y-60600188D01*
X100622200Y-60587928D01*
X100122200Y-60587928D01*
X100097750Y-60590336D01*
X100073191Y-60590336D01*
X99948710Y-60602596D01*
X99852577Y-60621718D01*
X99732881Y-60658027D01*
X99642325Y-60695536D01*
X99532008Y-60754502D01*
X99450509Y-60808958D01*
X99353818Y-60888310D01*
X99284510Y-60957618D01*
X99205158Y-61054309D01*
X99150702Y-61135808D01*
X99091736Y-61246125D01*
X99054227Y-61336681D01*
X99017918Y-61456377D01*
X98998796Y-61552510D01*
X98986536Y-61676991D01*
X98986536Y-61701550D01*
X98984128Y-61726000D01*
X98984128Y-61856836D01*
X98744848Y-62096116D01*
X98651462Y-62114692D01*
X98475806Y-62187451D01*
X98317721Y-62293080D01*
X98183280Y-62427521D01*
X98077651Y-62585606D01*
X98004892Y-62761262D01*
X97967800Y-62947736D01*
X92636742Y-62947736D01*
X92618533Y-62903778D01*
X92457309Y-62662490D01*
X92252110Y-62457291D01*
X92010822Y-62296067D01*
X91742717Y-62185014D01*
X91458098Y-62128400D01*
X91167902Y-62128400D01*
X90883283Y-62185014D01*
X90615178Y-62296067D01*
X90373890Y-62457291D01*
X90168691Y-62662490D01*
X90007467Y-62903778D01*
X89896414Y-63171883D01*
X89839800Y-63456502D01*
X86994600Y-63456502D01*
X86994600Y-60074231D01*
X87258632Y-60338263D01*
X87673827Y-60615688D01*
X88135168Y-60806782D01*
X88624924Y-60904200D01*
X89124276Y-60904200D01*
X89614032Y-60806782D01*
X90075373Y-60615688D01*
X90490568Y-60338263D01*
X90843663Y-59985168D01*
X91121088Y-59569973D01*
X91312182Y-59108632D01*
X91409600Y-58618876D01*
X91409600Y-58119524D01*
X91312182Y-57629768D01*
X91121088Y-57168427D01*
X90843663Y-56753232D01*
X90579631Y-56489200D01*
X101356528Y-56489200D01*
X101356528Y-57949200D01*
M02*
