G04 #@! TF.GenerationSoftware,KiCad,Pcbnew,(5.1.4)-1*
G04 #@! TF.CreationDate,2019-12-30T09:54:18-05:00*
G04 #@! TF.ProjectId,Feather-SAM-M8Q-GPS,46656174-6865-4722-9d53-414d2d4d3851,rev?*
G04 #@! TF.SameCoordinates,Original*
G04 #@! TF.FileFunction,Drawing*
%FSLAX46Y46*%
G04 Gerber Fmt 4.6, Leading zero omitted, Abs format (unit mm)*
G04 Created by KiCad (PCBNEW (5.1.4)-1) date 2019-12-30 09:54:18*
%MOMM*%
%LPD*%
G04 APERTURE LIST*
%ADD10C,0.150000*%
G04 APERTURE END LIST*
D10*
X148881880Y-63116342D02*
X148929500Y-63163961D01*
X148977119Y-63259200D01*
X148977119Y-63497295D01*
X148929500Y-63592533D01*
X148881880Y-63640152D01*
X148786642Y-63687771D01*
X148691404Y-63687771D01*
X148548547Y-63640152D01*
X147977119Y-63068723D01*
X147977119Y-63687771D01*
X148881880Y-64068723D02*
X148929500Y-64116342D01*
X148977119Y-64211580D01*
X148977119Y-64449676D01*
X148929500Y-64544914D01*
X148881880Y-64592533D01*
X148786642Y-64640152D01*
X148691404Y-64640152D01*
X148548547Y-64592533D01*
X147977119Y-64021104D01*
X147977119Y-64640152D01*
X148072357Y-65068723D02*
X148024738Y-65116342D01*
X147977119Y-65068723D01*
X148024738Y-65021104D01*
X148072357Y-65068723D01*
X147977119Y-65068723D01*
X148548547Y-65687771D02*
X148596166Y-65592533D01*
X148643785Y-65544914D01*
X148739023Y-65497295D01*
X148786642Y-65497295D01*
X148881880Y-65544914D01*
X148929500Y-65592533D01*
X148977119Y-65687771D01*
X148977119Y-65878247D01*
X148929500Y-65973485D01*
X148881880Y-66021104D01*
X148786642Y-66068723D01*
X148739023Y-66068723D01*
X148643785Y-66021104D01*
X148596166Y-65973485D01*
X148548547Y-65878247D01*
X148548547Y-65687771D01*
X148500928Y-65592533D01*
X148453309Y-65544914D01*
X148358071Y-65497295D01*
X148167595Y-65497295D01*
X148072357Y-65544914D01*
X148024738Y-65592533D01*
X147977119Y-65687771D01*
X147977119Y-65878247D01*
X148024738Y-65973485D01*
X148072357Y-66021104D01*
X148167595Y-66068723D01*
X148358071Y-66068723D01*
X148453309Y-66021104D01*
X148500928Y-65973485D01*
X148548547Y-65878247D01*
X148977119Y-66925866D02*
X148977119Y-66735390D01*
X148929500Y-66640152D01*
X148881880Y-66592533D01*
X148739023Y-66497295D01*
X148548547Y-66449676D01*
X148167595Y-66449676D01*
X148072357Y-66497295D01*
X148024738Y-66544914D01*
X147977119Y-66640152D01*
X147977119Y-66830628D01*
X148024738Y-66925866D01*
X148072357Y-66973485D01*
X148167595Y-67021104D01*
X148405690Y-67021104D01*
X148500928Y-66973485D01*
X148548547Y-66925866D01*
X148596166Y-66830628D01*
X148596166Y-66640152D01*
X148548547Y-66544914D01*
X148500928Y-66497295D01*
X148405690Y-66449676D01*
X148977119Y-67640152D02*
X148977119Y-67735390D01*
X148929500Y-67830628D01*
X148881880Y-67878247D01*
X148786642Y-67925866D01*
X148596166Y-67973485D01*
X148358071Y-67973485D01*
X148167595Y-67925866D01*
X148072357Y-67878247D01*
X148024738Y-67830628D01*
X147977119Y-67735390D01*
X147977119Y-67640152D01*
X148024738Y-67544914D01*
X148072357Y-67497295D01*
X148167595Y-67449676D01*
X148358071Y-67402057D01*
X148596166Y-67402057D01*
X148786642Y-67449676D01*
X148881880Y-67497295D01*
X148929500Y-67544914D01*
X148977119Y-67640152D01*
X147977119Y-69163961D02*
X148643785Y-69163961D01*
X148548547Y-69163961D02*
X148596166Y-69211580D01*
X148643785Y-69306819D01*
X148643785Y-69449676D01*
X148596166Y-69544914D01*
X148500928Y-69592533D01*
X147977119Y-69592533D01*
X148500928Y-69592533D02*
X148596166Y-69640152D01*
X148643785Y-69735390D01*
X148643785Y-69878247D01*
X148596166Y-69973485D01*
X148500928Y-70021104D01*
X147977119Y-70021104D01*
X147977119Y-70497295D02*
X148643785Y-70497295D01*
X148548547Y-70497295D02*
X148596166Y-70544914D01*
X148643785Y-70640152D01*
X148643785Y-70783009D01*
X148596166Y-70878247D01*
X148500928Y-70925866D01*
X147977119Y-70925866D01*
X148500928Y-70925866D02*
X148596166Y-70973485D01*
X148643785Y-71068723D01*
X148643785Y-71211580D01*
X148596166Y-71306819D01*
X148500928Y-71354438D01*
X147977119Y-71354438D01*
X147129500Y-55829200D02*
X147129500Y-78689200D01*
X134594600Y-55829200D02*
X147715921Y-55829200D01*
X134594600Y-78689200D02*
X147715921Y-78689200D01*
X147129500Y-78689200D02*
X146543079Y-77562696D01*
X147129500Y-78689200D02*
X147715921Y-77562696D01*
X147129500Y-55829200D02*
X146543079Y-56955704D01*
X147129500Y-55829200D02*
X147715921Y-56955704D01*
X108115552Y-42653180D02*
X107639361Y-42653180D01*
X107591742Y-43129371D01*
X107639361Y-43081752D01*
X107734600Y-43034133D01*
X107972695Y-43034133D01*
X108067933Y-43081752D01*
X108115552Y-43129371D01*
X108163171Y-43224609D01*
X108163171Y-43462704D01*
X108115552Y-43557942D01*
X108067933Y-43605561D01*
X107972695Y-43653180D01*
X107734600Y-43653180D01*
X107639361Y-43605561D01*
X107591742Y-43557942D01*
X108782219Y-42653180D02*
X108877457Y-42653180D01*
X108972695Y-42700800D01*
X109020314Y-42748419D01*
X109067933Y-42843657D01*
X109115552Y-43034133D01*
X109115552Y-43272228D01*
X109067933Y-43462704D01*
X109020314Y-43557942D01*
X108972695Y-43605561D01*
X108877457Y-43653180D01*
X108782219Y-43653180D01*
X108686980Y-43605561D01*
X108639361Y-43557942D01*
X108591742Y-43462704D01*
X108544123Y-43272228D01*
X108544123Y-43034133D01*
X108591742Y-42843657D01*
X108639361Y-42748419D01*
X108686980Y-42700800D01*
X108782219Y-42653180D01*
X109544123Y-43557942D02*
X109591742Y-43605561D01*
X109544123Y-43653180D01*
X109496504Y-43605561D01*
X109544123Y-43557942D01*
X109544123Y-43653180D01*
X110163171Y-43081752D02*
X110067933Y-43034133D01*
X110020314Y-42986514D01*
X109972695Y-42891276D01*
X109972695Y-42843657D01*
X110020314Y-42748419D01*
X110067933Y-42700800D01*
X110163171Y-42653180D01*
X110353647Y-42653180D01*
X110448885Y-42700800D01*
X110496504Y-42748419D01*
X110544123Y-42843657D01*
X110544123Y-42891276D01*
X110496504Y-42986514D01*
X110448885Y-43034133D01*
X110353647Y-43081752D01*
X110163171Y-43081752D01*
X110067933Y-43129371D01*
X110020314Y-43176990D01*
X109972695Y-43272228D01*
X109972695Y-43462704D01*
X110020314Y-43557942D01*
X110067933Y-43605561D01*
X110163171Y-43653180D01*
X110353647Y-43653180D01*
X110448885Y-43605561D01*
X110496504Y-43557942D01*
X110544123Y-43462704D01*
X110544123Y-43272228D01*
X110496504Y-43176990D01*
X110448885Y-43129371D01*
X110353647Y-43081752D01*
X111163171Y-42653180D02*
X111258409Y-42653180D01*
X111353647Y-42700800D01*
X111401266Y-42748419D01*
X111448885Y-42843657D01*
X111496504Y-43034133D01*
X111496504Y-43272228D01*
X111448885Y-43462704D01*
X111401266Y-43557942D01*
X111353647Y-43605561D01*
X111258409Y-43653180D01*
X111163171Y-43653180D01*
X111067933Y-43605561D01*
X111020314Y-43557942D01*
X110972695Y-43462704D01*
X110925076Y-43272228D01*
X110925076Y-43034133D01*
X110972695Y-42843657D01*
X111020314Y-42748419D01*
X111067933Y-42700800D01*
X111163171Y-42653180D01*
X112115552Y-42653180D02*
X112210790Y-42653180D01*
X112306028Y-42700800D01*
X112353647Y-42748419D01*
X112401266Y-42843657D01*
X112448885Y-43034133D01*
X112448885Y-43272228D01*
X112401266Y-43462704D01*
X112353647Y-43557942D01*
X112306028Y-43605561D01*
X112210790Y-43653180D01*
X112115552Y-43653180D01*
X112020314Y-43605561D01*
X111972695Y-43557942D01*
X111925076Y-43462704D01*
X111877457Y-43272228D01*
X111877457Y-43034133D01*
X111925076Y-42843657D01*
X111972695Y-42748419D01*
X112020314Y-42700800D01*
X112115552Y-42653180D01*
X113639361Y-43653180D02*
X113639361Y-42986514D01*
X113639361Y-43081752D02*
X113686980Y-43034133D01*
X113782219Y-42986514D01*
X113925076Y-42986514D01*
X114020314Y-43034133D01*
X114067933Y-43129371D01*
X114067933Y-43653180D01*
X114067933Y-43129371D02*
X114115552Y-43034133D01*
X114210790Y-42986514D01*
X114353647Y-42986514D01*
X114448885Y-43034133D01*
X114496504Y-43129371D01*
X114496504Y-43653180D01*
X114972695Y-43653180D02*
X114972695Y-42986514D01*
X114972695Y-43081752D02*
X115020314Y-43034133D01*
X115115552Y-42986514D01*
X115258409Y-42986514D01*
X115353647Y-43034133D01*
X115401266Y-43129371D01*
X115401266Y-43653180D01*
X115401266Y-43129371D02*
X115448885Y-43034133D01*
X115544123Y-42986514D01*
X115686980Y-42986514D01*
X115782219Y-43034133D01*
X115829838Y-43129371D01*
X115829838Y-43653180D01*
X137134600Y-44500800D02*
X86334600Y-44500800D01*
X137134600Y-58369200D02*
X137134600Y-43914379D01*
X86334600Y-58369200D02*
X86334600Y-43914379D01*
X86334600Y-44500800D02*
X87461104Y-43914379D01*
X86334600Y-44500800D02*
X87461104Y-45087221D01*
X137134600Y-44500800D02*
X136008096Y-43914379D01*
X137134600Y-44500800D02*
X136008096Y-45087221D01*
M02*
