G04 #@! TF.GenerationSoftware,KiCad,Pcbnew,(5.1.4)-1*
G04 #@! TF.CreationDate,2019-12-30T09:54:18-05:00*
G04 #@! TF.ProjectId,Feather-SAM-M8Q-GPS,46656174-6865-4722-9d53-414d2d4d3851,rev?*
G04 #@! TF.SameCoordinates,Original*
G04 #@! TF.FileFunction,Legend,Bot*
G04 #@! TF.FilePolarity,Positive*
%FSLAX46Y46*%
G04 Gerber Fmt 4.6, Leading zero omitted, Abs format (unit mm)*
G04 Created by KiCad (PCBNEW (5.1.4)-1) date 2019-12-30 09:54:18*
%MOMM*%
%LPD*%
G04 APERTURE LIST*
%ADD10C,0.150000*%
%ADD11C,0.120000*%
G04 APERTURE END LIST*
D10*
X121235576Y-71065380D02*
X121568909Y-70589190D01*
X121807004Y-71065380D02*
X121807004Y-70065380D01*
X121426052Y-70065380D01*
X121330814Y-70113000D01*
X121283195Y-70160619D01*
X121235576Y-70255857D01*
X121235576Y-70398714D01*
X121283195Y-70493952D01*
X121330814Y-70541571D01*
X121426052Y-70589190D01*
X121807004Y-70589190D01*
X120426052Y-71017761D02*
X120521290Y-71065380D01*
X120711766Y-71065380D01*
X120807004Y-71017761D01*
X120854623Y-70922523D01*
X120854623Y-70541571D01*
X120807004Y-70446333D01*
X120711766Y-70398714D01*
X120521290Y-70398714D01*
X120426052Y-70446333D01*
X120378433Y-70541571D01*
X120378433Y-70636809D01*
X120854623Y-70732047D01*
X120045100Y-70398714D02*
X119807004Y-71065380D01*
X119568909Y-70398714D01*
X118664147Y-71065380D02*
X119235576Y-71065380D01*
X118949861Y-71065380D02*
X118949861Y-70065380D01*
X119045100Y-70208238D01*
X119140338Y-70303476D01*
X119235576Y-70351095D01*
X118235576Y-70970142D02*
X118187957Y-71017761D01*
X118235576Y-71065380D01*
X118283195Y-71017761D01*
X118235576Y-70970142D01*
X118235576Y-71065380D01*
X117283195Y-70065380D02*
X117759385Y-70065380D01*
X117807004Y-70541571D01*
X117759385Y-70493952D01*
X117664147Y-70446333D01*
X117426052Y-70446333D01*
X117330814Y-70493952D01*
X117283195Y-70541571D01*
X117235576Y-70636809D01*
X117235576Y-70874904D01*
X117283195Y-70970142D01*
X117330814Y-71017761D01*
X117426052Y-71065380D01*
X117664147Y-71065380D01*
X117759385Y-71017761D01*
X117807004Y-70970142D01*
X120854623Y-72429666D02*
X120378433Y-72429666D01*
X120949861Y-72715380D02*
X120616528Y-71715380D01*
X120283195Y-72715380D01*
X119616528Y-72191571D02*
X119473671Y-72239190D01*
X119426052Y-72286809D01*
X119378433Y-72382047D01*
X119378433Y-72524904D01*
X119426052Y-72620142D01*
X119473671Y-72667761D01*
X119568909Y-72715380D01*
X119949861Y-72715380D01*
X119949861Y-71715380D01*
X119616528Y-71715380D01*
X119521290Y-71763000D01*
X119473671Y-71810619D01*
X119426052Y-71905857D01*
X119426052Y-72001095D01*
X119473671Y-72096333D01*
X119521290Y-72143952D01*
X119616528Y-72191571D01*
X119949861Y-72191571D01*
X119045100Y-71715380D02*
X118807004Y-72715380D01*
X118616528Y-72001095D01*
X118426052Y-72715380D01*
X118187957Y-71715380D01*
X122687957Y-74365380D02*
X123259385Y-74365380D01*
X122973671Y-74365380D02*
X122973671Y-73365380D01*
X123068909Y-73508238D01*
X123164147Y-73603476D01*
X123259385Y-73651095D01*
X122307004Y-73460619D02*
X122259385Y-73413000D01*
X122164147Y-73365380D01*
X121926052Y-73365380D01*
X121830814Y-73413000D01*
X121783195Y-73460619D01*
X121735576Y-73555857D01*
X121735576Y-73651095D01*
X121783195Y-73793952D01*
X122354623Y-74365380D01*
X121735576Y-74365380D01*
X120592719Y-73317761D02*
X121449861Y-74603476D01*
X120354623Y-73365380D02*
X119735576Y-73365380D01*
X120068909Y-73746333D01*
X119926052Y-73746333D01*
X119830814Y-73793952D01*
X119783195Y-73841571D01*
X119735576Y-73936809D01*
X119735576Y-74174904D01*
X119783195Y-74270142D01*
X119830814Y-74317761D01*
X119926052Y-74365380D01*
X120211766Y-74365380D01*
X120307004Y-74317761D01*
X120354623Y-74270142D01*
X119116528Y-73365380D02*
X119021290Y-73365380D01*
X118926052Y-73413000D01*
X118878433Y-73460619D01*
X118830814Y-73555857D01*
X118783195Y-73746333D01*
X118783195Y-73984428D01*
X118830814Y-74174904D01*
X118878433Y-74270142D01*
X118926052Y-74317761D01*
X119021290Y-74365380D01*
X119116528Y-74365380D01*
X119211766Y-74317761D01*
X119259385Y-74270142D01*
X119307004Y-74174904D01*
X119354623Y-73984428D01*
X119354623Y-73746333D01*
X119307004Y-73555857D01*
X119259385Y-73460619D01*
X119211766Y-73413000D01*
X119116528Y-73365380D01*
X117640338Y-73317761D02*
X118497480Y-74603476D01*
X116783195Y-74365380D02*
X117354623Y-74365380D01*
X117068909Y-74365380D02*
X117068909Y-73365380D01*
X117164147Y-73508238D01*
X117259385Y-73603476D01*
X117354623Y-73651095D01*
X116307004Y-74365380D02*
X116116528Y-74365380D01*
X116021290Y-74317761D01*
X115973671Y-74270142D01*
X115878433Y-74127285D01*
X115830814Y-73936809D01*
X115830814Y-73555857D01*
X115878433Y-73460619D01*
X115926052Y-73413000D01*
X116021290Y-73365380D01*
X116211766Y-73365380D01*
X116307004Y-73413000D01*
X116354623Y-73460619D01*
X116402242Y-73555857D01*
X116402242Y-73793952D01*
X116354623Y-73889190D01*
X116307004Y-73936809D01*
X116211766Y-73984428D01*
X116021290Y-73984428D01*
X115926052Y-73936809D01*
X115878433Y-73889190D01*
X115830814Y-73793952D01*
X109811914Y-64299500D02*
X108859533Y-64299500D01*
X109621438Y-65619261D02*
X109478580Y-65666880D01*
X109240485Y-65666880D01*
X109145247Y-65619261D01*
X109097628Y-65571642D01*
X109050009Y-65476404D01*
X109050009Y-65381166D01*
X109097628Y-65285928D01*
X109145247Y-65238309D01*
X109240485Y-65190690D01*
X109430961Y-65143071D01*
X109526200Y-65095452D01*
X109573819Y-65047833D01*
X109621438Y-64952595D01*
X109621438Y-64857357D01*
X109573819Y-64762119D01*
X109526200Y-64714500D01*
X109430961Y-64666880D01*
X109192866Y-64666880D01*
X109050009Y-64714500D01*
X108859533Y-64299500D02*
X108002390Y-64299500D01*
X108669057Y-65381166D02*
X108192866Y-65381166D01*
X108764295Y-65666880D02*
X108430961Y-64666880D01*
X108097628Y-65666880D01*
X108002390Y-64299500D02*
X107145247Y-64299500D01*
X107430961Y-65143071D02*
X107764295Y-65143071D01*
X107764295Y-65666880D02*
X107764295Y-64666880D01*
X107288104Y-64666880D01*
X107145247Y-64299500D02*
X106240485Y-64299500D01*
X106907152Y-65143071D02*
X106573819Y-65143071D01*
X106430961Y-65666880D02*
X106907152Y-65666880D01*
X106907152Y-64666880D01*
X106430961Y-64666880D01*
X108954771Y-66839500D02*
X107954771Y-66839500D01*
X108145248Y-68206880D02*
X108478581Y-67730690D01*
X108716676Y-68206880D02*
X108716676Y-67206880D01*
X108335724Y-67206880D01*
X108240486Y-67254500D01*
X108192867Y-67302119D01*
X108145248Y-67397357D01*
X108145248Y-67540214D01*
X108192867Y-67635452D01*
X108240486Y-67683071D01*
X108335724Y-67730690D01*
X108716676Y-67730690D01*
X107954771Y-66839500D02*
X107002390Y-66839500D01*
X107764295Y-68159261D02*
X107621438Y-68206880D01*
X107383343Y-68206880D01*
X107288105Y-68159261D01*
X107240486Y-68111642D01*
X107192867Y-68016404D01*
X107192867Y-67921166D01*
X107240486Y-67825928D01*
X107288105Y-67778309D01*
X107383343Y-67730690D01*
X107573819Y-67683071D01*
X107669057Y-67635452D01*
X107716676Y-67587833D01*
X107764295Y-67492595D01*
X107764295Y-67397357D01*
X107716676Y-67302119D01*
X107669057Y-67254500D01*
X107573819Y-67206880D01*
X107335724Y-67206880D01*
X107192867Y-67254500D01*
X107002390Y-66839500D02*
X106240486Y-66839500D01*
X106907152Y-67206880D02*
X106335724Y-67206880D01*
X106621438Y-68206880D02*
X106621438Y-67206880D01*
X108288104Y-70746880D02*
X108288104Y-69746880D01*
X107811914Y-70746880D02*
X107811914Y-69746880D01*
X107240485Y-70746880D01*
X107240485Y-69746880D01*
X106907152Y-69746880D02*
X106335723Y-69746880D01*
X106621438Y-70746880D02*
X106621438Y-69746880D01*
X89276228Y-73390971D02*
X89276228Y-73057638D01*
X88752419Y-72914780D02*
X88752419Y-73390971D01*
X89752419Y-73390971D01*
X89752419Y-72914780D01*
X88752419Y-72581447D02*
X89419085Y-72057638D01*
X89419085Y-72581447D02*
X88752419Y-72057638D01*
X89419085Y-71819542D02*
X89419085Y-71438590D01*
X89752419Y-71676685D02*
X88895276Y-71676685D01*
X88800038Y-71629066D01*
X88752419Y-71533828D01*
X88752419Y-71438590D01*
X88800038Y-70724304D02*
X88752419Y-70819542D01*
X88752419Y-71010019D01*
X88800038Y-71105257D01*
X88895276Y-71152876D01*
X89276228Y-71152876D01*
X89371466Y-71105257D01*
X89419085Y-71010019D01*
X89419085Y-70819542D01*
X89371466Y-70724304D01*
X89276228Y-70676685D01*
X89180990Y-70676685D01*
X89085752Y-71152876D01*
X88752419Y-70248114D02*
X89419085Y-70248114D01*
X89228609Y-70248114D02*
X89323847Y-70200495D01*
X89371466Y-70152876D01*
X89419085Y-70057638D01*
X89419085Y-69962400D01*
X89419085Y-69629066D02*
X88752419Y-69629066D01*
X89323847Y-69629066D02*
X89371466Y-69581447D01*
X89419085Y-69486209D01*
X89419085Y-69343352D01*
X89371466Y-69248114D01*
X89276228Y-69200495D01*
X88752419Y-69200495D01*
X88752419Y-68295733D02*
X89276228Y-68295733D01*
X89371466Y-68343352D01*
X89419085Y-68438590D01*
X89419085Y-68629066D01*
X89371466Y-68724304D01*
X88800038Y-68295733D02*
X88752419Y-68390971D01*
X88752419Y-68629066D01*
X88800038Y-68724304D01*
X88895276Y-68771923D01*
X88990514Y-68771923D01*
X89085752Y-68724304D01*
X89133371Y-68629066D01*
X89133371Y-68390971D01*
X89180990Y-68295733D01*
X88752419Y-67676685D02*
X88800038Y-67771923D01*
X88895276Y-67819542D01*
X89752419Y-67819542D01*
X88800038Y-66581447D02*
X88752419Y-66438590D01*
X88752419Y-66200495D01*
X88800038Y-66105257D01*
X88847657Y-66057638D01*
X88942895Y-66010019D01*
X89038133Y-66010019D01*
X89133371Y-66057638D01*
X89180990Y-66105257D01*
X89228609Y-66200495D01*
X89276228Y-66390971D01*
X89323847Y-66486209D01*
X89371466Y-66533828D01*
X89466704Y-66581447D01*
X89561942Y-66581447D01*
X89657180Y-66533828D01*
X89704800Y-66486209D01*
X89752419Y-66390971D01*
X89752419Y-66152876D01*
X89704800Y-66010019D01*
X88752419Y-65581447D02*
X89419085Y-65581447D01*
X89752419Y-65581447D02*
X89704800Y-65629066D01*
X89657180Y-65581447D01*
X89704800Y-65533828D01*
X89752419Y-65581447D01*
X89657180Y-65581447D01*
X89419085Y-64676685D02*
X88609561Y-64676685D01*
X88514323Y-64724304D01*
X88466704Y-64771923D01*
X88419085Y-64867161D01*
X88419085Y-65010019D01*
X88466704Y-65105257D01*
X88800038Y-64676685D02*
X88752419Y-64771923D01*
X88752419Y-64962400D01*
X88800038Y-65057638D01*
X88847657Y-65105257D01*
X88942895Y-65152876D01*
X89228609Y-65152876D01*
X89323847Y-65105257D01*
X89371466Y-65057638D01*
X89419085Y-64962400D01*
X89419085Y-64771923D01*
X89371466Y-64676685D01*
X89419085Y-64200495D02*
X88752419Y-64200495D01*
X89323847Y-64200495D02*
X89371466Y-64152876D01*
X89419085Y-64057638D01*
X89419085Y-63914780D01*
X89371466Y-63819542D01*
X89276228Y-63771923D01*
X88752419Y-63771923D01*
X88752419Y-62867161D02*
X89276228Y-62867161D01*
X89371466Y-62914780D01*
X89419085Y-63010019D01*
X89419085Y-63200495D01*
X89371466Y-63295733D01*
X88800038Y-62867161D02*
X88752419Y-62962400D01*
X88752419Y-63200495D01*
X88800038Y-63295733D01*
X88895276Y-63343352D01*
X88990514Y-63343352D01*
X89085752Y-63295733D01*
X89133371Y-63200495D01*
X89133371Y-62962400D01*
X89180990Y-62867161D01*
X88752419Y-62248114D02*
X88800038Y-62343352D01*
X88895276Y-62390971D01*
X89752419Y-62390971D01*
X88800038Y-61914780D02*
X88752419Y-61819542D01*
X88752419Y-61629066D01*
X88800038Y-61533828D01*
X88895276Y-61486209D01*
X88942895Y-61486209D01*
X89038133Y-61533828D01*
X89085752Y-61629066D01*
X89085752Y-61771923D01*
X89133371Y-61867161D01*
X89228609Y-61914780D01*
X89276228Y-61914780D01*
X89371466Y-61867161D01*
X89419085Y-61771923D01*
X89419085Y-61629066D01*
X89371466Y-61533828D01*
X93892666Y-71673980D02*
X94226000Y-71197790D01*
X94464095Y-71673980D02*
X94464095Y-70673980D01*
X94083142Y-70673980D01*
X93987904Y-70721600D01*
X93940285Y-70769219D01*
X93892666Y-70864457D01*
X93892666Y-71007314D01*
X93940285Y-71102552D01*
X93987904Y-71150171D01*
X94083142Y-71197790D01*
X94464095Y-71197790D01*
X93559333Y-70673980D02*
X92892666Y-71673980D01*
X92892666Y-70673980D02*
X93559333Y-71673980D01*
X94233904Y-68133980D02*
X93662476Y-68133980D01*
X93948190Y-69133980D02*
X93948190Y-68133980D01*
X93424380Y-68133980D02*
X92757714Y-69133980D01*
X92757714Y-68133980D02*
X93424380Y-69133980D01*
X95157776Y-66546361D02*
X95014919Y-66593980D01*
X94776823Y-66593980D01*
X94681585Y-66546361D01*
X94633966Y-66498742D01*
X94586347Y-66403504D01*
X94586347Y-66308266D01*
X94633966Y-66213028D01*
X94681585Y-66165409D01*
X94776823Y-66117790D01*
X94967300Y-66070171D01*
X95062538Y-66022552D01*
X95110157Y-65974933D01*
X95157776Y-65879695D01*
X95157776Y-65784457D01*
X95110157Y-65689219D01*
X95062538Y-65641600D01*
X94967300Y-65593980D01*
X94729204Y-65593980D01*
X94586347Y-65641600D01*
X93586347Y-66498742D02*
X93633966Y-66546361D01*
X93776823Y-66593980D01*
X93872061Y-66593980D01*
X94014919Y-66546361D01*
X94110157Y-66451123D01*
X94157776Y-66355885D01*
X94205395Y-66165409D01*
X94205395Y-66022552D01*
X94157776Y-65832076D01*
X94110157Y-65736838D01*
X94014919Y-65641600D01*
X93872061Y-65593980D01*
X93776823Y-65593980D01*
X93633966Y-65641600D01*
X93586347Y-65689219D01*
X92681585Y-66593980D02*
X93157776Y-66593980D01*
X93157776Y-65593980D01*
X95410185Y-64006361D02*
X95267328Y-64053980D01*
X95029233Y-64053980D01*
X94933995Y-64006361D01*
X94886376Y-63958742D01*
X94838757Y-63863504D01*
X94838757Y-63768266D01*
X94886376Y-63673028D01*
X94933995Y-63625409D01*
X95029233Y-63577790D01*
X95219709Y-63530171D01*
X95314947Y-63482552D01*
X95362566Y-63434933D01*
X95410185Y-63339695D01*
X95410185Y-63244457D01*
X95362566Y-63149219D01*
X95314947Y-63101600D01*
X95219709Y-63053980D01*
X94981614Y-63053980D01*
X94838757Y-63101600D01*
X94410185Y-64053980D02*
X94410185Y-63053980D01*
X94172090Y-63053980D01*
X94029233Y-63101600D01*
X93933995Y-63196838D01*
X93886376Y-63292076D01*
X93838757Y-63482552D01*
X93838757Y-63625409D01*
X93886376Y-63815885D01*
X93933995Y-63911123D01*
X94029233Y-64006361D01*
X94172090Y-64053980D01*
X94410185Y-64053980D01*
X93457804Y-63768266D02*
X92981614Y-63768266D01*
X93553042Y-64053980D02*
X93219709Y-63053980D01*
X92886376Y-64053980D01*
X134266557Y-66773442D02*
X134933223Y-66773442D01*
X134933223Y-67821061D02*
X134933223Y-65821061D01*
X133980842Y-65821061D01*
X132457033Y-67725823D02*
X132647509Y-67821061D01*
X133028461Y-67821061D01*
X133218938Y-67725823D01*
X133314176Y-67535347D01*
X133314176Y-66773442D01*
X133218938Y-66582966D01*
X133028461Y-66487728D01*
X132647509Y-66487728D01*
X132457033Y-66582966D01*
X132361795Y-66773442D01*
X132361795Y-66963919D01*
X133314176Y-67154395D01*
X130647509Y-67821061D02*
X130647509Y-66773442D01*
X130742747Y-66582966D01*
X130933223Y-66487728D01*
X131314176Y-66487728D01*
X131504652Y-66582966D01*
X130647509Y-67725823D02*
X130837985Y-67821061D01*
X131314176Y-67821061D01*
X131504652Y-67725823D01*
X131599890Y-67535347D01*
X131599890Y-67344871D01*
X131504652Y-67154395D01*
X131314176Y-67059157D01*
X130837985Y-67059157D01*
X130647509Y-66963919D01*
X129980842Y-66487728D02*
X129218938Y-66487728D01*
X129695128Y-65821061D02*
X129695128Y-67535347D01*
X129599890Y-67725823D01*
X129409414Y-67821061D01*
X129218938Y-67821061D01*
X128552271Y-67821061D02*
X128552271Y-65821061D01*
X127695128Y-67821061D02*
X127695128Y-66773442D01*
X127790366Y-66582966D01*
X127980842Y-66487728D01*
X128266557Y-66487728D01*
X128457033Y-66582966D01*
X128552271Y-66678204D01*
X125980842Y-67725823D02*
X126171319Y-67821061D01*
X126552271Y-67821061D01*
X126742747Y-67725823D01*
X126837985Y-67535347D01*
X126837985Y-66773442D01*
X126742747Y-66582966D01*
X126552271Y-66487728D01*
X126171319Y-66487728D01*
X125980842Y-66582966D01*
X125885604Y-66773442D01*
X125885604Y-66963919D01*
X126837985Y-67154395D01*
X125028461Y-67821061D02*
X125028461Y-66487728D01*
X125028461Y-66868680D02*
X124933223Y-66678204D01*
X124837985Y-66582966D01*
X124647509Y-66487728D01*
X124457033Y-66487728D01*
X121218938Y-65916300D02*
X121409414Y-65821061D01*
X121695128Y-65821061D01*
X121980842Y-65916300D01*
X122171319Y-66106776D01*
X122266557Y-66297252D01*
X122361795Y-66678204D01*
X122361795Y-66963919D01*
X122266557Y-67344871D01*
X122171319Y-67535347D01*
X121980842Y-67725823D01*
X121695128Y-67821061D01*
X121504652Y-67821061D01*
X121218938Y-67725823D01*
X121123700Y-67630585D01*
X121123700Y-66963919D01*
X121504652Y-66963919D01*
X120266557Y-67821061D02*
X120266557Y-65821061D01*
X119504652Y-65821061D01*
X119314176Y-65916300D01*
X119218938Y-66011538D01*
X119123700Y-66202014D01*
X119123700Y-66487728D01*
X119218938Y-66678204D01*
X119314176Y-66773442D01*
X119504652Y-66868680D01*
X120266557Y-66868680D01*
X118361795Y-67725823D02*
X118076080Y-67821061D01*
X117599890Y-67821061D01*
X117409414Y-67725823D01*
X117314176Y-67630585D01*
X117218938Y-67440109D01*
X117218938Y-67249633D01*
X117314176Y-67059157D01*
X117409414Y-66963919D01*
X117599890Y-66868680D01*
X117980842Y-66773442D01*
X118171319Y-66678204D01*
X118266557Y-66582966D01*
X118361795Y-66392490D01*
X118361795Y-66202014D01*
X118266557Y-66011538D01*
X118171319Y-65916300D01*
X117980842Y-65821061D01*
X117504652Y-65821061D01*
X117218938Y-65916300D01*
X101585590Y-58974480D02*
X101585590Y-57974480D01*
X101157019Y-58069719D02*
X101109400Y-58022100D01*
X101014161Y-57974480D01*
X100776066Y-57974480D01*
X100680828Y-58022100D01*
X100633209Y-58069719D01*
X100585590Y-58164957D01*
X100585590Y-58260195D01*
X100633209Y-58403052D01*
X101204638Y-58974480D01*
X100585590Y-58974480D01*
X99585590Y-58879242D02*
X99633209Y-58926861D01*
X99776066Y-58974480D01*
X99871304Y-58974480D01*
X100014161Y-58926861D01*
X100109400Y-58831623D01*
X100157019Y-58736385D01*
X100204638Y-58545909D01*
X100204638Y-58403052D01*
X100157019Y-58212576D01*
X100109400Y-58117338D01*
X100014161Y-58022100D01*
X99871304Y-57974480D01*
X99776066Y-57974480D01*
X99633209Y-58022100D01*
X99585590Y-58069719D01*
X103157019Y-60624480D02*
X103157019Y-59624480D01*
X102776066Y-59624480D01*
X102680828Y-59672100D01*
X102633209Y-59719719D01*
X102585590Y-59814957D01*
X102585590Y-59957814D01*
X102633209Y-60053052D01*
X102680828Y-60100671D01*
X102776066Y-60148290D01*
X103157019Y-60148290D01*
X101728447Y-59957814D02*
X101728447Y-60624480D01*
X102157019Y-59957814D02*
X102157019Y-60481623D01*
X102109400Y-60576861D01*
X102014161Y-60624480D01*
X101871304Y-60624480D01*
X101776066Y-60576861D01*
X101728447Y-60529242D01*
X101109400Y-60624480D02*
X101204638Y-60576861D01*
X101252257Y-60481623D01*
X101252257Y-59624480D01*
X100585590Y-60624480D02*
X100680828Y-60576861D01*
X100728447Y-60481623D01*
X100728447Y-59624480D01*
X99776066Y-59957814D02*
X99776066Y-60624480D01*
X100204638Y-59957814D02*
X100204638Y-60481623D01*
X100157019Y-60576861D01*
X100061780Y-60624480D01*
X99918923Y-60624480D01*
X99823685Y-60576861D01*
X99776066Y-60529242D01*
X99299876Y-59957814D02*
X99299876Y-60957814D01*
X99299876Y-60005433D02*
X99204638Y-59957814D01*
X99014161Y-59957814D01*
X98918923Y-60005433D01*
X98871304Y-60053052D01*
X98823685Y-60148290D01*
X98823685Y-60434004D01*
X98871304Y-60529242D01*
X98918923Y-60576861D01*
X99014161Y-60624480D01*
X99204638Y-60624480D01*
X99299876Y-60576861D01*
X98442733Y-60576861D02*
X98347495Y-60624480D01*
X98157019Y-60624480D01*
X98061780Y-60576861D01*
X98014161Y-60481623D01*
X98014161Y-60434004D01*
X98061780Y-60338766D01*
X98157019Y-60291147D01*
X98299876Y-60291147D01*
X98395114Y-60243528D01*
X98442733Y-60148290D01*
X98442733Y-60100671D01*
X98395114Y-60005433D01*
X98299876Y-59957814D01*
X98157019Y-59957814D01*
X98061780Y-60005433D01*
X104969985Y-72242871D02*
X105303319Y-72242871D01*
X105303319Y-72766680D02*
X105303319Y-71766680D01*
X104827128Y-71766680D01*
X104065223Y-72719061D02*
X104160461Y-72766680D01*
X104350938Y-72766680D01*
X104446176Y-72719061D01*
X104493795Y-72623823D01*
X104493795Y-72242871D01*
X104446176Y-72147633D01*
X104350938Y-72100014D01*
X104160461Y-72100014D01*
X104065223Y-72147633D01*
X104017604Y-72242871D01*
X104017604Y-72338109D01*
X104493795Y-72433347D01*
X103160461Y-72766680D02*
X103160461Y-72242871D01*
X103208080Y-72147633D01*
X103303319Y-72100014D01*
X103493795Y-72100014D01*
X103589033Y-72147633D01*
X103160461Y-72719061D02*
X103255700Y-72766680D01*
X103493795Y-72766680D01*
X103589033Y-72719061D01*
X103636652Y-72623823D01*
X103636652Y-72528585D01*
X103589033Y-72433347D01*
X103493795Y-72385728D01*
X103255700Y-72385728D01*
X103160461Y-72338109D01*
X102827128Y-72100014D02*
X102446176Y-72100014D01*
X102684271Y-71766680D02*
X102684271Y-72623823D01*
X102636652Y-72719061D01*
X102541414Y-72766680D01*
X102446176Y-72766680D01*
X102112842Y-72766680D02*
X102112842Y-71766680D01*
X101684271Y-72766680D02*
X101684271Y-72242871D01*
X101731890Y-72147633D01*
X101827128Y-72100014D01*
X101969985Y-72100014D01*
X102065223Y-72147633D01*
X102112842Y-72195252D01*
X100827128Y-72719061D02*
X100922366Y-72766680D01*
X101112842Y-72766680D01*
X101208080Y-72719061D01*
X101255700Y-72623823D01*
X101255700Y-72242871D01*
X101208080Y-72147633D01*
X101112842Y-72100014D01*
X100922366Y-72100014D01*
X100827128Y-72147633D01*
X100779509Y-72242871D01*
X100779509Y-72338109D01*
X101255700Y-72433347D01*
X100350938Y-72766680D02*
X100350938Y-72100014D01*
X100350938Y-72290490D02*
X100303319Y-72195252D01*
X100255700Y-72147633D01*
X100160461Y-72100014D01*
X100065223Y-72100014D01*
X104350938Y-73416680D02*
X104350938Y-74226204D01*
X104303319Y-74321442D01*
X104255700Y-74369061D01*
X104160461Y-74416680D01*
X103969985Y-74416680D01*
X103874747Y-74369061D01*
X103827128Y-74321442D01*
X103779509Y-74226204D01*
X103779509Y-73416680D01*
X103350938Y-74130966D02*
X102874747Y-74130966D01*
X103446176Y-74416680D02*
X103112842Y-73416680D01*
X102779509Y-74416680D01*
X101874747Y-74416680D02*
X102208080Y-73940490D01*
X102446176Y-74416680D02*
X102446176Y-73416680D01*
X102065223Y-73416680D01*
X101969985Y-73464300D01*
X101922366Y-73511919D01*
X101874747Y-73607157D01*
X101874747Y-73750014D01*
X101922366Y-73845252D01*
X101969985Y-73892871D01*
X102065223Y-73940490D01*
X102446176Y-73940490D01*
X101589033Y-73416680D02*
X101017604Y-73416680D01*
X101303319Y-74416680D02*
X101303319Y-73416680D01*
X131601885Y-62489271D02*
X131935219Y-62489271D01*
X131935219Y-63013080D02*
X131935219Y-62013080D01*
X131459028Y-62013080D01*
X130697123Y-62965461D02*
X130792361Y-63013080D01*
X130982838Y-63013080D01*
X131078076Y-62965461D01*
X131125695Y-62870223D01*
X131125695Y-62489271D01*
X131078076Y-62394033D01*
X130982838Y-62346414D01*
X130792361Y-62346414D01*
X130697123Y-62394033D01*
X130649504Y-62489271D01*
X130649504Y-62584509D01*
X131125695Y-62679747D01*
X129792361Y-63013080D02*
X129792361Y-62489271D01*
X129839980Y-62394033D01*
X129935219Y-62346414D01*
X130125695Y-62346414D01*
X130220933Y-62394033D01*
X129792361Y-62965461D02*
X129887600Y-63013080D01*
X130125695Y-63013080D01*
X130220933Y-62965461D01*
X130268552Y-62870223D01*
X130268552Y-62774985D01*
X130220933Y-62679747D01*
X130125695Y-62632128D01*
X129887600Y-62632128D01*
X129792361Y-62584509D01*
X129459028Y-62346414D02*
X129078076Y-62346414D01*
X129316171Y-62013080D02*
X129316171Y-62870223D01*
X129268552Y-62965461D01*
X129173314Y-63013080D01*
X129078076Y-63013080D01*
X128744742Y-63013080D02*
X128744742Y-62013080D01*
X128316171Y-63013080D02*
X128316171Y-62489271D01*
X128363790Y-62394033D01*
X128459028Y-62346414D01*
X128601885Y-62346414D01*
X128697123Y-62394033D01*
X128744742Y-62441652D01*
X127459028Y-62965461D02*
X127554266Y-63013080D01*
X127744742Y-63013080D01*
X127839980Y-62965461D01*
X127887600Y-62870223D01*
X127887600Y-62489271D01*
X127839980Y-62394033D01*
X127744742Y-62346414D01*
X127554266Y-62346414D01*
X127459028Y-62394033D01*
X127411409Y-62489271D01*
X127411409Y-62584509D01*
X127887600Y-62679747D01*
X126982838Y-63013080D02*
X126982838Y-62346414D01*
X126982838Y-62536890D02*
X126935219Y-62441652D01*
X126887600Y-62394033D01*
X126792361Y-62346414D01*
X126697123Y-62346414D01*
X130363790Y-64663080D02*
X130363790Y-63663080D01*
X129935219Y-63758319D02*
X129887600Y-63710700D01*
X129792361Y-63663080D01*
X129554266Y-63663080D01*
X129459028Y-63710700D01*
X129411409Y-63758319D01*
X129363790Y-63853557D01*
X129363790Y-63948795D01*
X129411409Y-64091652D01*
X129982838Y-64663080D01*
X129363790Y-64663080D01*
X128363790Y-64567842D02*
X128411409Y-64615461D01*
X128554266Y-64663080D01*
X128649504Y-64663080D01*
X128792361Y-64615461D01*
X128887600Y-64520223D01*
X128935219Y-64424985D01*
X128982838Y-64234509D01*
X128982838Y-64091652D01*
X128935219Y-63901176D01*
X128887600Y-63805938D01*
X128792361Y-63710700D01*
X128649504Y-63663080D01*
X128554266Y-63663080D01*
X128411409Y-63710700D01*
X128363790Y-63758319D01*
D11*
X129498600Y-60745600D02*
X129498600Y-59345600D01*
X128798600Y-58645600D02*
X128198600Y-58645600D01*
X127498600Y-59345600D02*
X127498600Y-60745600D01*
X128198600Y-61445600D02*
X128798600Y-61445600D01*
X128798600Y-61445600D02*
G75*
G03X129498600Y-60745600I0J700000D01*
G01*
X127498600Y-60745600D02*
G75*
G03X128198600Y-61445600I700000J0D01*
G01*
X128198600Y-58645600D02*
G75*
G03X127498600Y-59345600I0J-700000D01*
G01*
X129498600Y-59345600D02*
G75*
G03X128798600Y-58645600I-700000J0D01*
G01*
X131657600Y-60745600D02*
X131657600Y-59345600D01*
X130957600Y-58645600D02*
X130357600Y-58645600D01*
X129657600Y-59345600D02*
X129657600Y-60745600D01*
X130357600Y-61445600D02*
X130957600Y-61445600D01*
X130957600Y-61445600D02*
G75*
G03X131657600Y-60745600I0J700000D01*
G01*
X129657600Y-60745600D02*
G75*
G03X130357600Y-61445600I700000J0D01*
G01*
X130357600Y-58645600D02*
G75*
G03X129657600Y-59345600I0J-700000D01*
G01*
X131657600Y-59345600D02*
G75*
G03X130957600Y-58645600I-700000J0D01*
G01*
X105921300Y-73737700D02*
G75*
G03X106621300Y-74437700I700000J0D01*
G01*
X107221300Y-74437700D02*
G75*
G03X107921300Y-73737700I0J700000D01*
G01*
X107921300Y-72337700D02*
G75*
G03X107221300Y-71637700I-700000J0D01*
G01*
X106621300Y-71637700D02*
G75*
G03X105921300Y-72337700I0J-700000D01*
G01*
X107221300Y-71637700D02*
X106621300Y-71637700D01*
X107921300Y-73737700D02*
X107921300Y-72337700D01*
X106621300Y-74437700D02*
X107221300Y-74437700D01*
X105921300Y-72337700D02*
X105921300Y-73737700D01*
X108080300Y-73750400D02*
G75*
G03X108780300Y-74450400I700000J0D01*
G01*
X109380300Y-74450400D02*
G75*
G03X110080300Y-73750400I0J700000D01*
G01*
X110080300Y-72350400D02*
G75*
G03X109380300Y-71650400I-700000J0D01*
G01*
X108780300Y-71650400D02*
G75*
G03X108080300Y-72350400I0J-700000D01*
G01*
X109380300Y-71650400D02*
X108780300Y-71650400D01*
X110080300Y-73750400D02*
X110080300Y-72350400D01*
X108780300Y-74450400D02*
X109380300Y-74450400D01*
X108080300Y-72350400D02*
X108080300Y-73750400D01*
X101472200Y-63109600D02*
X100072200Y-63109600D01*
X99372200Y-63809600D02*
X99372200Y-64409600D01*
X100072200Y-65109600D02*
X101472200Y-65109600D01*
X102172200Y-64409600D02*
X102172200Y-63809600D01*
X102172200Y-63809600D02*
G75*
G03X101472200Y-63109600I-700000J0D01*
G01*
X101472200Y-65109600D02*
G75*
G03X102172200Y-64409600I0J700000D01*
G01*
X99372200Y-64409600D02*
G75*
G03X100072200Y-65109600I700000J0D01*
G01*
X100072200Y-63109600D02*
G75*
G03X99372200Y-63809600I0J-700000D01*
G01*
X101472200Y-60976000D02*
X100072200Y-60976000D01*
X99372200Y-61676000D02*
X99372200Y-62276000D01*
X100072200Y-62976000D02*
X101472200Y-62976000D01*
X102172200Y-62276000D02*
X102172200Y-61676000D01*
X102172200Y-61676000D02*
G75*
G03X101472200Y-60976000I-700000J0D01*
G01*
X101472200Y-62976000D02*
G75*
G03X102172200Y-62276000I0J700000D01*
G01*
X99372200Y-62276000D02*
G75*
G03X100072200Y-62976000I700000J0D01*
G01*
X100072200Y-60976000D02*
G75*
G03X99372200Y-61676000I0J-700000D01*
G01*
M02*
