G04 #@! TF.GenerationSoftware,KiCad,Pcbnew,(5.1.4)-1*
G04 #@! TF.CreationDate,2019-11-09T17:02:04-05:00*
G04 #@! TF.ProjectId,Feather-SAM-M8Q-GPS,46656174-6865-4722-9d53-414d2d4d3851,rev?*
G04 #@! TF.SameCoordinates,Original*
G04 #@! TF.FileFunction,Legend,Top*
G04 #@! TF.FilePolarity,Positive*
%FSLAX46Y46*%
G04 Gerber Fmt 4.6, Leading zero omitted, Abs format (unit mm)*
G04 Created by KiCad (PCBNEW (5.1.4)-1) date 2019-11-09 17:02:04*
%MOMM*%
%LPD*%
G04 APERTURE LIST*
%ADD10C,0.150000*%
%ADD11C,0.120000*%
G04 APERTURE END LIST*
D10*
X89403228Y-61483028D02*
X89403228Y-61816361D01*
X88879419Y-61959219D02*
X88879419Y-61483028D01*
X89879419Y-61483028D01*
X89879419Y-61959219D01*
X88879419Y-62292552D02*
X89546085Y-62816361D01*
X89546085Y-62292552D02*
X88879419Y-62816361D01*
X89546085Y-63054457D02*
X89546085Y-63435409D01*
X89879419Y-63197314D02*
X89022276Y-63197314D01*
X88927038Y-63244933D01*
X88879419Y-63340171D01*
X88879419Y-63435409D01*
X88927038Y-64149695D02*
X88879419Y-64054457D01*
X88879419Y-63863980D01*
X88927038Y-63768742D01*
X89022276Y-63721123D01*
X89403228Y-63721123D01*
X89498466Y-63768742D01*
X89546085Y-63863980D01*
X89546085Y-64054457D01*
X89498466Y-64149695D01*
X89403228Y-64197314D01*
X89307990Y-64197314D01*
X89212752Y-63721123D01*
X88879419Y-64625885D02*
X89546085Y-64625885D01*
X89355609Y-64625885D02*
X89450847Y-64673504D01*
X89498466Y-64721123D01*
X89546085Y-64816361D01*
X89546085Y-64911600D01*
X89546085Y-65244933D02*
X88879419Y-65244933D01*
X89450847Y-65244933D02*
X89498466Y-65292552D01*
X89546085Y-65387790D01*
X89546085Y-65530647D01*
X89498466Y-65625885D01*
X89403228Y-65673504D01*
X88879419Y-65673504D01*
X88879419Y-66578266D02*
X89403228Y-66578266D01*
X89498466Y-66530647D01*
X89546085Y-66435409D01*
X89546085Y-66244933D01*
X89498466Y-66149695D01*
X88927038Y-66578266D02*
X88879419Y-66483028D01*
X88879419Y-66244933D01*
X88927038Y-66149695D01*
X89022276Y-66102076D01*
X89117514Y-66102076D01*
X89212752Y-66149695D01*
X89260371Y-66244933D01*
X89260371Y-66483028D01*
X89307990Y-66578266D01*
X88879419Y-67197314D02*
X88927038Y-67102076D01*
X89022276Y-67054457D01*
X89879419Y-67054457D01*
X88927038Y-68292552D02*
X88879419Y-68435409D01*
X88879419Y-68673504D01*
X88927038Y-68768742D01*
X88974657Y-68816361D01*
X89069895Y-68863980D01*
X89165133Y-68863980D01*
X89260371Y-68816361D01*
X89307990Y-68768742D01*
X89355609Y-68673504D01*
X89403228Y-68483028D01*
X89450847Y-68387790D01*
X89498466Y-68340171D01*
X89593704Y-68292552D01*
X89688942Y-68292552D01*
X89784180Y-68340171D01*
X89831800Y-68387790D01*
X89879419Y-68483028D01*
X89879419Y-68721123D01*
X89831800Y-68863980D01*
X88879419Y-69292552D02*
X89546085Y-69292552D01*
X89879419Y-69292552D02*
X89831800Y-69244933D01*
X89784180Y-69292552D01*
X89831800Y-69340171D01*
X89879419Y-69292552D01*
X89784180Y-69292552D01*
X89546085Y-70197314D02*
X88736561Y-70197314D01*
X88641323Y-70149695D01*
X88593704Y-70102076D01*
X88546085Y-70006838D01*
X88546085Y-69863980D01*
X88593704Y-69768742D01*
X88927038Y-70197314D02*
X88879419Y-70102076D01*
X88879419Y-69911600D01*
X88927038Y-69816361D01*
X88974657Y-69768742D01*
X89069895Y-69721123D01*
X89355609Y-69721123D01*
X89450847Y-69768742D01*
X89498466Y-69816361D01*
X89546085Y-69911600D01*
X89546085Y-70102076D01*
X89498466Y-70197314D01*
X89546085Y-70673504D02*
X88879419Y-70673504D01*
X89450847Y-70673504D02*
X89498466Y-70721123D01*
X89546085Y-70816361D01*
X89546085Y-70959219D01*
X89498466Y-71054457D01*
X89403228Y-71102076D01*
X88879419Y-71102076D01*
X88879419Y-72006838D02*
X89403228Y-72006838D01*
X89498466Y-71959219D01*
X89546085Y-71863980D01*
X89546085Y-71673504D01*
X89498466Y-71578266D01*
X88927038Y-72006838D02*
X88879419Y-71911600D01*
X88879419Y-71673504D01*
X88927038Y-71578266D01*
X89022276Y-71530647D01*
X89117514Y-71530647D01*
X89212752Y-71578266D01*
X89260371Y-71673504D01*
X89260371Y-71911600D01*
X89307990Y-72006838D01*
X88879419Y-72625885D02*
X88927038Y-72530647D01*
X89022276Y-72483028D01*
X89879419Y-72483028D01*
X88927038Y-72959219D02*
X88879419Y-73054457D01*
X88879419Y-73244933D01*
X88927038Y-73340171D01*
X89022276Y-73387790D01*
X89069895Y-73387790D01*
X89165133Y-73340171D01*
X89212752Y-73244933D01*
X89212752Y-73102076D01*
X89260371Y-73006838D01*
X89355609Y-72959219D01*
X89403228Y-72959219D01*
X89498466Y-73006838D01*
X89546085Y-73102076D01*
X89546085Y-73244933D01*
X89498466Y-73340171D01*
D11*
X106267300Y-67767200D02*
G75*
G03X106267300Y-67767200I-1251000J0D01*
G01*
X106267300Y-65227200D02*
G75*
G03X106267300Y-65227200I-1251000J0D01*
G01*
X106267300Y-70307200D02*
G75*
G03X106267300Y-70307200I-1251000J0D01*
G01*
X92564000Y-63601600D02*
G75*
G03X92564000Y-63601600I-1251000J0D01*
G01*
X92564000Y-66141600D02*
G75*
G03X92564000Y-66141600I-1251000J0D01*
G01*
X92564000Y-71221600D02*
G75*
G03X92564000Y-71221600I-1251000J0D01*
G01*
X92564000Y-68681600D02*
G75*
G03X92564000Y-68681600I-1251000J0D01*
G01*
X127257000Y-74712800D02*
X111647000Y-74712800D01*
X111647000Y-74712800D02*
X111647000Y-58992800D01*
X127367000Y-58992800D02*
X111647000Y-58992800D01*
X127367000Y-69652800D02*
X127367000Y-58992800D01*
X101514600Y-57099200D02*
X101514600Y-55769200D01*
X101514600Y-55769200D02*
X102844600Y-55769200D01*
X104114600Y-55769200D02*
X132114600Y-55769200D01*
X132114600Y-58429200D02*
X132114600Y-55769200D01*
X104114600Y-58429200D02*
X132114600Y-58429200D01*
X104114600Y-58429200D02*
X104114600Y-55769200D01*
X91354600Y-77419200D02*
X91354600Y-76089200D01*
X91354600Y-76089200D02*
X92684600Y-76089200D01*
X93954600Y-76089200D02*
X132114600Y-76089200D01*
X132114600Y-78749200D02*
X132114600Y-76089200D01*
X93954600Y-78749200D02*
X132114600Y-78749200D01*
X93954600Y-78749200D02*
X93954600Y-76089200D01*
X130881000Y-71941400D02*
X130881000Y-69256400D01*
X128961000Y-71941400D02*
X130881000Y-71941400D01*
X128961000Y-69256400D02*
X128961000Y-71941400D01*
X106192822Y-63448000D02*
X106709978Y-63448000D01*
X106192822Y-62028000D02*
X106709978Y-62028000D01*
X106192822Y-61492200D02*
X106709978Y-61492200D01*
X106192822Y-60072200D02*
X106709978Y-60072200D01*
X97277422Y-74293800D02*
X97794578Y-74293800D01*
X97277422Y-72873800D02*
X97794578Y-72873800D01*
X97328222Y-60577800D02*
X97845378Y-60577800D01*
X97328222Y-59157800D02*
X97845378Y-59157800D01*
X132948178Y-70460800D02*
X132431022Y-70460800D01*
X132948178Y-71880800D02*
X132431022Y-71880800D01*
X109520222Y-69594800D02*
X110037378Y-69594800D01*
X109520222Y-68174800D02*
X110037378Y-68174800D01*
X109520222Y-71499800D02*
X110037378Y-71499800D01*
X109520222Y-70079800D02*
X110037378Y-70079800D01*
X109571022Y-63448000D02*
X110088178Y-63448000D01*
X109571022Y-62028000D02*
X110088178Y-62028000D01*
X109571022Y-61492200D02*
X110088178Y-61492200D01*
X109571022Y-60072200D02*
X110088178Y-60072200D01*
X101436400Y-74583800D02*
X100036400Y-74583800D01*
X99336400Y-73883800D02*
X99336400Y-73283800D01*
X100036400Y-72583800D02*
X101436400Y-72583800D01*
X102136400Y-73283800D02*
X102136400Y-73883800D01*
X102136400Y-73883800D02*
G75*
G02X101436400Y-74583800I-700000J0D01*
G01*
X101436400Y-72583800D02*
G75*
G02X102136400Y-73283800I0J-700000D01*
G01*
X99336400Y-73283800D02*
G75*
G02X100036400Y-72583800I700000J0D01*
G01*
X100036400Y-74583800D02*
G75*
G02X99336400Y-73883800I0J700000D01*
G01*
X101411000Y-60867800D02*
X100011000Y-60867800D01*
X99311000Y-60167800D02*
X99311000Y-59567800D01*
X100011000Y-58867800D02*
X101411000Y-58867800D01*
X102111000Y-59567800D02*
X102111000Y-60167800D01*
X102111000Y-60167800D02*
G75*
G02X101411000Y-60867800I-700000J0D01*
G01*
X101411000Y-58867800D02*
G75*
G02X102111000Y-59567800I0J-700000D01*
G01*
X99311000Y-59567800D02*
G75*
G02X100011000Y-58867800I700000J0D01*
G01*
X100011000Y-60867800D02*
G75*
G02X99311000Y-60167800I0J700000D01*
G01*
X92447400Y-74543800D02*
X95132400Y-74543800D01*
X92447400Y-72623800D02*
X92447400Y-74543800D01*
X95132400Y-72623800D02*
X92447400Y-72623800D01*
X92447400Y-60827800D02*
X95132400Y-60827800D01*
X92447400Y-58907800D02*
X92447400Y-60827800D01*
X95132400Y-58907800D02*
X92447400Y-58907800D01*
X129183200Y-66679578D02*
X129183200Y-66162422D01*
X127763200Y-66679578D02*
X127763200Y-66162422D01*
X129814822Y-75081200D02*
X130331978Y-75081200D01*
X129814822Y-73661200D02*
X130331978Y-73661200D01*
X136575200Y-63529200D02*
G75*
G03X136575200Y-63529200I-3530000J0D01*
G01*
D10*
X100874171Y-66839500D02*
X101874171Y-66839500D01*
X101683694Y-68206880D02*
X101350361Y-67730690D01*
X101112266Y-68206880D02*
X101112266Y-67206880D01*
X101493218Y-67206880D01*
X101588456Y-67254500D01*
X101636075Y-67302119D01*
X101683694Y-67397357D01*
X101683694Y-67540214D01*
X101636075Y-67635452D01*
X101588456Y-67683071D01*
X101493218Y-67730690D01*
X101112266Y-67730690D01*
X101874171Y-66839500D02*
X102826552Y-66839500D01*
X102064647Y-68159261D02*
X102207504Y-68206880D01*
X102445599Y-68206880D01*
X102540837Y-68159261D01*
X102588456Y-68111642D01*
X102636075Y-68016404D01*
X102636075Y-67921166D01*
X102588456Y-67825928D01*
X102540837Y-67778309D01*
X102445599Y-67730690D01*
X102255123Y-67683071D01*
X102159885Y-67635452D01*
X102112266Y-67587833D01*
X102064647Y-67492595D01*
X102064647Y-67397357D01*
X102112266Y-67302119D01*
X102159885Y-67254500D01*
X102255123Y-67206880D01*
X102493218Y-67206880D01*
X102636075Y-67254500D01*
X102826552Y-66839500D02*
X103588456Y-66839500D01*
X102921790Y-67206880D02*
X103493218Y-67206880D01*
X103207504Y-68206880D02*
X103207504Y-67206880D01*
X100017027Y-64299500D02*
X100969408Y-64299500D01*
X100207503Y-65619261D02*
X100350361Y-65666880D01*
X100588456Y-65666880D01*
X100683694Y-65619261D01*
X100731313Y-65571642D01*
X100778932Y-65476404D01*
X100778932Y-65381166D01*
X100731313Y-65285928D01*
X100683694Y-65238309D01*
X100588456Y-65190690D01*
X100397980Y-65143071D01*
X100302742Y-65095452D01*
X100255122Y-65047833D01*
X100207503Y-64952595D01*
X100207503Y-64857357D01*
X100255122Y-64762119D01*
X100302742Y-64714500D01*
X100397980Y-64666880D01*
X100636075Y-64666880D01*
X100778932Y-64714500D01*
X100969408Y-64299500D02*
X101826551Y-64299500D01*
X101159884Y-65381166D02*
X101636075Y-65381166D01*
X101064646Y-65666880D02*
X101397980Y-64666880D01*
X101731313Y-65666880D01*
X101826551Y-64299500D02*
X102683694Y-64299500D01*
X102397980Y-65143071D02*
X102064646Y-65143071D01*
X102064646Y-65666880D02*
X102064646Y-64666880D01*
X102540837Y-64666880D01*
X102683694Y-64299500D02*
X103588456Y-64299500D01*
X102921789Y-65143071D02*
X103255122Y-65143071D01*
X103397980Y-65666880D02*
X102921789Y-65666880D01*
X102921789Y-64666880D01*
X103397980Y-64666880D01*
X101540838Y-70746880D02*
X101540838Y-69746880D01*
X102017028Y-70746880D02*
X102017028Y-69746880D01*
X102588457Y-70746880D01*
X102588457Y-69746880D01*
X102921790Y-69746880D02*
X103493219Y-69746880D01*
X103207504Y-70746880D02*
X103207504Y-69746880D01*
X92848324Y-64006361D02*
X92991181Y-64053980D01*
X93229276Y-64053980D01*
X93324514Y-64006361D01*
X93372133Y-63958742D01*
X93419752Y-63863504D01*
X93419752Y-63768266D01*
X93372133Y-63673028D01*
X93324514Y-63625409D01*
X93229276Y-63577790D01*
X93038800Y-63530171D01*
X92943562Y-63482552D01*
X92895943Y-63434933D01*
X92848324Y-63339695D01*
X92848324Y-63244457D01*
X92895943Y-63149219D01*
X92943562Y-63101600D01*
X93038800Y-63053980D01*
X93276895Y-63053980D01*
X93419752Y-63101600D01*
X93848324Y-64053980D02*
X93848324Y-63053980D01*
X94086419Y-63053980D01*
X94229276Y-63101600D01*
X94324514Y-63196838D01*
X94372133Y-63292076D01*
X94419752Y-63482552D01*
X94419752Y-63625409D01*
X94372133Y-63815885D01*
X94324514Y-63911123D01*
X94229276Y-64006361D01*
X94086419Y-64053980D01*
X93848324Y-64053980D01*
X94800705Y-63768266D02*
X95276895Y-63768266D01*
X94705467Y-64053980D02*
X95038800Y-63053980D01*
X95372133Y-64053980D01*
X92848323Y-66546361D02*
X92991180Y-66593980D01*
X93229276Y-66593980D01*
X93324514Y-66546361D01*
X93372133Y-66498742D01*
X93419752Y-66403504D01*
X93419752Y-66308266D01*
X93372133Y-66213028D01*
X93324514Y-66165409D01*
X93229276Y-66117790D01*
X93038800Y-66070171D01*
X92943561Y-66022552D01*
X92895942Y-65974933D01*
X92848323Y-65879695D01*
X92848323Y-65784457D01*
X92895942Y-65689219D01*
X92943561Y-65641600D01*
X93038800Y-65593980D01*
X93276895Y-65593980D01*
X93419752Y-65641600D01*
X94419752Y-66498742D02*
X94372133Y-66546361D01*
X94229276Y-66593980D01*
X94134038Y-66593980D01*
X93991180Y-66546361D01*
X93895942Y-66451123D01*
X93848323Y-66355885D01*
X93800704Y-66165409D01*
X93800704Y-66022552D01*
X93848323Y-65832076D01*
X93895942Y-65736838D01*
X93991180Y-65641600D01*
X94134038Y-65593980D01*
X94229276Y-65593980D01*
X94372133Y-65641600D01*
X94419752Y-65689219D01*
X95324514Y-66593980D02*
X94848323Y-66593980D01*
X94848323Y-65593980D01*
X93467371Y-71673980D02*
X93134038Y-71197790D01*
X92895942Y-71673980D02*
X92895942Y-70673980D01*
X93276895Y-70673980D01*
X93372133Y-70721600D01*
X93419752Y-70769219D01*
X93467371Y-70864457D01*
X93467371Y-71007314D01*
X93419752Y-71102552D01*
X93372133Y-71150171D01*
X93276895Y-71197790D01*
X92895942Y-71197790D01*
X93800704Y-70673980D02*
X94467371Y-71673980D01*
X94467371Y-70673980D02*
X93800704Y-71673980D01*
X92753086Y-68133980D02*
X93324514Y-68133980D01*
X93038800Y-69133980D02*
X93038800Y-68133980D01*
X93562610Y-68133980D02*
X94229276Y-69133980D01*
X94229276Y-68133980D02*
X93562610Y-69133980D01*
M02*
