G04 #@! TF.GenerationSoftware,KiCad,Pcbnew,(5.1.4)-1*
G04 #@! TF.CreationDate,2019-11-09T17:02:04-05:00*
G04 #@! TF.ProjectId,Feather-SAM-M8Q-GPS,46656174-6865-4722-9d53-414d2d4d3851,rev?*
G04 #@! TF.SameCoordinates,Original*
G04 #@! TF.FileFunction,Soldermask,Top*
G04 #@! TF.FilePolarity,Negative*
%FSLAX46Y46*%
G04 Gerber Fmt 4.6, Leading zero omitted, Abs format (unit mm)*
G04 Created by KiCad (PCBNEW (5.1.4)-1) date 2019-11-09 17:02:04*
%MOMM*%
%LPD*%
G04 APERTURE LIST*
%ADD10C,0.100000*%
G04 APERTURE END LIST*
D10*
G36*
X130895043Y-76524719D02*
G01*
X130961227Y-76531237D01*
X131131066Y-76582757D01*
X131287591Y-76666422D01*
X131323329Y-76695752D01*
X131424786Y-76779014D01*
X131508048Y-76880471D01*
X131537378Y-76916209D01*
X131621043Y-77072734D01*
X131672563Y-77242573D01*
X131689959Y-77419200D01*
X131672563Y-77595827D01*
X131621043Y-77765666D01*
X131537378Y-77922191D01*
X131508048Y-77957929D01*
X131424786Y-78059386D01*
X131323329Y-78142648D01*
X131287591Y-78171978D01*
X131131066Y-78255643D01*
X130961227Y-78307163D01*
X130895043Y-78313681D01*
X130828860Y-78320200D01*
X130740340Y-78320200D01*
X130674157Y-78313681D01*
X130607973Y-78307163D01*
X130438134Y-78255643D01*
X130281609Y-78171978D01*
X130245871Y-78142648D01*
X130144414Y-78059386D01*
X130061152Y-77957929D01*
X130031822Y-77922191D01*
X129948157Y-77765666D01*
X129896637Y-77595827D01*
X129879241Y-77419200D01*
X129896637Y-77242573D01*
X129948157Y-77072734D01*
X130031822Y-76916209D01*
X130061152Y-76880471D01*
X130144414Y-76779014D01*
X130245871Y-76695752D01*
X130281609Y-76666422D01*
X130438134Y-76582757D01*
X130607973Y-76531237D01*
X130674157Y-76524719D01*
X130740340Y-76518200D01*
X130828860Y-76518200D01*
X130895043Y-76524719D01*
X130895043Y-76524719D01*
G37*
G36*
X110575043Y-76524719D02*
G01*
X110641227Y-76531237D01*
X110811066Y-76582757D01*
X110967591Y-76666422D01*
X111003329Y-76695752D01*
X111104786Y-76779014D01*
X111188048Y-76880471D01*
X111217378Y-76916209D01*
X111301043Y-77072734D01*
X111352563Y-77242573D01*
X111369959Y-77419200D01*
X111352563Y-77595827D01*
X111301043Y-77765666D01*
X111217378Y-77922191D01*
X111188048Y-77957929D01*
X111104786Y-78059386D01*
X111003329Y-78142648D01*
X110967591Y-78171978D01*
X110811066Y-78255643D01*
X110641227Y-78307163D01*
X110575043Y-78313681D01*
X110508860Y-78320200D01*
X110420340Y-78320200D01*
X110354157Y-78313681D01*
X110287973Y-78307163D01*
X110118134Y-78255643D01*
X109961609Y-78171978D01*
X109925871Y-78142648D01*
X109824414Y-78059386D01*
X109741152Y-77957929D01*
X109711822Y-77922191D01*
X109628157Y-77765666D01*
X109576637Y-77595827D01*
X109559241Y-77419200D01*
X109576637Y-77242573D01*
X109628157Y-77072734D01*
X109711822Y-76916209D01*
X109741152Y-76880471D01*
X109824414Y-76779014D01*
X109925871Y-76695752D01*
X109961609Y-76666422D01*
X110118134Y-76582757D01*
X110287973Y-76531237D01*
X110354157Y-76524719D01*
X110420340Y-76518200D01*
X110508860Y-76518200D01*
X110575043Y-76524719D01*
X110575043Y-76524719D01*
G37*
G36*
X125815043Y-76524719D02*
G01*
X125881227Y-76531237D01*
X126051066Y-76582757D01*
X126207591Y-76666422D01*
X126243329Y-76695752D01*
X126344786Y-76779014D01*
X126428048Y-76880471D01*
X126457378Y-76916209D01*
X126541043Y-77072734D01*
X126592563Y-77242573D01*
X126609959Y-77419200D01*
X126592563Y-77595827D01*
X126541043Y-77765666D01*
X126457378Y-77922191D01*
X126428048Y-77957929D01*
X126344786Y-78059386D01*
X126243329Y-78142648D01*
X126207591Y-78171978D01*
X126051066Y-78255643D01*
X125881227Y-78307163D01*
X125815043Y-78313681D01*
X125748860Y-78320200D01*
X125660340Y-78320200D01*
X125594157Y-78313681D01*
X125527973Y-78307163D01*
X125358134Y-78255643D01*
X125201609Y-78171978D01*
X125165871Y-78142648D01*
X125064414Y-78059386D01*
X124981152Y-77957929D01*
X124951822Y-77922191D01*
X124868157Y-77765666D01*
X124816637Y-77595827D01*
X124799241Y-77419200D01*
X124816637Y-77242573D01*
X124868157Y-77072734D01*
X124951822Y-76916209D01*
X124981152Y-76880471D01*
X125064414Y-76779014D01*
X125165871Y-76695752D01*
X125201609Y-76666422D01*
X125358134Y-76582757D01*
X125527973Y-76531237D01*
X125594157Y-76524719D01*
X125660340Y-76518200D01*
X125748860Y-76518200D01*
X125815043Y-76524719D01*
X125815043Y-76524719D01*
G37*
G36*
X123275043Y-76524719D02*
G01*
X123341227Y-76531237D01*
X123511066Y-76582757D01*
X123667591Y-76666422D01*
X123703329Y-76695752D01*
X123804786Y-76779014D01*
X123888048Y-76880471D01*
X123917378Y-76916209D01*
X124001043Y-77072734D01*
X124052563Y-77242573D01*
X124069959Y-77419200D01*
X124052563Y-77595827D01*
X124001043Y-77765666D01*
X123917378Y-77922191D01*
X123888048Y-77957929D01*
X123804786Y-78059386D01*
X123703329Y-78142648D01*
X123667591Y-78171978D01*
X123511066Y-78255643D01*
X123341227Y-78307163D01*
X123275043Y-78313681D01*
X123208860Y-78320200D01*
X123120340Y-78320200D01*
X123054157Y-78313681D01*
X122987973Y-78307163D01*
X122818134Y-78255643D01*
X122661609Y-78171978D01*
X122625871Y-78142648D01*
X122524414Y-78059386D01*
X122441152Y-77957929D01*
X122411822Y-77922191D01*
X122328157Y-77765666D01*
X122276637Y-77595827D01*
X122259241Y-77419200D01*
X122276637Y-77242573D01*
X122328157Y-77072734D01*
X122411822Y-76916209D01*
X122441152Y-76880471D01*
X122524414Y-76779014D01*
X122625871Y-76695752D01*
X122661609Y-76666422D01*
X122818134Y-76582757D01*
X122987973Y-76531237D01*
X123054157Y-76524719D01*
X123120340Y-76518200D01*
X123208860Y-76518200D01*
X123275043Y-76524719D01*
X123275043Y-76524719D01*
G37*
G36*
X120735043Y-76524719D02*
G01*
X120801227Y-76531237D01*
X120971066Y-76582757D01*
X121127591Y-76666422D01*
X121163329Y-76695752D01*
X121264786Y-76779014D01*
X121348048Y-76880471D01*
X121377378Y-76916209D01*
X121461043Y-77072734D01*
X121512563Y-77242573D01*
X121529959Y-77419200D01*
X121512563Y-77595827D01*
X121461043Y-77765666D01*
X121377378Y-77922191D01*
X121348048Y-77957929D01*
X121264786Y-78059386D01*
X121163329Y-78142648D01*
X121127591Y-78171978D01*
X120971066Y-78255643D01*
X120801227Y-78307163D01*
X120735043Y-78313681D01*
X120668860Y-78320200D01*
X120580340Y-78320200D01*
X120514157Y-78313681D01*
X120447973Y-78307163D01*
X120278134Y-78255643D01*
X120121609Y-78171978D01*
X120085871Y-78142648D01*
X119984414Y-78059386D01*
X119901152Y-77957929D01*
X119871822Y-77922191D01*
X119788157Y-77765666D01*
X119736637Y-77595827D01*
X119719241Y-77419200D01*
X119736637Y-77242573D01*
X119788157Y-77072734D01*
X119871822Y-76916209D01*
X119901152Y-76880471D01*
X119984414Y-76779014D01*
X120085871Y-76695752D01*
X120121609Y-76666422D01*
X120278134Y-76582757D01*
X120447973Y-76531237D01*
X120514157Y-76524719D01*
X120580340Y-76518200D01*
X120668860Y-76518200D01*
X120735043Y-76524719D01*
X120735043Y-76524719D01*
G37*
G36*
X118195043Y-76524719D02*
G01*
X118261227Y-76531237D01*
X118431066Y-76582757D01*
X118587591Y-76666422D01*
X118623329Y-76695752D01*
X118724786Y-76779014D01*
X118808048Y-76880471D01*
X118837378Y-76916209D01*
X118921043Y-77072734D01*
X118972563Y-77242573D01*
X118989959Y-77419200D01*
X118972563Y-77595827D01*
X118921043Y-77765666D01*
X118837378Y-77922191D01*
X118808048Y-77957929D01*
X118724786Y-78059386D01*
X118623329Y-78142648D01*
X118587591Y-78171978D01*
X118431066Y-78255643D01*
X118261227Y-78307163D01*
X118195043Y-78313681D01*
X118128860Y-78320200D01*
X118040340Y-78320200D01*
X117974157Y-78313681D01*
X117907973Y-78307163D01*
X117738134Y-78255643D01*
X117581609Y-78171978D01*
X117545871Y-78142648D01*
X117444414Y-78059386D01*
X117361152Y-77957929D01*
X117331822Y-77922191D01*
X117248157Y-77765666D01*
X117196637Y-77595827D01*
X117179241Y-77419200D01*
X117196637Y-77242573D01*
X117248157Y-77072734D01*
X117331822Y-76916209D01*
X117361152Y-76880471D01*
X117444414Y-76779014D01*
X117545871Y-76695752D01*
X117581609Y-76666422D01*
X117738134Y-76582757D01*
X117907973Y-76531237D01*
X117974157Y-76524719D01*
X118040340Y-76518200D01*
X118128860Y-76518200D01*
X118195043Y-76524719D01*
X118195043Y-76524719D01*
G37*
G36*
X115655043Y-76524719D02*
G01*
X115721227Y-76531237D01*
X115891066Y-76582757D01*
X116047591Y-76666422D01*
X116083329Y-76695752D01*
X116184786Y-76779014D01*
X116268048Y-76880471D01*
X116297378Y-76916209D01*
X116381043Y-77072734D01*
X116432563Y-77242573D01*
X116449959Y-77419200D01*
X116432563Y-77595827D01*
X116381043Y-77765666D01*
X116297378Y-77922191D01*
X116268048Y-77957929D01*
X116184786Y-78059386D01*
X116083329Y-78142648D01*
X116047591Y-78171978D01*
X115891066Y-78255643D01*
X115721227Y-78307163D01*
X115655043Y-78313681D01*
X115588860Y-78320200D01*
X115500340Y-78320200D01*
X115434157Y-78313681D01*
X115367973Y-78307163D01*
X115198134Y-78255643D01*
X115041609Y-78171978D01*
X115005871Y-78142648D01*
X114904414Y-78059386D01*
X114821152Y-77957929D01*
X114791822Y-77922191D01*
X114708157Y-77765666D01*
X114656637Y-77595827D01*
X114639241Y-77419200D01*
X114656637Y-77242573D01*
X114708157Y-77072734D01*
X114791822Y-76916209D01*
X114821152Y-76880471D01*
X114904414Y-76779014D01*
X115005871Y-76695752D01*
X115041609Y-76666422D01*
X115198134Y-76582757D01*
X115367973Y-76531237D01*
X115434157Y-76524719D01*
X115500340Y-76518200D01*
X115588860Y-76518200D01*
X115655043Y-76524719D01*
X115655043Y-76524719D01*
G37*
G36*
X113115043Y-76524719D02*
G01*
X113181227Y-76531237D01*
X113351066Y-76582757D01*
X113507591Y-76666422D01*
X113543329Y-76695752D01*
X113644786Y-76779014D01*
X113728048Y-76880471D01*
X113757378Y-76916209D01*
X113841043Y-77072734D01*
X113892563Y-77242573D01*
X113909959Y-77419200D01*
X113892563Y-77595827D01*
X113841043Y-77765666D01*
X113757378Y-77922191D01*
X113728048Y-77957929D01*
X113644786Y-78059386D01*
X113543329Y-78142648D01*
X113507591Y-78171978D01*
X113351066Y-78255643D01*
X113181227Y-78307163D01*
X113115043Y-78313681D01*
X113048860Y-78320200D01*
X112960340Y-78320200D01*
X112894157Y-78313681D01*
X112827973Y-78307163D01*
X112658134Y-78255643D01*
X112501609Y-78171978D01*
X112465871Y-78142648D01*
X112364414Y-78059386D01*
X112281152Y-77957929D01*
X112251822Y-77922191D01*
X112168157Y-77765666D01*
X112116637Y-77595827D01*
X112099241Y-77419200D01*
X112116637Y-77242573D01*
X112168157Y-77072734D01*
X112251822Y-76916209D01*
X112281152Y-76880471D01*
X112364414Y-76779014D01*
X112465871Y-76695752D01*
X112501609Y-76666422D01*
X112658134Y-76582757D01*
X112827973Y-76531237D01*
X112894157Y-76524719D01*
X112960340Y-76518200D01*
X113048860Y-76518200D01*
X113115043Y-76524719D01*
X113115043Y-76524719D01*
G37*
G36*
X128355043Y-76524719D02*
G01*
X128421227Y-76531237D01*
X128591066Y-76582757D01*
X128747591Y-76666422D01*
X128783329Y-76695752D01*
X128884786Y-76779014D01*
X128968048Y-76880471D01*
X128997378Y-76916209D01*
X129081043Y-77072734D01*
X129132563Y-77242573D01*
X129149959Y-77419200D01*
X129132563Y-77595827D01*
X129081043Y-77765666D01*
X128997378Y-77922191D01*
X128968048Y-77957929D01*
X128884786Y-78059386D01*
X128783329Y-78142648D01*
X128747591Y-78171978D01*
X128591066Y-78255643D01*
X128421227Y-78307163D01*
X128355043Y-78313681D01*
X128288860Y-78320200D01*
X128200340Y-78320200D01*
X128134157Y-78313681D01*
X128067973Y-78307163D01*
X127898134Y-78255643D01*
X127741609Y-78171978D01*
X127705871Y-78142648D01*
X127604414Y-78059386D01*
X127521152Y-77957929D01*
X127491822Y-77922191D01*
X127408157Y-77765666D01*
X127356637Y-77595827D01*
X127339241Y-77419200D01*
X127356637Y-77242573D01*
X127408157Y-77072734D01*
X127491822Y-76916209D01*
X127521152Y-76880471D01*
X127604414Y-76779014D01*
X127705871Y-76695752D01*
X127741609Y-76666422D01*
X127898134Y-76582757D01*
X128067973Y-76531237D01*
X128134157Y-76524719D01*
X128200340Y-76518200D01*
X128288860Y-76518200D01*
X128355043Y-76524719D01*
X128355043Y-76524719D01*
G37*
G36*
X105495043Y-76524719D02*
G01*
X105561227Y-76531237D01*
X105731066Y-76582757D01*
X105887591Y-76666422D01*
X105923329Y-76695752D01*
X106024786Y-76779014D01*
X106108048Y-76880471D01*
X106137378Y-76916209D01*
X106221043Y-77072734D01*
X106272563Y-77242573D01*
X106289959Y-77419200D01*
X106272563Y-77595827D01*
X106221043Y-77765666D01*
X106137378Y-77922191D01*
X106108048Y-77957929D01*
X106024786Y-78059386D01*
X105923329Y-78142648D01*
X105887591Y-78171978D01*
X105731066Y-78255643D01*
X105561227Y-78307163D01*
X105495043Y-78313681D01*
X105428860Y-78320200D01*
X105340340Y-78320200D01*
X105274157Y-78313681D01*
X105207973Y-78307163D01*
X105038134Y-78255643D01*
X104881609Y-78171978D01*
X104845871Y-78142648D01*
X104744414Y-78059386D01*
X104661152Y-77957929D01*
X104631822Y-77922191D01*
X104548157Y-77765666D01*
X104496637Y-77595827D01*
X104479241Y-77419200D01*
X104496637Y-77242573D01*
X104548157Y-77072734D01*
X104631822Y-76916209D01*
X104661152Y-76880471D01*
X104744414Y-76779014D01*
X104845871Y-76695752D01*
X104881609Y-76666422D01*
X105038134Y-76582757D01*
X105207973Y-76531237D01*
X105274157Y-76524719D01*
X105340340Y-76518200D01*
X105428860Y-76518200D01*
X105495043Y-76524719D01*
X105495043Y-76524719D01*
G37*
G36*
X102955043Y-76524719D02*
G01*
X103021227Y-76531237D01*
X103191066Y-76582757D01*
X103347591Y-76666422D01*
X103383329Y-76695752D01*
X103484786Y-76779014D01*
X103568048Y-76880471D01*
X103597378Y-76916209D01*
X103681043Y-77072734D01*
X103732563Y-77242573D01*
X103749959Y-77419200D01*
X103732563Y-77595827D01*
X103681043Y-77765666D01*
X103597378Y-77922191D01*
X103568048Y-77957929D01*
X103484786Y-78059386D01*
X103383329Y-78142648D01*
X103347591Y-78171978D01*
X103191066Y-78255643D01*
X103021227Y-78307163D01*
X102955043Y-78313681D01*
X102888860Y-78320200D01*
X102800340Y-78320200D01*
X102734157Y-78313681D01*
X102667973Y-78307163D01*
X102498134Y-78255643D01*
X102341609Y-78171978D01*
X102305871Y-78142648D01*
X102204414Y-78059386D01*
X102121152Y-77957929D01*
X102091822Y-77922191D01*
X102008157Y-77765666D01*
X101956637Y-77595827D01*
X101939241Y-77419200D01*
X101956637Y-77242573D01*
X102008157Y-77072734D01*
X102091822Y-76916209D01*
X102121152Y-76880471D01*
X102204414Y-76779014D01*
X102305871Y-76695752D01*
X102341609Y-76666422D01*
X102498134Y-76582757D01*
X102667973Y-76531237D01*
X102734157Y-76524719D01*
X102800340Y-76518200D01*
X102888860Y-76518200D01*
X102955043Y-76524719D01*
X102955043Y-76524719D01*
G37*
G36*
X100415043Y-76524719D02*
G01*
X100481227Y-76531237D01*
X100651066Y-76582757D01*
X100807591Y-76666422D01*
X100843329Y-76695752D01*
X100944786Y-76779014D01*
X101028048Y-76880471D01*
X101057378Y-76916209D01*
X101141043Y-77072734D01*
X101192563Y-77242573D01*
X101209959Y-77419200D01*
X101192563Y-77595827D01*
X101141043Y-77765666D01*
X101057378Y-77922191D01*
X101028048Y-77957929D01*
X100944786Y-78059386D01*
X100843329Y-78142648D01*
X100807591Y-78171978D01*
X100651066Y-78255643D01*
X100481227Y-78307163D01*
X100415043Y-78313681D01*
X100348860Y-78320200D01*
X100260340Y-78320200D01*
X100194157Y-78313681D01*
X100127973Y-78307163D01*
X99958134Y-78255643D01*
X99801609Y-78171978D01*
X99765871Y-78142648D01*
X99664414Y-78059386D01*
X99581152Y-77957929D01*
X99551822Y-77922191D01*
X99468157Y-77765666D01*
X99416637Y-77595827D01*
X99399241Y-77419200D01*
X99416637Y-77242573D01*
X99468157Y-77072734D01*
X99551822Y-76916209D01*
X99581152Y-76880471D01*
X99664414Y-76779014D01*
X99765871Y-76695752D01*
X99801609Y-76666422D01*
X99958134Y-76582757D01*
X100127973Y-76531237D01*
X100194157Y-76524719D01*
X100260340Y-76518200D01*
X100348860Y-76518200D01*
X100415043Y-76524719D01*
X100415043Y-76524719D01*
G37*
G36*
X97875043Y-76524719D02*
G01*
X97941227Y-76531237D01*
X98111066Y-76582757D01*
X98267591Y-76666422D01*
X98303329Y-76695752D01*
X98404786Y-76779014D01*
X98488048Y-76880471D01*
X98517378Y-76916209D01*
X98601043Y-77072734D01*
X98652563Y-77242573D01*
X98669959Y-77419200D01*
X98652563Y-77595827D01*
X98601043Y-77765666D01*
X98517378Y-77922191D01*
X98488048Y-77957929D01*
X98404786Y-78059386D01*
X98303329Y-78142648D01*
X98267591Y-78171978D01*
X98111066Y-78255643D01*
X97941227Y-78307163D01*
X97875043Y-78313681D01*
X97808860Y-78320200D01*
X97720340Y-78320200D01*
X97654157Y-78313681D01*
X97587973Y-78307163D01*
X97418134Y-78255643D01*
X97261609Y-78171978D01*
X97225871Y-78142648D01*
X97124414Y-78059386D01*
X97041152Y-77957929D01*
X97011822Y-77922191D01*
X96928157Y-77765666D01*
X96876637Y-77595827D01*
X96859241Y-77419200D01*
X96876637Y-77242573D01*
X96928157Y-77072734D01*
X97011822Y-76916209D01*
X97041152Y-76880471D01*
X97124414Y-76779014D01*
X97225871Y-76695752D01*
X97261609Y-76666422D01*
X97418134Y-76582757D01*
X97587973Y-76531237D01*
X97654157Y-76524719D01*
X97720340Y-76518200D01*
X97808860Y-76518200D01*
X97875043Y-76524719D01*
X97875043Y-76524719D01*
G37*
G36*
X95335043Y-76524719D02*
G01*
X95401227Y-76531237D01*
X95571066Y-76582757D01*
X95727591Y-76666422D01*
X95763329Y-76695752D01*
X95864786Y-76779014D01*
X95948048Y-76880471D01*
X95977378Y-76916209D01*
X96061043Y-77072734D01*
X96112563Y-77242573D01*
X96129959Y-77419200D01*
X96112563Y-77595827D01*
X96061043Y-77765666D01*
X95977378Y-77922191D01*
X95948048Y-77957929D01*
X95864786Y-78059386D01*
X95763329Y-78142648D01*
X95727591Y-78171978D01*
X95571066Y-78255643D01*
X95401227Y-78307163D01*
X95335043Y-78313681D01*
X95268860Y-78320200D01*
X95180340Y-78320200D01*
X95114157Y-78313681D01*
X95047973Y-78307163D01*
X94878134Y-78255643D01*
X94721609Y-78171978D01*
X94685871Y-78142648D01*
X94584414Y-78059386D01*
X94501152Y-77957929D01*
X94471822Y-77922191D01*
X94388157Y-77765666D01*
X94336637Y-77595827D01*
X94319241Y-77419200D01*
X94336637Y-77242573D01*
X94388157Y-77072734D01*
X94471822Y-76916209D01*
X94501152Y-76880471D01*
X94584414Y-76779014D01*
X94685871Y-76695752D01*
X94721609Y-76666422D01*
X94878134Y-76582757D01*
X95047973Y-76531237D01*
X95114157Y-76524719D01*
X95180340Y-76518200D01*
X95268860Y-76518200D01*
X95335043Y-76524719D01*
X95335043Y-76524719D01*
G37*
G36*
X93585600Y-78320200D02*
G01*
X91783600Y-78320200D01*
X91783600Y-76518200D01*
X93585600Y-76518200D01*
X93585600Y-78320200D01*
X93585600Y-78320200D01*
G37*
G36*
X108035043Y-76524719D02*
G01*
X108101227Y-76531237D01*
X108271066Y-76582757D01*
X108427591Y-76666422D01*
X108463329Y-76695752D01*
X108564786Y-76779014D01*
X108648048Y-76880471D01*
X108677378Y-76916209D01*
X108761043Y-77072734D01*
X108812563Y-77242573D01*
X108829959Y-77419200D01*
X108812563Y-77595827D01*
X108761043Y-77765666D01*
X108677378Y-77922191D01*
X108648048Y-77957929D01*
X108564786Y-78059386D01*
X108463329Y-78142648D01*
X108427591Y-78171978D01*
X108271066Y-78255643D01*
X108101227Y-78307163D01*
X108035043Y-78313681D01*
X107968860Y-78320200D01*
X107880340Y-78320200D01*
X107814157Y-78313681D01*
X107747973Y-78307163D01*
X107578134Y-78255643D01*
X107421609Y-78171978D01*
X107385871Y-78142648D01*
X107284414Y-78059386D01*
X107201152Y-77957929D01*
X107171822Y-77922191D01*
X107088157Y-77765666D01*
X107036637Y-77595827D01*
X107019241Y-77419200D01*
X107036637Y-77242573D01*
X107088157Y-77072734D01*
X107171822Y-76916209D01*
X107201152Y-76880471D01*
X107284414Y-76779014D01*
X107385871Y-76695752D01*
X107421609Y-76666422D01*
X107578134Y-76582757D01*
X107747973Y-76531237D01*
X107814157Y-76524719D01*
X107880340Y-76518200D01*
X107968860Y-76518200D01*
X108035043Y-76524719D01*
X108035043Y-76524719D01*
G37*
G36*
X89443685Y-74273175D02*
G01*
X89715228Y-74385652D01*
X89798745Y-74420246D01*
X90118290Y-74633759D01*
X90390041Y-74905510D01*
X90545818Y-75138647D01*
X90603555Y-75225057D01*
X90750625Y-75580115D01*
X90825600Y-75957042D01*
X90825600Y-76341358D01*
X90750625Y-76718285D01*
X90668642Y-76916209D01*
X90603554Y-77073345D01*
X90390041Y-77392890D01*
X90118290Y-77664641D01*
X89798745Y-77878154D01*
X89798744Y-77878155D01*
X89798743Y-77878155D01*
X89443685Y-78025225D01*
X89066758Y-78100200D01*
X88682442Y-78100200D01*
X88305515Y-78025225D01*
X87950457Y-77878155D01*
X87950456Y-77878155D01*
X87950455Y-77878154D01*
X87630910Y-77664641D01*
X87359159Y-77392890D01*
X87145646Y-77073345D01*
X87080558Y-76916209D01*
X86998575Y-76718285D01*
X86923600Y-76341358D01*
X86923600Y-75957042D01*
X86998575Y-75580115D01*
X87145645Y-75225057D01*
X87203382Y-75138647D01*
X87359159Y-74905510D01*
X87630910Y-74633759D01*
X87950455Y-74420246D01*
X88033972Y-74385652D01*
X88305515Y-74273175D01*
X88682442Y-74198200D01*
X89066758Y-74198200D01*
X89443685Y-74273175D01*
X89443685Y-74273175D01*
G37*
G36*
X134974087Y-74898196D02*
G01*
X135210853Y-74996268D01*
X135210855Y-74996269D01*
X135391581Y-75117026D01*
X135423939Y-75138647D01*
X135605153Y-75319861D01*
X135747532Y-75532947D01*
X135845604Y-75769713D01*
X135895600Y-76021061D01*
X135895600Y-76277339D01*
X135845604Y-76528687D01*
X135767069Y-76718286D01*
X135747531Y-76765455D01*
X135605153Y-76978539D01*
X135423939Y-77159753D01*
X135210855Y-77302131D01*
X135210854Y-77302132D01*
X135210853Y-77302132D01*
X134974087Y-77400204D01*
X134722739Y-77450200D01*
X134466461Y-77450200D01*
X134215113Y-77400204D01*
X133978347Y-77302132D01*
X133978346Y-77302132D01*
X133978345Y-77302131D01*
X133765261Y-77159753D01*
X133584047Y-76978539D01*
X133441669Y-76765455D01*
X133422131Y-76718286D01*
X133343596Y-76528687D01*
X133293600Y-76277339D01*
X133293600Y-76021061D01*
X133343596Y-75769713D01*
X133441668Y-75532947D01*
X133584047Y-75319861D01*
X133765261Y-75138647D01*
X133797619Y-75117026D01*
X133978345Y-74996269D01*
X133978347Y-74996268D01*
X134215113Y-74898196D01*
X134466461Y-74848200D01*
X134722739Y-74848200D01*
X134974087Y-74898196D01*
X134974087Y-74898196D01*
G37*
G36*
X131382868Y-73624765D02*
G01*
X131421538Y-73636496D01*
X131457177Y-73655546D01*
X131488417Y-73681183D01*
X131514054Y-73712423D01*
X131533104Y-73748062D01*
X131544835Y-73786732D01*
X131549400Y-73833088D01*
X131549400Y-74909312D01*
X131544835Y-74955668D01*
X131533104Y-74994338D01*
X131514054Y-75029977D01*
X131488417Y-75061217D01*
X131457177Y-75086854D01*
X131421538Y-75105904D01*
X131382868Y-75117635D01*
X131336512Y-75122200D01*
X130685288Y-75122200D01*
X130638932Y-75117635D01*
X130600262Y-75105904D01*
X130564623Y-75086854D01*
X130533383Y-75061217D01*
X130507746Y-75029977D01*
X130488696Y-74994338D01*
X130476965Y-74955668D01*
X130472400Y-74909312D01*
X130472400Y-73833088D01*
X130476965Y-73786732D01*
X130488696Y-73748062D01*
X130507746Y-73712423D01*
X130533383Y-73681183D01*
X130564623Y-73655546D01*
X130600262Y-73636496D01*
X130638932Y-73624765D01*
X130685288Y-73620200D01*
X131336512Y-73620200D01*
X131382868Y-73624765D01*
X131382868Y-73624765D01*
G37*
G36*
X129507868Y-73624765D02*
G01*
X129546538Y-73636496D01*
X129582177Y-73655546D01*
X129613417Y-73681183D01*
X129639054Y-73712423D01*
X129658104Y-73748062D01*
X129669835Y-73786732D01*
X129674400Y-73833088D01*
X129674400Y-74909312D01*
X129669835Y-74955668D01*
X129658104Y-74994338D01*
X129639054Y-75029977D01*
X129613417Y-75061217D01*
X129582177Y-75086854D01*
X129546538Y-75105904D01*
X129507868Y-75117635D01*
X129461512Y-75122200D01*
X128810288Y-75122200D01*
X128763932Y-75117635D01*
X128725262Y-75105904D01*
X128689623Y-75086854D01*
X128658383Y-75061217D01*
X128632746Y-75029977D01*
X128613696Y-74994338D01*
X128601965Y-74955668D01*
X128597400Y-74909312D01*
X128597400Y-73833088D01*
X128601965Y-73786732D01*
X128613696Y-73748062D01*
X128632746Y-73712423D01*
X128658383Y-73681183D01*
X128689623Y-73655546D01*
X128725262Y-73636496D01*
X128763932Y-73624765D01*
X128810288Y-73620200D01*
X129461512Y-73620200D01*
X129507868Y-73624765D01*
X129507868Y-73624765D01*
G37*
G36*
X100596399Y-72783537D02*
G01*
X100606008Y-72786452D01*
X100614872Y-72791190D01*
X100622637Y-72797563D01*
X100632848Y-72810006D01*
X100639778Y-72820375D01*
X100657105Y-72837702D01*
X100677480Y-72851315D01*
X100700120Y-72860691D01*
X100724153Y-72865471D01*
X100748657Y-72865470D01*
X100772690Y-72860688D01*
X100795329Y-72851310D01*
X100815702Y-72837695D01*
X100833029Y-72820368D01*
X100839958Y-72809998D01*
X100850163Y-72797563D01*
X100857928Y-72791190D01*
X100866792Y-72786452D01*
X100876401Y-72783537D01*
X100892540Y-72781948D01*
X101380261Y-72781948D01*
X101398599Y-72783754D01*
X101410850Y-72784356D01*
X101429269Y-72784356D01*
X101451549Y-72786550D01*
X101535633Y-72803276D01*
X101557060Y-72809776D01*
X101636258Y-72842580D01*
X101641703Y-72845491D01*
X101641709Y-72845493D01*
X101650569Y-72850229D01*
X101650573Y-72850232D01*
X101656014Y-72853140D01*
X101727299Y-72900771D01*
X101744604Y-72914972D01*
X101805228Y-72975596D01*
X101819429Y-72992901D01*
X101867060Y-73064186D01*
X101869968Y-73069627D01*
X101869971Y-73069631D01*
X101874707Y-73078491D01*
X101874709Y-73078497D01*
X101877620Y-73083942D01*
X101910424Y-73163140D01*
X101916924Y-73184567D01*
X101933650Y-73268651D01*
X101935844Y-73290931D01*
X101935844Y-73309350D01*
X101936446Y-73321601D01*
X101938252Y-73339939D01*
X101938252Y-73827662D01*
X101936446Y-73845999D01*
X101935844Y-73858250D01*
X101935844Y-73876669D01*
X101933650Y-73898949D01*
X101916924Y-73983033D01*
X101910424Y-74004460D01*
X101877620Y-74083658D01*
X101874709Y-74089103D01*
X101874707Y-74089109D01*
X101869971Y-74097969D01*
X101869968Y-74097973D01*
X101867060Y-74103414D01*
X101819429Y-74174699D01*
X101805228Y-74192004D01*
X101744604Y-74252628D01*
X101727299Y-74266829D01*
X101656014Y-74314460D01*
X101650573Y-74317368D01*
X101650569Y-74317371D01*
X101641709Y-74322107D01*
X101641703Y-74322109D01*
X101636258Y-74325020D01*
X101557060Y-74357824D01*
X101535633Y-74364324D01*
X101451549Y-74381050D01*
X101429269Y-74383244D01*
X101410850Y-74383244D01*
X101398599Y-74383846D01*
X101380262Y-74385652D01*
X100892540Y-74385652D01*
X100876401Y-74384063D01*
X100866792Y-74381148D01*
X100857928Y-74376410D01*
X100850163Y-74370037D01*
X100839952Y-74357594D01*
X100833022Y-74347225D01*
X100815695Y-74329898D01*
X100795320Y-74316285D01*
X100772680Y-74306909D01*
X100748647Y-74302129D01*
X100724143Y-74302130D01*
X100700110Y-74306912D01*
X100677471Y-74316290D01*
X100657098Y-74329905D01*
X100639771Y-74347232D01*
X100632842Y-74357602D01*
X100622637Y-74370037D01*
X100614872Y-74376410D01*
X100606008Y-74381148D01*
X100596399Y-74384063D01*
X100580260Y-74385652D01*
X100092538Y-74385652D01*
X100074201Y-74383846D01*
X100061950Y-74383244D01*
X100043531Y-74383244D01*
X100021251Y-74381050D01*
X99937167Y-74364324D01*
X99915740Y-74357824D01*
X99836542Y-74325020D01*
X99831097Y-74322109D01*
X99831091Y-74322107D01*
X99822231Y-74317371D01*
X99822227Y-74317368D01*
X99816786Y-74314460D01*
X99745501Y-74266829D01*
X99728196Y-74252628D01*
X99667572Y-74192004D01*
X99653371Y-74174699D01*
X99605740Y-74103414D01*
X99602832Y-74097973D01*
X99602829Y-74097969D01*
X99598093Y-74089109D01*
X99598091Y-74089103D01*
X99595180Y-74083658D01*
X99562376Y-74004460D01*
X99555876Y-73983033D01*
X99539150Y-73898949D01*
X99536956Y-73876669D01*
X99536956Y-73858250D01*
X99536354Y-73845999D01*
X99534548Y-73827662D01*
X99534548Y-73339938D01*
X99536354Y-73321601D01*
X99536956Y-73309350D01*
X99536956Y-73290931D01*
X99539150Y-73268651D01*
X99555876Y-73184567D01*
X99562376Y-73163140D01*
X99595180Y-73083942D01*
X99598091Y-73078497D01*
X99598093Y-73078491D01*
X99602829Y-73069631D01*
X99602832Y-73069627D01*
X99605740Y-73064186D01*
X99653371Y-72992901D01*
X99667572Y-72975596D01*
X99728196Y-72914972D01*
X99745501Y-72900771D01*
X99816786Y-72853140D01*
X99822227Y-72850232D01*
X99822231Y-72850229D01*
X99831091Y-72845493D01*
X99831097Y-72845491D01*
X99836542Y-72842580D01*
X99915740Y-72809776D01*
X99937167Y-72803276D01*
X100021251Y-72786550D01*
X100043531Y-72784356D01*
X100061950Y-72784356D01*
X100074201Y-72783754D01*
X100092539Y-72781948D01*
X100580260Y-72781948D01*
X100596399Y-72783537D01*
X100596399Y-72783537D01*
G37*
G36*
X122157001Y-74352801D02*
G01*
X120656999Y-74352801D01*
X120656999Y-72552799D01*
X122157001Y-72552799D01*
X122157001Y-74352801D01*
X122157001Y-74352801D01*
G37*
G36*
X116457001Y-74352801D02*
G01*
X114956999Y-74352801D01*
X114956999Y-72552799D01*
X116457001Y-72552799D01*
X116457001Y-74352801D01*
X116457001Y-74352801D01*
G37*
G36*
X118357001Y-74352801D02*
G01*
X116856999Y-74352801D01*
X116856999Y-72552799D01*
X118357001Y-72552799D01*
X118357001Y-74352801D01*
X118357001Y-74352801D01*
G37*
G36*
X120257001Y-74352801D02*
G01*
X118756999Y-74352801D01*
X118756999Y-72552799D01*
X120257001Y-72552799D01*
X120257001Y-74352801D01*
X120257001Y-74352801D01*
G37*
G36*
X124057001Y-74352801D02*
G01*
X122556999Y-74352801D01*
X122556999Y-72552799D01*
X124057001Y-72552799D01*
X124057001Y-74352801D01*
X124057001Y-74352801D01*
G37*
G36*
X93566868Y-72837365D02*
G01*
X93605538Y-72849096D01*
X93641177Y-72868146D01*
X93672417Y-72893783D01*
X93698054Y-72925023D01*
X93717104Y-72960662D01*
X93728835Y-72999332D01*
X93733400Y-73045688D01*
X93733400Y-74121912D01*
X93728835Y-74168268D01*
X93717104Y-74206938D01*
X93698054Y-74242577D01*
X93672417Y-74273817D01*
X93641177Y-74299454D01*
X93605538Y-74318504D01*
X93566868Y-74330235D01*
X93520512Y-74334800D01*
X92869288Y-74334800D01*
X92822932Y-74330235D01*
X92784262Y-74318504D01*
X92748623Y-74299454D01*
X92717383Y-74273817D01*
X92691746Y-74242577D01*
X92672696Y-74206938D01*
X92660965Y-74168268D01*
X92656400Y-74121912D01*
X92656400Y-73045688D01*
X92660965Y-72999332D01*
X92672696Y-72960662D01*
X92691746Y-72925023D01*
X92717383Y-72893783D01*
X92748623Y-72868146D01*
X92784262Y-72849096D01*
X92822932Y-72837365D01*
X92869288Y-72832800D01*
X93520512Y-72832800D01*
X93566868Y-72837365D01*
X93566868Y-72837365D01*
G37*
G36*
X95441868Y-72837365D02*
G01*
X95480538Y-72849096D01*
X95516177Y-72868146D01*
X95547417Y-72893783D01*
X95573054Y-72925023D01*
X95592104Y-72960662D01*
X95603835Y-72999332D01*
X95608400Y-73045688D01*
X95608400Y-74121912D01*
X95603835Y-74168268D01*
X95592104Y-74206938D01*
X95573054Y-74242577D01*
X95547417Y-74273817D01*
X95516177Y-74299454D01*
X95480538Y-74318504D01*
X95441868Y-74330235D01*
X95395512Y-74334800D01*
X94744288Y-74334800D01*
X94697932Y-74330235D01*
X94659262Y-74318504D01*
X94623623Y-74299454D01*
X94592383Y-74273817D01*
X94566746Y-74242577D01*
X94547696Y-74206938D01*
X94535965Y-74168268D01*
X94531400Y-74121912D01*
X94531400Y-73045688D01*
X94535965Y-72999332D01*
X94547696Y-72960662D01*
X94566746Y-72925023D01*
X94592383Y-72893783D01*
X94623623Y-72868146D01*
X94659262Y-72849096D01*
X94697932Y-72837365D01*
X94744288Y-72832800D01*
X95395512Y-72832800D01*
X95441868Y-72837365D01*
X95441868Y-72837365D01*
G37*
G36*
X96970468Y-72837365D02*
G01*
X97009138Y-72849096D01*
X97044777Y-72868146D01*
X97076017Y-72893783D01*
X97101654Y-72925023D01*
X97120704Y-72960662D01*
X97132435Y-72999332D01*
X97137000Y-73045688D01*
X97137000Y-74121912D01*
X97132435Y-74168268D01*
X97120704Y-74206938D01*
X97101654Y-74242577D01*
X97076017Y-74273817D01*
X97044777Y-74299454D01*
X97009138Y-74318504D01*
X96970468Y-74330235D01*
X96924112Y-74334800D01*
X96272888Y-74334800D01*
X96226532Y-74330235D01*
X96187862Y-74318504D01*
X96152223Y-74299454D01*
X96120983Y-74273817D01*
X96095346Y-74242577D01*
X96076296Y-74206938D01*
X96064565Y-74168268D01*
X96060000Y-74121912D01*
X96060000Y-73045688D01*
X96064565Y-72999332D01*
X96076296Y-72960662D01*
X96095346Y-72925023D01*
X96120983Y-72893783D01*
X96152223Y-72868146D01*
X96187862Y-72849096D01*
X96226532Y-72837365D01*
X96272888Y-72832800D01*
X96924112Y-72832800D01*
X96970468Y-72837365D01*
X96970468Y-72837365D01*
G37*
G36*
X98845468Y-72837365D02*
G01*
X98884138Y-72849096D01*
X98919777Y-72868146D01*
X98951017Y-72893783D01*
X98976654Y-72925023D01*
X98995704Y-72960662D01*
X99007435Y-72999332D01*
X99012000Y-73045688D01*
X99012000Y-74121912D01*
X99007435Y-74168268D01*
X98995704Y-74206938D01*
X98976654Y-74242577D01*
X98951017Y-74273817D01*
X98919777Y-74299454D01*
X98884138Y-74318504D01*
X98845468Y-74330235D01*
X98799112Y-74334800D01*
X98147888Y-74334800D01*
X98101532Y-74330235D01*
X98062862Y-74318504D01*
X98027223Y-74299454D01*
X97995983Y-74273817D01*
X97970346Y-74242577D01*
X97951296Y-74206938D01*
X97939565Y-74168268D01*
X97935000Y-74121912D01*
X97935000Y-73045688D01*
X97939565Y-72999332D01*
X97951296Y-72960662D01*
X97970346Y-72925023D01*
X97995983Y-72893783D01*
X98027223Y-72868146D01*
X98062862Y-72849096D01*
X98101532Y-72837365D01*
X98147888Y-72832800D01*
X98799112Y-72832800D01*
X98845468Y-72837365D01*
X98845468Y-72837365D01*
G37*
G36*
X91572369Y-70366571D02*
G01*
X91734195Y-70433602D01*
X91879829Y-70530911D01*
X92003689Y-70654771D01*
X92100998Y-70800405D01*
X92168029Y-70962231D01*
X92202200Y-71134020D01*
X92202200Y-71309180D01*
X92168029Y-71480969D01*
X92100998Y-71642795D01*
X92003689Y-71788429D01*
X91879829Y-71912289D01*
X91734195Y-72009598D01*
X91572369Y-72076629D01*
X91400580Y-72110800D01*
X91225420Y-72110800D01*
X91053631Y-72076629D01*
X90891805Y-72009598D01*
X90746171Y-71912289D01*
X90622311Y-71788429D01*
X90525002Y-71642795D01*
X90457971Y-71480969D01*
X90423800Y-71309180D01*
X90423800Y-71134020D01*
X90457971Y-70962231D01*
X90525002Y-70800405D01*
X90622311Y-70654771D01*
X90746171Y-70530911D01*
X90891805Y-70433602D01*
X91053631Y-70366571D01*
X91225420Y-70332400D01*
X91400580Y-70332400D01*
X91572369Y-70366571D01*
X91572369Y-70366571D01*
G37*
G36*
X132124068Y-70424365D02*
G01*
X132162738Y-70436096D01*
X132198377Y-70455146D01*
X132229617Y-70480783D01*
X132255254Y-70512023D01*
X132274304Y-70547662D01*
X132286035Y-70586332D01*
X132290600Y-70632688D01*
X132290600Y-71708912D01*
X132286035Y-71755268D01*
X132274304Y-71793938D01*
X132255254Y-71829577D01*
X132229617Y-71860817D01*
X132198377Y-71886454D01*
X132162738Y-71905504D01*
X132124068Y-71917235D01*
X132077712Y-71921800D01*
X131426488Y-71921800D01*
X131380132Y-71917235D01*
X131341462Y-71905504D01*
X131305823Y-71886454D01*
X131274583Y-71860817D01*
X131248946Y-71829577D01*
X131229896Y-71793938D01*
X131218165Y-71755268D01*
X131213600Y-71708912D01*
X131213600Y-70632688D01*
X131218165Y-70586332D01*
X131229896Y-70547662D01*
X131248946Y-70512023D01*
X131274583Y-70480783D01*
X131305823Y-70455146D01*
X131341462Y-70436096D01*
X131380132Y-70424365D01*
X131426488Y-70419800D01*
X132077712Y-70419800D01*
X132124068Y-70424365D01*
X132124068Y-70424365D01*
G37*
G36*
X133999068Y-70424365D02*
G01*
X134037738Y-70436096D01*
X134073377Y-70455146D01*
X134104617Y-70480783D01*
X134130254Y-70512023D01*
X134149304Y-70547662D01*
X134161035Y-70586332D01*
X134165600Y-70632688D01*
X134165600Y-71708912D01*
X134161035Y-71755268D01*
X134149304Y-71793938D01*
X134130254Y-71829577D01*
X134104617Y-71860817D01*
X134073377Y-71886454D01*
X134037738Y-71905504D01*
X133999068Y-71917235D01*
X133952712Y-71921800D01*
X133301488Y-71921800D01*
X133255132Y-71917235D01*
X133216462Y-71905504D01*
X133180823Y-71886454D01*
X133149583Y-71860817D01*
X133123946Y-71829577D01*
X133104896Y-71793938D01*
X133093165Y-71755268D01*
X133088600Y-71708912D01*
X133088600Y-70632688D01*
X133093165Y-70586332D01*
X133104896Y-70547662D01*
X133123946Y-70512023D01*
X133149583Y-70480783D01*
X133180823Y-70455146D01*
X133216462Y-70436096D01*
X133255132Y-70424365D01*
X133301488Y-70419800D01*
X133952712Y-70419800D01*
X133999068Y-70424365D01*
X133999068Y-70424365D01*
G37*
G36*
X130505468Y-70659965D02*
G01*
X130544138Y-70671696D01*
X130579777Y-70690746D01*
X130611017Y-70716383D01*
X130636654Y-70747623D01*
X130655704Y-70783262D01*
X130667435Y-70821932D01*
X130672000Y-70868288D01*
X130672000Y-71519512D01*
X130667435Y-71565868D01*
X130655704Y-71604538D01*
X130636654Y-71640177D01*
X130611017Y-71671417D01*
X130579777Y-71697054D01*
X130544138Y-71716104D01*
X130505468Y-71727835D01*
X130459112Y-71732400D01*
X129382888Y-71732400D01*
X129336532Y-71727835D01*
X129297862Y-71716104D01*
X129262223Y-71697054D01*
X129230983Y-71671417D01*
X129205346Y-71640177D01*
X129186296Y-71604538D01*
X129174565Y-71565868D01*
X129170000Y-71519512D01*
X129170000Y-70868288D01*
X129174565Y-70821932D01*
X129186296Y-70783262D01*
X129205346Y-70747623D01*
X129230983Y-70716383D01*
X129262223Y-70690746D01*
X129297862Y-70671696D01*
X129336532Y-70659965D01*
X129382888Y-70655400D01*
X130459112Y-70655400D01*
X130505468Y-70659965D01*
X130505468Y-70659965D01*
G37*
G36*
X111088268Y-70043365D02*
G01*
X111126938Y-70055096D01*
X111162577Y-70074146D01*
X111193817Y-70099783D01*
X111219454Y-70131023D01*
X111238504Y-70166662D01*
X111250235Y-70205332D01*
X111254800Y-70251688D01*
X111254800Y-71327912D01*
X111250235Y-71374268D01*
X111238504Y-71412938D01*
X111219454Y-71448577D01*
X111193817Y-71479817D01*
X111162577Y-71505454D01*
X111126938Y-71524504D01*
X111088268Y-71536235D01*
X111041912Y-71540800D01*
X110390688Y-71540800D01*
X110344332Y-71536235D01*
X110305662Y-71524504D01*
X110270023Y-71505454D01*
X110238783Y-71479817D01*
X110213146Y-71448577D01*
X110194096Y-71412938D01*
X110182365Y-71374268D01*
X110177800Y-71327912D01*
X110177800Y-70251688D01*
X110182365Y-70205332D01*
X110194096Y-70166662D01*
X110213146Y-70131023D01*
X110238783Y-70099783D01*
X110270023Y-70074146D01*
X110305662Y-70055096D01*
X110344332Y-70043365D01*
X110390688Y-70038800D01*
X111041912Y-70038800D01*
X111088268Y-70043365D01*
X111088268Y-70043365D01*
G37*
G36*
X109213268Y-70043365D02*
G01*
X109251938Y-70055096D01*
X109287577Y-70074146D01*
X109318817Y-70099783D01*
X109344454Y-70131023D01*
X109363504Y-70166662D01*
X109375235Y-70205332D01*
X109379800Y-70251688D01*
X109379800Y-71327912D01*
X109375235Y-71374268D01*
X109363504Y-71412938D01*
X109344454Y-71448577D01*
X109318817Y-71479817D01*
X109287577Y-71505454D01*
X109251938Y-71524504D01*
X109213268Y-71536235D01*
X109166912Y-71540800D01*
X108515688Y-71540800D01*
X108469332Y-71536235D01*
X108430662Y-71524504D01*
X108395023Y-71505454D01*
X108363783Y-71479817D01*
X108338146Y-71448577D01*
X108319096Y-71412938D01*
X108307365Y-71374268D01*
X108302800Y-71327912D01*
X108302800Y-70251688D01*
X108307365Y-70205332D01*
X108319096Y-70166662D01*
X108338146Y-70131023D01*
X108363783Y-70099783D01*
X108395023Y-70074146D01*
X108430662Y-70055096D01*
X108469332Y-70043365D01*
X108515688Y-70038800D01*
X109166912Y-70038800D01*
X109213268Y-70043365D01*
X109213268Y-70043365D01*
G37*
G36*
X113807001Y-71402801D02*
G01*
X112006999Y-71402801D01*
X112006999Y-69902799D01*
X113807001Y-69902799D01*
X113807001Y-71402801D01*
X113807001Y-71402801D01*
G37*
G36*
X127007001Y-71402801D02*
G01*
X125206999Y-71402801D01*
X125206999Y-69902799D01*
X127007001Y-69902799D01*
X127007001Y-71402801D01*
X127007001Y-71402801D01*
G37*
G36*
X105275669Y-69452171D02*
G01*
X105437495Y-69519202D01*
X105583129Y-69616511D01*
X105706989Y-69740371D01*
X105804298Y-69886005D01*
X105871329Y-70047831D01*
X105905500Y-70219620D01*
X105905500Y-70394780D01*
X105871329Y-70566569D01*
X105804298Y-70728395D01*
X105706989Y-70874029D01*
X105583129Y-70997889D01*
X105437495Y-71095198D01*
X105275669Y-71162229D01*
X105103880Y-71196400D01*
X104928720Y-71196400D01*
X104756931Y-71162229D01*
X104595105Y-71095198D01*
X104449471Y-70997889D01*
X104325611Y-70874029D01*
X104228302Y-70728395D01*
X104161271Y-70566569D01*
X104127100Y-70394780D01*
X104127100Y-70219620D01*
X104161271Y-70047831D01*
X104228302Y-69886005D01*
X104325611Y-69740371D01*
X104449471Y-69616511D01*
X104595105Y-69519202D01*
X104756931Y-69452171D01*
X104928720Y-69418000D01*
X105103880Y-69418000D01*
X105275669Y-69452171D01*
X105275669Y-69452171D01*
G37*
G36*
X130505468Y-68784965D02*
G01*
X130544138Y-68796696D01*
X130579777Y-68815746D01*
X130611017Y-68841383D01*
X130636654Y-68872623D01*
X130655704Y-68908262D01*
X130667435Y-68946932D01*
X130672000Y-68993288D01*
X130672000Y-69644512D01*
X130667435Y-69690868D01*
X130655704Y-69729538D01*
X130636654Y-69765177D01*
X130611017Y-69796417D01*
X130579777Y-69822054D01*
X130544138Y-69841104D01*
X130505468Y-69852835D01*
X130459112Y-69857400D01*
X129382888Y-69857400D01*
X129336532Y-69852835D01*
X129297862Y-69841104D01*
X129262223Y-69822054D01*
X129230983Y-69796417D01*
X129205346Y-69765177D01*
X129186296Y-69729538D01*
X129174565Y-69690868D01*
X129170000Y-69644512D01*
X129170000Y-68993288D01*
X129174565Y-68946932D01*
X129186296Y-68908262D01*
X129205346Y-68872623D01*
X129230983Y-68841383D01*
X129262223Y-68815746D01*
X129297862Y-68796696D01*
X129336532Y-68784965D01*
X129382888Y-68780400D01*
X130459112Y-68780400D01*
X130505468Y-68784965D01*
X130505468Y-68784965D01*
G37*
G36*
X109213268Y-68138365D02*
G01*
X109251938Y-68150096D01*
X109287577Y-68169146D01*
X109318817Y-68194783D01*
X109344454Y-68226023D01*
X109363504Y-68261662D01*
X109375235Y-68300332D01*
X109379800Y-68346688D01*
X109379800Y-69422912D01*
X109375235Y-69469268D01*
X109363504Y-69507938D01*
X109344454Y-69543577D01*
X109318817Y-69574817D01*
X109287577Y-69600454D01*
X109251938Y-69619504D01*
X109213268Y-69631235D01*
X109166912Y-69635800D01*
X108515688Y-69635800D01*
X108469332Y-69631235D01*
X108430662Y-69619504D01*
X108395023Y-69600454D01*
X108363783Y-69574817D01*
X108338146Y-69543577D01*
X108319096Y-69507938D01*
X108307365Y-69469268D01*
X108302800Y-69422912D01*
X108302800Y-68346688D01*
X108307365Y-68300332D01*
X108319096Y-68261662D01*
X108338146Y-68226023D01*
X108363783Y-68194783D01*
X108395023Y-68169146D01*
X108430662Y-68150096D01*
X108469332Y-68138365D01*
X108515688Y-68133800D01*
X109166912Y-68133800D01*
X109213268Y-68138365D01*
X109213268Y-68138365D01*
G37*
G36*
X111088268Y-68138365D02*
G01*
X111126938Y-68150096D01*
X111162577Y-68169146D01*
X111193817Y-68194783D01*
X111219454Y-68226023D01*
X111238504Y-68261662D01*
X111250235Y-68300332D01*
X111254800Y-68346688D01*
X111254800Y-69422912D01*
X111250235Y-69469268D01*
X111238504Y-69507938D01*
X111219454Y-69543577D01*
X111193817Y-69574817D01*
X111162577Y-69600454D01*
X111126938Y-69619504D01*
X111088268Y-69631235D01*
X111041912Y-69635800D01*
X110390688Y-69635800D01*
X110344332Y-69631235D01*
X110305662Y-69619504D01*
X110270023Y-69600454D01*
X110238783Y-69574817D01*
X110213146Y-69543577D01*
X110194096Y-69507938D01*
X110182365Y-69469268D01*
X110177800Y-69422912D01*
X110177800Y-68346688D01*
X110182365Y-68300332D01*
X110194096Y-68261662D01*
X110213146Y-68226023D01*
X110238783Y-68194783D01*
X110270023Y-68169146D01*
X110305662Y-68150096D01*
X110344332Y-68138365D01*
X110390688Y-68133800D01*
X111041912Y-68133800D01*
X111088268Y-68138365D01*
X111088268Y-68138365D01*
G37*
G36*
X134246200Y-69580200D02*
G01*
X133344200Y-69580200D01*
X133344200Y-67478200D01*
X134246200Y-67478200D01*
X134246200Y-69580200D01*
X134246200Y-69580200D01*
G37*
G36*
X132746200Y-69580200D02*
G01*
X131844200Y-69580200D01*
X131844200Y-67478200D01*
X132746200Y-67478200D01*
X132746200Y-69580200D01*
X132746200Y-69580200D01*
G37*
G36*
X91572369Y-67826571D02*
G01*
X91734195Y-67893602D01*
X91879829Y-67990911D01*
X92003689Y-68114771D01*
X92100998Y-68260405D01*
X92168029Y-68422231D01*
X92202200Y-68594020D01*
X92202200Y-68769180D01*
X92168029Y-68940969D01*
X92100998Y-69102795D01*
X92003689Y-69248429D01*
X91879829Y-69372289D01*
X91734195Y-69469598D01*
X91572369Y-69536629D01*
X91400580Y-69570800D01*
X91225420Y-69570800D01*
X91053631Y-69536629D01*
X90891805Y-69469598D01*
X90746171Y-69372289D01*
X90622311Y-69248429D01*
X90525002Y-69102795D01*
X90457971Y-68940969D01*
X90423800Y-68769180D01*
X90423800Y-68594020D01*
X90457971Y-68422231D01*
X90525002Y-68260405D01*
X90622311Y-68114771D01*
X90746171Y-67990911D01*
X90891805Y-67893602D01*
X91053631Y-67826571D01*
X91225420Y-67792400D01*
X91400580Y-67792400D01*
X91572369Y-67826571D01*
X91572369Y-67826571D01*
G37*
G36*
X127007001Y-69502801D02*
G01*
X125206999Y-69502801D01*
X125206999Y-68002799D01*
X127007001Y-68002799D01*
X127007001Y-69502801D01*
X127007001Y-69502801D01*
G37*
G36*
X113807001Y-69502801D02*
G01*
X112006999Y-69502801D01*
X112006999Y-68002799D01*
X113807001Y-68002799D01*
X113807001Y-69502801D01*
X113807001Y-69502801D01*
G37*
G36*
X105275669Y-66912171D02*
G01*
X105437495Y-66979202D01*
X105583129Y-67076511D01*
X105706989Y-67200371D01*
X105804298Y-67346005D01*
X105871329Y-67507831D01*
X105905500Y-67679620D01*
X105905500Y-67854780D01*
X105871329Y-68026569D01*
X105804298Y-68188395D01*
X105706989Y-68334029D01*
X105583129Y-68457889D01*
X105437495Y-68555198D01*
X105275669Y-68622229D01*
X105103880Y-68656400D01*
X104928720Y-68656400D01*
X104756931Y-68622229D01*
X104595105Y-68555198D01*
X104449471Y-68457889D01*
X104325611Y-68334029D01*
X104228302Y-68188395D01*
X104161271Y-68026569D01*
X104127100Y-67854780D01*
X104127100Y-67679620D01*
X104161271Y-67507831D01*
X104228302Y-67346005D01*
X104325611Y-67200371D01*
X104449471Y-67076511D01*
X104595105Y-66979202D01*
X104756931Y-66912171D01*
X104928720Y-66878000D01*
X105103880Y-66878000D01*
X105275669Y-66912171D01*
X105275669Y-66912171D01*
G37*
G36*
X129057668Y-66824565D02*
G01*
X129096338Y-66836296D01*
X129131977Y-66855346D01*
X129163217Y-66880983D01*
X129188854Y-66912223D01*
X129207904Y-66947862D01*
X129219635Y-66986532D01*
X129224200Y-67032888D01*
X129224200Y-67684112D01*
X129219635Y-67730468D01*
X129207904Y-67769138D01*
X129188854Y-67804777D01*
X129163217Y-67836017D01*
X129131977Y-67861654D01*
X129096338Y-67880704D01*
X129057668Y-67892435D01*
X129011312Y-67897000D01*
X127935088Y-67897000D01*
X127888732Y-67892435D01*
X127850062Y-67880704D01*
X127814423Y-67861654D01*
X127783183Y-67836017D01*
X127757546Y-67804777D01*
X127738496Y-67769138D01*
X127726765Y-67730468D01*
X127722200Y-67684112D01*
X127722200Y-67032888D01*
X127726765Y-66986532D01*
X127738496Y-66947862D01*
X127757546Y-66912223D01*
X127783183Y-66880983D01*
X127814423Y-66855346D01*
X127850062Y-66836296D01*
X127888732Y-66824565D01*
X127935088Y-66820000D01*
X129011312Y-66820000D01*
X129057668Y-66824565D01*
X129057668Y-66824565D01*
G37*
G36*
X113807001Y-67602801D02*
G01*
X112006999Y-67602801D01*
X112006999Y-66102799D01*
X113807001Y-66102799D01*
X113807001Y-67602801D01*
X113807001Y-67602801D01*
G37*
G36*
X127007001Y-67602801D02*
G01*
X125206999Y-67602801D01*
X125206999Y-66102799D01*
X127007001Y-66102799D01*
X127007001Y-67602801D01*
X127007001Y-67602801D01*
G37*
G36*
X91572369Y-65286571D02*
G01*
X91734195Y-65353602D01*
X91879829Y-65450911D01*
X92003689Y-65574771D01*
X92100998Y-65720405D01*
X92168029Y-65882231D01*
X92202200Y-66054020D01*
X92202200Y-66229180D01*
X92168029Y-66400969D01*
X92100998Y-66562795D01*
X92003689Y-66708429D01*
X91879829Y-66832289D01*
X91734195Y-66929598D01*
X91572369Y-66996629D01*
X91400580Y-67030800D01*
X91225420Y-67030800D01*
X91053631Y-66996629D01*
X90891805Y-66929598D01*
X90746171Y-66832289D01*
X90622311Y-66708429D01*
X90525002Y-66562795D01*
X90457971Y-66400969D01*
X90423800Y-66229180D01*
X90423800Y-66054020D01*
X90457971Y-65882231D01*
X90525002Y-65720405D01*
X90622311Y-65574771D01*
X90746171Y-65450911D01*
X90891805Y-65353602D01*
X91053631Y-65286571D01*
X91225420Y-65252400D01*
X91400580Y-65252400D01*
X91572369Y-65286571D01*
X91572369Y-65286571D01*
G37*
G36*
X105275669Y-64372171D02*
G01*
X105437495Y-64439202D01*
X105583129Y-64536511D01*
X105706989Y-64660371D01*
X105804298Y-64806005D01*
X105871329Y-64967831D01*
X105905500Y-65139620D01*
X105905500Y-65314780D01*
X105871329Y-65486569D01*
X105804298Y-65648395D01*
X105706989Y-65794029D01*
X105583129Y-65917889D01*
X105437495Y-66015198D01*
X105275669Y-66082229D01*
X105103880Y-66116400D01*
X104928720Y-66116400D01*
X104756931Y-66082229D01*
X104595105Y-66015198D01*
X104449471Y-65917889D01*
X104325611Y-65794029D01*
X104228302Y-65648395D01*
X104161271Y-65486569D01*
X104127100Y-65314780D01*
X104127100Y-65139620D01*
X104161271Y-64967831D01*
X104228302Y-64806005D01*
X104325611Y-64660371D01*
X104449471Y-64536511D01*
X104595105Y-64439202D01*
X104756931Y-64372171D01*
X104928720Y-64338000D01*
X105103880Y-64338000D01*
X105275669Y-64372171D01*
X105275669Y-64372171D01*
G37*
G36*
X129057668Y-64949565D02*
G01*
X129096338Y-64961296D01*
X129131977Y-64980346D01*
X129163217Y-65005983D01*
X129188854Y-65037223D01*
X129207904Y-65072862D01*
X129219635Y-65111532D01*
X129224200Y-65157888D01*
X129224200Y-65809112D01*
X129219635Y-65855468D01*
X129207904Y-65894138D01*
X129188854Y-65929777D01*
X129163217Y-65961017D01*
X129131977Y-65986654D01*
X129096338Y-66005704D01*
X129057668Y-66017435D01*
X129011312Y-66022000D01*
X127935088Y-66022000D01*
X127888732Y-66017435D01*
X127850062Y-66005704D01*
X127814423Y-65986654D01*
X127783183Y-65961017D01*
X127757546Y-65929777D01*
X127738496Y-65894138D01*
X127726765Y-65855468D01*
X127722200Y-65809112D01*
X127722200Y-65157888D01*
X127726765Y-65111532D01*
X127738496Y-65072862D01*
X127757546Y-65037223D01*
X127783183Y-65005983D01*
X127814423Y-64980346D01*
X127850062Y-64961296D01*
X127888732Y-64949565D01*
X127935088Y-64945000D01*
X129011312Y-64945000D01*
X129057668Y-64949565D01*
X129057668Y-64949565D01*
G37*
G36*
X127007001Y-65702801D02*
G01*
X125206999Y-65702801D01*
X125206999Y-64202799D01*
X127007001Y-64202799D01*
X127007001Y-65702801D01*
X127007001Y-65702801D01*
G37*
G36*
X113807001Y-65702801D02*
G01*
X112006999Y-65702801D01*
X112006999Y-64202799D01*
X113807001Y-64202799D01*
X113807001Y-65702801D01*
X113807001Y-65702801D01*
G37*
G36*
X91572369Y-62746571D02*
G01*
X91734195Y-62813602D01*
X91879829Y-62910911D01*
X92003689Y-63034771D01*
X92100998Y-63180405D01*
X92168029Y-63342231D01*
X92202200Y-63514020D01*
X92202200Y-63689180D01*
X92168029Y-63860969D01*
X92100998Y-64022795D01*
X92003689Y-64168429D01*
X91879829Y-64292289D01*
X91734195Y-64389598D01*
X91572369Y-64456629D01*
X91400580Y-64490800D01*
X91225420Y-64490800D01*
X91053631Y-64456629D01*
X90891805Y-64389598D01*
X90746171Y-64292289D01*
X90622311Y-64168429D01*
X90525002Y-64022795D01*
X90457971Y-63860969D01*
X90423800Y-63689180D01*
X90423800Y-63514020D01*
X90457971Y-63342231D01*
X90525002Y-63180405D01*
X90622311Y-63034771D01*
X90746171Y-62910911D01*
X90891805Y-62813602D01*
X91053631Y-62746571D01*
X91225420Y-62712400D01*
X91400580Y-62712400D01*
X91572369Y-62746571D01*
X91572369Y-62746571D01*
G37*
G36*
X127007001Y-63802801D02*
G01*
X125206999Y-63802801D01*
X125206999Y-62302799D01*
X127007001Y-62302799D01*
X127007001Y-63802801D01*
X127007001Y-63802801D01*
G37*
G36*
X113807001Y-63802801D02*
G01*
X112006999Y-63802801D01*
X112006999Y-62302799D01*
X113807001Y-62302799D01*
X113807001Y-63802801D01*
X113807001Y-63802801D01*
G37*
G36*
X105885868Y-61991565D02*
G01*
X105924538Y-62003296D01*
X105960177Y-62022346D01*
X105991417Y-62047983D01*
X106017054Y-62079223D01*
X106036104Y-62114862D01*
X106047835Y-62153532D01*
X106052400Y-62199888D01*
X106052400Y-63276112D01*
X106047835Y-63322468D01*
X106036104Y-63361138D01*
X106017054Y-63396777D01*
X105991417Y-63428017D01*
X105960177Y-63453654D01*
X105924538Y-63472704D01*
X105885868Y-63484435D01*
X105839512Y-63489000D01*
X105188288Y-63489000D01*
X105141932Y-63484435D01*
X105103262Y-63472704D01*
X105067623Y-63453654D01*
X105036383Y-63428017D01*
X105010746Y-63396777D01*
X104991696Y-63361138D01*
X104979965Y-63322468D01*
X104975400Y-63276112D01*
X104975400Y-62199888D01*
X104979965Y-62153532D01*
X104991696Y-62114862D01*
X105010746Y-62079223D01*
X105036383Y-62047983D01*
X105067623Y-62022346D01*
X105103262Y-62003296D01*
X105141932Y-61991565D01*
X105188288Y-61987000D01*
X105839512Y-61987000D01*
X105885868Y-61991565D01*
X105885868Y-61991565D01*
G37*
G36*
X107760868Y-61991565D02*
G01*
X107799538Y-62003296D01*
X107835177Y-62022346D01*
X107866417Y-62047983D01*
X107892054Y-62079223D01*
X107911104Y-62114862D01*
X107922835Y-62153532D01*
X107927400Y-62199888D01*
X107927400Y-63276112D01*
X107922835Y-63322468D01*
X107911104Y-63361138D01*
X107892054Y-63396777D01*
X107866417Y-63428017D01*
X107835177Y-63453654D01*
X107799538Y-63472704D01*
X107760868Y-63484435D01*
X107714512Y-63489000D01*
X107063288Y-63489000D01*
X107016932Y-63484435D01*
X106978262Y-63472704D01*
X106942623Y-63453654D01*
X106911383Y-63428017D01*
X106885746Y-63396777D01*
X106866696Y-63361138D01*
X106854965Y-63322468D01*
X106850400Y-63276112D01*
X106850400Y-62199888D01*
X106854965Y-62153532D01*
X106866696Y-62114862D01*
X106885746Y-62079223D01*
X106911383Y-62047983D01*
X106942623Y-62022346D01*
X106978262Y-62003296D01*
X107016932Y-61991565D01*
X107063288Y-61987000D01*
X107714512Y-61987000D01*
X107760868Y-61991565D01*
X107760868Y-61991565D01*
G37*
G36*
X109264068Y-61991565D02*
G01*
X109302738Y-62003296D01*
X109338377Y-62022346D01*
X109369617Y-62047983D01*
X109395254Y-62079223D01*
X109414304Y-62114862D01*
X109426035Y-62153532D01*
X109430600Y-62199888D01*
X109430600Y-63276112D01*
X109426035Y-63322468D01*
X109414304Y-63361138D01*
X109395254Y-63396777D01*
X109369617Y-63428017D01*
X109338377Y-63453654D01*
X109302738Y-63472704D01*
X109264068Y-63484435D01*
X109217712Y-63489000D01*
X108566488Y-63489000D01*
X108520132Y-63484435D01*
X108481462Y-63472704D01*
X108445823Y-63453654D01*
X108414583Y-63428017D01*
X108388946Y-63396777D01*
X108369896Y-63361138D01*
X108358165Y-63322468D01*
X108353600Y-63276112D01*
X108353600Y-62199888D01*
X108358165Y-62153532D01*
X108369896Y-62114862D01*
X108388946Y-62079223D01*
X108414583Y-62047983D01*
X108445823Y-62022346D01*
X108481462Y-62003296D01*
X108520132Y-61991565D01*
X108566488Y-61987000D01*
X109217712Y-61987000D01*
X109264068Y-61991565D01*
X109264068Y-61991565D01*
G37*
G36*
X111139068Y-61991565D02*
G01*
X111177738Y-62003296D01*
X111213377Y-62022346D01*
X111244617Y-62047983D01*
X111270254Y-62079223D01*
X111289304Y-62114862D01*
X111301035Y-62153532D01*
X111305600Y-62199888D01*
X111305600Y-63276112D01*
X111301035Y-63322468D01*
X111289304Y-63361138D01*
X111270254Y-63396777D01*
X111244617Y-63428017D01*
X111213377Y-63453654D01*
X111177738Y-63472704D01*
X111139068Y-63484435D01*
X111092712Y-63489000D01*
X110441488Y-63489000D01*
X110395132Y-63484435D01*
X110356462Y-63472704D01*
X110320823Y-63453654D01*
X110289583Y-63428017D01*
X110263946Y-63396777D01*
X110244896Y-63361138D01*
X110233165Y-63322468D01*
X110228600Y-63276112D01*
X110228600Y-62199888D01*
X110233165Y-62153532D01*
X110244896Y-62114862D01*
X110263946Y-62079223D01*
X110289583Y-62047983D01*
X110320823Y-62022346D01*
X110356462Y-62003296D01*
X110395132Y-61991565D01*
X110441488Y-61987000D01*
X111092712Y-61987000D01*
X111139068Y-61991565D01*
X111139068Y-61991565D01*
G37*
G36*
X107760868Y-60035765D02*
G01*
X107799538Y-60047496D01*
X107835177Y-60066546D01*
X107866417Y-60092183D01*
X107892054Y-60123423D01*
X107911104Y-60159062D01*
X107922835Y-60197732D01*
X107927400Y-60244088D01*
X107927400Y-61320312D01*
X107922835Y-61366668D01*
X107911104Y-61405338D01*
X107892054Y-61440977D01*
X107866417Y-61472217D01*
X107835177Y-61497854D01*
X107799538Y-61516904D01*
X107760868Y-61528635D01*
X107714512Y-61533200D01*
X107063288Y-61533200D01*
X107016932Y-61528635D01*
X106978262Y-61516904D01*
X106942623Y-61497854D01*
X106911383Y-61472217D01*
X106885746Y-61440977D01*
X106866696Y-61405338D01*
X106854965Y-61366668D01*
X106850400Y-61320312D01*
X106850400Y-60244088D01*
X106854965Y-60197732D01*
X106866696Y-60159062D01*
X106885746Y-60123423D01*
X106911383Y-60092183D01*
X106942623Y-60066546D01*
X106978262Y-60047496D01*
X107016932Y-60035765D01*
X107063288Y-60031200D01*
X107714512Y-60031200D01*
X107760868Y-60035765D01*
X107760868Y-60035765D01*
G37*
G36*
X105885868Y-60035765D02*
G01*
X105924538Y-60047496D01*
X105960177Y-60066546D01*
X105991417Y-60092183D01*
X106017054Y-60123423D01*
X106036104Y-60159062D01*
X106047835Y-60197732D01*
X106052400Y-60244088D01*
X106052400Y-61320312D01*
X106047835Y-61366668D01*
X106036104Y-61405338D01*
X106017054Y-61440977D01*
X105991417Y-61472217D01*
X105960177Y-61497854D01*
X105924538Y-61516904D01*
X105885868Y-61528635D01*
X105839512Y-61533200D01*
X105188288Y-61533200D01*
X105141932Y-61528635D01*
X105103262Y-61516904D01*
X105067623Y-61497854D01*
X105036383Y-61472217D01*
X105010746Y-61440977D01*
X104991696Y-61405338D01*
X104979965Y-61366668D01*
X104975400Y-61320312D01*
X104975400Y-60244088D01*
X104979965Y-60197732D01*
X104991696Y-60159062D01*
X105010746Y-60123423D01*
X105036383Y-60092183D01*
X105067623Y-60066546D01*
X105103262Y-60047496D01*
X105141932Y-60035765D01*
X105188288Y-60031200D01*
X105839512Y-60031200D01*
X105885868Y-60035765D01*
X105885868Y-60035765D01*
G37*
G36*
X109264068Y-60035765D02*
G01*
X109302738Y-60047496D01*
X109338377Y-60066546D01*
X109369617Y-60092183D01*
X109395254Y-60123423D01*
X109414304Y-60159062D01*
X109426035Y-60197732D01*
X109430600Y-60244088D01*
X109430600Y-61320312D01*
X109426035Y-61366668D01*
X109414304Y-61405338D01*
X109395254Y-61440977D01*
X109369617Y-61472217D01*
X109338377Y-61497854D01*
X109302738Y-61516904D01*
X109264068Y-61528635D01*
X109217712Y-61533200D01*
X108566488Y-61533200D01*
X108520132Y-61528635D01*
X108481462Y-61516904D01*
X108445823Y-61497854D01*
X108414583Y-61472217D01*
X108388946Y-61440977D01*
X108369896Y-61405338D01*
X108358165Y-61366668D01*
X108353600Y-61320312D01*
X108353600Y-60244088D01*
X108358165Y-60197732D01*
X108369896Y-60159062D01*
X108388946Y-60123423D01*
X108414583Y-60092183D01*
X108445823Y-60066546D01*
X108481462Y-60047496D01*
X108520132Y-60035765D01*
X108566488Y-60031200D01*
X109217712Y-60031200D01*
X109264068Y-60035765D01*
X109264068Y-60035765D01*
G37*
G36*
X111139068Y-60035765D02*
G01*
X111177738Y-60047496D01*
X111213377Y-60066546D01*
X111244617Y-60092183D01*
X111270254Y-60123423D01*
X111289304Y-60159062D01*
X111301035Y-60197732D01*
X111305600Y-60244088D01*
X111305600Y-61320312D01*
X111301035Y-61366668D01*
X111289304Y-61405338D01*
X111270254Y-61440977D01*
X111244617Y-61472217D01*
X111213377Y-61497854D01*
X111177738Y-61516904D01*
X111139068Y-61528635D01*
X111092712Y-61533200D01*
X110441488Y-61533200D01*
X110395132Y-61528635D01*
X110356462Y-61516904D01*
X110320823Y-61497854D01*
X110289583Y-61472217D01*
X110263946Y-61440977D01*
X110244896Y-61405338D01*
X110233165Y-61366668D01*
X110228600Y-61320312D01*
X110228600Y-60244088D01*
X110233165Y-60197732D01*
X110244896Y-60159062D01*
X110263946Y-60123423D01*
X110289583Y-60092183D01*
X110320823Y-60066546D01*
X110356462Y-60047496D01*
X110395132Y-60035765D01*
X110441488Y-60031200D01*
X111092712Y-60031200D01*
X111139068Y-60035765D01*
X111139068Y-60035765D01*
G37*
G36*
X122157001Y-61152801D02*
G01*
X120656999Y-61152801D01*
X120656999Y-59352799D01*
X122157001Y-59352799D01*
X122157001Y-61152801D01*
X122157001Y-61152801D01*
G37*
G36*
X120257001Y-61152801D02*
G01*
X118756999Y-61152801D01*
X118756999Y-59352799D01*
X120257001Y-59352799D01*
X120257001Y-61152801D01*
X120257001Y-61152801D01*
G37*
G36*
X124057001Y-61152801D02*
G01*
X122556999Y-61152801D01*
X122556999Y-59352799D01*
X124057001Y-59352799D01*
X124057001Y-61152801D01*
X124057001Y-61152801D01*
G37*
G36*
X116457001Y-61152801D02*
G01*
X114956999Y-61152801D01*
X114956999Y-59352799D01*
X116457001Y-59352799D01*
X116457001Y-61152801D01*
X116457001Y-61152801D01*
G37*
G36*
X118357001Y-61152801D02*
G01*
X116856999Y-61152801D01*
X116856999Y-59352799D01*
X118357001Y-59352799D01*
X118357001Y-61152801D01*
X118357001Y-61152801D01*
G37*
G36*
X100570999Y-59067537D02*
G01*
X100580608Y-59070452D01*
X100589472Y-59075190D01*
X100597237Y-59081563D01*
X100607448Y-59094006D01*
X100614378Y-59104375D01*
X100631705Y-59121702D01*
X100652080Y-59135315D01*
X100674720Y-59144691D01*
X100698753Y-59149471D01*
X100723257Y-59149470D01*
X100747290Y-59144688D01*
X100769929Y-59135310D01*
X100790302Y-59121695D01*
X100807629Y-59104368D01*
X100814558Y-59093998D01*
X100824763Y-59081563D01*
X100832528Y-59075190D01*
X100841392Y-59070452D01*
X100851001Y-59067537D01*
X100867140Y-59065948D01*
X101354861Y-59065948D01*
X101373199Y-59067754D01*
X101385450Y-59068356D01*
X101403869Y-59068356D01*
X101426149Y-59070550D01*
X101510233Y-59087276D01*
X101531660Y-59093776D01*
X101610858Y-59126580D01*
X101616303Y-59129491D01*
X101616309Y-59129493D01*
X101625169Y-59134229D01*
X101625173Y-59134232D01*
X101630614Y-59137140D01*
X101701899Y-59184771D01*
X101719204Y-59198972D01*
X101779828Y-59259596D01*
X101794029Y-59276901D01*
X101841660Y-59348186D01*
X101844568Y-59353627D01*
X101844571Y-59353631D01*
X101849307Y-59362491D01*
X101849309Y-59362497D01*
X101852220Y-59367942D01*
X101885024Y-59447140D01*
X101891524Y-59468567D01*
X101908250Y-59552651D01*
X101910444Y-59574931D01*
X101910444Y-59593350D01*
X101911046Y-59605601D01*
X101912852Y-59623939D01*
X101912852Y-60111662D01*
X101911046Y-60129999D01*
X101910444Y-60142250D01*
X101910444Y-60160669D01*
X101908250Y-60182949D01*
X101891524Y-60267033D01*
X101885024Y-60288460D01*
X101852220Y-60367658D01*
X101849309Y-60373103D01*
X101849307Y-60373109D01*
X101844571Y-60381969D01*
X101844568Y-60381973D01*
X101841660Y-60387414D01*
X101794029Y-60458699D01*
X101779828Y-60476004D01*
X101719204Y-60536628D01*
X101701899Y-60550829D01*
X101630614Y-60598460D01*
X101625173Y-60601368D01*
X101625169Y-60601371D01*
X101616309Y-60606107D01*
X101616303Y-60606109D01*
X101610858Y-60609020D01*
X101531660Y-60641824D01*
X101510233Y-60648324D01*
X101426149Y-60665050D01*
X101403869Y-60667244D01*
X101385450Y-60667244D01*
X101373199Y-60667846D01*
X101354862Y-60669652D01*
X100867140Y-60669652D01*
X100851001Y-60668063D01*
X100841392Y-60665148D01*
X100832528Y-60660410D01*
X100824763Y-60654037D01*
X100814552Y-60641594D01*
X100807622Y-60631225D01*
X100790295Y-60613898D01*
X100769920Y-60600285D01*
X100747280Y-60590909D01*
X100723247Y-60586129D01*
X100698743Y-60586130D01*
X100674710Y-60590912D01*
X100652071Y-60600290D01*
X100631698Y-60613905D01*
X100614371Y-60631232D01*
X100607442Y-60641602D01*
X100597237Y-60654037D01*
X100589472Y-60660410D01*
X100580608Y-60665148D01*
X100570999Y-60668063D01*
X100554860Y-60669652D01*
X100067138Y-60669652D01*
X100048801Y-60667846D01*
X100036550Y-60667244D01*
X100018131Y-60667244D01*
X99995851Y-60665050D01*
X99911767Y-60648324D01*
X99890340Y-60641824D01*
X99811142Y-60609020D01*
X99805697Y-60606109D01*
X99805691Y-60606107D01*
X99796831Y-60601371D01*
X99796827Y-60601368D01*
X99791386Y-60598460D01*
X99720101Y-60550829D01*
X99702796Y-60536628D01*
X99642172Y-60476004D01*
X99627971Y-60458699D01*
X99580340Y-60387414D01*
X99577432Y-60381973D01*
X99577429Y-60381969D01*
X99572693Y-60373109D01*
X99572691Y-60373103D01*
X99569780Y-60367658D01*
X99536976Y-60288460D01*
X99530476Y-60267033D01*
X99513750Y-60182949D01*
X99511556Y-60160669D01*
X99511556Y-60142250D01*
X99510954Y-60129999D01*
X99509148Y-60111662D01*
X99509148Y-59623939D01*
X99510954Y-59605601D01*
X99511556Y-59593350D01*
X99511556Y-59574931D01*
X99513750Y-59552651D01*
X99530476Y-59468567D01*
X99536976Y-59447140D01*
X99569780Y-59367942D01*
X99572691Y-59362497D01*
X99572693Y-59362491D01*
X99577429Y-59353631D01*
X99577432Y-59353627D01*
X99580340Y-59348186D01*
X99627971Y-59276901D01*
X99642172Y-59259596D01*
X99702796Y-59198972D01*
X99720101Y-59184771D01*
X99791386Y-59137140D01*
X99796827Y-59134232D01*
X99796831Y-59134229D01*
X99805691Y-59129493D01*
X99805697Y-59129491D01*
X99811142Y-59126580D01*
X99890340Y-59093776D01*
X99911767Y-59087276D01*
X99995851Y-59070550D01*
X100018131Y-59068356D01*
X100036550Y-59068356D01*
X100048801Y-59067754D01*
X100067139Y-59065948D01*
X100554860Y-59065948D01*
X100570999Y-59067537D01*
X100570999Y-59067537D01*
G37*
G36*
X95441868Y-59121365D02*
G01*
X95480538Y-59133096D01*
X95516177Y-59152146D01*
X95547417Y-59177783D01*
X95573054Y-59209023D01*
X95592104Y-59244662D01*
X95603835Y-59283332D01*
X95608400Y-59329688D01*
X95608400Y-60405912D01*
X95603835Y-60452268D01*
X95592104Y-60490938D01*
X95573054Y-60526577D01*
X95547417Y-60557817D01*
X95516177Y-60583454D01*
X95480538Y-60602504D01*
X95441868Y-60614235D01*
X95395512Y-60618800D01*
X94744288Y-60618800D01*
X94697932Y-60614235D01*
X94659262Y-60602504D01*
X94623623Y-60583454D01*
X94592383Y-60557817D01*
X94566746Y-60526577D01*
X94547696Y-60490938D01*
X94535965Y-60452268D01*
X94531400Y-60405912D01*
X94531400Y-59329688D01*
X94535965Y-59283332D01*
X94547696Y-59244662D01*
X94566746Y-59209023D01*
X94592383Y-59177783D01*
X94623623Y-59152146D01*
X94659262Y-59133096D01*
X94697932Y-59121365D01*
X94744288Y-59116800D01*
X95395512Y-59116800D01*
X95441868Y-59121365D01*
X95441868Y-59121365D01*
G37*
G36*
X93566868Y-59121365D02*
G01*
X93605538Y-59133096D01*
X93641177Y-59152146D01*
X93672417Y-59177783D01*
X93698054Y-59209023D01*
X93717104Y-59244662D01*
X93728835Y-59283332D01*
X93733400Y-59329688D01*
X93733400Y-60405912D01*
X93728835Y-60452268D01*
X93717104Y-60490938D01*
X93698054Y-60526577D01*
X93672417Y-60557817D01*
X93641177Y-60583454D01*
X93605538Y-60602504D01*
X93566868Y-60614235D01*
X93520512Y-60618800D01*
X92869288Y-60618800D01*
X92822932Y-60614235D01*
X92784262Y-60602504D01*
X92748623Y-60583454D01*
X92717383Y-60557817D01*
X92691746Y-60526577D01*
X92672696Y-60490938D01*
X92660965Y-60452268D01*
X92656400Y-60405912D01*
X92656400Y-59329688D01*
X92660965Y-59283332D01*
X92672696Y-59244662D01*
X92691746Y-59209023D01*
X92717383Y-59177783D01*
X92748623Y-59152146D01*
X92784262Y-59133096D01*
X92822932Y-59121365D01*
X92869288Y-59116800D01*
X93520512Y-59116800D01*
X93566868Y-59121365D01*
X93566868Y-59121365D01*
G37*
G36*
X97021268Y-59121365D02*
G01*
X97059938Y-59133096D01*
X97095577Y-59152146D01*
X97126817Y-59177783D01*
X97152454Y-59209023D01*
X97171504Y-59244662D01*
X97183235Y-59283332D01*
X97187800Y-59329688D01*
X97187800Y-60405912D01*
X97183235Y-60452268D01*
X97171504Y-60490938D01*
X97152454Y-60526577D01*
X97126817Y-60557817D01*
X97095577Y-60583454D01*
X97059938Y-60602504D01*
X97021268Y-60614235D01*
X96974912Y-60618800D01*
X96323688Y-60618800D01*
X96277332Y-60614235D01*
X96238662Y-60602504D01*
X96203023Y-60583454D01*
X96171783Y-60557817D01*
X96146146Y-60526577D01*
X96127096Y-60490938D01*
X96115365Y-60452268D01*
X96110800Y-60405912D01*
X96110800Y-59329688D01*
X96115365Y-59283332D01*
X96127096Y-59244662D01*
X96146146Y-59209023D01*
X96171783Y-59177783D01*
X96203023Y-59152146D01*
X96238662Y-59133096D01*
X96277332Y-59121365D01*
X96323688Y-59116800D01*
X96974912Y-59116800D01*
X97021268Y-59121365D01*
X97021268Y-59121365D01*
G37*
G36*
X98896268Y-59121365D02*
G01*
X98934938Y-59133096D01*
X98970577Y-59152146D01*
X99001817Y-59177783D01*
X99027454Y-59209023D01*
X99046504Y-59244662D01*
X99058235Y-59283332D01*
X99062800Y-59329688D01*
X99062800Y-60405912D01*
X99058235Y-60452268D01*
X99046504Y-60490938D01*
X99027454Y-60526577D01*
X99001817Y-60557817D01*
X98970577Y-60583454D01*
X98934938Y-60602504D01*
X98896268Y-60614235D01*
X98849912Y-60618800D01*
X98198688Y-60618800D01*
X98152332Y-60614235D01*
X98113662Y-60602504D01*
X98078023Y-60583454D01*
X98046783Y-60557817D01*
X98021146Y-60526577D01*
X98002096Y-60490938D01*
X97990365Y-60452268D01*
X97985800Y-60405912D01*
X97985800Y-59329688D01*
X97990365Y-59283332D01*
X98002096Y-59244662D01*
X98021146Y-59209023D01*
X98046783Y-59177783D01*
X98078023Y-59152146D01*
X98113662Y-59133096D01*
X98152332Y-59121365D01*
X98198688Y-59116800D01*
X98849912Y-59116800D01*
X98896268Y-59121365D01*
X98896268Y-59121365D01*
G37*
G36*
X89443685Y-56493175D02*
G01*
X89798743Y-56640245D01*
X89798745Y-56640246D01*
X90118290Y-56853759D01*
X90390041Y-57125510D01*
X90545818Y-57358647D01*
X90603555Y-57445057D01*
X90750625Y-57800115D01*
X90825600Y-58177042D01*
X90825600Y-58561358D01*
X90750625Y-58938285D01*
X90607834Y-59283012D01*
X90603554Y-59293345D01*
X90390041Y-59612890D01*
X90118290Y-59884641D01*
X89798745Y-60098154D01*
X89798744Y-60098155D01*
X89798743Y-60098155D01*
X89443685Y-60245225D01*
X89066758Y-60320200D01*
X88682442Y-60320200D01*
X88305515Y-60245225D01*
X87950457Y-60098155D01*
X87950456Y-60098155D01*
X87950455Y-60098154D01*
X87630910Y-59884641D01*
X87359159Y-59612890D01*
X87145646Y-59293345D01*
X87141366Y-59283012D01*
X86998575Y-58938285D01*
X86923600Y-58561358D01*
X86923600Y-58177042D01*
X86998575Y-57800115D01*
X87145645Y-57445057D01*
X87203382Y-57358647D01*
X87359159Y-57125510D01*
X87630910Y-56853759D01*
X87950455Y-56640246D01*
X87950457Y-56640245D01*
X88305515Y-56493175D01*
X88682442Y-56418200D01*
X89066758Y-56418200D01*
X89443685Y-56493175D01*
X89443685Y-56493175D01*
G37*
G36*
X134974087Y-57118196D02*
G01*
X135210853Y-57216268D01*
X135210855Y-57216269D01*
X135423939Y-57358647D01*
X135605153Y-57539861D01*
X135738471Y-57739385D01*
X135747532Y-57752947D01*
X135845604Y-57989713D01*
X135895600Y-58241061D01*
X135895600Y-58497339D01*
X135845604Y-58748687D01*
X135767069Y-58938286D01*
X135747531Y-58985455D01*
X135605153Y-59198539D01*
X135423939Y-59379753D01*
X135210855Y-59522131D01*
X135210854Y-59522132D01*
X135210853Y-59522132D01*
X134974087Y-59620204D01*
X134722739Y-59670200D01*
X134466461Y-59670200D01*
X134215113Y-59620204D01*
X133978347Y-59522132D01*
X133978346Y-59522132D01*
X133978345Y-59522131D01*
X133765261Y-59379753D01*
X133584047Y-59198539D01*
X133441669Y-58985455D01*
X133422131Y-58938286D01*
X133343596Y-58748687D01*
X133293600Y-58497339D01*
X133293600Y-58241061D01*
X133343596Y-57989713D01*
X133441668Y-57752947D01*
X133450730Y-57739385D01*
X133584047Y-57539861D01*
X133765261Y-57358647D01*
X133978345Y-57216269D01*
X133978347Y-57216268D01*
X134215113Y-57118196D01*
X134466461Y-57068200D01*
X134722739Y-57068200D01*
X134974087Y-57118196D01*
X134974087Y-57118196D01*
G37*
G36*
X115655042Y-56204718D02*
G01*
X115721227Y-56211237D01*
X115891066Y-56262757D01*
X116047591Y-56346422D01*
X116083329Y-56375752D01*
X116184786Y-56459014D01*
X116268048Y-56560471D01*
X116297378Y-56596209D01*
X116381043Y-56752734D01*
X116432563Y-56922573D01*
X116449959Y-57099200D01*
X116432563Y-57275827D01*
X116381043Y-57445666D01*
X116297378Y-57602191D01*
X116268048Y-57637929D01*
X116184786Y-57739386D01*
X116110786Y-57800115D01*
X116047591Y-57851978D01*
X115891066Y-57935643D01*
X115721227Y-57987163D01*
X115655042Y-57993682D01*
X115588860Y-58000200D01*
X115500340Y-58000200D01*
X115434158Y-57993682D01*
X115367973Y-57987163D01*
X115198134Y-57935643D01*
X115041609Y-57851978D01*
X114978414Y-57800115D01*
X114904414Y-57739386D01*
X114821152Y-57637929D01*
X114791822Y-57602191D01*
X114708157Y-57445666D01*
X114656637Y-57275827D01*
X114639241Y-57099200D01*
X114656637Y-56922573D01*
X114708157Y-56752734D01*
X114791822Y-56596209D01*
X114821152Y-56560471D01*
X114904414Y-56459014D01*
X115005871Y-56375752D01*
X115041609Y-56346422D01*
X115198134Y-56262757D01*
X115367973Y-56211237D01*
X115434158Y-56204718D01*
X115500340Y-56198200D01*
X115588860Y-56198200D01*
X115655042Y-56204718D01*
X115655042Y-56204718D01*
G37*
G36*
X113115042Y-56204718D02*
G01*
X113181227Y-56211237D01*
X113351066Y-56262757D01*
X113507591Y-56346422D01*
X113543329Y-56375752D01*
X113644786Y-56459014D01*
X113728048Y-56560471D01*
X113757378Y-56596209D01*
X113841043Y-56752734D01*
X113892563Y-56922573D01*
X113909959Y-57099200D01*
X113892563Y-57275827D01*
X113841043Y-57445666D01*
X113757378Y-57602191D01*
X113728048Y-57637929D01*
X113644786Y-57739386D01*
X113570786Y-57800115D01*
X113507591Y-57851978D01*
X113351066Y-57935643D01*
X113181227Y-57987163D01*
X113115042Y-57993682D01*
X113048860Y-58000200D01*
X112960340Y-58000200D01*
X112894158Y-57993682D01*
X112827973Y-57987163D01*
X112658134Y-57935643D01*
X112501609Y-57851978D01*
X112438414Y-57800115D01*
X112364414Y-57739386D01*
X112281152Y-57637929D01*
X112251822Y-57602191D01*
X112168157Y-57445666D01*
X112116637Y-57275827D01*
X112099241Y-57099200D01*
X112116637Y-56922573D01*
X112168157Y-56752734D01*
X112251822Y-56596209D01*
X112281152Y-56560471D01*
X112364414Y-56459014D01*
X112465871Y-56375752D01*
X112501609Y-56346422D01*
X112658134Y-56262757D01*
X112827973Y-56211237D01*
X112894158Y-56204718D01*
X112960340Y-56198200D01*
X113048860Y-56198200D01*
X113115042Y-56204718D01*
X113115042Y-56204718D01*
G37*
G36*
X110575042Y-56204718D02*
G01*
X110641227Y-56211237D01*
X110811066Y-56262757D01*
X110967591Y-56346422D01*
X111003329Y-56375752D01*
X111104786Y-56459014D01*
X111188048Y-56560471D01*
X111217378Y-56596209D01*
X111301043Y-56752734D01*
X111352563Y-56922573D01*
X111369959Y-57099200D01*
X111352563Y-57275827D01*
X111301043Y-57445666D01*
X111217378Y-57602191D01*
X111188048Y-57637929D01*
X111104786Y-57739386D01*
X111030786Y-57800115D01*
X110967591Y-57851978D01*
X110811066Y-57935643D01*
X110641227Y-57987163D01*
X110575042Y-57993682D01*
X110508860Y-58000200D01*
X110420340Y-58000200D01*
X110354158Y-57993682D01*
X110287973Y-57987163D01*
X110118134Y-57935643D01*
X109961609Y-57851978D01*
X109898414Y-57800115D01*
X109824414Y-57739386D01*
X109741152Y-57637929D01*
X109711822Y-57602191D01*
X109628157Y-57445666D01*
X109576637Y-57275827D01*
X109559241Y-57099200D01*
X109576637Y-56922573D01*
X109628157Y-56752734D01*
X109711822Y-56596209D01*
X109741152Y-56560471D01*
X109824414Y-56459014D01*
X109925871Y-56375752D01*
X109961609Y-56346422D01*
X110118134Y-56262757D01*
X110287973Y-56211237D01*
X110354158Y-56204718D01*
X110420340Y-56198200D01*
X110508860Y-56198200D01*
X110575042Y-56204718D01*
X110575042Y-56204718D01*
G37*
G36*
X108035042Y-56204718D02*
G01*
X108101227Y-56211237D01*
X108271066Y-56262757D01*
X108427591Y-56346422D01*
X108463329Y-56375752D01*
X108564786Y-56459014D01*
X108648048Y-56560471D01*
X108677378Y-56596209D01*
X108761043Y-56752734D01*
X108812563Y-56922573D01*
X108829959Y-57099200D01*
X108812563Y-57275827D01*
X108761043Y-57445666D01*
X108677378Y-57602191D01*
X108648048Y-57637929D01*
X108564786Y-57739386D01*
X108490786Y-57800115D01*
X108427591Y-57851978D01*
X108271066Y-57935643D01*
X108101227Y-57987163D01*
X108035042Y-57993682D01*
X107968860Y-58000200D01*
X107880340Y-58000200D01*
X107814158Y-57993682D01*
X107747973Y-57987163D01*
X107578134Y-57935643D01*
X107421609Y-57851978D01*
X107358414Y-57800115D01*
X107284414Y-57739386D01*
X107201152Y-57637929D01*
X107171822Y-57602191D01*
X107088157Y-57445666D01*
X107036637Y-57275827D01*
X107019241Y-57099200D01*
X107036637Y-56922573D01*
X107088157Y-56752734D01*
X107171822Y-56596209D01*
X107201152Y-56560471D01*
X107284414Y-56459014D01*
X107385871Y-56375752D01*
X107421609Y-56346422D01*
X107578134Y-56262757D01*
X107747973Y-56211237D01*
X107814158Y-56204718D01*
X107880340Y-56198200D01*
X107968860Y-56198200D01*
X108035042Y-56204718D01*
X108035042Y-56204718D01*
G37*
G36*
X105495042Y-56204718D02*
G01*
X105561227Y-56211237D01*
X105731066Y-56262757D01*
X105887591Y-56346422D01*
X105923329Y-56375752D01*
X106024786Y-56459014D01*
X106108048Y-56560471D01*
X106137378Y-56596209D01*
X106221043Y-56752734D01*
X106272563Y-56922573D01*
X106289959Y-57099200D01*
X106272563Y-57275827D01*
X106221043Y-57445666D01*
X106137378Y-57602191D01*
X106108048Y-57637929D01*
X106024786Y-57739386D01*
X105950786Y-57800115D01*
X105887591Y-57851978D01*
X105731066Y-57935643D01*
X105561227Y-57987163D01*
X105495042Y-57993682D01*
X105428860Y-58000200D01*
X105340340Y-58000200D01*
X105274158Y-57993682D01*
X105207973Y-57987163D01*
X105038134Y-57935643D01*
X104881609Y-57851978D01*
X104818414Y-57800115D01*
X104744414Y-57739386D01*
X104661152Y-57637929D01*
X104631822Y-57602191D01*
X104548157Y-57445666D01*
X104496637Y-57275827D01*
X104479241Y-57099200D01*
X104496637Y-56922573D01*
X104548157Y-56752734D01*
X104631822Y-56596209D01*
X104661152Y-56560471D01*
X104744414Y-56459014D01*
X104845871Y-56375752D01*
X104881609Y-56346422D01*
X105038134Y-56262757D01*
X105207973Y-56211237D01*
X105274158Y-56204718D01*
X105340340Y-56198200D01*
X105428860Y-56198200D01*
X105495042Y-56204718D01*
X105495042Y-56204718D01*
G37*
G36*
X103745600Y-58000200D02*
G01*
X101943600Y-58000200D01*
X101943600Y-56198200D01*
X103745600Y-56198200D01*
X103745600Y-58000200D01*
X103745600Y-58000200D01*
G37*
G36*
X130895042Y-56204718D02*
G01*
X130961227Y-56211237D01*
X131131066Y-56262757D01*
X131287591Y-56346422D01*
X131323329Y-56375752D01*
X131424786Y-56459014D01*
X131508048Y-56560471D01*
X131537378Y-56596209D01*
X131621043Y-56752734D01*
X131672563Y-56922573D01*
X131689959Y-57099200D01*
X131672563Y-57275827D01*
X131621043Y-57445666D01*
X131537378Y-57602191D01*
X131508048Y-57637929D01*
X131424786Y-57739386D01*
X131350786Y-57800115D01*
X131287591Y-57851978D01*
X131131066Y-57935643D01*
X130961227Y-57987163D01*
X130895042Y-57993682D01*
X130828860Y-58000200D01*
X130740340Y-58000200D01*
X130674158Y-57993682D01*
X130607973Y-57987163D01*
X130438134Y-57935643D01*
X130281609Y-57851978D01*
X130218414Y-57800115D01*
X130144414Y-57739386D01*
X130061152Y-57637929D01*
X130031822Y-57602191D01*
X129948157Y-57445666D01*
X129896637Y-57275827D01*
X129879241Y-57099200D01*
X129896637Y-56922573D01*
X129948157Y-56752734D01*
X130031822Y-56596209D01*
X130061152Y-56560471D01*
X130144414Y-56459014D01*
X130245871Y-56375752D01*
X130281609Y-56346422D01*
X130438134Y-56262757D01*
X130607973Y-56211237D01*
X130674158Y-56204718D01*
X130740340Y-56198200D01*
X130828860Y-56198200D01*
X130895042Y-56204718D01*
X130895042Y-56204718D01*
G37*
G36*
X128355042Y-56204718D02*
G01*
X128421227Y-56211237D01*
X128591066Y-56262757D01*
X128747591Y-56346422D01*
X128783329Y-56375752D01*
X128884786Y-56459014D01*
X128968048Y-56560471D01*
X128997378Y-56596209D01*
X129081043Y-56752734D01*
X129132563Y-56922573D01*
X129149959Y-57099200D01*
X129132563Y-57275827D01*
X129081043Y-57445666D01*
X128997378Y-57602191D01*
X128968048Y-57637929D01*
X128884786Y-57739386D01*
X128810786Y-57800115D01*
X128747591Y-57851978D01*
X128591066Y-57935643D01*
X128421227Y-57987163D01*
X128355042Y-57993682D01*
X128288860Y-58000200D01*
X128200340Y-58000200D01*
X128134158Y-57993682D01*
X128067973Y-57987163D01*
X127898134Y-57935643D01*
X127741609Y-57851978D01*
X127678414Y-57800115D01*
X127604414Y-57739386D01*
X127521152Y-57637929D01*
X127491822Y-57602191D01*
X127408157Y-57445666D01*
X127356637Y-57275827D01*
X127339241Y-57099200D01*
X127356637Y-56922573D01*
X127408157Y-56752734D01*
X127491822Y-56596209D01*
X127521152Y-56560471D01*
X127604414Y-56459014D01*
X127705871Y-56375752D01*
X127741609Y-56346422D01*
X127898134Y-56262757D01*
X128067973Y-56211237D01*
X128134158Y-56204718D01*
X128200340Y-56198200D01*
X128288860Y-56198200D01*
X128355042Y-56204718D01*
X128355042Y-56204718D01*
G37*
G36*
X125815042Y-56204718D02*
G01*
X125881227Y-56211237D01*
X126051066Y-56262757D01*
X126207591Y-56346422D01*
X126243329Y-56375752D01*
X126344786Y-56459014D01*
X126428048Y-56560471D01*
X126457378Y-56596209D01*
X126541043Y-56752734D01*
X126592563Y-56922573D01*
X126609959Y-57099200D01*
X126592563Y-57275827D01*
X126541043Y-57445666D01*
X126457378Y-57602191D01*
X126428048Y-57637929D01*
X126344786Y-57739386D01*
X126270786Y-57800115D01*
X126207591Y-57851978D01*
X126051066Y-57935643D01*
X125881227Y-57987163D01*
X125815042Y-57993682D01*
X125748860Y-58000200D01*
X125660340Y-58000200D01*
X125594158Y-57993682D01*
X125527973Y-57987163D01*
X125358134Y-57935643D01*
X125201609Y-57851978D01*
X125138414Y-57800115D01*
X125064414Y-57739386D01*
X124981152Y-57637929D01*
X124951822Y-57602191D01*
X124868157Y-57445666D01*
X124816637Y-57275827D01*
X124799241Y-57099200D01*
X124816637Y-56922573D01*
X124868157Y-56752734D01*
X124951822Y-56596209D01*
X124981152Y-56560471D01*
X125064414Y-56459014D01*
X125165871Y-56375752D01*
X125201609Y-56346422D01*
X125358134Y-56262757D01*
X125527973Y-56211237D01*
X125594158Y-56204718D01*
X125660340Y-56198200D01*
X125748860Y-56198200D01*
X125815042Y-56204718D01*
X125815042Y-56204718D01*
G37*
G36*
X118195042Y-56204718D02*
G01*
X118261227Y-56211237D01*
X118431066Y-56262757D01*
X118587591Y-56346422D01*
X118623329Y-56375752D01*
X118724786Y-56459014D01*
X118808048Y-56560471D01*
X118837378Y-56596209D01*
X118921043Y-56752734D01*
X118972563Y-56922573D01*
X118989959Y-57099200D01*
X118972563Y-57275827D01*
X118921043Y-57445666D01*
X118837378Y-57602191D01*
X118808048Y-57637929D01*
X118724786Y-57739386D01*
X118650786Y-57800115D01*
X118587591Y-57851978D01*
X118431066Y-57935643D01*
X118261227Y-57987163D01*
X118195042Y-57993682D01*
X118128860Y-58000200D01*
X118040340Y-58000200D01*
X117974158Y-57993682D01*
X117907973Y-57987163D01*
X117738134Y-57935643D01*
X117581609Y-57851978D01*
X117518414Y-57800115D01*
X117444414Y-57739386D01*
X117361152Y-57637929D01*
X117331822Y-57602191D01*
X117248157Y-57445666D01*
X117196637Y-57275827D01*
X117179241Y-57099200D01*
X117196637Y-56922573D01*
X117248157Y-56752734D01*
X117331822Y-56596209D01*
X117361152Y-56560471D01*
X117444414Y-56459014D01*
X117545871Y-56375752D01*
X117581609Y-56346422D01*
X117738134Y-56262757D01*
X117907973Y-56211237D01*
X117974158Y-56204718D01*
X118040340Y-56198200D01*
X118128860Y-56198200D01*
X118195042Y-56204718D01*
X118195042Y-56204718D01*
G37*
G36*
X123275042Y-56204718D02*
G01*
X123341227Y-56211237D01*
X123511066Y-56262757D01*
X123667591Y-56346422D01*
X123703329Y-56375752D01*
X123804786Y-56459014D01*
X123888048Y-56560471D01*
X123917378Y-56596209D01*
X124001043Y-56752734D01*
X124052563Y-56922573D01*
X124069959Y-57099200D01*
X124052563Y-57275827D01*
X124001043Y-57445666D01*
X123917378Y-57602191D01*
X123888048Y-57637929D01*
X123804786Y-57739386D01*
X123730786Y-57800115D01*
X123667591Y-57851978D01*
X123511066Y-57935643D01*
X123341227Y-57987163D01*
X123275042Y-57993682D01*
X123208860Y-58000200D01*
X123120340Y-58000200D01*
X123054158Y-57993682D01*
X122987973Y-57987163D01*
X122818134Y-57935643D01*
X122661609Y-57851978D01*
X122598414Y-57800115D01*
X122524414Y-57739386D01*
X122441152Y-57637929D01*
X122411822Y-57602191D01*
X122328157Y-57445666D01*
X122276637Y-57275827D01*
X122259241Y-57099200D01*
X122276637Y-56922573D01*
X122328157Y-56752734D01*
X122411822Y-56596209D01*
X122441152Y-56560471D01*
X122524414Y-56459014D01*
X122625871Y-56375752D01*
X122661609Y-56346422D01*
X122818134Y-56262757D01*
X122987973Y-56211237D01*
X123054158Y-56204718D01*
X123120340Y-56198200D01*
X123208860Y-56198200D01*
X123275042Y-56204718D01*
X123275042Y-56204718D01*
G37*
G36*
X120735042Y-56204718D02*
G01*
X120801227Y-56211237D01*
X120971066Y-56262757D01*
X121127591Y-56346422D01*
X121163329Y-56375752D01*
X121264786Y-56459014D01*
X121348048Y-56560471D01*
X121377378Y-56596209D01*
X121461043Y-56752734D01*
X121512563Y-56922573D01*
X121529959Y-57099200D01*
X121512563Y-57275827D01*
X121461043Y-57445666D01*
X121377378Y-57602191D01*
X121348048Y-57637929D01*
X121264786Y-57739386D01*
X121190786Y-57800115D01*
X121127591Y-57851978D01*
X120971066Y-57935643D01*
X120801227Y-57987163D01*
X120735042Y-57993682D01*
X120668860Y-58000200D01*
X120580340Y-58000200D01*
X120514158Y-57993682D01*
X120447973Y-57987163D01*
X120278134Y-57935643D01*
X120121609Y-57851978D01*
X120058414Y-57800115D01*
X119984414Y-57739386D01*
X119901152Y-57637929D01*
X119871822Y-57602191D01*
X119788157Y-57445666D01*
X119736637Y-57275827D01*
X119719241Y-57099200D01*
X119736637Y-56922573D01*
X119788157Y-56752734D01*
X119871822Y-56596209D01*
X119901152Y-56560471D01*
X119984414Y-56459014D01*
X120085871Y-56375752D01*
X120121609Y-56346422D01*
X120278134Y-56262757D01*
X120447973Y-56211237D01*
X120514158Y-56204718D01*
X120580340Y-56198200D01*
X120668860Y-56198200D01*
X120735042Y-56204718D01*
X120735042Y-56204718D01*
G37*
M02*
