M48
; DRILL file {KiCad (5.1.4)-1} date 11/9/2019 5:02:01 PM
; FORMAT={-:-/ absolute / inch / decimal}
; #@! TF.CreationDate,2019-11-09T17:02:01-05:00
; #@! TF.GenerationSoftware,Kicad,Pcbnew,(5.1.4)-1
; #@! TF.FileFunction,Plated,1,2,PTH
FMAT,2
INCH
T1C0.0130
T2C0.0394
T3C0.0866
%
G90
G05
T1
X3.434Y-2.904
X3.472Y-2.4575
X3.472Y-2.6335
X3.472Y-2.8095
X3.5325Y-2.8685
X3.548Y-2.7535
X3.5485Y-2.5525
X3.5485Y-2.6535
X3.581Y-2.409
X3.5955Y-2.891
X3.6135Y-2.971
X3.6265Y-2.2355
X3.666Y-2.8265
X3.6825Y-2.536
X3.6915Y-2.967
X3.6985Y-2.4435
X3.711Y-2.2905
X3.7215Y-2.6615
X3.7215Y-2.7007
X3.7215Y-2.7398
X3.7215Y-2.779
X3.722Y-2.831
X3.7465Y-2.9675
X3.7495Y-2.6075
X3.7495Y-2.8125
X3.792Y-2.489
X3.8025Y-2.2355
X3.8025Y-2.4195
X3.82Y-2.6075
X3.82Y-2.8115
X3.842Y-2.951
X3.856Y-2.661
X3.856Y-2.7002
X3.856Y-2.7393
X3.856Y-2.7785
X3.8665Y-2.594
X3.881Y-2.547
X3.8825Y-2.4185
X3.895Y-2.482
X3.907Y-2.288
X3.9115Y-2.952
X3.9785Y-2.2355
X4.0485Y-2.387
X4.094Y-2.345
X4.112Y-2.393
X4.113Y-2.47
X4.136Y-2.3305
X4.2115Y-2.331
X4.227Y-2.519
X4.235Y-2.712
X4.235Y-2.787
X4.2655Y-2.331
X4.3295Y-2.6495
X4.3735Y-2.8425
X4.4015Y-2.346
X4.436Y-2.367
X4.436Y-2.367
X4.4365Y-2.4175
X4.437Y-2.847
X4.4385Y-2.3165
X4.489Y-2.412
X4.4905Y-2.8465
X4.4945Y-2.888
X4.516Y-2.4455
X4.516Y-2.5191
X4.516Y-2.5927
X4.516Y-2.6663
X4.516Y-2.7399
X4.516Y-2.8135
X4.538Y-2.963
X4.59Y-2.4455
X4.59Y-2.5191
X4.59Y-2.5927
X4.59Y-2.6663
X4.59Y-2.7399
X4.59Y-2.8135
X4.5925Y-2.947
X4.664Y-2.4455
X4.664Y-2.5191
X4.664Y-2.5927
X4.664Y-2.6663
X4.664Y-2.7399
X4.664Y-2.8135
X4.705Y-2.948
X4.738Y-2.4455
X4.738Y-2.5191
X4.738Y-2.5927
X4.738Y-2.6663
X4.738Y-2.7399
X4.738Y-2.8135
X4.781Y-2.958
X4.8045Y-2.284
X4.812Y-2.4455
X4.812Y-2.5191
X4.812Y-2.5927
X4.812Y-2.6663
X4.812Y-2.7399
X4.812Y-2.8135
X4.817Y-2.3165
X4.832Y-2.9535
X4.886Y-2.4455
X4.886Y-2.5191
X4.886Y-2.5927
X4.886Y-2.6663
X4.886Y-2.7399
X4.886Y-2.8135
X4.9145Y-2.952
X4.9195Y-2.353
X4.9205Y-2.844
X4.9225Y-2.409
X4.957Y-2.894
X4.991Y-2.4055
X4.9945Y-2.357
X4.9965Y-2.951
X4.9975Y-2.845
X5.0365Y-2.4815
X5.0565Y-2.521
X5.059Y-2.437
X5.0875Y-2.859
X5.095Y-2.9925
X5.117Y-2.49
X5.1195Y-2.6135
X5.1275Y-2.8635
X5.144Y-2.437
X5.1455Y-2.545
X5.1495Y-2.987
X5.1715Y-2.864
X5.1945Y-2.614
X5.206Y-2.5115
X5.2105Y-2.463
X5.2115Y-2.2915
X5.2115Y-2.3405
X5.2145Y-3.005
X5.2165Y-2.9645
X5.2195Y-3.0545
X5.226Y-2.395
X5.2305Y-2.867
X5.2375Y-2.5625
X5.2445Y-2.233
X5.2715Y-2.9105
X5.2855Y-2.5115
X5.2865Y-2.613
X5.2885Y-2.436
X5.299Y-2.867
X5.3625Y-2.3605
X5.3625Y-2.4394
X5.3625Y-2.5184
X5.3625Y-2.5973
X5.3625Y-2.6762
X5.3625Y-2.7551
X5.3625Y-2.8341
X5.3625Y-2.913
T2
X4.1345Y-2.768
X3.595Y-2.704
X3.595Y-2.504
X3.649Y-3.048
X3.749Y-3.048
X3.849Y-3.048
X3.949Y-3.048
X4.049Y-3.048
X4.149Y-3.048
X4.249Y-3.048
X4.349Y-3.048
X4.449Y-3.048
X4.549Y-3.048
X4.649Y-3.048
X4.749Y-3.048
X4.849Y-3.048
X4.949Y-3.048
X5.049Y-3.048
X5.149Y-3.048
X4.049Y-2.248
X4.149Y-2.248
X4.249Y-2.248
X4.349Y-2.248
X4.449Y-2.248
X4.549Y-2.248
X4.649Y-2.248
X4.749Y-2.248
X4.849Y-2.248
X4.949Y-2.248
X5.049Y-2.248
X5.149Y-2.248
X4.1345Y-2.668
X3.595Y-2.604
X3.595Y-2.804
X4.1345Y-2.568
T3
X3.499Y-2.998
X3.499Y-2.298
T0
M30
