G04 #@! TF.GenerationSoftware,KiCad,Pcbnew,(5.1.4)-1*
G04 #@! TF.CreationDate,2019-11-09T17:02:04-05:00*
G04 #@! TF.ProjectId,Feather-SAM-M8Q-GPS,46656174-6865-4722-9d53-414d2d4d3851,rev?*
G04 #@! TF.SameCoordinates,Original*
G04 #@! TF.FileFunction,Drawing*
%FSLAX46Y46*%
G04 Gerber Fmt 4.6, Leading zero omitted, Abs format (unit mm)*
G04 Created by KiCad (PCBNEW (5.1.4)-1) date 2019-11-09 17:02:04*
%MOMM*%
%LPD*%
G04 APERTURE LIST*
%ADD10C,0.150000*%
G04 APERTURE END LIST*
D10*
X150618719Y-63687771D02*
X150618719Y-63116342D01*
X150618719Y-63402057D02*
X151618719Y-63402057D01*
X151475861Y-63306819D01*
X151380623Y-63211580D01*
X151333004Y-63116342D01*
X151618719Y-64021104D02*
X151618719Y-64687771D01*
X150618719Y-64259200D01*
X150713957Y-65068723D02*
X150666338Y-65116342D01*
X150618719Y-65068723D01*
X150666338Y-65021104D01*
X150713957Y-65068723D01*
X150618719Y-65068723D01*
X151618719Y-65449676D02*
X151618719Y-66116342D01*
X150618719Y-65687771D01*
X151190147Y-66640152D02*
X151237766Y-66544914D01*
X151285385Y-66497295D01*
X151380623Y-66449676D01*
X151428242Y-66449676D01*
X151523480Y-66497295D01*
X151571100Y-66544914D01*
X151618719Y-66640152D01*
X151618719Y-66830628D01*
X151571100Y-66925866D01*
X151523480Y-66973485D01*
X151428242Y-67021104D01*
X151380623Y-67021104D01*
X151285385Y-66973485D01*
X151237766Y-66925866D01*
X151190147Y-66830628D01*
X151190147Y-66640152D01*
X151142528Y-66544914D01*
X151094909Y-66497295D01*
X150999671Y-66449676D01*
X150809195Y-66449676D01*
X150713957Y-66497295D01*
X150666338Y-66544914D01*
X150618719Y-66640152D01*
X150618719Y-66830628D01*
X150666338Y-66925866D01*
X150713957Y-66973485D01*
X150809195Y-67021104D01*
X150999671Y-67021104D01*
X151094909Y-66973485D01*
X151142528Y-66925866D01*
X151190147Y-66830628D01*
X151618719Y-67640152D02*
X151618719Y-67735390D01*
X151571100Y-67830628D01*
X151523480Y-67878247D01*
X151428242Y-67925866D01*
X151237766Y-67973485D01*
X150999671Y-67973485D01*
X150809195Y-67925866D01*
X150713957Y-67878247D01*
X150666338Y-67830628D01*
X150618719Y-67735390D01*
X150618719Y-67640152D01*
X150666338Y-67544914D01*
X150713957Y-67497295D01*
X150809195Y-67449676D01*
X150999671Y-67402057D01*
X151237766Y-67402057D01*
X151428242Y-67449676D01*
X151523480Y-67497295D01*
X151571100Y-67544914D01*
X151618719Y-67640152D01*
X150618719Y-69163961D02*
X151285385Y-69163961D01*
X151190147Y-69163961D02*
X151237766Y-69211580D01*
X151285385Y-69306819D01*
X151285385Y-69449676D01*
X151237766Y-69544914D01*
X151142528Y-69592533D01*
X150618719Y-69592533D01*
X151142528Y-69592533D02*
X151237766Y-69640152D01*
X151285385Y-69735390D01*
X151285385Y-69878247D01*
X151237766Y-69973485D01*
X151142528Y-70021104D01*
X150618719Y-70021104D01*
X150618719Y-70497295D02*
X151285385Y-70497295D01*
X151190147Y-70497295D02*
X151237766Y-70544914D01*
X151285385Y-70640152D01*
X151285385Y-70783009D01*
X151237766Y-70878247D01*
X151142528Y-70925866D01*
X150618719Y-70925866D01*
X151142528Y-70925866D02*
X151237766Y-70973485D01*
X151285385Y-71068723D01*
X151285385Y-71211580D01*
X151237766Y-71306819D01*
X151142528Y-71354438D01*
X150618719Y-71354438D01*
X149771100Y-58369200D02*
X149771100Y-76149200D01*
X137134600Y-58369200D02*
X150357521Y-58369200D01*
X137134600Y-76149200D02*
X150357521Y-76149200D01*
X149771100Y-76149200D02*
X149184679Y-75022696D01*
X149771100Y-76149200D02*
X150357521Y-75022696D01*
X149771100Y-58369200D02*
X149184679Y-59495704D01*
X149771100Y-58369200D02*
X150357521Y-59495704D01*
X108115552Y-42653180D02*
X107639361Y-42653180D01*
X107591742Y-43129371D01*
X107639361Y-43081752D01*
X107734600Y-43034133D01*
X107972695Y-43034133D01*
X108067933Y-43081752D01*
X108115552Y-43129371D01*
X108163171Y-43224609D01*
X108163171Y-43462704D01*
X108115552Y-43557942D01*
X108067933Y-43605561D01*
X107972695Y-43653180D01*
X107734600Y-43653180D01*
X107639361Y-43605561D01*
X107591742Y-43557942D01*
X108782219Y-42653180D02*
X108877457Y-42653180D01*
X108972695Y-42700800D01*
X109020314Y-42748419D01*
X109067933Y-42843657D01*
X109115552Y-43034133D01*
X109115552Y-43272228D01*
X109067933Y-43462704D01*
X109020314Y-43557942D01*
X108972695Y-43605561D01*
X108877457Y-43653180D01*
X108782219Y-43653180D01*
X108686980Y-43605561D01*
X108639361Y-43557942D01*
X108591742Y-43462704D01*
X108544123Y-43272228D01*
X108544123Y-43034133D01*
X108591742Y-42843657D01*
X108639361Y-42748419D01*
X108686980Y-42700800D01*
X108782219Y-42653180D01*
X109544123Y-43557942D02*
X109591742Y-43605561D01*
X109544123Y-43653180D01*
X109496504Y-43605561D01*
X109544123Y-43557942D01*
X109544123Y-43653180D01*
X110163171Y-43081752D02*
X110067933Y-43034133D01*
X110020314Y-42986514D01*
X109972695Y-42891276D01*
X109972695Y-42843657D01*
X110020314Y-42748419D01*
X110067933Y-42700800D01*
X110163171Y-42653180D01*
X110353647Y-42653180D01*
X110448885Y-42700800D01*
X110496504Y-42748419D01*
X110544123Y-42843657D01*
X110544123Y-42891276D01*
X110496504Y-42986514D01*
X110448885Y-43034133D01*
X110353647Y-43081752D01*
X110163171Y-43081752D01*
X110067933Y-43129371D01*
X110020314Y-43176990D01*
X109972695Y-43272228D01*
X109972695Y-43462704D01*
X110020314Y-43557942D01*
X110067933Y-43605561D01*
X110163171Y-43653180D01*
X110353647Y-43653180D01*
X110448885Y-43605561D01*
X110496504Y-43557942D01*
X110544123Y-43462704D01*
X110544123Y-43272228D01*
X110496504Y-43176990D01*
X110448885Y-43129371D01*
X110353647Y-43081752D01*
X111163171Y-42653180D02*
X111258409Y-42653180D01*
X111353647Y-42700800D01*
X111401266Y-42748419D01*
X111448885Y-42843657D01*
X111496504Y-43034133D01*
X111496504Y-43272228D01*
X111448885Y-43462704D01*
X111401266Y-43557942D01*
X111353647Y-43605561D01*
X111258409Y-43653180D01*
X111163171Y-43653180D01*
X111067933Y-43605561D01*
X111020314Y-43557942D01*
X110972695Y-43462704D01*
X110925076Y-43272228D01*
X110925076Y-43034133D01*
X110972695Y-42843657D01*
X111020314Y-42748419D01*
X111067933Y-42700800D01*
X111163171Y-42653180D01*
X112115552Y-42653180D02*
X112210790Y-42653180D01*
X112306028Y-42700800D01*
X112353647Y-42748419D01*
X112401266Y-42843657D01*
X112448885Y-43034133D01*
X112448885Y-43272228D01*
X112401266Y-43462704D01*
X112353647Y-43557942D01*
X112306028Y-43605561D01*
X112210790Y-43653180D01*
X112115552Y-43653180D01*
X112020314Y-43605561D01*
X111972695Y-43557942D01*
X111925076Y-43462704D01*
X111877457Y-43272228D01*
X111877457Y-43034133D01*
X111925076Y-42843657D01*
X111972695Y-42748419D01*
X112020314Y-42700800D01*
X112115552Y-42653180D01*
X113639361Y-43653180D02*
X113639361Y-42986514D01*
X113639361Y-43081752D02*
X113686980Y-43034133D01*
X113782219Y-42986514D01*
X113925076Y-42986514D01*
X114020314Y-43034133D01*
X114067933Y-43129371D01*
X114067933Y-43653180D01*
X114067933Y-43129371D02*
X114115552Y-43034133D01*
X114210790Y-42986514D01*
X114353647Y-42986514D01*
X114448885Y-43034133D01*
X114496504Y-43129371D01*
X114496504Y-43653180D01*
X114972695Y-43653180D02*
X114972695Y-42986514D01*
X114972695Y-43081752D02*
X115020314Y-43034133D01*
X115115552Y-42986514D01*
X115258409Y-42986514D01*
X115353647Y-43034133D01*
X115401266Y-43129371D01*
X115401266Y-43653180D01*
X115401266Y-43129371D02*
X115448885Y-43034133D01*
X115544123Y-42986514D01*
X115686980Y-42986514D01*
X115782219Y-43034133D01*
X115829838Y-43129371D01*
X115829838Y-43653180D01*
X137134600Y-44500800D02*
X86334600Y-44500800D01*
X137134600Y-58369200D02*
X137134600Y-43914379D01*
X86334600Y-58369200D02*
X86334600Y-43914379D01*
X86334600Y-44500800D02*
X87461104Y-43914379D01*
X86334600Y-44500800D02*
X87461104Y-45087221D01*
X137134600Y-44500800D02*
X136008096Y-43914379D01*
X137134600Y-44500800D02*
X136008096Y-45087221D01*
M02*
